%TF.GenerationSoftware,KiCad,Pcbnew,8.0.8*%
%TF.CreationDate,2025-07-04T19:36:45+02:00*%
%TF.ProjectId,LaunchControl,4c61756e-6368-4436-9f6e-74726f6c2e6b,rev?*%
%TF.SameCoordinates,Original*%
%TF.FileFunction,Drillmap*%
%TF.FilePolarity,Positive*%
%FSLAX45Y45*%
G04 Gerber Fmt 4.5, Leading zero omitted, Abs format (unit mm)*
G04 Created by KiCad (PCBNEW 8.0.8) date 2025-07-04 19:36:45*
%MOMM*%
%LPD*%
G01*
G04 APERTURE LIST*
%ADD10C,0.050000*%
%ADD11C,0.200000*%
%ADD12C,0.100000*%
%ADD13C,0.130000*%
%ADD14C,0.160000*%
G04 APERTURE END LIST*
D10*
X16595000Y-4330000D02*
G75*
G02*
X16282590Y-4330000I-156205J0D01*
G01*
X16282590Y-4330000D02*
G75*
G02*
X16595000Y-4330000I156205J0D01*
G01*
X16606508Y-8380000D02*
G75*
G02*
X16273492Y-8380000I-166508J0D01*
G01*
X16273492Y-8380000D02*
G75*
G02*
X16606508Y-8380000I166508J0D01*
G01*
X10795000Y-3830000D02*
X16940000Y-3830000D01*
X16940000Y-8875000D01*
X10795000Y-8875000D01*
X10795000Y-3830000D01*
X11458248Y-6355000D02*
G75*
G02*
X11131752Y-6355000I-163248J0D01*
G01*
X11131752Y-6355000D02*
G75*
G02*
X11458248Y-6355000I163248J0D01*
G01*
D11*
D12*
X12272220Y-5232220D02*
X12307780Y-5267780D01*
X12307780Y-5232220D02*
X12272220Y-5267780D01*
X12292220Y-4082220D02*
X12327780Y-4117780D01*
X12327780Y-4082220D02*
X12292220Y-4117780D01*
X12402220Y-4972220D02*
X12437780Y-5007780D01*
X12437780Y-4972220D02*
X12402220Y-5007780D01*
X12452220Y-6552220D02*
X12487780Y-6587780D01*
X12487780Y-6552220D02*
X12452220Y-6587780D01*
X12702220Y-7162220D02*
X12737780Y-7197780D01*
X12737780Y-7162220D02*
X12702220Y-7197780D01*
X12792220Y-8202220D02*
X12827780Y-8237780D01*
X12827780Y-8202220D02*
X12792220Y-8237780D01*
X12982220Y-5202220D02*
X13017780Y-5237780D01*
X13017780Y-5202220D02*
X12982220Y-5237780D01*
X13082220Y-4882220D02*
X13117780Y-4917780D01*
X13117780Y-4882220D02*
X13082220Y-4917780D01*
X13092220Y-4662220D02*
X13127780Y-4697780D01*
X13127780Y-4662220D02*
X13092220Y-4697780D01*
X13342220Y-4672220D02*
X13377780Y-4707780D01*
X13377780Y-4672220D02*
X13342220Y-4707780D01*
X13362220Y-4922220D02*
X13397780Y-4957780D01*
X13397780Y-4922220D02*
X13362220Y-4957780D01*
X13442220Y-4222220D02*
X13477780Y-4257780D01*
X13477780Y-4222220D02*
X13442220Y-4257780D01*
X13452220Y-4362220D02*
X13487780Y-4397780D01*
X13487780Y-4362220D02*
X13452220Y-4397780D01*
X13452220Y-4572220D02*
X13487780Y-4607780D01*
X13487780Y-4572220D02*
X13452220Y-4607780D01*
X13452220Y-4772220D02*
X13487780Y-4807780D01*
X13487780Y-4772220D02*
X13452220Y-4807780D01*
X13512220Y-4922220D02*
X13547780Y-4957780D01*
X13547780Y-4922220D02*
X13512220Y-4957780D01*
X13632220Y-4222220D02*
X13667780Y-4257780D01*
X13667780Y-4222220D02*
X13632220Y-4257780D01*
X13652220Y-4922220D02*
X13687780Y-4957780D01*
X13687780Y-4922220D02*
X13652220Y-4957780D01*
X13652220Y-6222220D02*
X13687780Y-6257780D01*
X13687780Y-6222220D02*
X13652220Y-6257780D01*
X13672220Y-5282220D02*
X13707780Y-5317780D01*
X13707780Y-5282220D02*
X13672220Y-5317780D01*
X13702220Y-5602220D02*
X13737780Y-5637780D01*
X13737780Y-5602220D02*
X13702220Y-5637780D01*
X13802220Y-4922220D02*
X13837780Y-4957780D01*
X13837780Y-4922220D02*
X13802220Y-4957780D01*
X13812220Y-6002220D02*
X13847780Y-6037780D01*
X13847780Y-6002220D02*
X13812220Y-6037780D01*
X13832220Y-4222220D02*
X13867780Y-4257780D01*
X13867780Y-4222220D02*
X13832220Y-4257780D01*
X13912220Y-5762220D02*
X13947780Y-5797780D01*
X13947780Y-5762220D02*
X13912220Y-5797780D01*
X13942220Y-4922220D02*
X13977780Y-4957780D01*
X13977780Y-4922220D02*
X13942220Y-4957780D01*
X14002220Y-6822220D02*
X14037780Y-6857780D01*
X14037780Y-6822220D02*
X14002220Y-6857780D01*
X14042220Y-4222220D02*
X14077780Y-4257780D01*
X14077780Y-4222220D02*
X14042220Y-4257780D01*
X14102220Y-4922220D02*
X14137780Y-4957780D01*
X14137780Y-4922220D02*
X14102220Y-4957780D01*
X14152220Y-4382220D02*
X14187780Y-4417780D01*
X14187780Y-4382220D02*
X14152220Y-4417780D01*
X14152220Y-4572220D02*
X14187780Y-4607780D01*
X14187780Y-4572220D02*
X14152220Y-4607780D01*
X14152220Y-4782220D02*
X14187780Y-4817780D01*
X14187780Y-4782220D02*
X14152220Y-4817780D01*
X14242220Y-4222220D02*
X14277780Y-4257780D01*
X14277780Y-4222220D02*
X14242220Y-4257780D01*
X14242220Y-4472220D02*
X14277780Y-4507780D01*
X14277780Y-4472220D02*
X14242220Y-4507780D01*
X14242220Y-4672220D02*
X14277780Y-4707780D01*
X14277780Y-4672220D02*
X14242220Y-4707780D01*
X14242220Y-4922220D02*
X14277780Y-4957780D01*
X14277780Y-4922220D02*
X14242220Y-4957780D01*
X14622220Y-5072220D02*
X14657780Y-5107780D01*
X14657780Y-5072220D02*
X14622220Y-5107780D01*
X15242220Y-7532220D02*
X15277780Y-7567780D01*
X15277780Y-7532220D02*
X15242220Y-7567780D01*
X15322220Y-6362220D02*
X15357780Y-6397780D01*
X15357780Y-6362220D02*
X15322220Y-6397780D01*
X15342220Y-7752220D02*
X15377780Y-7787780D01*
X15377780Y-7752220D02*
X15342220Y-7787780D01*
X15382220Y-8362220D02*
X15417780Y-8397780D01*
X15417780Y-8362220D02*
X15382220Y-8397780D01*
X15382220Y-8522220D02*
X15417780Y-8557780D01*
X15417780Y-8522220D02*
X15382220Y-8557780D01*
X15382220Y-8672220D02*
X15417780Y-8707780D01*
X15417780Y-8672220D02*
X15382220Y-8707780D01*
X15512220Y-8212220D02*
X15547780Y-8247780D01*
X15547780Y-8212220D02*
X15512220Y-8247780D01*
X15522220Y-4572220D02*
X15557780Y-4607780D01*
X15557780Y-4572220D02*
X15522220Y-4607780D01*
X15552220Y-5432220D02*
X15587780Y-5467780D01*
X15587780Y-5432220D02*
X15552220Y-5467780D01*
X15552220Y-5872220D02*
X15587780Y-5907780D01*
X15587780Y-5872220D02*
X15552220Y-5907780D01*
X15672220Y-8212220D02*
X15707780Y-8247780D01*
X15707780Y-8212220D02*
X15672220Y-8247780D01*
X15782220Y-6372220D02*
X15817780Y-6407780D01*
X15817780Y-6372220D02*
X15782220Y-6407780D01*
X15832220Y-8212220D02*
X15867780Y-8247780D01*
X15867780Y-8212220D02*
X15832220Y-8247780D01*
X15902220Y-5632220D02*
X15937780Y-5667780D01*
X15937780Y-5632220D02*
X15902220Y-5667780D01*
X15922220Y-4902220D02*
X15957780Y-4937780D01*
X15957780Y-4902220D02*
X15922220Y-4937780D01*
X15942220Y-4782220D02*
X15977780Y-4817780D01*
X15977780Y-4782220D02*
X15942220Y-4817780D01*
X15962220Y-8362220D02*
X15997780Y-8397780D01*
X15997780Y-8362220D02*
X15962220Y-8397780D01*
X15962220Y-8532220D02*
X15997780Y-8567780D01*
X15997780Y-8532220D02*
X15962220Y-8567780D01*
X15962220Y-8672220D02*
X15997780Y-8707780D01*
X15997780Y-8672220D02*
X15962220Y-8707780D01*
X15982220Y-5042220D02*
X16017780Y-5077780D01*
X16017780Y-5042220D02*
X15982220Y-5077780D01*
X15982220Y-5702220D02*
X16017780Y-5737780D01*
X16017780Y-5702220D02*
X15982220Y-5737780D01*
X15992220Y-5492220D02*
X16027780Y-5527780D01*
X16027780Y-5492220D02*
X15992220Y-5527780D01*
X16239500Y-4858000D02*
G75*
G02*
X16179500Y-4858000I-30000J0D01*
G01*
X16179500Y-4858000D02*
G75*
G02*
X16239500Y-4858000I30000J0D01*
G01*
X16154500Y-4888000D02*
X16264500Y-4888000D01*
X16264500Y-4828000D02*
G75*
G02*
X16264500Y-4888000I0J-30000D01*
G01*
X16264500Y-4828000D02*
X16154500Y-4828000D01*
X16154500Y-4828000D02*
G75*
G03*
X16154500Y-4888000I0J-30000D01*
G01*
X16239500Y-5722000D02*
G75*
G02*
X16179500Y-5722000I-30000J0D01*
G01*
X16179500Y-5722000D02*
G75*
G02*
X16239500Y-5722000I30000J0D01*
G01*
X16154500Y-5752000D02*
X16264500Y-5752000D01*
X16264500Y-5692000D02*
G75*
G02*
X16264500Y-5752000I0J-30000D01*
G01*
X16264500Y-5692000D02*
X16154500Y-5692000D01*
X16154500Y-5692000D02*
G75*
G03*
X16154500Y-5752000I0J-30000D01*
G01*
X16657500Y-4858000D02*
G75*
G02*
X16597500Y-4858000I-30000J0D01*
G01*
X16597500Y-4858000D02*
G75*
G02*
X16657500Y-4858000I30000J0D01*
G01*
X16587500Y-4888000D02*
X16667500Y-4888000D01*
X16667500Y-4828000D02*
G75*
G02*
X16667500Y-4888000I0J-30000D01*
G01*
X16667500Y-4828000D02*
X16587500Y-4828000D01*
X16587500Y-4828000D02*
G75*
G03*
X16587500Y-4888000I0J-30000D01*
G01*
X16657500Y-5722000D02*
G75*
G02*
X16597500Y-5722000I-30000J0D01*
G01*
X16597500Y-5722000D02*
G75*
G02*
X16657500Y-5722000I30000J0D01*
G01*
X16587500Y-5752000D02*
X16667500Y-5752000D01*
X16667500Y-5692000D02*
G75*
G02*
X16667500Y-5752000I0J-30000D01*
G01*
X16667500Y-5692000D02*
X16587500Y-5692000D01*
X16587500Y-5692000D02*
G75*
G03*
X16587500Y-5752000I0J-30000D01*
G01*
X11460000Y-4210000D02*
X11460000Y-4290000D01*
X11420000Y-4250000D02*
X11500000Y-4250000D01*
X11660000Y-4210000D02*
X11660000Y-4290000D01*
X11620000Y-4250000D02*
X11700000Y-4250000D01*
X11860000Y-4210000D02*
X11860000Y-4290000D01*
X11820000Y-4250000D02*
X11900000Y-4250000D01*
X13250000Y-6380000D02*
X13250000Y-6460000D01*
X13210000Y-6420000D02*
X13290000Y-6420000D01*
X13250000Y-6580000D02*
X13250000Y-6660000D01*
X13210000Y-6620000D02*
X13290000Y-6620000D01*
X13450000Y-6380000D02*
X13450000Y-6460000D01*
X13410000Y-6420000D02*
X13490000Y-6420000D01*
X13450000Y-6580000D02*
X13450000Y-6660000D01*
X13410000Y-6620000D02*
X13490000Y-6620000D01*
X13650000Y-6380000D02*
X13650000Y-6460000D01*
X13610000Y-6420000D02*
X13690000Y-6420000D01*
X13650000Y-6580000D02*
X13650000Y-6660000D01*
X13610000Y-6620000D02*
X13690000Y-6620000D01*
X13850000Y-6580000D02*
X13850000Y-6660000D01*
X13810000Y-6620000D02*
X13890000Y-6620000D01*
X13850000Y-6380000D02*
X13850000Y-6460000D01*
X13810000Y-6420000D02*
X13890000Y-6420000D01*
X14050000Y-6380000D02*
X14050000Y-6460000D01*
X14010000Y-6420000D02*
X14090000Y-6420000D01*
X14050000Y-6580000D02*
X14050000Y-6660000D01*
X14010000Y-6620000D02*
X14090000Y-6620000D01*
X14250000Y-6380000D02*
X14250000Y-6460000D01*
X14210000Y-6420000D02*
X14290000Y-6420000D01*
X14250000Y-6580000D02*
X14250000Y-6660000D01*
X14210000Y-6620000D02*
X14290000Y-6620000D01*
X11655356Y-7527356D02*
X11655356Y-7456644D01*
X11584644Y-7456644D01*
X11584644Y-7527356D01*
X11655356Y-7527356D01*
X11655356Y-7781356D02*
X11655356Y-7710644D01*
X11584644Y-7710644D01*
X11584644Y-7781356D01*
X11655356Y-7781356D01*
X11655356Y-8035356D02*
X11655356Y-7964644D01*
X11584644Y-7964644D01*
X11584644Y-8035356D01*
X11655356Y-8035356D01*
X15005356Y-5531356D02*
X15005356Y-5460644D01*
X14934644Y-5460644D01*
X14934644Y-5531356D01*
X15005356Y-5531356D01*
X15005356Y-5785356D02*
X15005356Y-5714644D01*
X14934644Y-5714644D01*
X14934644Y-5785356D01*
X15005356Y-5785356D01*
D13*
X12280000Y-7215000D02*
X12345000Y-7150000D01*
X12280000Y-7085000D01*
X12215000Y-7150000D01*
X12280000Y-7215000D01*
X12280000Y-8415000D02*
X12345000Y-8350000D01*
X12280000Y-8285000D01*
X12215000Y-8350000D01*
X12280000Y-8415000D01*
X13500000Y-7215000D02*
X13565000Y-7150000D01*
X13500000Y-7085000D01*
X13435000Y-7150000D01*
X13500000Y-7215000D01*
X13500000Y-8415000D02*
X13565000Y-8350000D01*
X13500000Y-8285000D01*
X13435000Y-8350000D01*
X13500000Y-8415000D01*
X13700000Y-7815000D02*
X13765000Y-7750000D01*
X13700000Y-7685000D01*
X13635000Y-7750000D01*
X13700000Y-7815000D01*
D14*
X14300000Y-6936000D02*
X14460000Y-7096000D01*
X14460000Y-6936000D02*
X14300000Y-7096000D01*
X14460000Y-7016000D02*
G75*
G02*
X14300000Y-7016000I-80000J0D01*
G01*
X14300000Y-7016000D02*
G75*
G02*
X14460000Y-7016000I80000J0D01*
G01*
X14300000Y-8460000D02*
X14460000Y-8620000D01*
X14460000Y-8460000D02*
X14300000Y-8620000D01*
X14460000Y-8540000D02*
G75*
G02*
X14300000Y-8540000I-80000J0D01*
G01*
X14300000Y-8540000D02*
G75*
G02*
X14460000Y-8540000I80000J0D01*
G01*
D11*
X11053277Y-9188984D02*
X11053277Y-8988984D01*
X11053277Y-8988984D02*
X11100896Y-8988984D01*
X11100896Y-8988984D02*
X11129467Y-8998508D01*
X11129467Y-8998508D02*
X11148515Y-9017555D01*
X11148515Y-9017555D02*
X11158039Y-9036603D01*
X11158039Y-9036603D02*
X11167563Y-9074698D01*
X11167563Y-9074698D02*
X11167563Y-9103270D01*
X11167563Y-9103270D02*
X11158039Y-9141365D01*
X11158039Y-9141365D02*
X11148515Y-9160412D01*
X11148515Y-9160412D02*
X11129467Y-9179460D01*
X11129467Y-9179460D02*
X11100896Y-9188984D01*
X11100896Y-9188984D02*
X11053277Y-9188984D01*
X11253277Y-9188984D02*
X11253277Y-9055650D01*
X11253277Y-9093746D02*
X11262801Y-9074698D01*
X11262801Y-9074698D02*
X11272324Y-9065174D01*
X11272324Y-9065174D02*
X11291372Y-9055650D01*
X11291372Y-9055650D02*
X11310420Y-9055650D01*
X11377086Y-9188984D02*
X11377086Y-9055650D01*
X11377086Y-8988984D02*
X11367562Y-8998508D01*
X11367562Y-8998508D02*
X11377086Y-9008031D01*
X11377086Y-9008031D02*
X11386610Y-8998508D01*
X11386610Y-8998508D02*
X11377086Y-8988984D01*
X11377086Y-8988984D02*
X11377086Y-9008031D01*
X11500896Y-9188984D02*
X11481848Y-9179460D01*
X11481848Y-9179460D02*
X11472324Y-9160412D01*
X11472324Y-9160412D02*
X11472324Y-8988984D01*
X11605658Y-9188984D02*
X11586610Y-9179460D01*
X11586610Y-9179460D02*
X11577086Y-9160412D01*
X11577086Y-9160412D02*
X11577086Y-8988984D01*
X11834229Y-9188984D02*
X11834229Y-8988984D01*
X11834229Y-8988984D02*
X11900896Y-9131841D01*
X11900896Y-9131841D02*
X11967562Y-8988984D01*
X11967562Y-8988984D02*
X11967562Y-9188984D01*
X12148515Y-9188984D02*
X12148515Y-9084222D01*
X12148515Y-9084222D02*
X12138991Y-9065174D01*
X12138991Y-9065174D02*
X12119943Y-9055650D01*
X12119943Y-9055650D02*
X12081848Y-9055650D01*
X12081848Y-9055650D02*
X12062801Y-9065174D01*
X12148515Y-9179460D02*
X12129467Y-9188984D01*
X12129467Y-9188984D02*
X12081848Y-9188984D01*
X12081848Y-9188984D02*
X12062801Y-9179460D01*
X12062801Y-9179460D02*
X12053277Y-9160412D01*
X12053277Y-9160412D02*
X12053277Y-9141365D01*
X12053277Y-9141365D02*
X12062801Y-9122317D01*
X12062801Y-9122317D02*
X12081848Y-9112793D01*
X12081848Y-9112793D02*
X12129467Y-9112793D01*
X12129467Y-9112793D02*
X12148515Y-9103270D01*
X12243753Y-9055650D02*
X12243753Y-9255650D01*
X12243753Y-9065174D02*
X12262801Y-9055650D01*
X12262801Y-9055650D02*
X12300896Y-9055650D01*
X12300896Y-9055650D02*
X12319943Y-9065174D01*
X12319943Y-9065174D02*
X12329467Y-9074698D01*
X12329467Y-9074698D02*
X12338991Y-9093746D01*
X12338991Y-9093746D02*
X12338991Y-9150889D01*
X12338991Y-9150889D02*
X12329467Y-9169936D01*
X12329467Y-9169936D02*
X12319943Y-9179460D01*
X12319943Y-9179460D02*
X12300896Y-9188984D01*
X12300896Y-9188984D02*
X12262801Y-9188984D01*
X12262801Y-9188984D02*
X12243753Y-9179460D01*
X12424705Y-9169936D02*
X12434229Y-9179460D01*
X12434229Y-9179460D02*
X12424705Y-9188984D01*
X12424705Y-9188984D02*
X12415182Y-9179460D01*
X12415182Y-9179460D02*
X12424705Y-9169936D01*
X12424705Y-9169936D02*
X12424705Y-9188984D01*
X12424705Y-9065174D02*
X12434229Y-9074698D01*
X12434229Y-9074698D02*
X12424705Y-9084222D01*
X12424705Y-9084222D02*
X12415182Y-9074698D01*
X12415182Y-9074698D02*
X12424705Y-9065174D01*
X12424705Y-9065174D02*
X12424705Y-9084222D01*
D12*
X10756940Y-9499720D02*
X10792500Y-9535280D01*
X10792500Y-9499720D02*
X10756940Y-9535280D01*
D11*
X11091372Y-9408984D02*
X11110420Y-9408984D01*
X11110420Y-9408984D02*
X11129467Y-9418508D01*
X11129467Y-9418508D02*
X11138991Y-9428031D01*
X11138991Y-9428031D02*
X11148515Y-9447079D01*
X11148515Y-9447079D02*
X11158039Y-9485174D01*
X11158039Y-9485174D02*
X11158039Y-9532793D01*
X11158039Y-9532793D02*
X11148515Y-9570889D01*
X11148515Y-9570889D02*
X11138991Y-9589936D01*
X11138991Y-9589936D02*
X11129467Y-9599460D01*
X11129467Y-9599460D02*
X11110420Y-9608984D01*
X11110420Y-9608984D02*
X11091372Y-9608984D01*
X11091372Y-9608984D02*
X11072324Y-9599460D01*
X11072324Y-9599460D02*
X11062801Y-9589936D01*
X11062801Y-9589936D02*
X11053277Y-9570889D01*
X11053277Y-9570889D02*
X11043753Y-9532793D01*
X11043753Y-9532793D02*
X11043753Y-9485174D01*
X11043753Y-9485174D02*
X11053277Y-9447079D01*
X11053277Y-9447079D02*
X11062801Y-9428031D01*
X11062801Y-9428031D02*
X11072324Y-9418508D01*
X11072324Y-9418508D02*
X11091372Y-9408984D01*
X11243753Y-9589936D02*
X11253277Y-9599460D01*
X11253277Y-9599460D02*
X11243753Y-9608984D01*
X11243753Y-9608984D02*
X11234229Y-9599460D01*
X11234229Y-9599460D02*
X11243753Y-9589936D01*
X11243753Y-9589936D02*
X11243753Y-9608984D01*
X11319943Y-9408984D02*
X11443753Y-9408984D01*
X11443753Y-9408984D02*
X11377086Y-9485174D01*
X11377086Y-9485174D02*
X11405658Y-9485174D01*
X11405658Y-9485174D02*
X11424705Y-9494698D01*
X11424705Y-9494698D02*
X11434229Y-9504222D01*
X11434229Y-9504222D02*
X11443753Y-9523270D01*
X11443753Y-9523270D02*
X11443753Y-9570889D01*
X11443753Y-9570889D02*
X11434229Y-9589936D01*
X11434229Y-9589936D02*
X11424705Y-9599460D01*
X11424705Y-9599460D02*
X11405658Y-9608984D01*
X11405658Y-9608984D02*
X11348515Y-9608984D01*
X11348515Y-9608984D02*
X11329467Y-9599460D01*
X11329467Y-9599460D02*
X11319943Y-9589936D01*
X11624705Y-9408984D02*
X11529467Y-9408984D01*
X11529467Y-9408984D02*
X11519943Y-9504222D01*
X11519943Y-9504222D02*
X11529467Y-9494698D01*
X11529467Y-9494698D02*
X11548515Y-9485174D01*
X11548515Y-9485174D02*
X11596134Y-9485174D01*
X11596134Y-9485174D02*
X11615182Y-9494698D01*
X11615182Y-9494698D02*
X11624705Y-9504222D01*
X11624705Y-9504222D02*
X11634229Y-9523270D01*
X11634229Y-9523270D02*
X11634229Y-9570889D01*
X11634229Y-9570889D02*
X11624705Y-9589936D01*
X11624705Y-9589936D02*
X11615182Y-9599460D01*
X11615182Y-9599460D02*
X11596134Y-9608984D01*
X11596134Y-9608984D02*
X11548515Y-9608984D01*
X11548515Y-9608984D02*
X11529467Y-9599460D01*
X11529467Y-9599460D02*
X11519943Y-9589936D01*
X11805658Y-9408984D02*
X11767562Y-9408984D01*
X11767562Y-9408984D02*
X11748515Y-9418508D01*
X11748515Y-9418508D02*
X11738991Y-9428031D01*
X11738991Y-9428031D02*
X11719943Y-9456603D01*
X11719943Y-9456603D02*
X11710420Y-9494698D01*
X11710420Y-9494698D02*
X11710420Y-9570889D01*
X11710420Y-9570889D02*
X11719943Y-9589936D01*
X11719943Y-9589936D02*
X11729467Y-9599460D01*
X11729467Y-9599460D02*
X11748515Y-9608984D01*
X11748515Y-9608984D02*
X11786610Y-9608984D01*
X11786610Y-9608984D02*
X11805658Y-9599460D01*
X11805658Y-9599460D02*
X11815182Y-9589936D01*
X11815182Y-9589936D02*
X11824705Y-9570889D01*
X11824705Y-9570889D02*
X11824705Y-9523270D01*
X11824705Y-9523270D02*
X11815182Y-9504222D01*
X11815182Y-9504222D02*
X11805658Y-9494698D01*
X11805658Y-9494698D02*
X11786610Y-9485174D01*
X11786610Y-9485174D02*
X11748515Y-9485174D01*
X11748515Y-9485174D02*
X11729467Y-9494698D01*
X11729467Y-9494698D02*
X11719943Y-9504222D01*
X11719943Y-9504222D02*
X11710420Y-9523270D01*
X11910420Y-9608984D02*
X11910420Y-9475650D01*
X11910420Y-9494698D02*
X11919943Y-9485174D01*
X11919943Y-9485174D02*
X11938991Y-9475650D01*
X11938991Y-9475650D02*
X11967563Y-9475650D01*
X11967563Y-9475650D02*
X11986610Y-9485174D01*
X11986610Y-9485174D02*
X11996134Y-9504222D01*
X11996134Y-9504222D02*
X11996134Y-9608984D01*
X11996134Y-9504222D02*
X12005658Y-9485174D01*
X12005658Y-9485174D02*
X12024705Y-9475650D01*
X12024705Y-9475650D02*
X12053277Y-9475650D01*
X12053277Y-9475650D02*
X12072324Y-9485174D01*
X12072324Y-9485174D02*
X12081848Y-9504222D01*
X12081848Y-9504222D02*
X12081848Y-9608984D01*
X12177086Y-9608984D02*
X12177086Y-9475650D01*
X12177086Y-9494698D02*
X12186610Y-9485174D01*
X12186610Y-9485174D02*
X12205658Y-9475650D01*
X12205658Y-9475650D02*
X12234229Y-9475650D01*
X12234229Y-9475650D02*
X12253277Y-9485174D01*
X12253277Y-9485174D02*
X12262801Y-9504222D01*
X12262801Y-9504222D02*
X12262801Y-9608984D01*
X12262801Y-9504222D02*
X12272324Y-9485174D01*
X12272324Y-9485174D02*
X12291372Y-9475650D01*
X12291372Y-9475650D02*
X12319943Y-9475650D01*
X12319943Y-9475650D02*
X12338991Y-9485174D01*
X12338991Y-9485174D02*
X12348515Y-9504222D01*
X12348515Y-9504222D02*
X12348515Y-9608984D01*
X12738991Y-9399460D02*
X12567563Y-9656603D01*
X12996134Y-9408984D02*
X13015182Y-9408984D01*
X13015182Y-9408984D02*
X13034229Y-9418508D01*
X13034229Y-9418508D02*
X13043753Y-9428031D01*
X13043753Y-9428031D02*
X13053277Y-9447079D01*
X13053277Y-9447079D02*
X13062801Y-9485174D01*
X13062801Y-9485174D02*
X13062801Y-9532793D01*
X13062801Y-9532793D02*
X13053277Y-9570889D01*
X13053277Y-9570889D02*
X13043753Y-9589936D01*
X13043753Y-9589936D02*
X13034229Y-9599460D01*
X13034229Y-9599460D02*
X13015182Y-9608984D01*
X13015182Y-9608984D02*
X12996134Y-9608984D01*
X12996134Y-9608984D02*
X12977086Y-9599460D01*
X12977086Y-9599460D02*
X12967563Y-9589936D01*
X12967563Y-9589936D02*
X12958039Y-9570889D01*
X12958039Y-9570889D02*
X12948515Y-9532793D01*
X12948515Y-9532793D02*
X12948515Y-9485174D01*
X12948515Y-9485174D02*
X12958039Y-9447079D01*
X12958039Y-9447079D02*
X12967563Y-9428031D01*
X12967563Y-9428031D02*
X12977086Y-9418508D01*
X12977086Y-9418508D02*
X12996134Y-9408984D01*
X13148515Y-9589936D02*
X13158039Y-9599460D01*
X13158039Y-9599460D02*
X13148515Y-9608984D01*
X13148515Y-9608984D02*
X13138991Y-9599460D01*
X13138991Y-9599460D02*
X13148515Y-9589936D01*
X13148515Y-9589936D02*
X13148515Y-9608984D01*
X13281848Y-9408984D02*
X13300896Y-9408984D01*
X13300896Y-9408984D02*
X13319944Y-9418508D01*
X13319944Y-9418508D02*
X13329467Y-9428031D01*
X13329467Y-9428031D02*
X13338991Y-9447079D01*
X13338991Y-9447079D02*
X13348515Y-9485174D01*
X13348515Y-9485174D02*
X13348515Y-9532793D01*
X13348515Y-9532793D02*
X13338991Y-9570889D01*
X13338991Y-9570889D02*
X13329467Y-9589936D01*
X13329467Y-9589936D02*
X13319944Y-9599460D01*
X13319944Y-9599460D02*
X13300896Y-9608984D01*
X13300896Y-9608984D02*
X13281848Y-9608984D01*
X13281848Y-9608984D02*
X13262801Y-9599460D01*
X13262801Y-9599460D02*
X13253277Y-9589936D01*
X13253277Y-9589936D02*
X13243753Y-9570889D01*
X13243753Y-9570889D02*
X13234229Y-9532793D01*
X13234229Y-9532793D02*
X13234229Y-9485174D01*
X13234229Y-9485174D02*
X13243753Y-9447079D01*
X13243753Y-9447079D02*
X13253277Y-9428031D01*
X13253277Y-9428031D02*
X13262801Y-9418508D01*
X13262801Y-9418508D02*
X13281848Y-9408984D01*
X13538991Y-9608984D02*
X13424706Y-9608984D01*
X13481848Y-9608984D02*
X13481848Y-9408984D01*
X13481848Y-9408984D02*
X13462801Y-9437555D01*
X13462801Y-9437555D02*
X13443753Y-9456603D01*
X13443753Y-9456603D02*
X13424706Y-9466127D01*
X13710420Y-9475650D02*
X13710420Y-9608984D01*
X13662801Y-9399460D02*
X13615182Y-9542317D01*
X13615182Y-9542317D02*
X13738991Y-9542317D01*
X13853277Y-9408984D02*
X13872325Y-9408984D01*
X13872325Y-9408984D02*
X13891372Y-9418508D01*
X13891372Y-9418508D02*
X13900896Y-9428031D01*
X13900896Y-9428031D02*
X13910420Y-9447079D01*
X13910420Y-9447079D02*
X13919944Y-9485174D01*
X13919944Y-9485174D02*
X13919944Y-9532793D01*
X13919944Y-9532793D02*
X13910420Y-9570889D01*
X13910420Y-9570889D02*
X13900896Y-9589936D01*
X13900896Y-9589936D02*
X13891372Y-9599460D01*
X13891372Y-9599460D02*
X13872325Y-9608984D01*
X13872325Y-9608984D02*
X13853277Y-9608984D01*
X13853277Y-9608984D02*
X13834229Y-9599460D01*
X13834229Y-9599460D02*
X13824706Y-9589936D01*
X13824706Y-9589936D02*
X13815182Y-9570889D01*
X13815182Y-9570889D02*
X13805658Y-9532793D01*
X13805658Y-9532793D02*
X13805658Y-9485174D01*
X13805658Y-9485174D02*
X13815182Y-9447079D01*
X13815182Y-9447079D02*
X13824706Y-9428031D01*
X13824706Y-9428031D02*
X13834229Y-9418508D01*
X13834229Y-9418508D02*
X13853277Y-9408984D01*
X13996134Y-9408984D02*
X13996134Y-9447079D01*
X14072325Y-9408984D02*
X14072325Y-9447079D01*
X14367563Y-9685174D02*
X14358039Y-9675650D01*
X14358039Y-9675650D02*
X14338991Y-9647079D01*
X14338991Y-9647079D02*
X14329468Y-9628031D01*
X14329468Y-9628031D02*
X14319944Y-9599460D01*
X14319944Y-9599460D02*
X14310420Y-9551841D01*
X14310420Y-9551841D02*
X14310420Y-9513746D01*
X14310420Y-9513746D02*
X14319944Y-9466127D01*
X14319944Y-9466127D02*
X14329468Y-9437555D01*
X14329468Y-9437555D02*
X14338991Y-9418508D01*
X14338991Y-9418508D02*
X14358039Y-9389936D01*
X14358039Y-9389936D02*
X14367563Y-9380412D01*
X14538991Y-9408984D02*
X14443753Y-9408984D01*
X14443753Y-9408984D02*
X14434229Y-9504222D01*
X14434229Y-9504222D02*
X14443753Y-9494698D01*
X14443753Y-9494698D02*
X14462801Y-9485174D01*
X14462801Y-9485174D02*
X14510420Y-9485174D01*
X14510420Y-9485174D02*
X14529468Y-9494698D01*
X14529468Y-9494698D02*
X14538991Y-9504222D01*
X14538991Y-9504222D02*
X14548515Y-9523270D01*
X14548515Y-9523270D02*
X14548515Y-9570889D01*
X14548515Y-9570889D02*
X14538991Y-9589936D01*
X14538991Y-9589936D02*
X14529468Y-9599460D01*
X14529468Y-9599460D02*
X14510420Y-9608984D01*
X14510420Y-9608984D02*
X14462801Y-9608984D01*
X14462801Y-9608984D02*
X14443753Y-9599460D01*
X14443753Y-9599460D02*
X14434229Y-9589936D01*
X14643753Y-9608984D02*
X14681848Y-9608984D01*
X14681848Y-9608984D02*
X14700896Y-9599460D01*
X14700896Y-9599460D02*
X14710420Y-9589936D01*
X14710420Y-9589936D02*
X14729468Y-9561365D01*
X14729468Y-9561365D02*
X14738991Y-9523270D01*
X14738991Y-9523270D02*
X14738991Y-9447079D01*
X14738991Y-9447079D02*
X14729468Y-9428031D01*
X14729468Y-9428031D02*
X14719944Y-9418508D01*
X14719944Y-9418508D02*
X14700896Y-9408984D01*
X14700896Y-9408984D02*
X14662801Y-9408984D01*
X14662801Y-9408984D02*
X14643753Y-9418508D01*
X14643753Y-9418508D02*
X14634229Y-9428031D01*
X14634229Y-9428031D02*
X14624706Y-9447079D01*
X14624706Y-9447079D02*
X14624706Y-9494698D01*
X14624706Y-9494698D02*
X14634229Y-9513746D01*
X14634229Y-9513746D02*
X14643753Y-9523270D01*
X14643753Y-9523270D02*
X14662801Y-9532793D01*
X14662801Y-9532793D02*
X14700896Y-9532793D01*
X14700896Y-9532793D02*
X14719944Y-9523270D01*
X14719944Y-9523270D02*
X14729468Y-9513746D01*
X14729468Y-9513746D02*
X14738991Y-9494698D01*
X14977087Y-9608984D02*
X14977087Y-9408984D01*
X15062801Y-9608984D02*
X15062801Y-9504222D01*
X15062801Y-9504222D02*
X15053277Y-9485174D01*
X15053277Y-9485174D02*
X15034230Y-9475650D01*
X15034230Y-9475650D02*
X15005658Y-9475650D01*
X15005658Y-9475650D02*
X14986610Y-9485174D01*
X14986610Y-9485174D02*
X14977087Y-9494698D01*
X15186610Y-9608984D02*
X15167563Y-9599460D01*
X15167563Y-9599460D02*
X15158039Y-9589936D01*
X15158039Y-9589936D02*
X15148515Y-9570889D01*
X15148515Y-9570889D02*
X15148515Y-9513746D01*
X15148515Y-9513746D02*
X15158039Y-9494698D01*
X15158039Y-9494698D02*
X15167563Y-9485174D01*
X15167563Y-9485174D02*
X15186610Y-9475650D01*
X15186610Y-9475650D02*
X15215182Y-9475650D01*
X15215182Y-9475650D02*
X15234230Y-9485174D01*
X15234230Y-9485174D02*
X15243753Y-9494698D01*
X15243753Y-9494698D02*
X15253277Y-9513746D01*
X15253277Y-9513746D02*
X15253277Y-9570889D01*
X15253277Y-9570889D02*
X15243753Y-9589936D01*
X15243753Y-9589936D02*
X15234230Y-9599460D01*
X15234230Y-9599460D02*
X15215182Y-9608984D01*
X15215182Y-9608984D02*
X15186610Y-9608984D01*
X15367563Y-9608984D02*
X15348515Y-9599460D01*
X15348515Y-9599460D02*
X15338991Y-9580412D01*
X15338991Y-9580412D02*
X15338991Y-9408984D01*
X15519944Y-9599460D02*
X15500896Y-9608984D01*
X15500896Y-9608984D02*
X15462801Y-9608984D01*
X15462801Y-9608984D02*
X15443753Y-9599460D01*
X15443753Y-9599460D02*
X15434230Y-9580412D01*
X15434230Y-9580412D02*
X15434230Y-9504222D01*
X15434230Y-9504222D02*
X15443753Y-9485174D01*
X15443753Y-9485174D02*
X15462801Y-9475650D01*
X15462801Y-9475650D02*
X15500896Y-9475650D01*
X15500896Y-9475650D02*
X15519944Y-9485174D01*
X15519944Y-9485174D02*
X15529468Y-9504222D01*
X15529468Y-9504222D02*
X15529468Y-9523270D01*
X15529468Y-9523270D02*
X15434230Y-9542317D01*
X15605658Y-9599460D02*
X15624706Y-9608984D01*
X15624706Y-9608984D02*
X15662801Y-9608984D01*
X15662801Y-9608984D02*
X15681849Y-9599460D01*
X15681849Y-9599460D02*
X15691372Y-9580412D01*
X15691372Y-9580412D02*
X15691372Y-9570889D01*
X15691372Y-9570889D02*
X15681849Y-9551841D01*
X15681849Y-9551841D02*
X15662801Y-9542317D01*
X15662801Y-9542317D02*
X15634230Y-9542317D01*
X15634230Y-9542317D02*
X15615182Y-9532793D01*
X15615182Y-9532793D02*
X15605658Y-9513746D01*
X15605658Y-9513746D02*
X15605658Y-9504222D01*
X15605658Y-9504222D02*
X15615182Y-9485174D01*
X15615182Y-9485174D02*
X15634230Y-9475650D01*
X15634230Y-9475650D02*
X15662801Y-9475650D01*
X15662801Y-9475650D02*
X15681849Y-9485174D01*
X15758039Y-9685174D02*
X15767563Y-9675650D01*
X15767563Y-9675650D02*
X15786611Y-9647079D01*
X15786611Y-9647079D02*
X15796134Y-9628031D01*
X15796134Y-9628031D02*
X15805658Y-9599460D01*
X15805658Y-9599460D02*
X15815182Y-9551841D01*
X15815182Y-9551841D02*
X15815182Y-9513746D01*
X15815182Y-9513746D02*
X15805658Y-9466127D01*
X15805658Y-9466127D02*
X15796134Y-9437555D01*
X15796134Y-9437555D02*
X15786611Y-9418508D01*
X15786611Y-9418508D02*
X15767563Y-9389936D01*
X15767563Y-9389936D02*
X15758039Y-9380412D01*
D12*
X10792500Y-9781500D02*
G75*
G02*
X10732500Y-9781500I-30000J0D01*
G01*
X10732500Y-9781500D02*
G75*
G02*
X10792500Y-9781500I30000J0D01*
G01*
D11*
X11091372Y-9672984D02*
X11110420Y-9672984D01*
X11110420Y-9672984D02*
X11129467Y-9682508D01*
X11129467Y-9682508D02*
X11138991Y-9692031D01*
X11138991Y-9692031D02*
X11148515Y-9711079D01*
X11148515Y-9711079D02*
X11158039Y-9749174D01*
X11158039Y-9749174D02*
X11158039Y-9796793D01*
X11158039Y-9796793D02*
X11148515Y-9834889D01*
X11148515Y-9834889D02*
X11138991Y-9853936D01*
X11138991Y-9853936D02*
X11129467Y-9863460D01*
X11129467Y-9863460D02*
X11110420Y-9872984D01*
X11110420Y-9872984D02*
X11091372Y-9872984D01*
X11091372Y-9872984D02*
X11072324Y-9863460D01*
X11072324Y-9863460D02*
X11062801Y-9853936D01*
X11062801Y-9853936D02*
X11053277Y-9834889D01*
X11053277Y-9834889D02*
X11043753Y-9796793D01*
X11043753Y-9796793D02*
X11043753Y-9749174D01*
X11043753Y-9749174D02*
X11053277Y-9711079D01*
X11053277Y-9711079D02*
X11062801Y-9692031D01*
X11062801Y-9692031D02*
X11072324Y-9682508D01*
X11072324Y-9682508D02*
X11091372Y-9672984D01*
X11243753Y-9853936D02*
X11253277Y-9863460D01*
X11253277Y-9863460D02*
X11243753Y-9872984D01*
X11243753Y-9872984D02*
X11234229Y-9863460D01*
X11234229Y-9863460D02*
X11243753Y-9853936D01*
X11243753Y-9853936D02*
X11243753Y-9872984D01*
X11424705Y-9672984D02*
X11386610Y-9672984D01*
X11386610Y-9672984D02*
X11367562Y-9682508D01*
X11367562Y-9682508D02*
X11358039Y-9692031D01*
X11358039Y-9692031D02*
X11338991Y-9720603D01*
X11338991Y-9720603D02*
X11329467Y-9758698D01*
X11329467Y-9758698D02*
X11329467Y-9834889D01*
X11329467Y-9834889D02*
X11338991Y-9853936D01*
X11338991Y-9853936D02*
X11348515Y-9863460D01*
X11348515Y-9863460D02*
X11367562Y-9872984D01*
X11367562Y-9872984D02*
X11405658Y-9872984D01*
X11405658Y-9872984D02*
X11424705Y-9863460D01*
X11424705Y-9863460D02*
X11434229Y-9853936D01*
X11434229Y-9853936D02*
X11443753Y-9834889D01*
X11443753Y-9834889D02*
X11443753Y-9787270D01*
X11443753Y-9787270D02*
X11434229Y-9768222D01*
X11434229Y-9768222D02*
X11424705Y-9758698D01*
X11424705Y-9758698D02*
X11405658Y-9749174D01*
X11405658Y-9749174D02*
X11367562Y-9749174D01*
X11367562Y-9749174D02*
X11348515Y-9758698D01*
X11348515Y-9758698D02*
X11338991Y-9768222D01*
X11338991Y-9768222D02*
X11329467Y-9787270D01*
X11567562Y-9672984D02*
X11586610Y-9672984D01*
X11586610Y-9672984D02*
X11605658Y-9682508D01*
X11605658Y-9682508D02*
X11615182Y-9692031D01*
X11615182Y-9692031D02*
X11624705Y-9711079D01*
X11624705Y-9711079D02*
X11634229Y-9749174D01*
X11634229Y-9749174D02*
X11634229Y-9796793D01*
X11634229Y-9796793D02*
X11624705Y-9834889D01*
X11624705Y-9834889D02*
X11615182Y-9853936D01*
X11615182Y-9853936D02*
X11605658Y-9863460D01*
X11605658Y-9863460D02*
X11586610Y-9872984D01*
X11586610Y-9872984D02*
X11567562Y-9872984D01*
X11567562Y-9872984D02*
X11548515Y-9863460D01*
X11548515Y-9863460D02*
X11538991Y-9853936D01*
X11538991Y-9853936D02*
X11529467Y-9834889D01*
X11529467Y-9834889D02*
X11519943Y-9796793D01*
X11519943Y-9796793D02*
X11519943Y-9749174D01*
X11519943Y-9749174D02*
X11529467Y-9711079D01*
X11529467Y-9711079D02*
X11538991Y-9692031D01*
X11538991Y-9692031D02*
X11548515Y-9682508D01*
X11548515Y-9682508D02*
X11567562Y-9672984D01*
X11758039Y-9672984D02*
X11777086Y-9672984D01*
X11777086Y-9672984D02*
X11796134Y-9682508D01*
X11796134Y-9682508D02*
X11805658Y-9692031D01*
X11805658Y-9692031D02*
X11815182Y-9711079D01*
X11815182Y-9711079D02*
X11824705Y-9749174D01*
X11824705Y-9749174D02*
X11824705Y-9796793D01*
X11824705Y-9796793D02*
X11815182Y-9834889D01*
X11815182Y-9834889D02*
X11805658Y-9853936D01*
X11805658Y-9853936D02*
X11796134Y-9863460D01*
X11796134Y-9863460D02*
X11777086Y-9872984D01*
X11777086Y-9872984D02*
X11758039Y-9872984D01*
X11758039Y-9872984D02*
X11738991Y-9863460D01*
X11738991Y-9863460D02*
X11729467Y-9853936D01*
X11729467Y-9853936D02*
X11719943Y-9834889D01*
X11719943Y-9834889D02*
X11710420Y-9796793D01*
X11710420Y-9796793D02*
X11710420Y-9749174D01*
X11710420Y-9749174D02*
X11719943Y-9711079D01*
X11719943Y-9711079D02*
X11729467Y-9692031D01*
X11729467Y-9692031D02*
X11738991Y-9682508D01*
X11738991Y-9682508D02*
X11758039Y-9672984D01*
X11910420Y-9872984D02*
X11910420Y-9739650D01*
X11910420Y-9758698D02*
X11919943Y-9749174D01*
X11919943Y-9749174D02*
X11938991Y-9739650D01*
X11938991Y-9739650D02*
X11967563Y-9739650D01*
X11967563Y-9739650D02*
X11986610Y-9749174D01*
X11986610Y-9749174D02*
X11996134Y-9768222D01*
X11996134Y-9768222D02*
X11996134Y-9872984D01*
X11996134Y-9768222D02*
X12005658Y-9749174D01*
X12005658Y-9749174D02*
X12024705Y-9739650D01*
X12024705Y-9739650D02*
X12053277Y-9739650D01*
X12053277Y-9739650D02*
X12072324Y-9749174D01*
X12072324Y-9749174D02*
X12081848Y-9768222D01*
X12081848Y-9768222D02*
X12081848Y-9872984D01*
X12177086Y-9872984D02*
X12177086Y-9739650D01*
X12177086Y-9758698D02*
X12186610Y-9749174D01*
X12186610Y-9749174D02*
X12205658Y-9739650D01*
X12205658Y-9739650D02*
X12234229Y-9739650D01*
X12234229Y-9739650D02*
X12253277Y-9749174D01*
X12253277Y-9749174D02*
X12262801Y-9768222D01*
X12262801Y-9768222D02*
X12262801Y-9872984D01*
X12262801Y-9768222D02*
X12272324Y-9749174D01*
X12272324Y-9749174D02*
X12291372Y-9739650D01*
X12291372Y-9739650D02*
X12319943Y-9739650D01*
X12319943Y-9739650D02*
X12338991Y-9749174D01*
X12338991Y-9749174D02*
X12348515Y-9768222D01*
X12348515Y-9768222D02*
X12348515Y-9872984D01*
X12738991Y-9663460D02*
X12567563Y-9920603D01*
X12996134Y-9672984D02*
X13015182Y-9672984D01*
X13015182Y-9672984D02*
X13034229Y-9682508D01*
X13034229Y-9682508D02*
X13043753Y-9692031D01*
X13043753Y-9692031D02*
X13053277Y-9711079D01*
X13053277Y-9711079D02*
X13062801Y-9749174D01*
X13062801Y-9749174D02*
X13062801Y-9796793D01*
X13062801Y-9796793D02*
X13053277Y-9834889D01*
X13053277Y-9834889D02*
X13043753Y-9853936D01*
X13043753Y-9853936D02*
X13034229Y-9863460D01*
X13034229Y-9863460D02*
X13015182Y-9872984D01*
X13015182Y-9872984D02*
X12996134Y-9872984D01*
X12996134Y-9872984D02*
X12977086Y-9863460D01*
X12977086Y-9863460D02*
X12967563Y-9853936D01*
X12967563Y-9853936D02*
X12958039Y-9834889D01*
X12958039Y-9834889D02*
X12948515Y-9796793D01*
X12948515Y-9796793D02*
X12948515Y-9749174D01*
X12948515Y-9749174D02*
X12958039Y-9711079D01*
X12958039Y-9711079D02*
X12967563Y-9692031D01*
X12967563Y-9692031D02*
X12977086Y-9682508D01*
X12977086Y-9682508D02*
X12996134Y-9672984D01*
X13148515Y-9853936D02*
X13158039Y-9863460D01*
X13158039Y-9863460D02*
X13148515Y-9872984D01*
X13148515Y-9872984D02*
X13138991Y-9863460D01*
X13138991Y-9863460D02*
X13148515Y-9853936D01*
X13148515Y-9853936D02*
X13148515Y-9872984D01*
X13281848Y-9672984D02*
X13300896Y-9672984D01*
X13300896Y-9672984D02*
X13319944Y-9682508D01*
X13319944Y-9682508D02*
X13329467Y-9692031D01*
X13329467Y-9692031D02*
X13338991Y-9711079D01*
X13338991Y-9711079D02*
X13348515Y-9749174D01*
X13348515Y-9749174D02*
X13348515Y-9796793D01*
X13348515Y-9796793D02*
X13338991Y-9834889D01*
X13338991Y-9834889D02*
X13329467Y-9853936D01*
X13329467Y-9853936D02*
X13319944Y-9863460D01*
X13319944Y-9863460D02*
X13300896Y-9872984D01*
X13300896Y-9872984D02*
X13281848Y-9872984D01*
X13281848Y-9872984D02*
X13262801Y-9863460D01*
X13262801Y-9863460D02*
X13253277Y-9853936D01*
X13253277Y-9853936D02*
X13243753Y-9834889D01*
X13243753Y-9834889D02*
X13234229Y-9796793D01*
X13234229Y-9796793D02*
X13234229Y-9749174D01*
X13234229Y-9749174D02*
X13243753Y-9711079D01*
X13243753Y-9711079D02*
X13253277Y-9692031D01*
X13253277Y-9692031D02*
X13262801Y-9682508D01*
X13262801Y-9682508D02*
X13281848Y-9672984D01*
X13424706Y-9692031D02*
X13434229Y-9682508D01*
X13434229Y-9682508D02*
X13453277Y-9672984D01*
X13453277Y-9672984D02*
X13500896Y-9672984D01*
X13500896Y-9672984D02*
X13519944Y-9682508D01*
X13519944Y-9682508D02*
X13529467Y-9692031D01*
X13529467Y-9692031D02*
X13538991Y-9711079D01*
X13538991Y-9711079D02*
X13538991Y-9730127D01*
X13538991Y-9730127D02*
X13529467Y-9758698D01*
X13529467Y-9758698D02*
X13415182Y-9872984D01*
X13415182Y-9872984D02*
X13538991Y-9872984D01*
X13605658Y-9672984D02*
X13729467Y-9672984D01*
X13729467Y-9672984D02*
X13662801Y-9749174D01*
X13662801Y-9749174D02*
X13691372Y-9749174D01*
X13691372Y-9749174D02*
X13710420Y-9758698D01*
X13710420Y-9758698D02*
X13719944Y-9768222D01*
X13719944Y-9768222D02*
X13729467Y-9787270D01*
X13729467Y-9787270D02*
X13729467Y-9834889D01*
X13729467Y-9834889D02*
X13719944Y-9853936D01*
X13719944Y-9853936D02*
X13710420Y-9863460D01*
X13710420Y-9863460D02*
X13691372Y-9872984D01*
X13691372Y-9872984D02*
X13634229Y-9872984D01*
X13634229Y-9872984D02*
X13615182Y-9863460D01*
X13615182Y-9863460D02*
X13605658Y-9853936D01*
X13900896Y-9672984D02*
X13862801Y-9672984D01*
X13862801Y-9672984D02*
X13843753Y-9682508D01*
X13843753Y-9682508D02*
X13834229Y-9692031D01*
X13834229Y-9692031D02*
X13815182Y-9720603D01*
X13815182Y-9720603D02*
X13805658Y-9758698D01*
X13805658Y-9758698D02*
X13805658Y-9834889D01*
X13805658Y-9834889D02*
X13815182Y-9853936D01*
X13815182Y-9853936D02*
X13824706Y-9863460D01*
X13824706Y-9863460D02*
X13843753Y-9872984D01*
X13843753Y-9872984D02*
X13881848Y-9872984D01*
X13881848Y-9872984D02*
X13900896Y-9863460D01*
X13900896Y-9863460D02*
X13910420Y-9853936D01*
X13910420Y-9853936D02*
X13919944Y-9834889D01*
X13919944Y-9834889D02*
X13919944Y-9787270D01*
X13919944Y-9787270D02*
X13910420Y-9768222D01*
X13910420Y-9768222D02*
X13900896Y-9758698D01*
X13900896Y-9758698D02*
X13881848Y-9749174D01*
X13881848Y-9749174D02*
X13843753Y-9749174D01*
X13843753Y-9749174D02*
X13824706Y-9758698D01*
X13824706Y-9758698D02*
X13815182Y-9768222D01*
X13815182Y-9768222D02*
X13805658Y-9787270D01*
X13996134Y-9672984D02*
X13996134Y-9711079D01*
X14072325Y-9672984D02*
X14072325Y-9711079D01*
X14367563Y-9949174D02*
X14358039Y-9939650D01*
X14358039Y-9939650D02*
X14338991Y-9911079D01*
X14338991Y-9911079D02*
X14329468Y-9892031D01*
X14329468Y-9892031D02*
X14319944Y-9863460D01*
X14319944Y-9863460D02*
X14310420Y-9815841D01*
X14310420Y-9815841D02*
X14310420Y-9777746D01*
X14310420Y-9777746D02*
X14319944Y-9730127D01*
X14319944Y-9730127D02*
X14329468Y-9701555D01*
X14329468Y-9701555D02*
X14338991Y-9682508D01*
X14338991Y-9682508D02*
X14358039Y-9653936D01*
X14358039Y-9653936D02*
X14367563Y-9644412D01*
X14481848Y-9672984D02*
X14500896Y-9672984D01*
X14500896Y-9672984D02*
X14519944Y-9682508D01*
X14519944Y-9682508D02*
X14529468Y-9692031D01*
X14529468Y-9692031D02*
X14538991Y-9711079D01*
X14538991Y-9711079D02*
X14548515Y-9749174D01*
X14548515Y-9749174D02*
X14548515Y-9796793D01*
X14548515Y-9796793D02*
X14538991Y-9834889D01*
X14538991Y-9834889D02*
X14529468Y-9853936D01*
X14529468Y-9853936D02*
X14519944Y-9863460D01*
X14519944Y-9863460D02*
X14500896Y-9872984D01*
X14500896Y-9872984D02*
X14481848Y-9872984D01*
X14481848Y-9872984D02*
X14462801Y-9863460D01*
X14462801Y-9863460D02*
X14453277Y-9853936D01*
X14453277Y-9853936D02*
X14443753Y-9834889D01*
X14443753Y-9834889D02*
X14434229Y-9796793D01*
X14434229Y-9796793D02*
X14434229Y-9749174D01*
X14434229Y-9749174D02*
X14443753Y-9711079D01*
X14443753Y-9711079D02*
X14453277Y-9692031D01*
X14453277Y-9692031D02*
X14462801Y-9682508D01*
X14462801Y-9682508D02*
X14481848Y-9672984D01*
X14786610Y-9872984D02*
X14786610Y-9672984D01*
X14872325Y-9872984D02*
X14872325Y-9768222D01*
X14872325Y-9768222D02*
X14862801Y-9749174D01*
X14862801Y-9749174D02*
X14843753Y-9739650D01*
X14843753Y-9739650D02*
X14815182Y-9739650D01*
X14815182Y-9739650D02*
X14796134Y-9749174D01*
X14796134Y-9749174D02*
X14786610Y-9758698D01*
X14996134Y-9872984D02*
X14977087Y-9863460D01*
X14977087Y-9863460D02*
X14967563Y-9853936D01*
X14967563Y-9853936D02*
X14958039Y-9834889D01*
X14958039Y-9834889D02*
X14958039Y-9777746D01*
X14958039Y-9777746D02*
X14967563Y-9758698D01*
X14967563Y-9758698D02*
X14977087Y-9749174D01*
X14977087Y-9749174D02*
X14996134Y-9739650D01*
X14996134Y-9739650D02*
X15024706Y-9739650D01*
X15024706Y-9739650D02*
X15043753Y-9749174D01*
X15043753Y-9749174D02*
X15053277Y-9758698D01*
X15053277Y-9758698D02*
X15062801Y-9777746D01*
X15062801Y-9777746D02*
X15062801Y-9834889D01*
X15062801Y-9834889D02*
X15053277Y-9853936D01*
X15053277Y-9853936D02*
X15043753Y-9863460D01*
X15043753Y-9863460D02*
X15024706Y-9872984D01*
X15024706Y-9872984D02*
X14996134Y-9872984D01*
X15177087Y-9872984D02*
X15158039Y-9863460D01*
X15158039Y-9863460D02*
X15148515Y-9844412D01*
X15148515Y-9844412D02*
X15148515Y-9672984D01*
X15329468Y-9863460D02*
X15310420Y-9872984D01*
X15310420Y-9872984D02*
X15272325Y-9872984D01*
X15272325Y-9872984D02*
X15253277Y-9863460D01*
X15253277Y-9863460D02*
X15243753Y-9844412D01*
X15243753Y-9844412D02*
X15243753Y-9768222D01*
X15243753Y-9768222D02*
X15253277Y-9749174D01*
X15253277Y-9749174D02*
X15272325Y-9739650D01*
X15272325Y-9739650D02*
X15310420Y-9739650D01*
X15310420Y-9739650D02*
X15329468Y-9749174D01*
X15329468Y-9749174D02*
X15338991Y-9768222D01*
X15338991Y-9768222D02*
X15338991Y-9787270D01*
X15338991Y-9787270D02*
X15243753Y-9806317D01*
X15415182Y-9863460D02*
X15434230Y-9872984D01*
X15434230Y-9872984D02*
X15472325Y-9872984D01*
X15472325Y-9872984D02*
X15491372Y-9863460D01*
X15491372Y-9863460D02*
X15500896Y-9844412D01*
X15500896Y-9844412D02*
X15500896Y-9834889D01*
X15500896Y-9834889D02*
X15491372Y-9815841D01*
X15491372Y-9815841D02*
X15472325Y-9806317D01*
X15472325Y-9806317D02*
X15443753Y-9806317D01*
X15443753Y-9806317D02*
X15424706Y-9796793D01*
X15424706Y-9796793D02*
X15415182Y-9777746D01*
X15415182Y-9777746D02*
X15415182Y-9768222D01*
X15415182Y-9768222D02*
X15424706Y-9749174D01*
X15424706Y-9749174D02*
X15443753Y-9739650D01*
X15443753Y-9739650D02*
X15472325Y-9739650D01*
X15472325Y-9739650D02*
X15491372Y-9749174D01*
X15738992Y-9796793D02*
X15891373Y-9796793D01*
X15815182Y-9872984D02*
X15815182Y-9720603D01*
X16224706Y-9739650D02*
X16224706Y-9872984D01*
X16177087Y-9663460D02*
X16129468Y-9806317D01*
X16129468Y-9806317D02*
X16253277Y-9806317D01*
X16472325Y-9863460D02*
X16491373Y-9872984D01*
X16491373Y-9872984D02*
X16529468Y-9872984D01*
X16529468Y-9872984D02*
X16548515Y-9863460D01*
X16548515Y-9863460D02*
X16558039Y-9844412D01*
X16558039Y-9844412D02*
X16558039Y-9834889D01*
X16558039Y-9834889D02*
X16548515Y-9815841D01*
X16548515Y-9815841D02*
X16529468Y-9806317D01*
X16529468Y-9806317D02*
X16500896Y-9806317D01*
X16500896Y-9806317D02*
X16481849Y-9796793D01*
X16481849Y-9796793D02*
X16472325Y-9777746D01*
X16472325Y-9777746D02*
X16472325Y-9768222D01*
X16472325Y-9768222D02*
X16481849Y-9749174D01*
X16481849Y-9749174D02*
X16500896Y-9739650D01*
X16500896Y-9739650D02*
X16529468Y-9739650D01*
X16529468Y-9739650D02*
X16548515Y-9749174D01*
X16672325Y-9872984D02*
X16653277Y-9863460D01*
X16653277Y-9863460D02*
X16643754Y-9844412D01*
X16643754Y-9844412D02*
X16643754Y-9672984D01*
X16777087Y-9872984D02*
X16758039Y-9863460D01*
X16758039Y-9863460D02*
X16748515Y-9853936D01*
X16748515Y-9853936D02*
X16738992Y-9834889D01*
X16738992Y-9834889D02*
X16738992Y-9777746D01*
X16738992Y-9777746D02*
X16748515Y-9758698D01*
X16748515Y-9758698D02*
X16758039Y-9749174D01*
X16758039Y-9749174D02*
X16777087Y-9739650D01*
X16777087Y-9739650D02*
X16805658Y-9739650D01*
X16805658Y-9739650D02*
X16824706Y-9749174D01*
X16824706Y-9749174D02*
X16834230Y-9758698D01*
X16834230Y-9758698D02*
X16843754Y-9777746D01*
X16843754Y-9777746D02*
X16843754Y-9834889D01*
X16843754Y-9834889D02*
X16834230Y-9853936D01*
X16834230Y-9853936D02*
X16824706Y-9863460D01*
X16824706Y-9863460D02*
X16805658Y-9872984D01*
X16805658Y-9872984D02*
X16777087Y-9872984D01*
X16900897Y-9739650D02*
X16977087Y-9739650D01*
X16929468Y-9672984D02*
X16929468Y-9844412D01*
X16929468Y-9844412D02*
X16938992Y-9863460D01*
X16938992Y-9863460D02*
X16958039Y-9872984D01*
X16958039Y-9872984D02*
X16977087Y-9872984D01*
X17034230Y-9863460D02*
X17053277Y-9872984D01*
X17053277Y-9872984D02*
X17091373Y-9872984D01*
X17091373Y-9872984D02*
X17110420Y-9863460D01*
X17110420Y-9863460D02*
X17119944Y-9844412D01*
X17119944Y-9844412D02*
X17119944Y-9834889D01*
X17119944Y-9834889D02*
X17110420Y-9815841D01*
X17110420Y-9815841D02*
X17091373Y-9806317D01*
X17091373Y-9806317D02*
X17062801Y-9806317D01*
X17062801Y-9806317D02*
X17043754Y-9796793D01*
X17043754Y-9796793D02*
X17034230Y-9777746D01*
X17034230Y-9777746D02*
X17034230Y-9768222D01*
X17034230Y-9768222D02*
X17043754Y-9749174D01*
X17043754Y-9749174D02*
X17062801Y-9739650D01*
X17062801Y-9739650D02*
X17091373Y-9739650D01*
X17091373Y-9739650D02*
X17110420Y-9749174D01*
X17186611Y-9949174D02*
X17196135Y-9939650D01*
X17196135Y-9939650D02*
X17215182Y-9911079D01*
X17215182Y-9911079D02*
X17224706Y-9892031D01*
X17224706Y-9892031D02*
X17234230Y-9863460D01*
X17234230Y-9863460D02*
X17243754Y-9815841D01*
X17243754Y-9815841D02*
X17243754Y-9777746D01*
X17243754Y-9777746D02*
X17234230Y-9730127D01*
X17234230Y-9730127D02*
X17224706Y-9701555D01*
X17224706Y-9701555D02*
X17215182Y-9682508D01*
X17215182Y-9682508D02*
X17196135Y-9653936D01*
X17196135Y-9653936D02*
X17186611Y-9644412D01*
D12*
X10752500Y-10005500D02*
X10752500Y-10085500D01*
X10712500Y-10045500D02*
X10792500Y-10045500D01*
D11*
X11091372Y-9936984D02*
X11110420Y-9936984D01*
X11110420Y-9936984D02*
X11129467Y-9946508D01*
X11129467Y-9946508D02*
X11138991Y-9956031D01*
X11138991Y-9956031D02*
X11148515Y-9975079D01*
X11148515Y-9975079D02*
X11158039Y-10013174D01*
X11158039Y-10013174D02*
X11158039Y-10060793D01*
X11158039Y-10060793D02*
X11148515Y-10098889D01*
X11148515Y-10098889D02*
X11138991Y-10117936D01*
X11138991Y-10117936D02*
X11129467Y-10127460D01*
X11129467Y-10127460D02*
X11110420Y-10136984D01*
X11110420Y-10136984D02*
X11091372Y-10136984D01*
X11091372Y-10136984D02*
X11072324Y-10127460D01*
X11072324Y-10127460D02*
X11062801Y-10117936D01*
X11062801Y-10117936D02*
X11053277Y-10098889D01*
X11053277Y-10098889D02*
X11043753Y-10060793D01*
X11043753Y-10060793D02*
X11043753Y-10013174D01*
X11043753Y-10013174D02*
X11053277Y-9975079D01*
X11053277Y-9975079D02*
X11062801Y-9956031D01*
X11062801Y-9956031D02*
X11072324Y-9946508D01*
X11072324Y-9946508D02*
X11091372Y-9936984D01*
X11243753Y-10117936D02*
X11253277Y-10127460D01*
X11253277Y-10127460D02*
X11243753Y-10136984D01*
X11243753Y-10136984D02*
X11234229Y-10127460D01*
X11234229Y-10127460D02*
X11243753Y-10117936D01*
X11243753Y-10117936D02*
X11243753Y-10136984D01*
X11367562Y-10022698D02*
X11348515Y-10013174D01*
X11348515Y-10013174D02*
X11338991Y-10003650D01*
X11338991Y-10003650D02*
X11329467Y-9984603D01*
X11329467Y-9984603D02*
X11329467Y-9975079D01*
X11329467Y-9975079D02*
X11338991Y-9956031D01*
X11338991Y-9956031D02*
X11348515Y-9946508D01*
X11348515Y-9946508D02*
X11367562Y-9936984D01*
X11367562Y-9936984D02*
X11405658Y-9936984D01*
X11405658Y-9936984D02*
X11424705Y-9946508D01*
X11424705Y-9946508D02*
X11434229Y-9956031D01*
X11434229Y-9956031D02*
X11443753Y-9975079D01*
X11443753Y-9975079D02*
X11443753Y-9984603D01*
X11443753Y-9984603D02*
X11434229Y-10003650D01*
X11434229Y-10003650D02*
X11424705Y-10013174D01*
X11424705Y-10013174D02*
X11405658Y-10022698D01*
X11405658Y-10022698D02*
X11367562Y-10022698D01*
X11367562Y-10022698D02*
X11348515Y-10032222D01*
X11348515Y-10032222D02*
X11338991Y-10041746D01*
X11338991Y-10041746D02*
X11329467Y-10060793D01*
X11329467Y-10060793D02*
X11329467Y-10098889D01*
X11329467Y-10098889D02*
X11338991Y-10117936D01*
X11338991Y-10117936D02*
X11348515Y-10127460D01*
X11348515Y-10127460D02*
X11367562Y-10136984D01*
X11367562Y-10136984D02*
X11405658Y-10136984D01*
X11405658Y-10136984D02*
X11424705Y-10127460D01*
X11424705Y-10127460D02*
X11434229Y-10117936D01*
X11434229Y-10117936D02*
X11443753Y-10098889D01*
X11443753Y-10098889D02*
X11443753Y-10060793D01*
X11443753Y-10060793D02*
X11434229Y-10041746D01*
X11434229Y-10041746D02*
X11424705Y-10032222D01*
X11424705Y-10032222D02*
X11405658Y-10022698D01*
X11567562Y-9936984D02*
X11586610Y-9936984D01*
X11586610Y-9936984D02*
X11605658Y-9946508D01*
X11605658Y-9946508D02*
X11615182Y-9956031D01*
X11615182Y-9956031D02*
X11624705Y-9975079D01*
X11624705Y-9975079D02*
X11634229Y-10013174D01*
X11634229Y-10013174D02*
X11634229Y-10060793D01*
X11634229Y-10060793D02*
X11624705Y-10098889D01*
X11624705Y-10098889D02*
X11615182Y-10117936D01*
X11615182Y-10117936D02*
X11605658Y-10127460D01*
X11605658Y-10127460D02*
X11586610Y-10136984D01*
X11586610Y-10136984D02*
X11567562Y-10136984D01*
X11567562Y-10136984D02*
X11548515Y-10127460D01*
X11548515Y-10127460D02*
X11538991Y-10117936D01*
X11538991Y-10117936D02*
X11529467Y-10098889D01*
X11529467Y-10098889D02*
X11519943Y-10060793D01*
X11519943Y-10060793D02*
X11519943Y-10013174D01*
X11519943Y-10013174D02*
X11529467Y-9975079D01*
X11529467Y-9975079D02*
X11538991Y-9956031D01*
X11538991Y-9956031D02*
X11548515Y-9946508D01*
X11548515Y-9946508D02*
X11567562Y-9936984D01*
X11758039Y-9936984D02*
X11777086Y-9936984D01*
X11777086Y-9936984D02*
X11796134Y-9946508D01*
X11796134Y-9946508D02*
X11805658Y-9956031D01*
X11805658Y-9956031D02*
X11815182Y-9975079D01*
X11815182Y-9975079D02*
X11824705Y-10013174D01*
X11824705Y-10013174D02*
X11824705Y-10060793D01*
X11824705Y-10060793D02*
X11815182Y-10098889D01*
X11815182Y-10098889D02*
X11805658Y-10117936D01*
X11805658Y-10117936D02*
X11796134Y-10127460D01*
X11796134Y-10127460D02*
X11777086Y-10136984D01*
X11777086Y-10136984D02*
X11758039Y-10136984D01*
X11758039Y-10136984D02*
X11738991Y-10127460D01*
X11738991Y-10127460D02*
X11729467Y-10117936D01*
X11729467Y-10117936D02*
X11719943Y-10098889D01*
X11719943Y-10098889D02*
X11710420Y-10060793D01*
X11710420Y-10060793D02*
X11710420Y-10013174D01*
X11710420Y-10013174D02*
X11719943Y-9975079D01*
X11719943Y-9975079D02*
X11729467Y-9956031D01*
X11729467Y-9956031D02*
X11738991Y-9946508D01*
X11738991Y-9946508D02*
X11758039Y-9936984D01*
X11910420Y-10136984D02*
X11910420Y-10003650D01*
X11910420Y-10022698D02*
X11919943Y-10013174D01*
X11919943Y-10013174D02*
X11938991Y-10003650D01*
X11938991Y-10003650D02*
X11967563Y-10003650D01*
X11967563Y-10003650D02*
X11986610Y-10013174D01*
X11986610Y-10013174D02*
X11996134Y-10032222D01*
X11996134Y-10032222D02*
X11996134Y-10136984D01*
X11996134Y-10032222D02*
X12005658Y-10013174D01*
X12005658Y-10013174D02*
X12024705Y-10003650D01*
X12024705Y-10003650D02*
X12053277Y-10003650D01*
X12053277Y-10003650D02*
X12072324Y-10013174D01*
X12072324Y-10013174D02*
X12081848Y-10032222D01*
X12081848Y-10032222D02*
X12081848Y-10136984D01*
X12177086Y-10136984D02*
X12177086Y-10003650D01*
X12177086Y-10022698D02*
X12186610Y-10013174D01*
X12186610Y-10013174D02*
X12205658Y-10003650D01*
X12205658Y-10003650D02*
X12234229Y-10003650D01*
X12234229Y-10003650D02*
X12253277Y-10013174D01*
X12253277Y-10013174D02*
X12262801Y-10032222D01*
X12262801Y-10032222D02*
X12262801Y-10136984D01*
X12262801Y-10032222D02*
X12272324Y-10013174D01*
X12272324Y-10013174D02*
X12291372Y-10003650D01*
X12291372Y-10003650D02*
X12319943Y-10003650D01*
X12319943Y-10003650D02*
X12338991Y-10013174D01*
X12338991Y-10013174D02*
X12348515Y-10032222D01*
X12348515Y-10032222D02*
X12348515Y-10136984D01*
X12738991Y-9927460D02*
X12567563Y-10184603D01*
X12996134Y-9936984D02*
X13015182Y-9936984D01*
X13015182Y-9936984D02*
X13034229Y-9946508D01*
X13034229Y-9946508D02*
X13043753Y-9956031D01*
X13043753Y-9956031D02*
X13053277Y-9975079D01*
X13053277Y-9975079D02*
X13062801Y-10013174D01*
X13062801Y-10013174D02*
X13062801Y-10060793D01*
X13062801Y-10060793D02*
X13053277Y-10098889D01*
X13053277Y-10098889D02*
X13043753Y-10117936D01*
X13043753Y-10117936D02*
X13034229Y-10127460D01*
X13034229Y-10127460D02*
X13015182Y-10136984D01*
X13015182Y-10136984D02*
X12996134Y-10136984D01*
X12996134Y-10136984D02*
X12977086Y-10127460D01*
X12977086Y-10127460D02*
X12967563Y-10117936D01*
X12967563Y-10117936D02*
X12958039Y-10098889D01*
X12958039Y-10098889D02*
X12948515Y-10060793D01*
X12948515Y-10060793D02*
X12948515Y-10013174D01*
X12948515Y-10013174D02*
X12958039Y-9975079D01*
X12958039Y-9975079D02*
X12967563Y-9956031D01*
X12967563Y-9956031D02*
X12977086Y-9946508D01*
X12977086Y-9946508D02*
X12996134Y-9936984D01*
X13148515Y-10117936D02*
X13158039Y-10127460D01*
X13158039Y-10127460D02*
X13148515Y-10136984D01*
X13148515Y-10136984D02*
X13138991Y-10127460D01*
X13138991Y-10127460D02*
X13148515Y-10117936D01*
X13148515Y-10117936D02*
X13148515Y-10136984D01*
X13281848Y-9936984D02*
X13300896Y-9936984D01*
X13300896Y-9936984D02*
X13319944Y-9946508D01*
X13319944Y-9946508D02*
X13329467Y-9956031D01*
X13329467Y-9956031D02*
X13338991Y-9975079D01*
X13338991Y-9975079D02*
X13348515Y-10013174D01*
X13348515Y-10013174D02*
X13348515Y-10060793D01*
X13348515Y-10060793D02*
X13338991Y-10098889D01*
X13338991Y-10098889D02*
X13329467Y-10117936D01*
X13329467Y-10117936D02*
X13319944Y-10127460D01*
X13319944Y-10127460D02*
X13300896Y-10136984D01*
X13300896Y-10136984D02*
X13281848Y-10136984D01*
X13281848Y-10136984D02*
X13262801Y-10127460D01*
X13262801Y-10127460D02*
X13253277Y-10117936D01*
X13253277Y-10117936D02*
X13243753Y-10098889D01*
X13243753Y-10098889D02*
X13234229Y-10060793D01*
X13234229Y-10060793D02*
X13234229Y-10013174D01*
X13234229Y-10013174D02*
X13243753Y-9975079D01*
X13243753Y-9975079D02*
X13253277Y-9956031D01*
X13253277Y-9956031D02*
X13262801Y-9946508D01*
X13262801Y-9946508D02*
X13281848Y-9936984D01*
X13415182Y-9936984D02*
X13538991Y-9936984D01*
X13538991Y-9936984D02*
X13472325Y-10013174D01*
X13472325Y-10013174D02*
X13500896Y-10013174D01*
X13500896Y-10013174D02*
X13519944Y-10022698D01*
X13519944Y-10022698D02*
X13529467Y-10032222D01*
X13529467Y-10032222D02*
X13538991Y-10051270D01*
X13538991Y-10051270D02*
X13538991Y-10098889D01*
X13538991Y-10098889D02*
X13529467Y-10117936D01*
X13529467Y-10117936D02*
X13519944Y-10127460D01*
X13519944Y-10127460D02*
X13500896Y-10136984D01*
X13500896Y-10136984D02*
X13443753Y-10136984D01*
X13443753Y-10136984D02*
X13424706Y-10127460D01*
X13424706Y-10127460D02*
X13415182Y-10117936D01*
X13729467Y-10136984D02*
X13615182Y-10136984D01*
X13672325Y-10136984D02*
X13672325Y-9936984D01*
X13672325Y-9936984D02*
X13653277Y-9965555D01*
X13653277Y-9965555D02*
X13634229Y-9984603D01*
X13634229Y-9984603D02*
X13615182Y-9994127D01*
X13910420Y-9936984D02*
X13815182Y-9936984D01*
X13815182Y-9936984D02*
X13805658Y-10032222D01*
X13805658Y-10032222D02*
X13815182Y-10022698D01*
X13815182Y-10022698D02*
X13834229Y-10013174D01*
X13834229Y-10013174D02*
X13881848Y-10013174D01*
X13881848Y-10013174D02*
X13900896Y-10022698D01*
X13900896Y-10022698D02*
X13910420Y-10032222D01*
X13910420Y-10032222D02*
X13919944Y-10051270D01*
X13919944Y-10051270D02*
X13919944Y-10098889D01*
X13919944Y-10098889D02*
X13910420Y-10117936D01*
X13910420Y-10117936D02*
X13900896Y-10127460D01*
X13900896Y-10127460D02*
X13881848Y-10136984D01*
X13881848Y-10136984D02*
X13834229Y-10136984D01*
X13834229Y-10136984D02*
X13815182Y-10127460D01*
X13815182Y-10127460D02*
X13805658Y-10117936D01*
X13996134Y-9936984D02*
X13996134Y-9975079D01*
X14072325Y-9936984D02*
X14072325Y-9975079D01*
X14367563Y-10213174D02*
X14358039Y-10203650D01*
X14358039Y-10203650D02*
X14338991Y-10175079D01*
X14338991Y-10175079D02*
X14329468Y-10156031D01*
X14329468Y-10156031D02*
X14319944Y-10127460D01*
X14319944Y-10127460D02*
X14310420Y-10079841D01*
X14310420Y-10079841D02*
X14310420Y-10041746D01*
X14310420Y-10041746D02*
X14319944Y-9994127D01*
X14319944Y-9994127D02*
X14329468Y-9965555D01*
X14329468Y-9965555D02*
X14338991Y-9946508D01*
X14338991Y-9946508D02*
X14358039Y-9917936D01*
X14358039Y-9917936D02*
X14367563Y-9908412D01*
X14548515Y-10136984D02*
X14434229Y-10136984D01*
X14491372Y-10136984D02*
X14491372Y-9936984D01*
X14491372Y-9936984D02*
X14472325Y-9965555D01*
X14472325Y-9965555D02*
X14453277Y-9984603D01*
X14453277Y-9984603D02*
X14434229Y-9994127D01*
X14729468Y-9936984D02*
X14634229Y-9936984D01*
X14634229Y-9936984D02*
X14624706Y-10032222D01*
X14624706Y-10032222D02*
X14634229Y-10022698D01*
X14634229Y-10022698D02*
X14653277Y-10013174D01*
X14653277Y-10013174D02*
X14700896Y-10013174D01*
X14700896Y-10013174D02*
X14719944Y-10022698D01*
X14719944Y-10022698D02*
X14729468Y-10032222D01*
X14729468Y-10032222D02*
X14738991Y-10051270D01*
X14738991Y-10051270D02*
X14738991Y-10098889D01*
X14738991Y-10098889D02*
X14729468Y-10117936D01*
X14729468Y-10117936D02*
X14719944Y-10127460D01*
X14719944Y-10127460D02*
X14700896Y-10136984D01*
X14700896Y-10136984D02*
X14653277Y-10136984D01*
X14653277Y-10136984D02*
X14634229Y-10127460D01*
X14634229Y-10127460D02*
X14624706Y-10117936D01*
X14977087Y-10136984D02*
X14977087Y-9936984D01*
X15062801Y-10136984D02*
X15062801Y-10032222D01*
X15062801Y-10032222D02*
X15053277Y-10013174D01*
X15053277Y-10013174D02*
X15034230Y-10003650D01*
X15034230Y-10003650D02*
X15005658Y-10003650D01*
X15005658Y-10003650D02*
X14986610Y-10013174D01*
X14986610Y-10013174D02*
X14977087Y-10022698D01*
X15186610Y-10136984D02*
X15167563Y-10127460D01*
X15167563Y-10127460D02*
X15158039Y-10117936D01*
X15158039Y-10117936D02*
X15148515Y-10098889D01*
X15148515Y-10098889D02*
X15148515Y-10041746D01*
X15148515Y-10041746D02*
X15158039Y-10022698D01*
X15158039Y-10022698D02*
X15167563Y-10013174D01*
X15167563Y-10013174D02*
X15186610Y-10003650D01*
X15186610Y-10003650D02*
X15215182Y-10003650D01*
X15215182Y-10003650D02*
X15234230Y-10013174D01*
X15234230Y-10013174D02*
X15243753Y-10022698D01*
X15243753Y-10022698D02*
X15253277Y-10041746D01*
X15253277Y-10041746D02*
X15253277Y-10098889D01*
X15253277Y-10098889D02*
X15243753Y-10117936D01*
X15243753Y-10117936D02*
X15234230Y-10127460D01*
X15234230Y-10127460D02*
X15215182Y-10136984D01*
X15215182Y-10136984D02*
X15186610Y-10136984D01*
X15367563Y-10136984D02*
X15348515Y-10127460D01*
X15348515Y-10127460D02*
X15338991Y-10108412D01*
X15338991Y-10108412D02*
X15338991Y-9936984D01*
X15519944Y-10127460D02*
X15500896Y-10136984D01*
X15500896Y-10136984D02*
X15462801Y-10136984D01*
X15462801Y-10136984D02*
X15443753Y-10127460D01*
X15443753Y-10127460D02*
X15434230Y-10108412D01*
X15434230Y-10108412D02*
X15434230Y-10032222D01*
X15434230Y-10032222D02*
X15443753Y-10013174D01*
X15443753Y-10013174D02*
X15462801Y-10003650D01*
X15462801Y-10003650D02*
X15500896Y-10003650D01*
X15500896Y-10003650D02*
X15519944Y-10013174D01*
X15519944Y-10013174D02*
X15529468Y-10032222D01*
X15529468Y-10032222D02*
X15529468Y-10051270D01*
X15529468Y-10051270D02*
X15434230Y-10070317D01*
X15605658Y-10127460D02*
X15624706Y-10136984D01*
X15624706Y-10136984D02*
X15662801Y-10136984D01*
X15662801Y-10136984D02*
X15681849Y-10127460D01*
X15681849Y-10127460D02*
X15691372Y-10108412D01*
X15691372Y-10108412D02*
X15691372Y-10098889D01*
X15691372Y-10098889D02*
X15681849Y-10079841D01*
X15681849Y-10079841D02*
X15662801Y-10070317D01*
X15662801Y-10070317D02*
X15634230Y-10070317D01*
X15634230Y-10070317D02*
X15615182Y-10060793D01*
X15615182Y-10060793D02*
X15605658Y-10041746D01*
X15605658Y-10041746D02*
X15605658Y-10032222D01*
X15605658Y-10032222D02*
X15615182Y-10013174D01*
X15615182Y-10013174D02*
X15634230Y-10003650D01*
X15634230Y-10003650D02*
X15662801Y-10003650D01*
X15662801Y-10003650D02*
X15681849Y-10013174D01*
X15758039Y-10213174D02*
X15767563Y-10203650D01*
X15767563Y-10203650D02*
X15786611Y-10175079D01*
X15786611Y-10175079D02*
X15796134Y-10156031D01*
X15796134Y-10156031D02*
X15805658Y-10127460D01*
X15805658Y-10127460D02*
X15815182Y-10079841D01*
X15815182Y-10079841D02*
X15815182Y-10041746D01*
X15815182Y-10041746D02*
X15805658Y-9994127D01*
X15805658Y-9994127D02*
X15796134Y-9965555D01*
X15796134Y-9965555D02*
X15786611Y-9946508D01*
X15786611Y-9946508D02*
X15767563Y-9917936D01*
X15767563Y-9917936D02*
X15758039Y-9908412D01*
D12*
X10777856Y-10344856D02*
X10777856Y-10274144D01*
X10707144Y-10274144D01*
X10707144Y-10344856D01*
X10777856Y-10344856D01*
D11*
X11158039Y-10400984D02*
X11043753Y-10400984D01*
X11100896Y-10400984D02*
X11100896Y-10200984D01*
X11100896Y-10200984D02*
X11081848Y-10229555D01*
X11081848Y-10229555D02*
X11062801Y-10248603D01*
X11062801Y-10248603D02*
X11043753Y-10258127D01*
X11243753Y-10381936D02*
X11253277Y-10391460D01*
X11253277Y-10391460D02*
X11243753Y-10400984D01*
X11243753Y-10400984D02*
X11234229Y-10391460D01*
X11234229Y-10391460D02*
X11243753Y-10381936D01*
X11243753Y-10381936D02*
X11243753Y-10400984D01*
X11377086Y-10200984D02*
X11396134Y-10200984D01*
X11396134Y-10200984D02*
X11415182Y-10210508D01*
X11415182Y-10210508D02*
X11424705Y-10220031D01*
X11424705Y-10220031D02*
X11434229Y-10239079D01*
X11434229Y-10239079D02*
X11443753Y-10277174D01*
X11443753Y-10277174D02*
X11443753Y-10324793D01*
X11443753Y-10324793D02*
X11434229Y-10362889D01*
X11434229Y-10362889D02*
X11424705Y-10381936D01*
X11424705Y-10381936D02*
X11415182Y-10391460D01*
X11415182Y-10391460D02*
X11396134Y-10400984D01*
X11396134Y-10400984D02*
X11377086Y-10400984D01*
X11377086Y-10400984D02*
X11358039Y-10391460D01*
X11358039Y-10391460D02*
X11348515Y-10381936D01*
X11348515Y-10381936D02*
X11338991Y-10362889D01*
X11338991Y-10362889D02*
X11329467Y-10324793D01*
X11329467Y-10324793D02*
X11329467Y-10277174D01*
X11329467Y-10277174D02*
X11338991Y-10239079D01*
X11338991Y-10239079D02*
X11348515Y-10220031D01*
X11348515Y-10220031D02*
X11358039Y-10210508D01*
X11358039Y-10210508D02*
X11377086Y-10200984D01*
X11567562Y-10200984D02*
X11586610Y-10200984D01*
X11586610Y-10200984D02*
X11605658Y-10210508D01*
X11605658Y-10210508D02*
X11615182Y-10220031D01*
X11615182Y-10220031D02*
X11624705Y-10239079D01*
X11624705Y-10239079D02*
X11634229Y-10277174D01*
X11634229Y-10277174D02*
X11634229Y-10324793D01*
X11634229Y-10324793D02*
X11624705Y-10362889D01*
X11624705Y-10362889D02*
X11615182Y-10381936D01*
X11615182Y-10381936D02*
X11605658Y-10391460D01*
X11605658Y-10391460D02*
X11586610Y-10400984D01*
X11586610Y-10400984D02*
X11567562Y-10400984D01*
X11567562Y-10400984D02*
X11548515Y-10391460D01*
X11548515Y-10391460D02*
X11538991Y-10381936D01*
X11538991Y-10381936D02*
X11529467Y-10362889D01*
X11529467Y-10362889D02*
X11519943Y-10324793D01*
X11519943Y-10324793D02*
X11519943Y-10277174D01*
X11519943Y-10277174D02*
X11529467Y-10239079D01*
X11529467Y-10239079D02*
X11538991Y-10220031D01*
X11538991Y-10220031D02*
X11548515Y-10210508D01*
X11548515Y-10210508D02*
X11567562Y-10200984D01*
X11758039Y-10200984D02*
X11777086Y-10200984D01*
X11777086Y-10200984D02*
X11796134Y-10210508D01*
X11796134Y-10210508D02*
X11805658Y-10220031D01*
X11805658Y-10220031D02*
X11815182Y-10239079D01*
X11815182Y-10239079D02*
X11824705Y-10277174D01*
X11824705Y-10277174D02*
X11824705Y-10324793D01*
X11824705Y-10324793D02*
X11815182Y-10362889D01*
X11815182Y-10362889D02*
X11805658Y-10381936D01*
X11805658Y-10381936D02*
X11796134Y-10391460D01*
X11796134Y-10391460D02*
X11777086Y-10400984D01*
X11777086Y-10400984D02*
X11758039Y-10400984D01*
X11758039Y-10400984D02*
X11738991Y-10391460D01*
X11738991Y-10391460D02*
X11729467Y-10381936D01*
X11729467Y-10381936D02*
X11719943Y-10362889D01*
X11719943Y-10362889D02*
X11710420Y-10324793D01*
X11710420Y-10324793D02*
X11710420Y-10277174D01*
X11710420Y-10277174D02*
X11719943Y-10239079D01*
X11719943Y-10239079D02*
X11729467Y-10220031D01*
X11729467Y-10220031D02*
X11738991Y-10210508D01*
X11738991Y-10210508D02*
X11758039Y-10200984D01*
X11910420Y-10400984D02*
X11910420Y-10267650D01*
X11910420Y-10286698D02*
X11919943Y-10277174D01*
X11919943Y-10277174D02*
X11938991Y-10267650D01*
X11938991Y-10267650D02*
X11967563Y-10267650D01*
X11967563Y-10267650D02*
X11986610Y-10277174D01*
X11986610Y-10277174D02*
X11996134Y-10296222D01*
X11996134Y-10296222D02*
X11996134Y-10400984D01*
X11996134Y-10296222D02*
X12005658Y-10277174D01*
X12005658Y-10277174D02*
X12024705Y-10267650D01*
X12024705Y-10267650D02*
X12053277Y-10267650D01*
X12053277Y-10267650D02*
X12072324Y-10277174D01*
X12072324Y-10277174D02*
X12081848Y-10296222D01*
X12081848Y-10296222D02*
X12081848Y-10400984D01*
X12177086Y-10400984D02*
X12177086Y-10267650D01*
X12177086Y-10286698D02*
X12186610Y-10277174D01*
X12186610Y-10277174D02*
X12205658Y-10267650D01*
X12205658Y-10267650D02*
X12234229Y-10267650D01*
X12234229Y-10267650D02*
X12253277Y-10277174D01*
X12253277Y-10277174D02*
X12262801Y-10296222D01*
X12262801Y-10296222D02*
X12262801Y-10400984D01*
X12262801Y-10296222D02*
X12272324Y-10277174D01*
X12272324Y-10277174D02*
X12291372Y-10267650D01*
X12291372Y-10267650D02*
X12319943Y-10267650D01*
X12319943Y-10267650D02*
X12338991Y-10277174D01*
X12338991Y-10277174D02*
X12348515Y-10296222D01*
X12348515Y-10296222D02*
X12348515Y-10400984D01*
X12738991Y-10191460D02*
X12567563Y-10448603D01*
X12996134Y-10200984D02*
X13015182Y-10200984D01*
X13015182Y-10200984D02*
X13034229Y-10210508D01*
X13034229Y-10210508D02*
X13043753Y-10220031D01*
X13043753Y-10220031D02*
X13053277Y-10239079D01*
X13053277Y-10239079D02*
X13062801Y-10277174D01*
X13062801Y-10277174D02*
X13062801Y-10324793D01*
X13062801Y-10324793D02*
X13053277Y-10362889D01*
X13053277Y-10362889D02*
X13043753Y-10381936D01*
X13043753Y-10381936D02*
X13034229Y-10391460D01*
X13034229Y-10391460D02*
X13015182Y-10400984D01*
X13015182Y-10400984D02*
X12996134Y-10400984D01*
X12996134Y-10400984D02*
X12977086Y-10391460D01*
X12977086Y-10391460D02*
X12967563Y-10381936D01*
X12967563Y-10381936D02*
X12958039Y-10362889D01*
X12958039Y-10362889D02*
X12948515Y-10324793D01*
X12948515Y-10324793D02*
X12948515Y-10277174D01*
X12948515Y-10277174D02*
X12958039Y-10239079D01*
X12958039Y-10239079D02*
X12967563Y-10220031D01*
X12967563Y-10220031D02*
X12977086Y-10210508D01*
X12977086Y-10210508D02*
X12996134Y-10200984D01*
X13148515Y-10381936D02*
X13158039Y-10391460D01*
X13158039Y-10391460D02*
X13148515Y-10400984D01*
X13148515Y-10400984D02*
X13138991Y-10391460D01*
X13138991Y-10391460D02*
X13148515Y-10381936D01*
X13148515Y-10381936D02*
X13148515Y-10400984D01*
X13281848Y-10200984D02*
X13300896Y-10200984D01*
X13300896Y-10200984D02*
X13319944Y-10210508D01*
X13319944Y-10210508D02*
X13329467Y-10220031D01*
X13329467Y-10220031D02*
X13338991Y-10239079D01*
X13338991Y-10239079D02*
X13348515Y-10277174D01*
X13348515Y-10277174D02*
X13348515Y-10324793D01*
X13348515Y-10324793D02*
X13338991Y-10362889D01*
X13338991Y-10362889D02*
X13329467Y-10381936D01*
X13329467Y-10381936D02*
X13319944Y-10391460D01*
X13319944Y-10391460D02*
X13300896Y-10400984D01*
X13300896Y-10400984D02*
X13281848Y-10400984D01*
X13281848Y-10400984D02*
X13262801Y-10391460D01*
X13262801Y-10391460D02*
X13253277Y-10381936D01*
X13253277Y-10381936D02*
X13243753Y-10362889D01*
X13243753Y-10362889D02*
X13234229Y-10324793D01*
X13234229Y-10324793D02*
X13234229Y-10277174D01*
X13234229Y-10277174D02*
X13243753Y-10239079D01*
X13243753Y-10239079D02*
X13253277Y-10220031D01*
X13253277Y-10220031D02*
X13262801Y-10210508D01*
X13262801Y-10210508D02*
X13281848Y-10200984D01*
X13415182Y-10200984D02*
X13538991Y-10200984D01*
X13538991Y-10200984D02*
X13472325Y-10277174D01*
X13472325Y-10277174D02*
X13500896Y-10277174D01*
X13500896Y-10277174D02*
X13519944Y-10286698D01*
X13519944Y-10286698D02*
X13529467Y-10296222D01*
X13529467Y-10296222D02*
X13538991Y-10315270D01*
X13538991Y-10315270D02*
X13538991Y-10362889D01*
X13538991Y-10362889D02*
X13529467Y-10381936D01*
X13529467Y-10381936D02*
X13519944Y-10391460D01*
X13519944Y-10391460D02*
X13500896Y-10400984D01*
X13500896Y-10400984D02*
X13443753Y-10400984D01*
X13443753Y-10400984D02*
X13424706Y-10391460D01*
X13424706Y-10391460D02*
X13415182Y-10381936D01*
X13634229Y-10400984D02*
X13672325Y-10400984D01*
X13672325Y-10400984D02*
X13691372Y-10391460D01*
X13691372Y-10391460D02*
X13700896Y-10381936D01*
X13700896Y-10381936D02*
X13719944Y-10353365D01*
X13719944Y-10353365D02*
X13729467Y-10315270D01*
X13729467Y-10315270D02*
X13729467Y-10239079D01*
X13729467Y-10239079D02*
X13719944Y-10220031D01*
X13719944Y-10220031D02*
X13710420Y-10210508D01*
X13710420Y-10210508D02*
X13691372Y-10200984D01*
X13691372Y-10200984D02*
X13653277Y-10200984D01*
X13653277Y-10200984D02*
X13634229Y-10210508D01*
X13634229Y-10210508D02*
X13624706Y-10220031D01*
X13624706Y-10220031D02*
X13615182Y-10239079D01*
X13615182Y-10239079D02*
X13615182Y-10286698D01*
X13615182Y-10286698D02*
X13624706Y-10305746D01*
X13624706Y-10305746D02*
X13634229Y-10315270D01*
X13634229Y-10315270D02*
X13653277Y-10324793D01*
X13653277Y-10324793D02*
X13691372Y-10324793D01*
X13691372Y-10324793D02*
X13710420Y-10315270D01*
X13710420Y-10315270D02*
X13719944Y-10305746D01*
X13719944Y-10305746D02*
X13729467Y-10286698D01*
X13900896Y-10267650D02*
X13900896Y-10400984D01*
X13853277Y-10191460D02*
X13805658Y-10334317D01*
X13805658Y-10334317D02*
X13929467Y-10334317D01*
X13996134Y-10200984D02*
X13996134Y-10239079D01*
X14072325Y-10200984D02*
X14072325Y-10239079D01*
X14367563Y-10477174D02*
X14358039Y-10467650D01*
X14358039Y-10467650D02*
X14338991Y-10439079D01*
X14338991Y-10439079D02*
X14329468Y-10420031D01*
X14329468Y-10420031D02*
X14319944Y-10391460D01*
X14319944Y-10391460D02*
X14310420Y-10343841D01*
X14310420Y-10343841D02*
X14310420Y-10305746D01*
X14310420Y-10305746D02*
X14319944Y-10258127D01*
X14319944Y-10258127D02*
X14329468Y-10229555D01*
X14329468Y-10229555D02*
X14338991Y-10210508D01*
X14338991Y-10210508D02*
X14358039Y-10181936D01*
X14358039Y-10181936D02*
X14367563Y-10172412D01*
X14538991Y-10200984D02*
X14443753Y-10200984D01*
X14443753Y-10200984D02*
X14434229Y-10296222D01*
X14434229Y-10296222D02*
X14443753Y-10286698D01*
X14443753Y-10286698D02*
X14462801Y-10277174D01*
X14462801Y-10277174D02*
X14510420Y-10277174D01*
X14510420Y-10277174D02*
X14529468Y-10286698D01*
X14529468Y-10286698D02*
X14538991Y-10296222D01*
X14538991Y-10296222D02*
X14548515Y-10315270D01*
X14548515Y-10315270D02*
X14548515Y-10362889D01*
X14548515Y-10362889D02*
X14538991Y-10381936D01*
X14538991Y-10381936D02*
X14529468Y-10391460D01*
X14529468Y-10391460D02*
X14510420Y-10400984D01*
X14510420Y-10400984D02*
X14462801Y-10400984D01*
X14462801Y-10400984D02*
X14443753Y-10391460D01*
X14443753Y-10391460D02*
X14434229Y-10381936D01*
X14786610Y-10400984D02*
X14786610Y-10200984D01*
X14872325Y-10400984D02*
X14872325Y-10296222D01*
X14872325Y-10296222D02*
X14862801Y-10277174D01*
X14862801Y-10277174D02*
X14843753Y-10267650D01*
X14843753Y-10267650D02*
X14815182Y-10267650D01*
X14815182Y-10267650D02*
X14796134Y-10277174D01*
X14796134Y-10277174D02*
X14786610Y-10286698D01*
X14996134Y-10400984D02*
X14977087Y-10391460D01*
X14977087Y-10391460D02*
X14967563Y-10381936D01*
X14967563Y-10381936D02*
X14958039Y-10362889D01*
X14958039Y-10362889D02*
X14958039Y-10305746D01*
X14958039Y-10305746D02*
X14967563Y-10286698D01*
X14967563Y-10286698D02*
X14977087Y-10277174D01*
X14977087Y-10277174D02*
X14996134Y-10267650D01*
X14996134Y-10267650D02*
X15024706Y-10267650D01*
X15024706Y-10267650D02*
X15043753Y-10277174D01*
X15043753Y-10277174D02*
X15053277Y-10286698D01*
X15053277Y-10286698D02*
X15062801Y-10305746D01*
X15062801Y-10305746D02*
X15062801Y-10362889D01*
X15062801Y-10362889D02*
X15053277Y-10381936D01*
X15053277Y-10381936D02*
X15043753Y-10391460D01*
X15043753Y-10391460D02*
X15024706Y-10400984D01*
X15024706Y-10400984D02*
X14996134Y-10400984D01*
X15177087Y-10400984D02*
X15158039Y-10391460D01*
X15158039Y-10391460D02*
X15148515Y-10372412D01*
X15148515Y-10372412D02*
X15148515Y-10200984D01*
X15329468Y-10391460D02*
X15310420Y-10400984D01*
X15310420Y-10400984D02*
X15272325Y-10400984D01*
X15272325Y-10400984D02*
X15253277Y-10391460D01*
X15253277Y-10391460D02*
X15243753Y-10372412D01*
X15243753Y-10372412D02*
X15243753Y-10296222D01*
X15243753Y-10296222D02*
X15253277Y-10277174D01*
X15253277Y-10277174D02*
X15272325Y-10267650D01*
X15272325Y-10267650D02*
X15310420Y-10267650D01*
X15310420Y-10267650D02*
X15329468Y-10277174D01*
X15329468Y-10277174D02*
X15338991Y-10296222D01*
X15338991Y-10296222D02*
X15338991Y-10315270D01*
X15338991Y-10315270D02*
X15243753Y-10334317D01*
X15415182Y-10391460D02*
X15434230Y-10400984D01*
X15434230Y-10400984D02*
X15472325Y-10400984D01*
X15472325Y-10400984D02*
X15491372Y-10391460D01*
X15491372Y-10391460D02*
X15500896Y-10372412D01*
X15500896Y-10372412D02*
X15500896Y-10362889D01*
X15500896Y-10362889D02*
X15491372Y-10343841D01*
X15491372Y-10343841D02*
X15472325Y-10334317D01*
X15472325Y-10334317D02*
X15443753Y-10334317D01*
X15443753Y-10334317D02*
X15424706Y-10324793D01*
X15424706Y-10324793D02*
X15415182Y-10305746D01*
X15415182Y-10305746D02*
X15415182Y-10296222D01*
X15415182Y-10296222D02*
X15424706Y-10277174D01*
X15424706Y-10277174D02*
X15443753Y-10267650D01*
X15443753Y-10267650D02*
X15472325Y-10267650D01*
X15472325Y-10267650D02*
X15491372Y-10277174D01*
X15567563Y-10477174D02*
X15577087Y-10467650D01*
X15577087Y-10467650D02*
X15596134Y-10439079D01*
X15596134Y-10439079D02*
X15605658Y-10420031D01*
X15605658Y-10420031D02*
X15615182Y-10391460D01*
X15615182Y-10391460D02*
X15624706Y-10343841D01*
X15624706Y-10343841D02*
X15624706Y-10305746D01*
X15624706Y-10305746D02*
X15615182Y-10258127D01*
X15615182Y-10258127D02*
X15605658Y-10229555D01*
X15605658Y-10229555D02*
X15596134Y-10210508D01*
X15596134Y-10210508D02*
X15577087Y-10181936D01*
X15577087Y-10181936D02*
X15567563Y-10172412D01*
D13*
X10727500Y-10638500D02*
X10792500Y-10573500D01*
X10727500Y-10508500D01*
X10662500Y-10573500D01*
X10727500Y-10638500D01*
D11*
X11158039Y-10664984D02*
X11043753Y-10664984D01*
X11100896Y-10664984D02*
X11100896Y-10464984D01*
X11100896Y-10464984D02*
X11081848Y-10493555D01*
X11081848Y-10493555D02*
X11062801Y-10512603D01*
X11062801Y-10512603D02*
X11043753Y-10522127D01*
X11243753Y-10645936D02*
X11253277Y-10655460D01*
X11253277Y-10655460D02*
X11243753Y-10664984D01*
X11243753Y-10664984D02*
X11234229Y-10655460D01*
X11234229Y-10655460D02*
X11243753Y-10645936D01*
X11243753Y-10645936D02*
X11243753Y-10664984D01*
X11319943Y-10464984D02*
X11443753Y-10464984D01*
X11443753Y-10464984D02*
X11377086Y-10541174D01*
X11377086Y-10541174D02*
X11405658Y-10541174D01*
X11405658Y-10541174D02*
X11424705Y-10550698D01*
X11424705Y-10550698D02*
X11434229Y-10560222D01*
X11434229Y-10560222D02*
X11443753Y-10579270D01*
X11443753Y-10579270D02*
X11443753Y-10626889D01*
X11443753Y-10626889D02*
X11434229Y-10645936D01*
X11434229Y-10645936D02*
X11424705Y-10655460D01*
X11424705Y-10655460D02*
X11405658Y-10664984D01*
X11405658Y-10664984D02*
X11348515Y-10664984D01*
X11348515Y-10664984D02*
X11329467Y-10655460D01*
X11329467Y-10655460D02*
X11319943Y-10645936D01*
X11567562Y-10464984D02*
X11586610Y-10464984D01*
X11586610Y-10464984D02*
X11605658Y-10474508D01*
X11605658Y-10474508D02*
X11615182Y-10484031D01*
X11615182Y-10484031D02*
X11624705Y-10503079D01*
X11624705Y-10503079D02*
X11634229Y-10541174D01*
X11634229Y-10541174D02*
X11634229Y-10588793D01*
X11634229Y-10588793D02*
X11624705Y-10626889D01*
X11624705Y-10626889D02*
X11615182Y-10645936D01*
X11615182Y-10645936D02*
X11605658Y-10655460D01*
X11605658Y-10655460D02*
X11586610Y-10664984D01*
X11586610Y-10664984D02*
X11567562Y-10664984D01*
X11567562Y-10664984D02*
X11548515Y-10655460D01*
X11548515Y-10655460D02*
X11538991Y-10645936D01*
X11538991Y-10645936D02*
X11529467Y-10626889D01*
X11529467Y-10626889D02*
X11519943Y-10588793D01*
X11519943Y-10588793D02*
X11519943Y-10541174D01*
X11519943Y-10541174D02*
X11529467Y-10503079D01*
X11529467Y-10503079D02*
X11538991Y-10484031D01*
X11538991Y-10484031D02*
X11548515Y-10474508D01*
X11548515Y-10474508D02*
X11567562Y-10464984D01*
X11758039Y-10464984D02*
X11777086Y-10464984D01*
X11777086Y-10464984D02*
X11796134Y-10474508D01*
X11796134Y-10474508D02*
X11805658Y-10484031D01*
X11805658Y-10484031D02*
X11815182Y-10503079D01*
X11815182Y-10503079D02*
X11824705Y-10541174D01*
X11824705Y-10541174D02*
X11824705Y-10588793D01*
X11824705Y-10588793D02*
X11815182Y-10626889D01*
X11815182Y-10626889D02*
X11805658Y-10645936D01*
X11805658Y-10645936D02*
X11796134Y-10655460D01*
X11796134Y-10655460D02*
X11777086Y-10664984D01*
X11777086Y-10664984D02*
X11758039Y-10664984D01*
X11758039Y-10664984D02*
X11738991Y-10655460D01*
X11738991Y-10655460D02*
X11729467Y-10645936D01*
X11729467Y-10645936D02*
X11719943Y-10626889D01*
X11719943Y-10626889D02*
X11710420Y-10588793D01*
X11710420Y-10588793D02*
X11710420Y-10541174D01*
X11710420Y-10541174D02*
X11719943Y-10503079D01*
X11719943Y-10503079D02*
X11729467Y-10484031D01*
X11729467Y-10484031D02*
X11738991Y-10474508D01*
X11738991Y-10474508D02*
X11758039Y-10464984D01*
X11910420Y-10664984D02*
X11910420Y-10531650D01*
X11910420Y-10550698D02*
X11919943Y-10541174D01*
X11919943Y-10541174D02*
X11938991Y-10531650D01*
X11938991Y-10531650D02*
X11967563Y-10531650D01*
X11967563Y-10531650D02*
X11986610Y-10541174D01*
X11986610Y-10541174D02*
X11996134Y-10560222D01*
X11996134Y-10560222D02*
X11996134Y-10664984D01*
X11996134Y-10560222D02*
X12005658Y-10541174D01*
X12005658Y-10541174D02*
X12024705Y-10531650D01*
X12024705Y-10531650D02*
X12053277Y-10531650D01*
X12053277Y-10531650D02*
X12072324Y-10541174D01*
X12072324Y-10541174D02*
X12081848Y-10560222D01*
X12081848Y-10560222D02*
X12081848Y-10664984D01*
X12177086Y-10664984D02*
X12177086Y-10531650D01*
X12177086Y-10550698D02*
X12186610Y-10541174D01*
X12186610Y-10541174D02*
X12205658Y-10531650D01*
X12205658Y-10531650D02*
X12234229Y-10531650D01*
X12234229Y-10531650D02*
X12253277Y-10541174D01*
X12253277Y-10541174D02*
X12262801Y-10560222D01*
X12262801Y-10560222D02*
X12262801Y-10664984D01*
X12262801Y-10560222D02*
X12272324Y-10541174D01*
X12272324Y-10541174D02*
X12291372Y-10531650D01*
X12291372Y-10531650D02*
X12319943Y-10531650D01*
X12319943Y-10531650D02*
X12338991Y-10541174D01*
X12338991Y-10541174D02*
X12348515Y-10560222D01*
X12348515Y-10560222D02*
X12348515Y-10664984D01*
X12738991Y-10455460D02*
X12567563Y-10712603D01*
X12996134Y-10464984D02*
X13015182Y-10464984D01*
X13015182Y-10464984D02*
X13034229Y-10474508D01*
X13034229Y-10474508D02*
X13043753Y-10484031D01*
X13043753Y-10484031D02*
X13053277Y-10503079D01*
X13053277Y-10503079D02*
X13062801Y-10541174D01*
X13062801Y-10541174D02*
X13062801Y-10588793D01*
X13062801Y-10588793D02*
X13053277Y-10626889D01*
X13053277Y-10626889D02*
X13043753Y-10645936D01*
X13043753Y-10645936D02*
X13034229Y-10655460D01*
X13034229Y-10655460D02*
X13015182Y-10664984D01*
X13015182Y-10664984D02*
X12996134Y-10664984D01*
X12996134Y-10664984D02*
X12977086Y-10655460D01*
X12977086Y-10655460D02*
X12967563Y-10645936D01*
X12967563Y-10645936D02*
X12958039Y-10626889D01*
X12958039Y-10626889D02*
X12948515Y-10588793D01*
X12948515Y-10588793D02*
X12948515Y-10541174D01*
X12948515Y-10541174D02*
X12958039Y-10503079D01*
X12958039Y-10503079D02*
X12967563Y-10484031D01*
X12967563Y-10484031D02*
X12977086Y-10474508D01*
X12977086Y-10474508D02*
X12996134Y-10464984D01*
X13148515Y-10645936D02*
X13158039Y-10655460D01*
X13158039Y-10655460D02*
X13148515Y-10664984D01*
X13148515Y-10664984D02*
X13138991Y-10655460D01*
X13138991Y-10655460D02*
X13148515Y-10645936D01*
X13148515Y-10645936D02*
X13148515Y-10664984D01*
X13281848Y-10464984D02*
X13300896Y-10464984D01*
X13300896Y-10464984D02*
X13319944Y-10474508D01*
X13319944Y-10474508D02*
X13329467Y-10484031D01*
X13329467Y-10484031D02*
X13338991Y-10503079D01*
X13338991Y-10503079D02*
X13348515Y-10541174D01*
X13348515Y-10541174D02*
X13348515Y-10588793D01*
X13348515Y-10588793D02*
X13338991Y-10626889D01*
X13338991Y-10626889D02*
X13329467Y-10645936D01*
X13329467Y-10645936D02*
X13319944Y-10655460D01*
X13319944Y-10655460D02*
X13300896Y-10664984D01*
X13300896Y-10664984D02*
X13281848Y-10664984D01*
X13281848Y-10664984D02*
X13262801Y-10655460D01*
X13262801Y-10655460D02*
X13253277Y-10645936D01*
X13253277Y-10645936D02*
X13243753Y-10626889D01*
X13243753Y-10626889D02*
X13234229Y-10588793D01*
X13234229Y-10588793D02*
X13234229Y-10541174D01*
X13234229Y-10541174D02*
X13243753Y-10503079D01*
X13243753Y-10503079D02*
X13253277Y-10484031D01*
X13253277Y-10484031D02*
X13262801Y-10474508D01*
X13262801Y-10474508D02*
X13281848Y-10464984D01*
X13529467Y-10464984D02*
X13434229Y-10464984D01*
X13434229Y-10464984D02*
X13424706Y-10560222D01*
X13424706Y-10560222D02*
X13434229Y-10550698D01*
X13434229Y-10550698D02*
X13453277Y-10541174D01*
X13453277Y-10541174D02*
X13500896Y-10541174D01*
X13500896Y-10541174D02*
X13519944Y-10550698D01*
X13519944Y-10550698D02*
X13529467Y-10560222D01*
X13529467Y-10560222D02*
X13538991Y-10579270D01*
X13538991Y-10579270D02*
X13538991Y-10626889D01*
X13538991Y-10626889D02*
X13529467Y-10645936D01*
X13529467Y-10645936D02*
X13519944Y-10655460D01*
X13519944Y-10655460D02*
X13500896Y-10664984D01*
X13500896Y-10664984D02*
X13453277Y-10664984D01*
X13453277Y-10664984D02*
X13434229Y-10655460D01*
X13434229Y-10655460D02*
X13424706Y-10645936D01*
X13729467Y-10664984D02*
X13615182Y-10664984D01*
X13672325Y-10664984D02*
X13672325Y-10464984D01*
X13672325Y-10464984D02*
X13653277Y-10493555D01*
X13653277Y-10493555D02*
X13634229Y-10512603D01*
X13634229Y-10512603D02*
X13615182Y-10522127D01*
X13805658Y-10484031D02*
X13815182Y-10474508D01*
X13815182Y-10474508D02*
X13834229Y-10464984D01*
X13834229Y-10464984D02*
X13881848Y-10464984D01*
X13881848Y-10464984D02*
X13900896Y-10474508D01*
X13900896Y-10474508D02*
X13910420Y-10484031D01*
X13910420Y-10484031D02*
X13919944Y-10503079D01*
X13919944Y-10503079D02*
X13919944Y-10522127D01*
X13919944Y-10522127D02*
X13910420Y-10550698D01*
X13910420Y-10550698D02*
X13796134Y-10664984D01*
X13796134Y-10664984D02*
X13919944Y-10664984D01*
X13996134Y-10464984D02*
X13996134Y-10503079D01*
X14072325Y-10464984D02*
X14072325Y-10503079D01*
X14367563Y-10741174D02*
X14358039Y-10731650D01*
X14358039Y-10731650D02*
X14338991Y-10703079D01*
X14338991Y-10703079D02*
X14329468Y-10684031D01*
X14329468Y-10684031D02*
X14319944Y-10655460D01*
X14319944Y-10655460D02*
X14310420Y-10607841D01*
X14310420Y-10607841D02*
X14310420Y-10569746D01*
X14310420Y-10569746D02*
X14319944Y-10522127D01*
X14319944Y-10522127D02*
X14329468Y-10493555D01*
X14329468Y-10493555D02*
X14338991Y-10474508D01*
X14338991Y-10474508D02*
X14358039Y-10445936D01*
X14358039Y-10445936D02*
X14367563Y-10436412D01*
X14538991Y-10464984D02*
X14443753Y-10464984D01*
X14443753Y-10464984D02*
X14434229Y-10560222D01*
X14434229Y-10560222D02*
X14443753Y-10550698D01*
X14443753Y-10550698D02*
X14462801Y-10541174D01*
X14462801Y-10541174D02*
X14510420Y-10541174D01*
X14510420Y-10541174D02*
X14529468Y-10550698D01*
X14529468Y-10550698D02*
X14538991Y-10560222D01*
X14538991Y-10560222D02*
X14548515Y-10579270D01*
X14548515Y-10579270D02*
X14548515Y-10626889D01*
X14548515Y-10626889D02*
X14538991Y-10645936D01*
X14538991Y-10645936D02*
X14529468Y-10655460D01*
X14529468Y-10655460D02*
X14510420Y-10664984D01*
X14510420Y-10664984D02*
X14462801Y-10664984D01*
X14462801Y-10664984D02*
X14443753Y-10655460D01*
X14443753Y-10655460D02*
X14434229Y-10645936D01*
X14786610Y-10664984D02*
X14786610Y-10464984D01*
X14872325Y-10664984D02*
X14872325Y-10560222D01*
X14872325Y-10560222D02*
X14862801Y-10541174D01*
X14862801Y-10541174D02*
X14843753Y-10531650D01*
X14843753Y-10531650D02*
X14815182Y-10531650D01*
X14815182Y-10531650D02*
X14796134Y-10541174D01*
X14796134Y-10541174D02*
X14786610Y-10550698D01*
X14996134Y-10664984D02*
X14977087Y-10655460D01*
X14977087Y-10655460D02*
X14967563Y-10645936D01*
X14967563Y-10645936D02*
X14958039Y-10626889D01*
X14958039Y-10626889D02*
X14958039Y-10569746D01*
X14958039Y-10569746D02*
X14967563Y-10550698D01*
X14967563Y-10550698D02*
X14977087Y-10541174D01*
X14977087Y-10541174D02*
X14996134Y-10531650D01*
X14996134Y-10531650D02*
X15024706Y-10531650D01*
X15024706Y-10531650D02*
X15043753Y-10541174D01*
X15043753Y-10541174D02*
X15053277Y-10550698D01*
X15053277Y-10550698D02*
X15062801Y-10569746D01*
X15062801Y-10569746D02*
X15062801Y-10626889D01*
X15062801Y-10626889D02*
X15053277Y-10645936D01*
X15053277Y-10645936D02*
X15043753Y-10655460D01*
X15043753Y-10655460D02*
X15024706Y-10664984D01*
X15024706Y-10664984D02*
X14996134Y-10664984D01*
X15177087Y-10664984D02*
X15158039Y-10655460D01*
X15158039Y-10655460D02*
X15148515Y-10636412D01*
X15148515Y-10636412D02*
X15148515Y-10464984D01*
X15329468Y-10655460D02*
X15310420Y-10664984D01*
X15310420Y-10664984D02*
X15272325Y-10664984D01*
X15272325Y-10664984D02*
X15253277Y-10655460D01*
X15253277Y-10655460D02*
X15243753Y-10636412D01*
X15243753Y-10636412D02*
X15243753Y-10560222D01*
X15243753Y-10560222D02*
X15253277Y-10541174D01*
X15253277Y-10541174D02*
X15272325Y-10531650D01*
X15272325Y-10531650D02*
X15310420Y-10531650D01*
X15310420Y-10531650D02*
X15329468Y-10541174D01*
X15329468Y-10541174D02*
X15338991Y-10560222D01*
X15338991Y-10560222D02*
X15338991Y-10579270D01*
X15338991Y-10579270D02*
X15243753Y-10598317D01*
X15415182Y-10655460D02*
X15434230Y-10664984D01*
X15434230Y-10664984D02*
X15472325Y-10664984D01*
X15472325Y-10664984D02*
X15491372Y-10655460D01*
X15491372Y-10655460D02*
X15500896Y-10636412D01*
X15500896Y-10636412D02*
X15500896Y-10626889D01*
X15500896Y-10626889D02*
X15491372Y-10607841D01*
X15491372Y-10607841D02*
X15472325Y-10598317D01*
X15472325Y-10598317D02*
X15443753Y-10598317D01*
X15443753Y-10598317D02*
X15424706Y-10588793D01*
X15424706Y-10588793D02*
X15415182Y-10569746D01*
X15415182Y-10569746D02*
X15415182Y-10560222D01*
X15415182Y-10560222D02*
X15424706Y-10541174D01*
X15424706Y-10541174D02*
X15443753Y-10531650D01*
X15443753Y-10531650D02*
X15472325Y-10531650D01*
X15472325Y-10531650D02*
X15491372Y-10541174D01*
X15567563Y-10741174D02*
X15577087Y-10731650D01*
X15577087Y-10731650D02*
X15596134Y-10703079D01*
X15596134Y-10703079D02*
X15605658Y-10684031D01*
X15605658Y-10684031D02*
X15615182Y-10655460D01*
X15615182Y-10655460D02*
X15624706Y-10607841D01*
X15624706Y-10607841D02*
X15624706Y-10569746D01*
X15624706Y-10569746D02*
X15615182Y-10522127D01*
X15615182Y-10522127D02*
X15605658Y-10493555D01*
X15605658Y-10493555D02*
X15596134Y-10474508D01*
X15596134Y-10474508D02*
X15577087Y-10445936D01*
X15577087Y-10445936D02*
X15567563Y-10436412D01*
D14*
X10632500Y-10757500D02*
X10792500Y-10917500D01*
X10792500Y-10757500D02*
X10632500Y-10917500D01*
X10792500Y-10837500D02*
G75*
G02*
X10632500Y-10837500I-80000J0D01*
G01*
X10632500Y-10837500D02*
G75*
G02*
X10792500Y-10837500I80000J0D01*
G01*
D11*
X11158039Y-10928984D02*
X11043753Y-10928984D01*
X11100896Y-10928984D02*
X11100896Y-10728984D01*
X11100896Y-10728984D02*
X11081848Y-10757555D01*
X11081848Y-10757555D02*
X11062801Y-10776603D01*
X11062801Y-10776603D02*
X11043753Y-10786127D01*
X11243753Y-10909936D02*
X11253277Y-10919460D01*
X11253277Y-10919460D02*
X11243753Y-10928984D01*
X11243753Y-10928984D02*
X11234229Y-10919460D01*
X11234229Y-10919460D02*
X11243753Y-10909936D01*
X11243753Y-10909936D02*
X11243753Y-10928984D01*
X11424705Y-10728984D02*
X11386610Y-10728984D01*
X11386610Y-10728984D02*
X11367562Y-10738508D01*
X11367562Y-10738508D02*
X11358039Y-10748031D01*
X11358039Y-10748031D02*
X11338991Y-10776603D01*
X11338991Y-10776603D02*
X11329467Y-10814698D01*
X11329467Y-10814698D02*
X11329467Y-10890889D01*
X11329467Y-10890889D02*
X11338991Y-10909936D01*
X11338991Y-10909936D02*
X11348515Y-10919460D01*
X11348515Y-10919460D02*
X11367562Y-10928984D01*
X11367562Y-10928984D02*
X11405658Y-10928984D01*
X11405658Y-10928984D02*
X11424705Y-10919460D01*
X11424705Y-10919460D02*
X11434229Y-10909936D01*
X11434229Y-10909936D02*
X11443753Y-10890889D01*
X11443753Y-10890889D02*
X11443753Y-10843270D01*
X11443753Y-10843270D02*
X11434229Y-10824222D01*
X11434229Y-10824222D02*
X11424705Y-10814698D01*
X11424705Y-10814698D02*
X11405658Y-10805174D01*
X11405658Y-10805174D02*
X11367562Y-10805174D01*
X11367562Y-10805174D02*
X11348515Y-10814698D01*
X11348515Y-10814698D02*
X11338991Y-10824222D01*
X11338991Y-10824222D02*
X11329467Y-10843270D01*
X11567562Y-10728984D02*
X11586610Y-10728984D01*
X11586610Y-10728984D02*
X11605658Y-10738508D01*
X11605658Y-10738508D02*
X11615182Y-10748031D01*
X11615182Y-10748031D02*
X11624705Y-10767079D01*
X11624705Y-10767079D02*
X11634229Y-10805174D01*
X11634229Y-10805174D02*
X11634229Y-10852793D01*
X11634229Y-10852793D02*
X11624705Y-10890889D01*
X11624705Y-10890889D02*
X11615182Y-10909936D01*
X11615182Y-10909936D02*
X11605658Y-10919460D01*
X11605658Y-10919460D02*
X11586610Y-10928984D01*
X11586610Y-10928984D02*
X11567562Y-10928984D01*
X11567562Y-10928984D02*
X11548515Y-10919460D01*
X11548515Y-10919460D02*
X11538991Y-10909936D01*
X11538991Y-10909936D02*
X11529467Y-10890889D01*
X11529467Y-10890889D02*
X11519943Y-10852793D01*
X11519943Y-10852793D02*
X11519943Y-10805174D01*
X11519943Y-10805174D02*
X11529467Y-10767079D01*
X11529467Y-10767079D02*
X11538991Y-10748031D01*
X11538991Y-10748031D02*
X11548515Y-10738508D01*
X11548515Y-10738508D02*
X11567562Y-10728984D01*
X11758039Y-10728984D02*
X11777086Y-10728984D01*
X11777086Y-10728984D02*
X11796134Y-10738508D01*
X11796134Y-10738508D02*
X11805658Y-10748031D01*
X11805658Y-10748031D02*
X11815182Y-10767079D01*
X11815182Y-10767079D02*
X11824705Y-10805174D01*
X11824705Y-10805174D02*
X11824705Y-10852793D01*
X11824705Y-10852793D02*
X11815182Y-10890889D01*
X11815182Y-10890889D02*
X11805658Y-10909936D01*
X11805658Y-10909936D02*
X11796134Y-10919460D01*
X11796134Y-10919460D02*
X11777086Y-10928984D01*
X11777086Y-10928984D02*
X11758039Y-10928984D01*
X11758039Y-10928984D02*
X11738991Y-10919460D01*
X11738991Y-10919460D02*
X11729467Y-10909936D01*
X11729467Y-10909936D02*
X11719943Y-10890889D01*
X11719943Y-10890889D02*
X11710420Y-10852793D01*
X11710420Y-10852793D02*
X11710420Y-10805174D01*
X11710420Y-10805174D02*
X11719943Y-10767079D01*
X11719943Y-10767079D02*
X11729467Y-10748031D01*
X11729467Y-10748031D02*
X11738991Y-10738508D01*
X11738991Y-10738508D02*
X11758039Y-10728984D01*
X11910420Y-10928984D02*
X11910420Y-10795650D01*
X11910420Y-10814698D02*
X11919943Y-10805174D01*
X11919943Y-10805174D02*
X11938991Y-10795650D01*
X11938991Y-10795650D02*
X11967563Y-10795650D01*
X11967563Y-10795650D02*
X11986610Y-10805174D01*
X11986610Y-10805174D02*
X11996134Y-10824222D01*
X11996134Y-10824222D02*
X11996134Y-10928984D01*
X11996134Y-10824222D02*
X12005658Y-10805174D01*
X12005658Y-10805174D02*
X12024705Y-10795650D01*
X12024705Y-10795650D02*
X12053277Y-10795650D01*
X12053277Y-10795650D02*
X12072324Y-10805174D01*
X12072324Y-10805174D02*
X12081848Y-10824222D01*
X12081848Y-10824222D02*
X12081848Y-10928984D01*
X12177086Y-10928984D02*
X12177086Y-10795650D01*
X12177086Y-10814698D02*
X12186610Y-10805174D01*
X12186610Y-10805174D02*
X12205658Y-10795650D01*
X12205658Y-10795650D02*
X12234229Y-10795650D01*
X12234229Y-10795650D02*
X12253277Y-10805174D01*
X12253277Y-10805174D02*
X12262801Y-10824222D01*
X12262801Y-10824222D02*
X12262801Y-10928984D01*
X12262801Y-10824222D02*
X12272324Y-10805174D01*
X12272324Y-10805174D02*
X12291372Y-10795650D01*
X12291372Y-10795650D02*
X12319943Y-10795650D01*
X12319943Y-10795650D02*
X12338991Y-10805174D01*
X12338991Y-10805174D02*
X12348515Y-10824222D01*
X12348515Y-10824222D02*
X12348515Y-10928984D01*
X12738991Y-10719460D02*
X12567563Y-10976603D01*
X12996134Y-10728984D02*
X13015182Y-10728984D01*
X13015182Y-10728984D02*
X13034229Y-10738508D01*
X13034229Y-10738508D02*
X13043753Y-10748031D01*
X13043753Y-10748031D02*
X13053277Y-10767079D01*
X13053277Y-10767079D02*
X13062801Y-10805174D01*
X13062801Y-10805174D02*
X13062801Y-10852793D01*
X13062801Y-10852793D02*
X13053277Y-10890889D01*
X13053277Y-10890889D02*
X13043753Y-10909936D01*
X13043753Y-10909936D02*
X13034229Y-10919460D01*
X13034229Y-10919460D02*
X13015182Y-10928984D01*
X13015182Y-10928984D02*
X12996134Y-10928984D01*
X12996134Y-10928984D02*
X12977086Y-10919460D01*
X12977086Y-10919460D02*
X12967563Y-10909936D01*
X12967563Y-10909936D02*
X12958039Y-10890889D01*
X12958039Y-10890889D02*
X12948515Y-10852793D01*
X12948515Y-10852793D02*
X12948515Y-10805174D01*
X12948515Y-10805174D02*
X12958039Y-10767079D01*
X12958039Y-10767079D02*
X12967563Y-10748031D01*
X12967563Y-10748031D02*
X12977086Y-10738508D01*
X12977086Y-10738508D02*
X12996134Y-10728984D01*
X13148515Y-10909936D02*
X13158039Y-10919460D01*
X13158039Y-10919460D02*
X13148515Y-10928984D01*
X13148515Y-10928984D02*
X13138991Y-10919460D01*
X13138991Y-10919460D02*
X13148515Y-10909936D01*
X13148515Y-10909936D02*
X13148515Y-10928984D01*
X13281848Y-10728984D02*
X13300896Y-10728984D01*
X13300896Y-10728984D02*
X13319944Y-10738508D01*
X13319944Y-10738508D02*
X13329467Y-10748031D01*
X13329467Y-10748031D02*
X13338991Y-10767079D01*
X13338991Y-10767079D02*
X13348515Y-10805174D01*
X13348515Y-10805174D02*
X13348515Y-10852793D01*
X13348515Y-10852793D02*
X13338991Y-10890889D01*
X13338991Y-10890889D02*
X13329467Y-10909936D01*
X13329467Y-10909936D02*
X13319944Y-10919460D01*
X13319944Y-10919460D02*
X13300896Y-10928984D01*
X13300896Y-10928984D02*
X13281848Y-10928984D01*
X13281848Y-10928984D02*
X13262801Y-10919460D01*
X13262801Y-10919460D02*
X13253277Y-10909936D01*
X13253277Y-10909936D02*
X13243753Y-10890889D01*
X13243753Y-10890889D02*
X13234229Y-10852793D01*
X13234229Y-10852793D02*
X13234229Y-10805174D01*
X13234229Y-10805174D02*
X13243753Y-10767079D01*
X13243753Y-10767079D02*
X13253277Y-10748031D01*
X13253277Y-10748031D02*
X13262801Y-10738508D01*
X13262801Y-10738508D02*
X13281848Y-10728984D01*
X13519944Y-10728984D02*
X13481848Y-10728984D01*
X13481848Y-10728984D02*
X13462801Y-10738508D01*
X13462801Y-10738508D02*
X13453277Y-10748031D01*
X13453277Y-10748031D02*
X13434229Y-10776603D01*
X13434229Y-10776603D02*
X13424706Y-10814698D01*
X13424706Y-10814698D02*
X13424706Y-10890889D01*
X13424706Y-10890889D02*
X13434229Y-10909936D01*
X13434229Y-10909936D02*
X13443753Y-10919460D01*
X13443753Y-10919460D02*
X13462801Y-10928984D01*
X13462801Y-10928984D02*
X13500896Y-10928984D01*
X13500896Y-10928984D02*
X13519944Y-10919460D01*
X13519944Y-10919460D02*
X13529467Y-10909936D01*
X13529467Y-10909936D02*
X13538991Y-10890889D01*
X13538991Y-10890889D02*
X13538991Y-10843270D01*
X13538991Y-10843270D02*
X13529467Y-10824222D01*
X13529467Y-10824222D02*
X13519944Y-10814698D01*
X13519944Y-10814698D02*
X13500896Y-10805174D01*
X13500896Y-10805174D02*
X13462801Y-10805174D01*
X13462801Y-10805174D02*
X13443753Y-10814698D01*
X13443753Y-10814698D02*
X13434229Y-10824222D01*
X13434229Y-10824222D02*
X13424706Y-10843270D01*
X13605658Y-10728984D02*
X13729467Y-10728984D01*
X13729467Y-10728984D02*
X13662801Y-10805174D01*
X13662801Y-10805174D02*
X13691372Y-10805174D01*
X13691372Y-10805174D02*
X13710420Y-10814698D01*
X13710420Y-10814698D02*
X13719944Y-10824222D01*
X13719944Y-10824222D02*
X13729467Y-10843270D01*
X13729467Y-10843270D02*
X13729467Y-10890889D01*
X13729467Y-10890889D02*
X13719944Y-10909936D01*
X13719944Y-10909936D02*
X13710420Y-10919460D01*
X13710420Y-10919460D02*
X13691372Y-10928984D01*
X13691372Y-10928984D02*
X13634229Y-10928984D01*
X13634229Y-10928984D02*
X13615182Y-10919460D01*
X13615182Y-10919460D02*
X13605658Y-10909936D01*
X13853277Y-10728984D02*
X13872325Y-10728984D01*
X13872325Y-10728984D02*
X13891372Y-10738508D01*
X13891372Y-10738508D02*
X13900896Y-10748031D01*
X13900896Y-10748031D02*
X13910420Y-10767079D01*
X13910420Y-10767079D02*
X13919944Y-10805174D01*
X13919944Y-10805174D02*
X13919944Y-10852793D01*
X13919944Y-10852793D02*
X13910420Y-10890889D01*
X13910420Y-10890889D02*
X13900896Y-10909936D01*
X13900896Y-10909936D02*
X13891372Y-10919460D01*
X13891372Y-10919460D02*
X13872325Y-10928984D01*
X13872325Y-10928984D02*
X13853277Y-10928984D01*
X13853277Y-10928984D02*
X13834229Y-10919460D01*
X13834229Y-10919460D02*
X13824706Y-10909936D01*
X13824706Y-10909936D02*
X13815182Y-10890889D01*
X13815182Y-10890889D02*
X13805658Y-10852793D01*
X13805658Y-10852793D02*
X13805658Y-10805174D01*
X13805658Y-10805174D02*
X13815182Y-10767079D01*
X13815182Y-10767079D02*
X13824706Y-10748031D01*
X13824706Y-10748031D02*
X13834229Y-10738508D01*
X13834229Y-10738508D02*
X13853277Y-10728984D01*
X13996134Y-10728984D02*
X13996134Y-10767079D01*
X14072325Y-10728984D02*
X14072325Y-10767079D01*
X14367563Y-11005174D02*
X14358039Y-10995650D01*
X14358039Y-10995650D02*
X14338991Y-10967079D01*
X14338991Y-10967079D02*
X14329468Y-10948031D01*
X14329468Y-10948031D02*
X14319944Y-10919460D01*
X14319944Y-10919460D02*
X14310420Y-10871841D01*
X14310420Y-10871841D02*
X14310420Y-10833746D01*
X14310420Y-10833746D02*
X14319944Y-10786127D01*
X14319944Y-10786127D02*
X14329468Y-10757555D01*
X14329468Y-10757555D02*
X14338991Y-10738508D01*
X14338991Y-10738508D02*
X14358039Y-10709936D01*
X14358039Y-10709936D02*
X14367563Y-10700412D01*
X14434229Y-10748031D02*
X14443753Y-10738508D01*
X14443753Y-10738508D02*
X14462801Y-10728984D01*
X14462801Y-10728984D02*
X14510420Y-10728984D01*
X14510420Y-10728984D02*
X14529468Y-10738508D01*
X14529468Y-10738508D02*
X14538991Y-10748031D01*
X14538991Y-10748031D02*
X14548515Y-10767079D01*
X14548515Y-10767079D02*
X14548515Y-10786127D01*
X14548515Y-10786127D02*
X14538991Y-10814698D01*
X14538991Y-10814698D02*
X14424706Y-10928984D01*
X14424706Y-10928984D02*
X14548515Y-10928984D01*
X14786610Y-10928984D02*
X14786610Y-10728984D01*
X14872325Y-10928984D02*
X14872325Y-10824222D01*
X14872325Y-10824222D02*
X14862801Y-10805174D01*
X14862801Y-10805174D02*
X14843753Y-10795650D01*
X14843753Y-10795650D02*
X14815182Y-10795650D01*
X14815182Y-10795650D02*
X14796134Y-10805174D01*
X14796134Y-10805174D02*
X14786610Y-10814698D01*
X14996134Y-10928984D02*
X14977087Y-10919460D01*
X14977087Y-10919460D02*
X14967563Y-10909936D01*
X14967563Y-10909936D02*
X14958039Y-10890889D01*
X14958039Y-10890889D02*
X14958039Y-10833746D01*
X14958039Y-10833746D02*
X14967563Y-10814698D01*
X14967563Y-10814698D02*
X14977087Y-10805174D01*
X14977087Y-10805174D02*
X14996134Y-10795650D01*
X14996134Y-10795650D02*
X15024706Y-10795650D01*
X15024706Y-10795650D02*
X15043753Y-10805174D01*
X15043753Y-10805174D02*
X15053277Y-10814698D01*
X15053277Y-10814698D02*
X15062801Y-10833746D01*
X15062801Y-10833746D02*
X15062801Y-10890889D01*
X15062801Y-10890889D02*
X15053277Y-10909936D01*
X15053277Y-10909936D02*
X15043753Y-10919460D01*
X15043753Y-10919460D02*
X15024706Y-10928984D01*
X15024706Y-10928984D02*
X14996134Y-10928984D01*
X15177087Y-10928984D02*
X15158039Y-10919460D01*
X15158039Y-10919460D02*
X15148515Y-10900412D01*
X15148515Y-10900412D02*
X15148515Y-10728984D01*
X15329468Y-10919460D02*
X15310420Y-10928984D01*
X15310420Y-10928984D02*
X15272325Y-10928984D01*
X15272325Y-10928984D02*
X15253277Y-10919460D01*
X15253277Y-10919460D02*
X15243753Y-10900412D01*
X15243753Y-10900412D02*
X15243753Y-10824222D01*
X15243753Y-10824222D02*
X15253277Y-10805174D01*
X15253277Y-10805174D02*
X15272325Y-10795650D01*
X15272325Y-10795650D02*
X15310420Y-10795650D01*
X15310420Y-10795650D02*
X15329468Y-10805174D01*
X15329468Y-10805174D02*
X15338991Y-10824222D01*
X15338991Y-10824222D02*
X15338991Y-10843270D01*
X15338991Y-10843270D02*
X15243753Y-10862317D01*
X15415182Y-10919460D02*
X15434230Y-10928984D01*
X15434230Y-10928984D02*
X15472325Y-10928984D01*
X15472325Y-10928984D02*
X15491372Y-10919460D01*
X15491372Y-10919460D02*
X15500896Y-10900412D01*
X15500896Y-10900412D02*
X15500896Y-10890889D01*
X15500896Y-10890889D02*
X15491372Y-10871841D01*
X15491372Y-10871841D02*
X15472325Y-10862317D01*
X15472325Y-10862317D02*
X15443753Y-10862317D01*
X15443753Y-10862317D02*
X15424706Y-10852793D01*
X15424706Y-10852793D02*
X15415182Y-10833746D01*
X15415182Y-10833746D02*
X15415182Y-10824222D01*
X15415182Y-10824222D02*
X15424706Y-10805174D01*
X15424706Y-10805174D02*
X15443753Y-10795650D01*
X15443753Y-10795650D02*
X15472325Y-10795650D01*
X15472325Y-10795650D02*
X15491372Y-10805174D01*
X15567563Y-11005174D02*
X15577087Y-10995650D01*
X15577087Y-10995650D02*
X15596134Y-10967079D01*
X15596134Y-10967079D02*
X15605658Y-10948031D01*
X15605658Y-10948031D02*
X15615182Y-10919460D01*
X15615182Y-10919460D02*
X15624706Y-10871841D01*
X15624706Y-10871841D02*
X15624706Y-10833746D01*
X15624706Y-10833746D02*
X15615182Y-10786127D01*
X15615182Y-10786127D02*
X15605658Y-10757555D01*
X15605658Y-10757555D02*
X15596134Y-10738508D01*
X15596134Y-10738508D02*
X15577087Y-10709936D01*
X15577087Y-10709936D02*
X15567563Y-10700412D01*
M02*
