G04 #@! TF.GenerationSoftware,KiCad,Pcbnew,8.0.8*
G04 #@! TF.CreationDate,2025-07-04T19:36:45+02:00*
G04 #@! TF.ProjectId,LaunchControl,4c61756e-6368-4436-9f6e-74726f6c2e6b,rev?*
G04 #@! TF.SameCoordinates,Original*
G04 #@! TF.FileFunction,Legend,Top*
G04 #@! TF.FilePolarity,Positive*
%FSLAX46Y46*%
G04 Gerber Fmt 4.6, Leading zero omitted, Abs format (unit mm)*
G04 Created by KiCad (PCBNEW 8.0.8) date 2025-07-04 19:36:45*
%MOMM*%
%LPD*%
G01*
G04 APERTURE LIST*
G04 Aperture macros list*
%AMRoundRect*
0 Rectangle with rounded corners*
0 $1 Rounding radius*
0 $2 $3 $4 $5 $6 $7 $8 $9 X,Y pos of 4 corners*
0 Add a 4 corners polygon primitive as box body*
4,1,4,$2,$3,$4,$5,$6,$7,$8,$9,$2,$3,0*
0 Add four circle primitives for the rounded corners*
1,1,$1+$1,$2,$3*
1,1,$1+$1,$4,$5*
1,1,$1+$1,$6,$7*
1,1,$1+$1,$8,$9*
0 Add four rect primitives between the rounded corners*
20,1,$1+$1,$2,$3,$4,$5,0*
20,1,$1+$1,$4,$5,$6,$7,0*
20,1,$1+$1,$6,$7,$8,$9,0*
20,1,$1+$1,$8,$9,$2,$3,0*%
G04 Aperture macros list end*
%ADD10C,0.150000*%
%ADD11C,0.254000*%
%ADD12C,0.120000*%
%ADD13C,0.127000*%
%ADD14C,0.200000*%
%ADD15C,1.950000*%
%ADD16RoundRect,0.250000X-0.650000X0.412500X-0.650000X-0.412500X0.650000X-0.412500X0.650000X0.412500X0*%
%ADD17C,3.200000*%
%ADD18C,0.650000*%
%ADD19RoundRect,0.150000X0.425000X-0.150000X0.425000X0.150000X-0.425000X0.150000X-0.425000X-0.150000X0*%
%ADD20RoundRect,0.075000X0.500000X-0.075000X0.500000X0.075000X-0.500000X0.075000X-0.500000X-0.075000X0*%
%ADD21O,2.100000X1.000000*%
%ADD22O,1.800000X1.000000*%
%ADD23RoundRect,0.100500X-0.986500X-0.301500X0.986500X-0.301500X0.986500X0.301500X-0.986500X0.301500X0*%
%ADD24RoundRect,0.102000X-1.206500X-1.651000X1.206500X-1.651000X1.206500X1.651000X-1.206500X1.651000X0*%
%ADD25R,1.350000X1.350000*%
%ADD26O,1.350000X1.350000*%
%ADD27RoundRect,0.250001X-0.462499X-0.624999X0.462499X-0.624999X0.462499X0.624999X-0.462499X0.624999X0*%
%ADD28RoundRect,0.250000X-0.412500X-0.650000X0.412500X-0.650000X0.412500X0.650000X-0.412500X0.650000X0*%
%ADD29R,3.200000X3.200000*%
%ADD30O,3.200000X3.200000*%
%ADD31RoundRect,0.150000X-0.587500X-0.150000X0.587500X-0.150000X0.587500X0.150000X-0.587500X0.150000X0*%
%ADD32R,1.000000X0.400000*%
%ADD33RoundRect,0.250000X0.650000X-0.412500X0.650000X0.412500X-0.650000X0.412500X-0.650000X-0.412500X0*%
%ADD34R,1.700000X1.700000*%
%ADD35O,1.700000X1.700000*%
%ADD36R,0.800000X0.400000*%
%ADD37R,0.400000X0.800000*%
%ADD38R,1.450000X1.450000*%
%ADD39R,0.700000X0.700000*%
%ADD40RoundRect,0.250000X0.412500X0.650000X-0.412500X0.650000X-0.412500X-0.650000X0.412500X-0.650000X0*%
%ADD41RoundRect,1.000000X-1.000000X1.000000X-1.000000X-1.000000X1.000000X-1.000000X1.000000X1.000000X0*%
%ADD42RoundRect,0.150000X0.150000X-0.512500X0.150000X0.512500X-0.150000X0.512500X-0.150000X-0.512500X0*%
G04 APERTURE END LIST*
D10*
X148758333Y-66274819D02*
X148425000Y-65798628D01*
X148186905Y-66274819D02*
X148186905Y-65274819D01*
X148186905Y-65274819D02*
X148567857Y-65274819D01*
X148567857Y-65274819D02*
X148663095Y-65322438D01*
X148663095Y-65322438D02*
X148710714Y-65370057D01*
X148710714Y-65370057D02*
X148758333Y-65465295D01*
X148758333Y-65465295D02*
X148758333Y-65608152D01*
X148758333Y-65608152D02*
X148710714Y-65703390D01*
X148710714Y-65703390D02*
X148663095Y-65751009D01*
X148663095Y-65751009D02*
X148567857Y-65798628D01*
X148567857Y-65798628D02*
X148186905Y-65798628D01*
X149615476Y-65274819D02*
X149425000Y-65274819D01*
X149425000Y-65274819D02*
X149329762Y-65322438D01*
X149329762Y-65322438D02*
X149282143Y-65370057D01*
X149282143Y-65370057D02*
X149186905Y-65512914D01*
X149186905Y-65512914D02*
X149139286Y-65703390D01*
X149139286Y-65703390D02*
X149139286Y-66084342D01*
X149139286Y-66084342D02*
X149186905Y-66179580D01*
X149186905Y-66179580D02*
X149234524Y-66227200D01*
X149234524Y-66227200D02*
X149329762Y-66274819D01*
X149329762Y-66274819D02*
X149520238Y-66274819D01*
X149520238Y-66274819D02*
X149615476Y-66227200D01*
X149615476Y-66227200D02*
X149663095Y-66179580D01*
X149663095Y-66179580D02*
X149710714Y-66084342D01*
X149710714Y-66084342D02*
X149710714Y-65846247D01*
X149710714Y-65846247D02*
X149663095Y-65751009D01*
X149663095Y-65751009D02*
X149615476Y-65703390D01*
X149615476Y-65703390D02*
X149520238Y-65655771D01*
X149520238Y-65655771D02*
X149329762Y-65655771D01*
X149329762Y-65655771D02*
X149234524Y-65703390D01*
X149234524Y-65703390D02*
X149186905Y-65751009D01*
X149186905Y-65751009D02*
X149139286Y-65846247D01*
X163638095Y-80054819D02*
X163638095Y-79054819D01*
X163638095Y-79531009D02*
X164209523Y-79531009D01*
X164209523Y-80054819D02*
X164209523Y-79054819D01*
X164638095Y-79150057D02*
X164685714Y-79102438D01*
X164685714Y-79102438D02*
X164780952Y-79054819D01*
X164780952Y-79054819D02*
X165019047Y-79054819D01*
X165019047Y-79054819D02*
X165114285Y-79102438D01*
X165114285Y-79102438D02*
X165161904Y-79150057D01*
X165161904Y-79150057D02*
X165209523Y-79245295D01*
X165209523Y-79245295D02*
X165209523Y-79340533D01*
X165209523Y-79340533D02*
X165161904Y-79483390D01*
X165161904Y-79483390D02*
X164590476Y-80054819D01*
X164590476Y-80054819D02*
X165209523Y-80054819D01*
X159154819Y-53233333D02*
X159869104Y-53233333D01*
X159869104Y-53233333D02*
X160011961Y-53280952D01*
X160011961Y-53280952D02*
X160107200Y-53376190D01*
X160107200Y-53376190D02*
X160154819Y-53519047D01*
X160154819Y-53519047D02*
X160154819Y-53614285D01*
X159154819Y-52328571D02*
X159154819Y-52519047D01*
X159154819Y-52519047D02*
X159202438Y-52614285D01*
X159202438Y-52614285D02*
X159250057Y-52661904D01*
X159250057Y-52661904D02*
X159392914Y-52757142D01*
X159392914Y-52757142D02*
X159583390Y-52804761D01*
X159583390Y-52804761D02*
X159964342Y-52804761D01*
X159964342Y-52804761D02*
X160059580Y-52757142D01*
X160059580Y-52757142D02*
X160107200Y-52709523D01*
X160107200Y-52709523D02*
X160154819Y-52614285D01*
X160154819Y-52614285D02*
X160154819Y-52423809D01*
X160154819Y-52423809D02*
X160107200Y-52328571D01*
X160107200Y-52328571D02*
X160059580Y-52280952D01*
X160059580Y-52280952D02*
X159964342Y-52233333D01*
X159964342Y-52233333D02*
X159726247Y-52233333D01*
X159726247Y-52233333D02*
X159631009Y-52280952D01*
X159631009Y-52280952D02*
X159583390Y-52328571D01*
X159583390Y-52328571D02*
X159535771Y-52423809D01*
X159535771Y-52423809D02*
X159535771Y-52614285D01*
X159535771Y-52614285D02*
X159583390Y-52709523D01*
X159583390Y-52709523D02*
X159631009Y-52757142D01*
X159631009Y-52757142D02*
X159726247Y-52804761D01*
X148858333Y-78574819D02*
X148525000Y-78098628D01*
X148286905Y-78574819D02*
X148286905Y-77574819D01*
X148286905Y-77574819D02*
X148667857Y-77574819D01*
X148667857Y-77574819D02*
X148763095Y-77622438D01*
X148763095Y-77622438D02*
X148810714Y-77670057D01*
X148810714Y-77670057D02*
X148858333Y-77765295D01*
X148858333Y-77765295D02*
X148858333Y-77908152D01*
X148858333Y-77908152D02*
X148810714Y-78003390D01*
X148810714Y-78003390D02*
X148763095Y-78051009D01*
X148763095Y-78051009D02*
X148667857Y-78098628D01*
X148667857Y-78098628D02*
X148286905Y-78098628D01*
X149191667Y-77574819D02*
X149810714Y-77574819D01*
X149810714Y-77574819D02*
X149477381Y-77955771D01*
X149477381Y-77955771D02*
X149620238Y-77955771D01*
X149620238Y-77955771D02*
X149715476Y-78003390D01*
X149715476Y-78003390D02*
X149763095Y-78051009D01*
X149763095Y-78051009D02*
X149810714Y-78146247D01*
X149810714Y-78146247D02*
X149810714Y-78384342D01*
X149810714Y-78384342D02*
X149763095Y-78479580D01*
X149763095Y-78479580D02*
X149715476Y-78527200D01*
X149715476Y-78527200D02*
X149620238Y-78574819D01*
X149620238Y-78574819D02*
X149334524Y-78574819D01*
X149334524Y-78574819D02*
X149239286Y-78527200D01*
X149239286Y-78527200D02*
X149191667Y-78479580D01*
X153443095Y-67392819D02*
X153443095Y-68202342D01*
X153443095Y-68202342D02*
X153490714Y-68297580D01*
X153490714Y-68297580D02*
X153538333Y-68345200D01*
X153538333Y-68345200D02*
X153633571Y-68392819D01*
X153633571Y-68392819D02*
X153824047Y-68392819D01*
X153824047Y-68392819D02*
X153919285Y-68345200D01*
X153919285Y-68345200D02*
X153966904Y-68297580D01*
X153966904Y-68297580D02*
X154014523Y-68202342D01*
X154014523Y-68202342D02*
X154014523Y-67392819D01*
X154443095Y-67488057D02*
X154490714Y-67440438D01*
X154490714Y-67440438D02*
X154585952Y-67392819D01*
X154585952Y-67392819D02*
X154824047Y-67392819D01*
X154824047Y-67392819D02*
X154919285Y-67440438D01*
X154919285Y-67440438D02*
X154966904Y-67488057D01*
X154966904Y-67488057D02*
X155014523Y-67583295D01*
X155014523Y-67583295D02*
X155014523Y-67678533D01*
X155014523Y-67678533D02*
X154966904Y-67821390D01*
X154966904Y-67821390D02*
X154395476Y-68392819D01*
X154395476Y-68392819D02*
X155014523Y-68392819D01*
X144014819Y-65533333D02*
X144729104Y-65533333D01*
X144729104Y-65533333D02*
X144871961Y-65580952D01*
X144871961Y-65580952D02*
X144967200Y-65676190D01*
X144967200Y-65676190D02*
X145014819Y-65819047D01*
X145014819Y-65819047D02*
X145014819Y-65914285D01*
X145014819Y-64533333D02*
X145014819Y-65104761D01*
X145014819Y-64819047D02*
X144014819Y-64819047D01*
X144014819Y-64819047D02*
X144157676Y-64914285D01*
X144157676Y-64914285D02*
X144252914Y-65009523D01*
X144252914Y-65009523D02*
X144300533Y-65104761D01*
X121067200Y-43833332D02*
X121114819Y-43690475D01*
X121114819Y-43690475D02*
X121114819Y-43452380D01*
X121114819Y-43452380D02*
X121067200Y-43357142D01*
X121067200Y-43357142D02*
X121019580Y-43309523D01*
X121019580Y-43309523D02*
X120924342Y-43261904D01*
X120924342Y-43261904D02*
X120829104Y-43261904D01*
X120829104Y-43261904D02*
X120733866Y-43309523D01*
X120733866Y-43309523D02*
X120686247Y-43357142D01*
X120686247Y-43357142D02*
X120638628Y-43452380D01*
X120638628Y-43452380D02*
X120591009Y-43642856D01*
X120591009Y-43642856D02*
X120543390Y-43738094D01*
X120543390Y-43738094D02*
X120495771Y-43785713D01*
X120495771Y-43785713D02*
X120400533Y-43833332D01*
X120400533Y-43833332D02*
X120305295Y-43833332D01*
X120305295Y-43833332D02*
X120210057Y-43785713D01*
X120210057Y-43785713D02*
X120162438Y-43738094D01*
X120162438Y-43738094D02*
X120114819Y-43642856D01*
X120114819Y-43642856D02*
X120114819Y-43404761D01*
X120114819Y-43404761D02*
X120162438Y-43261904D01*
X120114819Y-42928570D02*
X121114819Y-42690475D01*
X121114819Y-42690475D02*
X120400533Y-42499999D01*
X120400533Y-42499999D02*
X121114819Y-42309523D01*
X121114819Y-42309523D02*
X120114819Y-42071428D01*
X121114819Y-41166666D02*
X121114819Y-41738094D01*
X121114819Y-41452380D02*
X120114819Y-41452380D01*
X120114819Y-41452380D02*
X120257676Y-41547618D01*
X120257676Y-41547618D02*
X120352914Y-41642856D01*
X120352914Y-41642856D02*
X120400533Y-41738094D01*
X152957142Y-58464819D02*
X152623809Y-57988628D01*
X152385714Y-58464819D02*
X152385714Y-57464819D01*
X152385714Y-57464819D02*
X152766666Y-57464819D01*
X152766666Y-57464819D02*
X152861904Y-57512438D01*
X152861904Y-57512438D02*
X152909523Y-57560057D01*
X152909523Y-57560057D02*
X152957142Y-57655295D01*
X152957142Y-57655295D02*
X152957142Y-57798152D01*
X152957142Y-57798152D02*
X152909523Y-57893390D01*
X152909523Y-57893390D02*
X152861904Y-57941009D01*
X152861904Y-57941009D02*
X152766666Y-57988628D01*
X152766666Y-57988628D02*
X152385714Y-57988628D01*
X153909523Y-58464819D02*
X153338095Y-58464819D01*
X153623809Y-58464819D02*
X153623809Y-57464819D01*
X153623809Y-57464819D02*
X153528571Y-57607676D01*
X153528571Y-57607676D02*
X153433333Y-57702914D01*
X153433333Y-57702914D02*
X153338095Y-57750533D01*
X154242857Y-57464819D02*
X154861904Y-57464819D01*
X154861904Y-57464819D02*
X154528571Y-57845771D01*
X154528571Y-57845771D02*
X154671428Y-57845771D01*
X154671428Y-57845771D02*
X154766666Y-57893390D01*
X154766666Y-57893390D02*
X154814285Y-57941009D01*
X154814285Y-57941009D02*
X154861904Y-58036247D01*
X154861904Y-58036247D02*
X154861904Y-58274342D01*
X154861904Y-58274342D02*
X154814285Y-58369580D01*
X154814285Y-58369580D02*
X154766666Y-58417200D01*
X154766666Y-58417200D02*
X154671428Y-58464819D01*
X154671428Y-58464819D02*
X154385714Y-58464819D01*
X154385714Y-58464819D02*
X154290476Y-58417200D01*
X154290476Y-58417200D02*
X154242857Y-58369580D01*
X153974405Y-60734819D02*
X153974405Y-59734819D01*
X153974405Y-59734819D02*
X154212500Y-59734819D01*
X154212500Y-59734819D02*
X154355357Y-59782438D01*
X154355357Y-59782438D02*
X154450595Y-59877676D01*
X154450595Y-59877676D02*
X154498214Y-59972914D01*
X154498214Y-59972914D02*
X154545833Y-60163390D01*
X154545833Y-60163390D02*
X154545833Y-60306247D01*
X154545833Y-60306247D02*
X154498214Y-60496723D01*
X154498214Y-60496723D02*
X154450595Y-60591961D01*
X154450595Y-60591961D02*
X154355357Y-60687200D01*
X154355357Y-60687200D02*
X154212500Y-60734819D01*
X154212500Y-60734819D02*
X153974405Y-60734819D01*
X154926786Y-59830057D02*
X154974405Y-59782438D01*
X154974405Y-59782438D02*
X155069643Y-59734819D01*
X155069643Y-59734819D02*
X155307738Y-59734819D01*
X155307738Y-59734819D02*
X155402976Y-59782438D01*
X155402976Y-59782438D02*
X155450595Y-59830057D01*
X155450595Y-59830057D02*
X155498214Y-59925295D01*
X155498214Y-59925295D02*
X155498214Y-60020533D01*
X155498214Y-60020533D02*
X155450595Y-60163390D01*
X155450595Y-60163390D02*
X154879167Y-60734819D01*
X154879167Y-60734819D02*
X155498214Y-60734819D01*
X147457142Y-60854819D02*
X147123809Y-60378628D01*
X146885714Y-60854819D02*
X146885714Y-59854819D01*
X146885714Y-59854819D02*
X147266666Y-59854819D01*
X147266666Y-59854819D02*
X147361904Y-59902438D01*
X147361904Y-59902438D02*
X147409523Y-59950057D01*
X147409523Y-59950057D02*
X147457142Y-60045295D01*
X147457142Y-60045295D02*
X147457142Y-60188152D01*
X147457142Y-60188152D02*
X147409523Y-60283390D01*
X147409523Y-60283390D02*
X147361904Y-60331009D01*
X147361904Y-60331009D02*
X147266666Y-60378628D01*
X147266666Y-60378628D02*
X146885714Y-60378628D01*
X148409523Y-60854819D02*
X147838095Y-60854819D01*
X148123809Y-60854819D02*
X148123809Y-59854819D01*
X148123809Y-59854819D02*
X148028571Y-59997676D01*
X148028571Y-59997676D02*
X147933333Y-60092914D01*
X147933333Y-60092914D02*
X147838095Y-60140533D01*
X149361904Y-60854819D02*
X148790476Y-60854819D01*
X149076190Y-60854819D02*
X149076190Y-59854819D01*
X149076190Y-59854819D02*
X148980952Y-59997676D01*
X148980952Y-59997676D02*
X148885714Y-60092914D01*
X148885714Y-60092914D02*
X148790476Y-60140533D01*
X140534819Y-78518094D02*
X139534819Y-78518094D01*
X139534819Y-78518094D02*
X139534819Y-78279999D01*
X139534819Y-78279999D02*
X139582438Y-78137142D01*
X139582438Y-78137142D02*
X139677676Y-78041904D01*
X139677676Y-78041904D02*
X139772914Y-77994285D01*
X139772914Y-77994285D02*
X139963390Y-77946666D01*
X139963390Y-77946666D02*
X140106247Y-77946666D01*
X140106247Y-77946666D02*
X140296723Y-77994285D01*
X140296723Y-77994285D02*
X140391961Y-78041904D01*
X140391961Y-78041904D02*
X140487200Y-78137142D01*
X140487200Y-78137142D02*
X140534819Y-78279999D01*
X140534819Y-78279999D02*
X140534819Y-78518094D01*
X139534819Y-77613332D02*
X139534819Y-76994285D01*
X139534819Y-76994285D02*
X139915771Y-77327618D01*
X139915771Y-77327618D02*
X139915771Y-77184761D01*
X139915771Y-77184761D02*
X139963390Y-77089523D01*
X139963390Y-77089523D02*
X140011009Y-77041904D01*
X140011009Y-77041904D02*
X140106247Y-76994285D01*
X140106247Y-76994285D02*
X140344342Y-76994285D01*
X140344342Y-76994285D02*
X140439580Y-77041904D01*
X140439580Y-77041904D02*
X140487200Y-77089523D01*
X140487200Y-77089523D02*
X140534819Y-77184761D01*
X140534819Y-77184761D02*
X140534819Y-77470475D01*
X140534819Y-77470475D02*
X140487200Y-77565713D01*
X140487200Y-77565713D02*
X140439580Y-77613332D01*
X141654818Y-85661904D02*
X140654818Y-85661904D01*
X141654818Y-85090476D02*
X141083389Y-85519047D01*
X140654818Y-85090476D02*
X141226246Y-85661904D01*
X145857142Y-58154819D02*
X145523809Y-57678628D01*
X145285714Y-58154819D02*
X145285714Y-57154819D01*
X145285714Y-57154819D02*
X145666666Y-57154819D01*
X145666666Y-57154819D02*
X145761904Y-57202438D01*
X145761904Y-57202438D02*
X145809523Y-57250057D01*
X145809523Y-57250057D02*
X145857142Y-57345295D01*
X145857142Y-57345295D02*
X145857142Y-57488152D01*
X145857142Y-57488152D02*
X145809523Y-57583390D01*
X145809523Y-57583390D02*
X145761904Y-57631009D01*
X145761904Y-57631009D02*
X145666666Y-57678628D01*
X145666666Y-57678628D02*
X145285714Y-57678628D01*
X146809523Y-58154819D02*
X146238095Y-58154819D01*
X146523809Y-58154819D02*
X146523809Y-57154819D01*
X146523809Y-57154819D02*
X146428571Y-57297676D01*
X146428571Y-57297676D02*
X146333333Y-57392914D01*
X146333333Y-57392914D02*
X146238095Y-57440533D01*
X147190476Y-57250057D02*
X147238095Y-57202438D01*
X147238095Y-57202438D02*
X147333333Y-57154819D01*
X147333333Y-57154819D02*
X147571428Y-57154819D01*
X147571428Y-57154819D02*
X147666666Y-57202438D01*
X147666666Y-57202438D02*
X147714285Y-57250057D01*
X147714285Y-57250057D02*
X147761904Y-57345295D01*
X147761904Y-57345295D02*
X147761904Y-57440533D01*
X147761904Y-57440533D02*
X147714285Y-57583390D01*
X147714285Y-57583390D02*
X147142857Y-58154819D01*
X147142857Y-58154819D02*
X147761904Y-58154819D01*
X133133333Y-53154819D02*
X132800000Y-52678628D01*
X132561905Y-53154819D02*
X132561905Y-52154819D01*
X132561905Y-52154819D02*
X132942857Y-52154819D01*
X132942857Y-52154819D02*
X133038095Y-52202438D01*
X133038095Y-52202438D02*
X133085714Y-52250057D01*
X133085714Y-52250057D02*
X133133333Y-52345295D01*
X133133333Y-52345295D02*
X133133333Y-52488152D01*
X133133333Y-52488152D02*
X133085714Y-52583390D01*
X133085714Y-52583390D02*
X133038095Y-52631009D01*
X133038095Y-52631009D02*
X132942857Y-52678628D01*
X132942857Y-52678628D02*
X132561905Y-52678628D01*
X133609524Y-53154819D02*
X133800000Y-53154819D01*
X133800000Y-53154819D02*
X133895238Y-53107200D01*
X133895238Y-53107200D02*
X133942857Y-53059580D01*
X133942857Y-53059580D02*
X134038095Y-52916723D01*
X134038095Y-52916723D02*
X134085714Y-52726247D01*
X134085714Y-52726247D02*
X134085714Y-52345295D01*
X134085714Y-52345295D02*
X134038095Y-52250057D01*
X134038095Y-52250057D02*
X133990476Y-52202438D01*
X133990476Y-52202438D02*
X133895238Y-52154819D01*
X133895238Y-52154819D02*
X133704762Y-52154819D01*
X133704762Y-52154819D02*
X133609524Y-52202438D01*
X133609524Y-52202438D02*
X133561905Y-52250057D01*
X133561905Y-52250057D02*
X133514286Y-52345295D01*
X133514286Y-52345295D02*
X133514286Y-52583390D01*
X133514286Y-52583390D02*
X133561905Y-52678628D01*
X133561905Y-52678628D02*
X133609524Y-52726247D01*
X133609524Y-52726247D02*
X133704762Y-52773866D01*
X133704762Y-52773866D02*
X133895238Y-52773866D01*
X133895238Y-52773866D02*
X133990476Y-52726247D01*
X133990476Y-52726247D02*
X134038095Y-52678628D01*
X134038095Y-52678628D02*
X134085714Y-52583390D01*
X128104760Y-64250057D02*
X128009522Y-64202438D01*
X128009522Y-64202438D02*
X127914284Y-64107200D01*
X127914284Y-64107200D02*
X127771427Y-63964342D01*
X127771427Y-63964342D02*
X127676189Y-63916723D01*
X127676189Y-63916723D02*
X127580951Y-63916723D01*
X127628570Y-64154819D02*
X127533332Y-64107200D01*
X127533332Y-64107200D02*
X127438094Y-64011961D01*
X127438094Y-64011961D02*
X127390475Y-63821485D01*
X127390475Y-63821485D02*
X127390475Y-63488152D01*
X127390475Y-63488152D02*
X127438094Y-63297676D01*
X127438094Y-63297676D02*
X127533332Y-63202438D01*
X127533332Y-63202438D02*
X127628570Y-63154819D01*
X127628570Y-63154819D02*
X127819046Y-63154819D01*
X127819046Y-63154819D02*
X127914284Y-63202438D01*
X127914284Y-63202438D02*
X128009522Y-63297676D01*
X128009522Y-63297676D02*
X128057141Y-63488152D01*
X128057141Y-63488152D02*
X128057141Y-63821485D01*
X128057141Y-63821485D02*
X128009522Y-64011961D01*
X128009522Y-64011961D02*
X127914284Y-64107200D01*
X127914284Y-64107200D02*
X127819046Y-64154819D01*
X127819046Y-64154819D02*
X127628570Y-64154819D01*
X129009522Y-64154819D02*
X128438094Y-64154819D01*
X128723808Y-64154819D02*
X128723808Y-63154819D01*
X128723808Y-63154819D02*
X128628570Y-63297676D01*
X128628570Y-63297676D02*
X128533332Y-63392914D01*
X128533332Y-63392914D02*
X128438094Y-63440533D01*
D11*
X137260237Y-57274318D02*
X137260237Y-56004318D01*
X138590714Y-57153365D02*
X138530238Y-57213842D01*
X138530238Y-57213842D02*
X138348809Y-57274318D01*
X138348809Y-57274318D02*
X138227857Y-57274318D01*
X138227857Y-57274318D02*
X138046428Y-57213842D01*
X138046428Y-57213842D02*
X137925476Y-57092889D01*
X137925476Y-57092889D02*
X137864999Y-56971937D01*
X137864999Y-56971937D02*
X137804523Y-56730032D01*
X137804523Y-56730032D02*
X137804523Y-56548603D01*
X137804523Y-56548603D02*
X137864999Y-56306699D01*
X137864999Y-56306699D02*
X137925476Y-56185746D01*
X137925476Y-56185746D02*
X138046428Y-56064794D01*
X138046428Y-56064794D02*
X138227857Y-56004318D01*
X138227857Y-56004318D02*
X138348809Y-56004318D01*
X138348809Y-56004318D02*
X138530238Y-56064794D01*
X138530238Y-56064794D02*
X138590714Y-56125270D01*
X139074523Y-56125270D02*
X139134999Y-56064794D01*
X139134999Y-56064794D02*
X139255952Y-56004318D01*
X139255952Y-56004318D02*
X139558333Y-56004318D01*
X139558333Y-56004318D02*
X139679285Y-56064794D01*
X139679285Y-56064794D02*
X139739761Y-56125270D01*
X139739761Y-56125270D02*
X139800238Y-56246222D01*
X139800238Y-56246222D02*
X139800238Y-56367175D01*
X139800238Y-56367175D02*
X139739761Y-56548603D01*
X139739761Y-56548603D02*
X139014047Y-57274318D01*
X139014047Y-57274318D02*
X139800238Y-57274318D01*
D10*
X157338333Y-59494580D02*
X157290714Y-59542200D01*
X157290714Y-59542200D02*
X157147857Y-59589819D01*
X157147857Y-59589819D02*
X157052619Y-59589819D01*
X157052619Y-59589819D02*
X156909762Y-59542200D01*
X156909762Y-59542200D02*
X156814524Y-59446961D01*
X156814524Y-59446961D02*
X156766905Y-59351723D01*
X156766905Y-59351723D02*
X156719286Y-59161247D01*
X156719286Y-59161247D02*
X156719286Y-59018390D01*
X156719286Y-59018390D02*
X156766905Y-58827914D01*
X156766905Y-58827914D02*
X156814524Y-58732676D01*
X156814524Y-58732676D02*
X156909762Y-58637438D01*
X156909762Y-58637438D02*
X157052619Y-58589819D01*
X157052619Y-58589819D02*
X157147857Y-58589819D01*
X157147857Y-58589819D02*
X157290714Y-58637438D01*
X157290714Y-58637438D02*
X157338333Y-58685057D01*
X158195476Y-58589819D02*
X158005000Y-58589819D01*
X158005000Y-58589819D02*
X157909762Y-58637438D01*
X157909762Y-58637438D02*
X157862143Y-58685057D01*
X157862143Y-58685057D02*
X157766905Y-58827914D01*
X157766905Y-58827914D02*
X157719286Y-59018390D01*
X157719286Y-59018390D02*
X157719286Y-59399342D01*
X157719286Y-59399342D02*
X157766905Y-59494580D01*
X157766905Y-59494580D02*
X157814524Y-59542200D01*
X157814524Y-59542200D02*
X157909762Y-59589819D01*
X157909762Y-59589819D02*
X158100238Y-59589819D01*
X158100238Y-59589819D02*
X158195476Y-59542200D01*
X158195476Y-59542200D02*
X158243095Y-59494580D01*
X158243095Y-59494580D02*
X158290714Y-59399342D01*
X158290714Y-59399342D02*
X158290714Y-59161247D01*
X158290714Y-59161247D02*
X158243095Y-59066009D01*
X158243095Y-59066009D02*
X158195476Y-59018390D01*
X158195476Y-59018390D02*
X158100238Y-58970771D01*
X158100238Y-58970771D02*
X157909762Y-58970771D01*
X157909762Y-58970771D02*
X157814524Y-59018390D01*
X157814524Y-59018390D02*
X157766905Y-59066009D01*
X157766905Y-59066009D02*
X157719286Y-59161247D01*
X119070833Y-54159580D02*
X119023214Y-54207200D01*
X119023214Y-54207200D02*
X118880357Y-54254819D01*
X118880357Y-54254819D02*
X118785119Y-54254819D01*
X118785119Y-54254819D02*
X118642262Y-54207200D01*
X118642262Y-54207200D02*
X118547024Y-54111961D01*
X118547024Y-54111961D02*
X118499405Y-54016723D01*
X118499405Y-54016723D02*
X118451786Y-53826247D01*
X118451786Y-53826247D02*
X118451786Y-53683390D01*
X118451786Y-53683390D02*
X118499405Y-53492914D01*
X118499405Y-53492914D02*
X118547024Y-53397676D01*
X118547024Y-53397676D02*
X118642262Y-53302438D01*
X118642262Y-53302438D02*
X118785119Y-53254819D01*
X118785119Y-53254819D02*
X118880357Y-53254819D01*
X118880357Y-53254819D02*
X119023214Y-53302438D01*
X119023214Y-53302438D02*
X119070833Y-53350057D01*
X119927976Y-53588152D02*
X119927976Y-54254819D01*
X119689881Y-53207200D02*
X119451786Y-53921485D01*
X119451786Y-53921485D02*
X120070833Y-53921485D01*
X160233333Y-65054819D02*
X159900000Y-64578628D01*
X159661905Y-65054819D02*
X159661905Y-64054819D01*
X159661905Y-64054819D02*
X160042857Y-64054819D01*
X160042857Y-64054819D02*
X160138095Y-64102438D01*
X160138095Y-64102438D02*
X160185714Y-64150057D01*
X160185714Y-64150057D02*
X160233333Y-64245295D01*
X160233333Y-64245295D02*
X160233333Y-64388152D01*
X160233333Y-64388152D02*
X160185714Y-64483390D01*
X160185714Y-64483390D02*
X160138095Y-64531009D01*
X160138095Y-64531009D02*
X160042857Y-64578628D01*
X160042857Y-64578628D02*
X159661905Y-64578628D01*
X160614286Y-64150057D02*
X160661905Y-64102438D01*
X160661905Y-64102438D02*
X160757143Y-64054819D01*
X160757143Y-64054819D02*
X160995238Y-64054819D01*
X160995238Y-64054819D02*
X161090476Y-64102438D01*
X161090476Y-64102438D02*
X161138095Y-64150057D01*
X161138095Y-64150057D02*
X161185714Y-64245295D01*
X161185714Y-64245295D02*
X161185714Y-64340533D01*
X161185714Y-64340533D02*
X161138095Y-64483390D01*
X161138095Y-64483390D02*
X160566667Y-65054819D01*
X160566667Y-65054819D02*
X161185714Y-65054819D01*
X149366666Y-52084819D02*
X149366666Y-52799104D01*
X149366666Y-52799104D02*
X149319047Y-52941961D01*
X149319047Y-52941961D02*
X149223809Y-53037200D01*
X149223809Y-53037200D02*
X149080952Y-53084819D01*
X149080952Y-53084819D02*
X148985714Y-53084819D01*
X149795238Y-52180057D02*
X149842857Y-52132438D01*
X149842857Y-52132438D02*
X149938095Y-52084819D01*
X149938095Y-52084819D02*
X150176190Y-52084819D01*
X150176190Y-52084819D02*
X150271428Y-52132438D01*
X150271428Y-52132438D02*
X150319047Y-52180057D01*
X150319047Y-52180057D02*
X150366666Y-52275295D01*
X150366666Y-52275295D02*
X150366666Y-52370533D01*
X150366666Y-52370533D02*
X150319047Y-52513390D01*
X150319047Y-52513390D02*
X149747619Y-53084819D01*
X149747619Y-53084819D02*
X150366666Y-53084819D01*
X115866666Y-82224819D02*
X115866666Y-82939104D01*
X115866666Y-82939104D02*
X115819047Y-83081961D01*
X115819047Y-83081961D02*
X115723809Y-83177200D01*
X115723809Y-83177200D02*
X115580952Y-83224819D01*
X115580952Y-83224819D02*
X115485714Y-83224819D01*
X116819047Y-82224819D02*
X116342857Y-82224819D01*
X116342857Y-82224819D02*
X116295238Y-82701009D01*
X116295238Y-82701009D02*
X116342857Y-82653390D01*
X116342857Y-82653390D02*
X116438095Y-82605771D01*
X116438095Y-82605771D02*
X116676190Y-82605771D01*
X116676190Y-82605771D02*
X116771428Y-82653390D01*
X116771428Y-82653390D02*
X116819047Y-82701009D01*
X116819047Y-82701009D02*
X116866666Y-82796247D01*
X116866666Y-82796247D02*
X116866666Y-83034342D01*
X116866666Y-83034342D02*
X116819047Y-83129580D01*
X116819047Y-83129580D02*
X116771428Y-83177200D01*
X116771428Y-83177200D02*
X116676190Y-83224819D01*
X116676190Y-83224819D02*
X116438095Y-83224819D01*
X116438095Y-83224819D02*
X116342857Y-83177200D01*
X116342857Y-83177200D02*
X116295238Y-83129580D01*
X126770833Y-50104820D02*
X126437500Y-49628629D01*
X126199405Y-50104820D02*
X126199405Y-49104820D01*
X126199405Y-49104820D02*
X126580357Y-49104820D01*
X126580357Y-49104820D02*
X126675595Y-49152439D01*
X126675595Y-49152439D02*
X126723214Y-49200058D01*
X126723214Y-49200058D02*
X126770833Y-49295296D01*
X126770833Y-49295296D02*
X126770833Y-49438153D01*
X126770833Y-49438153D02*
X126723214Y-49533391D01*
X126723214Y-49533391D02*
X126675595Y-49581010D01*
X126675595Y-49581010D02*
X126580357Y-49628629D01*
X126580357Y-49628629D02*
X126199405Y-49628629D01*
X127675595Y-49104820D02*
X127199405Y-49104820D01*
X127199405Y-49104820D02*
X127151786Y-49581010D01*
X127151786Y-49581010D02*
X127199405Y-49533391D01*
X127199405Y-49533391D02*
X127294643Y-49485772D01*
X127294643Y-49485772D02*
X127532738Y-49485772D01*
X127532738Y-49485772D02*
X127627976Y-49533391D01*
X127627976Y-49533391D02*
X127675595Y-49581010D01*
X127675595Y-49581010D02*
X127723214Y-49676248D01*
X127723214Y-49676248D02*
X127723214Y-49914343D01*
X127723214Y-49914343D02*
X127675595Y-50009581D01*
X127675595Y-50009581D02*
X127627976Y-50057201D01*
X127627976Y-50057201D02*
X127532738Y-50104820D01*
X127532738Y-50104820D02*
X127294643Y-50104820D01*
X127294643Y-50104820D02*
X127199405Y-50057201D01*
X127199405Y-50057201D02*
X127151786Y-50009581D01*
X144157142Y-53654819D02*
X143823809Y-53178628D01*
X143585714Y-53654819D02*
X143585714Y-52654819D01*
X143585714Y-52654819D02*
X143966666Y-52654819D01*
X143966666Y-52654819D02*
X144061904Y-52702438D01*
X144061904Y-52702438D02*
X144109523Y-52750057D01*
X144109523Y-52750057D02*
X144157142Y-52845295D01*
X144157142Y-52845295D02*
X144157142Y-52988152D01*
X144157142Y-52988152D02*
X144109523Y-53083390D01*
X144109523Y-53083390D02*
X144061904Y-53131009D01*
X144061904Y-53131009D02*
X143966666Y-53178628D01*
X143966666Y-53178628D02*
X143585714Y-53178628D01*
X145109523Y-53654819D02*
X144538095Y-53654819D01*
X144823809Y-53654819D02*
X144823809Y-52654819D01*
X144823809Y-52654819D02*
X144728571Y-52797676D01*
X144728571Y-52797676D02*
X144633333Y-52892914D01*
X144633333Y-52892914D02*
X144538095Y-52940533D01*
X145728571Y-52654819D02*
X145823809Y-52654819D01*
X145823809Y-52654819D02*
X145919047Y-52702438D01*
X145919047Y-52702438D02*
X145966666Y-52750057D01*
X145966666Y-52750057D02*
X146014285Y-52845295D01*
X146014285Y-52845295D02*
X146061904Y-53035771D01*
X146061904Y-53035771D02*
X146061904Y-53273866D01*
X146061904Y-53273866D02*
X146014285Y-53464342D01*
X146014285Y-53464342D02*
X145966666Y-53559580D01*
X145966666Y-53559580D02*
X145919047Y-53607200D01*
X145919047Y-53607200D02*
X145823809Y-53654819D01*
X145823809Y-53654819D02*
X145728571Y-53654819D01*
X145728571Y-53654819D02*
X145633333Y-53607200D01*
X145633333Y-53607200D02*
X145585714Y-53559580D01*
X145585714Y-53559580D02*
X145538095Y-53464342D01*
X145538095Y-53464342D02*
X145490476Y-53273866D01*
X145490476Y-53273866D02*
X145490476Y-53035771D01*
X145490476Y-53035771D02*
X145538095Y-52845295D01*
X145538095Y-52845295D02*
X145585714Y-52750057D01*
X145585714Y-52750057D02*
X145633333Y-52702438D01*
X145633333Y-52702438D02*
X145728571Y-52654819D01*
X165733333Y-73954819D02*
X165400000Y-73478628D01*
X165161905Y-73954819D02*
X165161905Y-72954819D01*
X165161905Y-72954819D02*
X165542857Y-72954819D01*
X165542857Y-72954819D02*
X165638095Y-73002438D01*
X165638095Y-73002438D02*
X165685714Y-73050057D01*
X165685714Y-73050057D02*
X165733333Y-73145295D01*
X165733333Y-73145295D02*
X165733333Y-73288152D01*
X165733333Y-73288152D02*
X165685714Y-73383390D01*
X165685714Y-73383390D02*
X165638095Y-73431009D01*
X165638095Y-73431009D02*
X165542857Y-73478628D01*
X165542857Y-73478628D02*
X165161905Y-73478628D01*
X166590476Y-73288152D02*
X166590476Y-73954819D01*
X166352381Y-72907200D02*
X166114286Y-73621485D01*
X166114286Y-73621485D02*
X166733333Y-73621485D01*
X115604820Y-47704166D02*
X115128629Y-48037499D01*
X115604820Y-48275594D02*
X114604820Y-48275594D01*
X114604820Y-48275594D02*
X114604820Y-47894642D01*
X114604820Y-47894642D02*
X114652439Y-47799404D01*
X114652439Y-47799404D02*
X114700058Y-47751785D01*
X114700058Y-47751785D02*
X114795296Y-47704166D01*
X114795296Y-47704166D02*
X114938153Y-47704166D01*
X114938153Y-47704166D02*
X115033391Y-47751785D01*
X115033391Y-47751785D02*
X115081010Y-47799404D01*
X115081010Y-47799404D02*
X115128629Y-47894642D01*
X115128629Y-47894642D02*
X115128629Y-48275594D01*
X115604820Y-46751785D02*
X115604820Y-47323213D01*
X115604820Y-47037499D02*
X114604820Y-47037499D01*
X114604820Y-47037499D02*
X114747677Y-47132737D01*
X114747677Y-47132737D02*
X114842915Y-47227975D01*
X114842915Y-47227975D02*
X114890534Y-47323213D01*
X155795833Y-77804581D02*
X155748214Y-77852201D01*
X155748214Y-77852201D02*
X155605357Y-77899820D01*
X155605357Y-77899820D02*
X155510119Y-77899820D01*
X155510119Y-77899820D02*
X155367262Y-77852201D01*
X155367262Y-77852201D02*
X155272024Y-77756962D01*
X155272024Y-77756962D02*
X155224405Y-77661724D01*
X155224405Y-77661724D02*
X155176786Y-77471248D01*
X155176786Y-77471248D02*
X155176786Y-77328391D01*
X155176786Y-77328391D02*
X155224405Y-77137915D01*
X155224405Y-77137915D02*
X155272024Y-77042677D01*
X155272024Y-77042677D02*
X155367262Y-76947439D01*
X155367262Y-76947439D02*
X155510119Y-76899820D01*
X155510119Y-76899820D02*
X155605357Y-76899820D01*
X155605357Y-76899820D02*
X155748214Y-76947439D01*
X155748214Y-76947439D02*
X155795833Y-76995058D01*
X156748214Y-77899820D02*
X156176786Y-77899820D01*
X156462500Y-77899820D02*
X156462500Y-76899820D01*
X156462500Y-76899820D02*
X156367262Y-77042677D01*
X156367262Y-77042677D02*
X156272024Y-77137915D01*
X156272024Y-77137915D02*
X156176786Y-77185534D01*
X124933333Y-46259580D02*
X124885714Y-46307200D01*
X124885714Y-46307200D02*
X124742857Y-46354819D01*
X124742857Y-46354819D02*
X124647619Y-46354819D01*
X124647619Y-46354819D02*
X124504762Y-46307200D01*
X124504762Y-46307200D02*
X124409524Y-46211961D01*
X124409524Y-46211961D02*
X124361905Y-46116723D01*
X124361905Y-46116723D02*
X124314286Y-45926247D01*
X124314286Y-45926247D02*
X124314286Y-45783390D01*
X124314286Y-45783390D02*
X124361905Y-45592914D01*
X124361905Y-45592914D02*
X124409524Y-45497676D01*
X124409524Y-45497676D02*
X124504762Y-45402438D01*
X124504762Y-45402438D02*
X124647619Y-45354819D01*
X124647619Y-45354819D02*
X124742857Y-45354819D01*
X124742857Y-45354819D02*
X124885714Y-45402438D01*
X124885714Y-45402438D02*
X124933333Y-45450057D01*
X125314286Y-45450057D02*
X125361905Y-45402438D01*
X125361905Y-45402438D02*
X125457143Y-45354819D01*
X125457143Y-45354819D02*
X125695238Y-45354819D01*
X125695238Y-45354819D02*
X125790476Y-45402438D01*
X125790476Y-45402438D02*
X125838095Y-45450057D01*
X125838095Y-45450057D02*
X125885714Y-45545295D01*
X125885714Y-45545295D02*
X125885714Y-45640533D01*
X125885714Y-45640533D02*
X125838095Y-45783390D01*
X125838095Y-45783390D02*
X125266667Y-46354819D01*
X125266667Y-46354819D02*
X125885714Y-46354819D01*
X112188095Y-59804819D02*
X112188095Y-58804819D01*
X112188095Y-59281009D02*
X112759523Y-59281009D01*
X112759523Y-59804819D02*
X112759523Y-58804819D01*
X113140476Y-58804819D02*
X113759523Y-58804819D01*
X113759523Y-58804819D02*
X113426190Y-59185771D01*
X113426190Y-59185771D02*
X113569047Y-59185771D01*
X113569047Y-59185771D02*
X113664285Y-59233390D01*
X113664285Y-59233390D02*
X113711904Y-59281009D01*
X113711904Y-59281009D02*
X113759523Y-59376247D01*
X113759523Y-59376247D02*
X113759523Y-59614342D01*
X113759523Y-59614342D02*
X113711904Y-59709580D01*
X113711904Y-59709580D02*
X113664285Y-59757200D01*
X113664285Y-59757200D02*
X113569047Y-59804819D01*
X113569047Y-59804819D02*
X113283333Y-59804819D01*
X113283333Y-59804819D02*
X113188095Y-59757200D01*
X113188095Y-59757200D02*
X113140476Y-59709580D01*
X163133332Y-71554819D02*
X162799999Y-71078628D01*
X162561904Y-71554819D02*
X162561904Y-70554819D01*
X162561904Y-70554819D02*
X162942856Y-70554819D01*
X162942856Y-70554819D02*
X163038094Y-70602438D01*
X163038094Y-70602438D02*
X163085713Y-70650057D01*
X163085713Y-70650057D02*
X163133332Y-70745295D01*
X163133332Y-70745295D02*
X163133332Y-70888152D01*
X163133332Y-70888152D02*
X163085713Y-70983390D01*
X163085713Y-70983390D02*
X163038094Y-71031009D01*
X163038094Y-71031009D02*
X162942856Y-71078628D01*
X162942856Y-71078628D02*
X162561904Y-71078628D01*
X163466666Y-70554819D02*
X164133332Y-70554819D01*
X164133332Y-70554819D02*
X163704761Y-71554819D01*
X128133333Y-46259580D02*
X128085714Y-46307200D01*
X128085714Y-46307200D02*
X127942857Y-46354819D01*
X127942857Y-46354819D02*
X127847619Y-46354819D01*
X127847619Y-46354819D02*
X127704762Y-46307200D01*
X127704762Y-46307200D02*
X127609524Y-46211961D01*
X127609524Y-46211961D02*
X127561905Y-46116723D01*
X127561905Y-46116723D02*
X127514286Y-45926247D01*
X127514286Y-45926247D02*
X127514286Y-45783390D01*
X127514286Y-45783390D02*
X127561905Y-45592914D01*
X127561905Y-45592914D02*
X127609524Y-45497676D01*
X127609524Y-45497676D02*
X127704762Y-45402438D01*
X127704762Y-45402438D02*
X127847619Y-45354819D01*
X127847619Y-45354819D02*
X127942857Y-45354819D01*
X127942857Y-45354819D02*
X128085714Y-45402438D01*
X128085714Y-45402438D02*
X128133333Y-45450057D01*
X128466667Y-45354819D02*
X129085714Y-45354819D01*
X129085714Y-45354819D02*
X128752381Y-45735771D01*
X128752381Y-45735771D02*
X128895238Y-45735771D01*
X128895238Y-45735771D02*
X128990476Y-45783390D01*
X128990476Y-45783390D02*
X129038095Y-45831009D01*
X129038095Y-45831009D02*
X129085714Y-45926247D01*
X129085714Y-45926247D02*
X129085714Y-46164342D01*
X129085714Y-46164342D02*
X129038095Y-46259580D01*
X129038095Y-46259580D02*
X128990476Y-46307200D01*
X128990476Y-46307200D02*
X128895238Y-46354819D01*
X128895238Y-46354819D02*
X128609524Y-46354819D01*
X128609524Y-46354819D02*
X128514286Y-46307200D01*
X128514286Y-46307200D02*
X128466667Y-46259580D01*
X123033333Y-51259580D02*
X122985714Y-51307200D01*
X122985714Y-51307200D02*
X122842857Y-51354819D01*
X122842857Y-51354819D02*
X122747619Y-51354819D01*
X122747619Y-51354819D02*
X122604762Y-51307200D01*
X122604762Y-51307200D02*
X122509524Y-51211961D01*
X122509524Y-51211961D02*
X122461905Y-51116723D01*
X122461905Y-51116723D02*
X122414286Y-50926247D01*
X122414286Y-50926247D02*
X122414286Y-50783390D01*
X122414286Y-50783390D02*
X122461905Y-50592914D01*
X122461905Y-50592914D02*
X122509524Y-50497676D01*
X122509524Y-50497676D02*
X122604762Y-50402438D01*
X122604762Y-50402438D02*
X122747619Y-50354819D01*
X122747619Y-50354819D02*
X122842857Y-50354819D01*
X122842857Y-50354819D02*
X122985714Y-50402438D01*
X122985714Y-50402438D02*
X123033333Y-50450057D01*
X123938095Y-50354819D02*
X123461905Y-50354819D01*
X123461905Y-50354819D02*
X123414286Y-50831009D01*
X123414286Y-50831009D02*
X123461905Y-50783390D01*
X123461905Y-50783390D02*
X123557143Y-50735771D01*
X123557143Y-50735771D02*
X123795238Y-50735771D01*
X123795238Y-50735771D02*
X123890476Y-50783390D01*
X123890476Y-50783390D02*
X123938095Y-50831009D01*
X123938095Y-50831009D02*
X123985714Y-50926247D01*
X123985714Y-50926247D02*
X123985714Y-51164342D01*
X123985714Y-51164342D02*
X123938095Y-51259580D01*
X123938095Y-51259580D02*
X123890476Y-51307200D01*
X123890476Y-51307200D02*
X123795238Y-51354819D01*
X123795238Y-51354819D02*
X123557143Y-51354819D01*
X123557143Y-51354819D02*
X123461905Y-51307200D01*
X123461905Y-51307200D02*
X123414286Y-51259580D01*
X116204820Y-48399404D02*
X117014343Y-48399404D01*
X117014343Y-48399404D02*
X117109581Y-48351785D01*
X117109581Y-48351785D02*
X117157201Y-48304166D01*
X117157201Y-48304166D02*
X117204820Y-48208928D01*
X117204820Y-48208928D02*
X117204820Y-48018452D01*
X117204820Y-48018452D02*
X117157201Y-47923214D01*
X117157201Y-47923214D02*
X117109581Y-47875595D01*
X117109581Y-47875595D02*
X117014343Y-47827976D01*
X117014343Y-47827976D02*
X116204820Y-47827976D01*
X117204820Y-46827976D02*
X117204820Y-47399404D01*
X117204820Y-47113690D02*
X116204820Y-47113690D01*
X116204820Y-47113690D02*
X116347677Y-47208928D01*
X116347677Y-47208928D02*
X116442915Y-47304166D01*
X116442915Y-47304166D02*
X116490534Y-47399404D01*
X155909818Y-48715357D02*
X155433627Y-49048690D01*
X155909818Y-49286785D02*
X154909818Y-49286785D01*
X154909818Y-49286785D02*
X154909818Y-48905833D01*
X154909818Y-48905833D02*
X154957437Y-48810595D01*
X154957437Y-48810595D02*
X155005056Y-48762976D01*
X155005056Y-48762976D02*
X155100294Y-48715357D01*
X155100294Y-48715357D02*
X155243151Y-48715357D01*
X155243151Y-48715357D02*
X155338389Y-48762976D01*
X155338389Y-48762976D02*
X155386008Y-48810595D01*
X155386008Y-48810595D02*
X155433627Y-48905833D01*
X155433627Y-48905833D02*
X155433627Y-49286785D01*
X155909818Y-47762976D02*
X155909818Y-48334404D01*
X155909818Y-48048690D02*
X154909818Y-48048690D01*
X154909818Y-48048690D02*
X155052675Y-48143928D01*
X155052675Y-48143928D02*
X155147913Y-48239166D01*
X155147913Y-48239166D02*
X155195532Y-48334404D01*
X155243151Y-46905833D02*
X155909818Y-46905833D01*
X154862199Y-47143928D02*
X155576484Y-47382023D01*
X155576484Y-47382023D02*
X155576484Y-46762976D01*
X154074405Y-64434819D02*
X154074405Y-63434819D01*
X154074405Y-63434819D02*
X154312500Y-63434819D01*
X154312500Y-63434819D02*
X154455357Y-63482438D01*
X154455357Y-63482438D02*
X154550595Y-63577676D01*
X154550595Y-63577676D02*
X154598214Y-63672914D01*
X154598214Y-63672914D02*
X154645833Y-63863390D01*
X154645833Y-63863390D02*
X154645833Y-64006247D01*
X154645833Y-64006247D02*
X154598214Y-64196723D01*
X154598214Y-64196723D02*
X154550595Y-64291961D01*
X154550595Y-64291961D02*
X154455357Y-64387200D01*
X154455357Y-64387200D02*
X154312500Y-64434819D01*
X154312500Y-64434819D02*
X154074405Y-64434819D01*
X155598214Y-64434819D02*
X155026786Y-64434819D01*
X155312500Y-64434819D02*
X155312500Y-63434819D01*
X155312500Y-63434819D02*
X155217262Y-63577676D01*
X155217262Y-63577676D02*
X155122024Y-63672914D01*
X155122024Y-63672914D02*
X155026786Y-63720533D01*
X163626046Y-39554819D02*
X163626046Y-38554819D01*
X163626046Y-39031009D02*
X164197474Y-39031009D01*
X164197474Y-39554819D02*
X164197474Y-38554819D01*
X165197474Y-39554819D02*
X164626046Y-39554819D01*
X164911760Y-39554819D02*
X164911760Y-38554819D01*
X164911760Y-38554819D02*
X164816522Y-38697676D01*
X164816522Y-38697676D02*
X164721284Y-38792914D01*
X164721284Y-38792914D02*
X164626046Y-38840533D01*
D12*
G04 #@! TO.C,R6*
X148115000Y-68346248D02*
X148115000Y-69768752D01*
X149935000Y-68346248D02*
X149935000Y-69768752D01*
G04 #@! TO.C,J6*
X165100000Y-48230000D02*
X163400000Y-48230000D01*
X165100000Y-57570000D02*
X163400000Y-57570000D01*
G04 #@! TO.C,R3*
X148115000Y-74046248D02*
X148115000Y-75468752D01*
X149935000Y-74046248D02*
X149935000Y-75468752D01*
D13*
G04 #@! TO.C,U2*
X153000000Y-68750000D02*
X157000000Y-68750000D01*
X153000000Y-73850000D02*
X157000000Y-73850000D01*
D14*
X150655000Y-68795000D02*
G75*
G02*
X150455000Y-68795000I-100000J0D01*
G01*
X150455000Y-68795000D02*
G75*
G02*
X150655000Y-68795000I100000J0D01*
G01*
D12*
G04 #@! TO.C,J1*
X131440000Y-63140000D02*
X131440000Y-67260000D01*
X141500000Y-63140000D02*
X131440000Y-63140000D01*
X141500000Y-63140000D02*
X141500000Y-65200000D01*
X141500000Y-65200000D02*
X143560000Y-65200000D01*
X142500000Y-63140000D02*
X143560000Y-63140000D01*
X143560000Y-63140000D02*
X143560000Y-64200000D01*
X143560000Y-65200000D02*
X143560000Y-67260000D01*
X143560000Y-67260000D02*
X131440000Y-67260000D01*
G04 #@! TO.C,SW1*
X113540000Y-41440000D02*
X113540000Y-43560000D01*
X117600000Y-41440000D02*
X113540000Y-41440000D01*
X117600000Y-41440000D02*
X117600000Y-43560000D01*
X117600000Y-43560000D02*
X113540000Y-43560000D01*
X118600000Y-41440000D02*
X119660000Y-41440000D01*
X119660000Y-41440000D02*
X119660000Y-42500000D01*
G04 #@! TO.C,R13*
X152690000Y-53961248D02*
X152690000Y-55383752D01*
X154510000Y-53961248D02*
X154510000Y-55383752D01*
D14*
G04 #@! TO.C,K1*
X119300000Y-69700001D02*
X119300000Y-69700001D01*
X119300000Y-69700001D02*
X119300000Y-69700001D01*
X119300000Y-69700001D02*
X119300000Y-85300001D01*
X119300000Y-69700001D02*
X138500000Y-69700001D01*
X119300000Y-85300001D02*
X119300000Y-69700001D01*
X119300000Y-85300001D02*
X119300000Y-85300001D01*
X119300000Y-85300001D02*
X119300000Y-85300001D01*
X119300000Y-85300001D02*
X138500000Y-85300001D01*
X138500000Y-69700001D02*
X119300000Y-69700001D01*
X138500000Y-69700001D02*
X138500000Y-69700001D01*
X138500000Y-69700001D02*
X138500000Y-69700001D01*
X138500000Y-69700001D02*
X138500000Y-77000001D01*
X138500000Y-77000001D02*
X138500000Y-69700001D01*
X138500000Y-77000001D02*
X138500000Y-77000001D01*
X138500000Y-78000001D02*
X138500000Y-78000001D01*
X138500000Y-78000001D02*
X138500000Y-85300001D01*
X138500000Y-85300001D02*
X119300000Y-85300001D01*
X138500000Y-85300001D02*
X138500000Y-78000001D01*
X138500000Y-85300001D02*
X138500000Y-85300001D01*
X138500000Y-85300001D02*
X138500000Y-85300001D01*
D12*
G04 #@! TO.C,D2*
X152252500Y-60965000D02*
X152252500Y-63235000D01*
X152252500Y-63235000D02*
X156312500Y-63235000D01*
X156312500Y-60965000D02*
X152252500Y-60965000D01*
G04 #@! TO.C,R11*
X143426248Y-59490000D02*
X144848752Y-59490000D01*
X143426248Y-61310000D02*
X144848752Y-61310000D01*
G04 #@! TO.C,D3*
X141080000Y-72910000D02*
X141080000Y-82650000D01*
X141080000Y-80985000D02*
X146520000Y-80985000D01*
X141080000Y-81105000D02*
X146520000Y-81105000D01*
X141080000Y-81225000D02*
X146520000Y-81225000D01*
X141080000Y-82650000D02*
X146520000Y-82650000D01*
X143800000Y-72000000D02*
X143800000Y-72910000D01*
X143800000Y-83560001D02*
X143800000Y-82650000D01*
X146520000Y-72910000D02*
X141080000Y-72910000D01*
X146520000Y-82650000D02*
X146520000Y-72910000D01*
G04 #@! TO.C,R12*
X141826248Y-56790000D02*
X143248752Y-56790000D01*
X141826248Y-58610000D02*
X143248752Y-58610000D01*
G04 #@! TO.C,R9*
X132526248Y-53490000D02*
X133948752Y-53490000D01*
X132526248Y-55310000D02*
X133948752Y-55310000D01*
G04 #@! TO.C,Q1*
X127962499Y-64639999D02*
X127312499Y-64640000D01*
X127962499Y-64639999D02*
X128612499Y-64640000D01*
X127962499Y-67760001D02*
X127312499Y-67760000D01*
X127962499Y-67760001D02*
X128612499Y-67760000D01*
X127039999Y-64360001D02*
X126799999Y-64690000D01*
X126559999Y-64360000D01*
X127039999Y-64360001D01*
G36*
X127039999Y-64360001D02*
G01*
X126799999Y-64690000D01*
X126559999Y-64360000D01*
X127039999Y-64360001D01*
G37*
D14*
G04 #@! TO.C,IC2*
X138850000Y-53450000D02*
X139050000Y-53450000D01*
X138850000Y-55450000D02*
X138850000Y-53450000D01*
X139050000Y-53450000D02*
X139050000Y-55450000D01*
X139050000Y-55450000D02*
X138850000Y-55450000D01*
X140400000Y-55650000D02*
X139400000Y-55650000D01*
D12*
G04 #@! TO.C,C6*
X156495000Y-55161248D02*
X156495000Y-56583752D01*
X158315000Y-55161248D02*
X158315000Y-56583752D01*
G04 #@! TO.C,C4*
X118526248Y-50990000D02*
X119948752Y-50990000D01*
X118526248Y-52810000D02*
X119948752Y-52810000D01*
G04 #@! TO.C,R2*
X159490000Y-68473752D02*
X159490000Y-67051248D01*
X161310000Y-68473752D02*
X161310000Y-67051248D01*
G04 #@! TO.C,J2*
X148370000Y-53630000D02*
X149700000Y-53630000D01*
X148370000Y-54960000D02*
X148370000Y-53630000D01*
X148370000Y-56230000D02*
X148370000Y-58830000D01*
X148370000Y-56230000D02*
X151030000Y-56230000D01*
X148370000Y-58830000D02*
X151030000Y-58830000D01*
X151030000Y-56230000D02*
X151030000Y-58830000D01*
D14*
G04 #@! TO.C,IC1*
X131050000Y-41950000D02*
X131050000Y-41950000D01*
X131250000Y-41950000D02*
X131250000Y-41950000D01*
X131650000Y-34950000D02*
X144850000Y-34950000D01*
X131650000Y-40250000D02*
X131650000Y-34950000D01*
X131650000Y-40250000D02*
X131650000Y-51550000D01*
X131650000Y-51550000D02*
X144850000Y-51550000D01*
X144850000Y-34950000D02*
X144850000Y-40250000D01*
X144850000Y-51550000D02*
X144850000Y-40250000D01*
X131050000Y-41950000D02*
G75*
G02*
X131250000Y-41950000I100000J0D01*
G01*
X131250000Y-41950000D02*
G75*
G02*
X131050000Y-41950000I-100000J0D01*
G01*
D12*
G04 #@! TO.C,J5*
X114870000Y-78729999D02*
X114870000Y-73590001D01*
X114870000Y-81330000D02*
X114870000Y-80000000D01*
X116200000Y-81330000D02*
X114870000Y-81330000D01*
X117530000Y-73590001D02*
X114870000Y-73590001D01*
X117530000Y-78729999D02*
X114870000Y-78729999D01*
X117530000Y-78729999D02*
X117530000Y-73590001D01*
G04 #@! TO.C,R5*
X127648752Y-46890000D02*
X126226248Y-46890000D01*
X127648752Y-48710000D02*
X126226248Y-48710000D01*
G04 #@! TO.C,R10*
X144126248Y-53990000D02*
X145548752Y-53990000D01*
X144126248Y-55810000D02*
X145548752Y-55810000D01*
G04 #@! TO.C,R4*
X164990000Y-70973752D02*
X164990000Y-69551248D01*
X166810000Y-70973752D02*
X166810000Y-69551248D01*
G04 #@! TO.C,R1*
X112390000Y-46826248D02*
X112390000Y-48248752D01*
X114210000Y-46826248D02*
X114210000Y-48248752D01*
G04 #@! TO.C,C1*
X156673752Y-74685000D02*
X155251248Y-74685000D01*
X156673752Y-76505000D02*
X155251248Y-76505000D01*
G04 #@! TO.C,C2*
X124190000Y-43273752D02*
X124190000Y-41851248D01*
X126010000Y-43273752D02*
X126010000Y-41851248D01*
G04 #@! TO.C,R7*
X162190000Y-68473752D02*
X162190000Y-67051248D01*
X164010000Y-68473752D02*
X164010000Y-67051248D01*
G04 #@! TO.C,C3*
X127390000Y-43273752D02*
X127390000Y-41851248D01*
X129210000Y-43273752D02*
X129210000Y-41851248D01*
G04 #@! TO.C,C5*
X121590000Y-46926248D02*
X121590000Y-48348752D01*
X123410000Y-46926248D02*
X123410000Y-48348752D01*
G04 #@! TO.C,U1*
X117590000Y-47637500D02*
X117590001Y-46837500D01*
X117590000Y-47637500D02*
X117590001Y-48437500D01*
X120710002Y-47637500D02*
X120710001Y-46837500D01*
X120710002Y-47637500D02*
X120710001Y-48437500D01*
X117640001Y-48937500D02*
X117310001Y-49177500D01*
X117310001Y-48697500D01*
X117640001Y-48937500D01*
G36*
X117640001Y-48937500D02*
G01*
X117310001Y-49177500D01*
X117310001Y-48697500D01*
X117640001Y-48937500D01*
G37*
G04 #@! TO.C,R14*
X156395000Y-48783752D02*
X156395000Y-47361248D01*
X158215000Y-48783752D02*
X158215000Y-47361248D01*
G04 #@! TO.C,D1*
X152352500Y-64665000D02*
X152352500Y-66935000D01*
X152352500Y-66935000D02*
X156412500Y-66935000D01*
X156412500Y-64665000D02*
X152352500Y-64665000D01*
G04 #@! TD*
D15*
G04 #@! TO.C,K1*
X135000000Y-71500001D03*
X122800000Y-71500001D03*
X122800000Y-83500001D03*
X135000000Y-83500000D03*
X137000000Y-77500001D03*
G04 #@! TD*
%LPC*%
D16*
G04 #@! TO.C,R6*
X149025000Y-67495000D03*
X149025000Y-70620000D03*
G04 #@! TD*
D17*
G04 #@! TO.C,H2*
X164400000Y-83800000D03*
G04 #@! TD*
D18*
G04 #@! TO.C,J6*
X162595000Y-55790000D03*
X162595000Y-50010000D03*
D19*
X161520000Y-56100000D03*
X161520000Y-55300000D03*
D20*
X161520001Y-54150000D03*
X161520000Y-53150000D03*
X161520000Y-52650000D03*
X161520001Y-51650000D03*
D19*
X161520000Y-50500000D03*
X161520000Y-49700000D03*
X161520000Y-49700000D03*
X161520000Y-50500000D03*
D20*
X161520000Y-51150000D03*
X161520000Y-52150000D03*
X161520000Y-53650000D03*
X161520000Y-54650000D03*
D19*
X161520000Y-55300000D03*
X161520000Y-56100000D03*
D21*
X162095000Y-57220000D03*
D22*
X166275000Y-57220000D03*
D21*
X162095000Y-48580000D03*
D22*
X166275000Y-48580000D03*
G04 #@! TD*
D16*
G04 #@! TO.C,R3*
X149025000Y-73195000D03*
X149025000Y-76320000D03*
G04 #@! TD*
D23*
G04 #@! TO.C,U2*
X152525000Y-69395000D03*
X152525000Y-70665000D03*
X152525000Y-71935000D03*
X152525000Y-73205000D03*
X157475000Y-73205000D03*
X157475000Y-71935000D03*
X157475000Y-70665000D03*
X157475000Y-69395000D03*
D24*
X155000000Y-71300000D03*
G04 #@! TD*
D25*
G04 #@! TO.C,J1*
X142500000Y-64200000D03*
D26*
X142500000Y-66200001D03*
X140499999Y-64200000D03*
X140500000Y-66200000D03*
X138500000Y-64200000D03*
X138499999Y-66200000D03*
X136500000Y-64200000D03*
X136500000Y-66200000D03*
X134500000Y-64200000D03*
X134500000Y-66200000D03*
X132500000Y-64200000D03*
X132500000Y-66200000D03*
G04 #@! TD*
D25*
G04 #@! TO.C,SW1*
X118600000Y-42500000D03*
D26*
X116599999Y-42500000D03*
X114600000Y-42500000D03*
G04 #@! TD*
D16*
G04 #@! TO.C,R13*
X153600000Y-53110000D03*
X153600000Y-56235000D03*
G04 #@! TD*
D15*
G04 #@! TO.C,K1*
X135000000Y-71500001D03*
X122800000Y-71500001D03*
X122800000Y-83500001D03*
X135000000Y-83500000D03*
X137000000Y-77500001D03*
G04 #@! TD*
D27*
G04 #@! TO.C,D2*
X153225000Y-62100000D03*
X156200000Y-62100000D03*
G04 #@! TD*
D28*
G04 #@! TO.C,R11*
X142575000Y-60400000D03*
X145700000Y-60400000D03*
G04 #@! TD*
D29*
G04 #@! TO.C,D3*
X143800000Y-85400000D03*
D30*
X143800000Y-70160000D03*
G04 #@! TD*
D28*
G04 #@! TO.C,R12*
X140975000Y-57700000D03*
X144100000Y-57700000D03*
G04 #@! TD*
G04 #@! TO.C,R9*
X131675000Y-54400000D03*
X134800000Y-54400000D03*
G04 #@! TD*
D31*
G04 #@! TO.C,Q1*
X127024999Y-65250000D03*
X127024999Y-67150000D03*
X128900000Y-66200000D03*
G04 #@! TD*
D32*
G04 #@! TO.C,IC2*
X139900000Y-55100000D03*
X139899999Y-54450000D03*
X139900000Y-53800000D03*
X138000000Y-53800000D03*
X138000001Y-54450000D03*
X138000000Y-55100000D03*
G04 #@! TD*
D16*
G04 #@! TO.C,C6*
X157405000Y-54310000D03*
X157405000Y-57435000D03*
G04 #@! TD*
D28*
G04 #@! TO.C,C4*
X117675000Y-51900000D03*
X120800000Y-51900000D03*
G04 #@! TD*
D33*
G04 #@! TO.C,R2*
X160400000Y-69325000D03*
X160400000Y-66200000D03*
G04 #@! TD*
D34*
G04 #@! TO.C,J2*
X149700000Y-54960000D03*
D35*
X149700000Y-57500000D03*
G04 #@! TD*
D36*
G04 #@! TO.C,IC1*
X132350000Y-41950000D03*
X132350000Y-42750000D03*
X132350000Y-43550000D03*
X132350000Y-44350000D03*
X132350000Y-45150000D03*
X132350000Y-45950000D03*
X132350000Y-46750000D03*
X132350000Y-47550000D03*
X132350000Y-48350000D03*
X132350000Y-49150000D03*
X132350000Y-49950000D03*
D37*
X133450000Y-50850000D03*
X134250000Y-50850000D03*
X135050000Y-50850000D03*
X135850000Y-50850000D03*
X136650000Y-50850000D03*
X137450000Y-50850000D03*
X138250000Y-50850000D03*
X139050000Y-50850000D03*
X139850000Y-50850000D03*
X140650000Y-50850000D03*
X141450000Y-50850000D03*
X142250000Y-50850000D03*
X143050000Y-50850000D03*
D36*
X144150000Y-49950000D03*
X144150000Y-49150000D03*
X144150000Y-48350000D03*
X144150000Y-47550000D03*
X144150000Y-46750000D03*
X144150000Y-45950000D03*
X144150000Y-45150000D03*
X144150000Y-44350000D03*
X144150000Y-43550000D03*
X144150000Y-42750000D03*
X144150000Y-41950000D03*
D37*
X143050000Y-41050000D03*
X142250000Y-41050000D03*
X141450000Y-41050000D03*
X140650000Y-41050000D03*
X139850000Y-41050000D03*
X139050000Y-41050000D03*
X138250000Y-41050000D03*
X137450000Y-41050000D03*
X136650000Y-41050000D03*
X135850000Y-41050000D03*
X135050000Y-41050000D03*
X134250000Y-41050000D03*
X133450000Y-41050000D03*
D38*
X138250000Y-45950000D03*
X140225000Y-43975000D03*
X138250000Y-43975000D03*
X136275000Y-43975000D03*
X136275000Y-45950000D03*
X136275000Y-47925000D03*
X138250000Y-47925000D03*
X140225000Y-47925000D03*
X140225000Y-45950000D03*
D39*
X132300000Y-41000000D03*
X132300000Y-50900000D03*
X144200000Y-50900000D03*
X144200000Y-41000000D03*
G04 #@! TD*
D34*
G04 #@! TO.C,J5*
X116200000Y-80000000D03*
D35*
X116200000Y-77460000D03*
X116200000Y-74920001D03*
G04 #@! TD*
D40*
G04 #@! TO.C,R5*
X128500000Y-47800000D03*
X125375000Y-47800000D03*
G04 #@! TD*
D28*
G04 #@! TO.C,R10*
X143275000Y-54900000D03*
X146400000Y-54900000D03*
G04 #@! TD*
D41*
G04 #@! TO.C,J3*
X150400000Y-85200000D03*
G04 #@! TD*
D33*
G04 #@! TO.C,R4*
X165900000Y-71825000D03*
X165900000Y-68700000D03*
G04 #@! TD*
D16*
G04 #@! TO.C,R1*
X113300000Y-45975000D03*
X113300000Y-49100000D03*
G04 #@! TD*
D40*
G04 #@! TO.C,C1*
X157525000Y-75595000D03*
X154400000Y-75595000D03*
G04 #@! TD*
D33*
G04 #@! TO.C,C2*
X125100000Y-44125000D03*
X125100000Y-41000000D03*
G04 #@! TD*
D17*
G04 #@! TO.C,H3*
X112950000Y-63550000D03*
G04 #@! TD*
D41*
G04 #@! TO.C,J4*
X156900000Y-85200000D03*
G04 #@! TD*
D33*
G04 #@! TO.C,R7*
X163100000Y-69325000D03*
X163100000Y-66200000D03*
G04 #@! TD*
G04 #@! TO.C,C3*
X128300000Y-44125000D03*
X128300000Y-41000000D03*
G04 #@! TD*
D16*
G04 #@! TO.C,C5*
X122500000Y-46075000D03*
X122500000Y-49200000D03*
G04 #@! TD*
D42*
G04 #@! TO.C,U1*
X118200002Y-48775000D03*
X119150001Y-48775000D03*
X120100000Y-48775000D03*
X120100000Y-46500000D03*
X118200002Y-46500000D03*
G04 #@! TD*
D33*
G04 #@! TO.C,R14*
X157305000Y-49635000D03*
X157305000Y-46510000D03*
G04 #@! TD*
D27*
G04 #@! TO.C,D1*
X153325000Y-65800000D03*
X156300000Y-65800000D03*
G04 #@! TD*
D17*
G04 #@! TO.C,H1*
X164387951Y-43300000D03*
G04 #@! TD*
%LPD*%
M02*
