%TF.GenerationSoftware,KiCad,Pcbnew,8.0.8*%
%TF.CreationDate,2025-07-04T19:36:45+02:00*%
%TF.ProjectId,LaunchControl,4c61756e-6368-4436-9f6e-74726f6c2e6b,rev?*%
%TF.SameCoordinates,Original*%
%TF.FileFunction,Drillmap*%
%TF.FilePolarity,Positive*%
%FSLAX45Y45*%
G04 Gerber Fmt 4.5, Leading zero omitted, Abs format (unit mm)*
G04 Created by KiCad (PCBNEW 8.0.8) date 2025-07-04 19:36:45*
%MOMM*%
%LPD*%
G01*
G04 APERTURE LIST*
%ADD10C,0.050000*%
%ADD11C,0.200000*%
%ADD12C,0.100000*%
%ADD13C,0.320000*%
G04 APERTURE END LIST*
D10*
X16595000Y-4330000D02*
G75*
G02*
X16282590Y-4330000I-156205J0D01*
G01*
X16282590Y-4330000D02*
G75*
G02*
X16595000Y-4330000I156205J0D01*
G01*
X16606508Y-8380000D02*
G75*
G02*
X16273492Y-8380000I-166508J0D01*
G01*
X16273492Y-8380000D02*
G75*
G02*
X16606508Y-8380000I166508J0D01*
G01*
X10795000Y-3830000D02*
X16940000Y-3830000D01*
X16940000Y-8875000D01*
X10795000Y-8875000D01*
X10795000Y-3830000D01*
X11458248Y-6355000D02*
G75*
G02*
X11131752Y-6355000I-163248J0D01*
G01*
X11131752Y-6355000D02*
G75*
G02*
X11458248Y-6355000I163248J0D01*
G01*
D11*
D12*
X16227000Y-4968500D02*
X16292000Y-5033500D01*
X16292000Y-4968500D02*
X16227000Y-5033500D01*
X16227000Y-5546500D02*
X16292000Y-5611500D01*
X16292000Y-5546500D02*
X16227000Y-5611500D01*
D13*
X11455000Y-6355000D02*
G75*
G02*
X11135000Y-6355000I-160000J0D01*
G01*
X11135000Y-6355000D02*
G75*
G02*
X11455000Y-6355000I160000J0D01*
G01*
X16598795Y-4330000D02*
G75*
G02*
X16278795Y-4330000I-160000J0D01*
G01*
X16278795Y-4330000D02*
G75*
G02*
X16598795Y-4330000I160000J0D01*
G01*
X16600000Y-8380000D02*
G75*
G02*
X16280000Y-8380000I-160000J0D01*
G01*
X16280000Y-8380000D02*
G75*
G02*
X16600000Y-8380000I160000J0D01*
G01*
D11*
X11053277Y-9188984D02*
X11053277Y-8988984D01*
X11053277Y-8988984D02*
X11100896Y-8988984D01*
X11100896Y-8988984D02*
X11129467Y-8998508D01*
X11129467Y-8998508D02*
X11148515Y-9017555D01*
X11148515Y-9017555D02*
X11158039Y-9036603D01*
X11158039Y-9036603D02*
X11167563Y-9074698D01*
X11167563Y-9074698D02*
X11167563Y-9103270D01*
X11167563Y-9103270D02*
X11158039Y-9141365D01*
X11158039Y-9141365D02*
X11148515Y-9160412D01*
X11148515Y-9160412D02*
X11129467Y-9179460D01*
X11129467Y-9179460D02*
X11100896Y-9188984D01*
X11100896Y-9188984D02*
X11053277Y-9188984D01*
X11253277Y-9188984D02*
X11253277Y-9055650D01*
X11253277Y-9093746D02*
X11262801Y-9074698D01*
X11262801Y-9074698D02*
X11272324Y-9065174D01*
X11272324Y-9065174D02*
X11291372Y-9055650D01*
X11291372Y-9055650D02*
X11310420Y-9055650D01*
X11377086Y-9188984D02*
X11377086Y-9055650D01*
X11377086Y-8988984D02*
X11367562Y-8998508D01*
X11367562Y-8998508D02*
X11377086Y-9008031D01*
X11377086Y-9008031D02*
X11386610Y-8998508D01*
X11386610Y-8998508D02*
X11377086Y-8988984D01*
X11377086Y-8988984D02*
X11377086Y-9008031D01*
X11500896Y-9188984D02*
X11481848Y-9179460D01*
X11481848Y-9179460D02*
X11472324Y-9160412D01*
X11472324Y-9160412D02*
X11472324Y-8988984D01*
X11605658Y-9188984D02*
X11586610Y-9179460D01*
X11586610Y-9179460D02*
X11577086Y-9160412D01*
X11577086Y-9160412D02*
X11577086Y-8988984D01*
X11834229Y-9188984D02*
X11834229Y-8988984D01*
X11834229Y-8988984D02*
X11900896Y-9131841D01*
X11900896Y-9131841D02*
X11967562Y-8988984D01*
X11967562Y-8988984D02*
X11967562Y-9188984D01*
X12148515Y-9188984D02*
X12148515Y-9084222D01*
X12148515Y-9084222D02*
X12138991Y-9065174D01*
X12138991Y-9065174D02*
X12119943Y-9055650D01*
X12119943Y-9055650D02*
X12081848Y-9055650D01*
X12081848Y-9055650D02*
X12062801Y-9065174D01*
X12148515Y-9179460D02*
X12129467Y-9188984D01*
X12129467Y-9188984D02*
X12081848Y-9188984D01*
X12081848Y-9188984D02*
X12062801Y-9179460D01*
X12062801Y-9179460D02*
X12053277Y-9160412D01*
X12053277Y-9160412D02*
X12053277Y-9141365D01*
X12053277Y-9141365D02*
X12062801Y-9122317D01*
X12062801Y-9122317D02*
X12081848Y-9112793D01*
X12081848Y-9112793D02*
X12129467Y-9112793D01*
X12129467Y-9112793D02*
X12148515Y-9103270D01*
X12243753Y-9055650D02*
X12243753Y-9255650D01*
X12243753Y-9065174D02*
X12262801Y-9055650D01*
X12262801Y-9055650D02*
X12300896Y-9055650D01*
X12300896Y-9055650D02*
X12319943Y-9065174D01*
X12319943Y-9065174D02*
X12329467Y-9074698D01*
X12329467Y-9074698D02*
X12338991Y-9093746D01*
X12338991Y-9093746D02*
X12338991Y-9150889D01*
X12338991Y-9150889D02*
X12329467Y-9169936D01*
X12329467Y-9169936D02*
X12319943Y-9179460D01*
X12319943Y-9179460D02*
X12300896Y-9188984D01*
X12300896Y-9188984D02*
X12262801Y-9188984D01*
X12262801Y-9188984D02*
X12243753Y-9179460D01*
X12424705Y-9169936D02*
X12434229Y-9179460D01*
X12434229Y-9179460D02*
X12424705Y-9188984D01*
X12424705Y-9188984D02*
X12415182Y-9179460D01*
X12415182Y-9179460D02*
X12424705Y-9169936D01*
X12424705Y-9169936D02*
X12424705Y-9188984D01*
X12424705Y-9065174D02*
X12434229Y-9074698D01*
X12434229Y-9074698D02*
X12424705Y-9084222D01*
X12424705Y-9084222D02*
X12415182Y-9074698D01*
X12415182Y-9074698D02*
X12424705Y-9065174D01*
X12424705Y-9065174D02*
X12424705Y-9084222D01*
D12*
X10727500Y-9485000D02*
X10792500Y-9550000D01*
X10792500Y-9485000D02*
X10727500Y-9550000D01*
D11*
X11091372Y-9408984D02*
X11110420Y-9408984D01*
X11110420Y-9408984D02*
X11129467Y-9418508D01*
X11129467Y-9418508D02*
X11138991Y-9428031D01*
X11138991Y-9428031D02*
X11148515Y-9447079D01*
X11148515Y-9447079D02*
X11158039Y-9485174D01*
X11158039Y-9485174D02*
X11158039Y-9532793D01*
X11158039Y-9532793D02*
X11148515Y-9570889D01*
X11148515Y-9570889D02*
X11138991Y-9589936D01*
X11138991Y-9589936D02*
X11129467Y-9599460D01*
X11129467Y-9599460D02*
X11110420Y-9608984D01*
X11110420Y-9608984D02*
X11091372Y-9608984D01*
X11091372Y-9608984D02*
X11072324Y-9599460D01*
X11072324Y-9599460D02*
X11062801Y-9589936D01*
X11062801Y-9589936D02*
X11053277Y-9570889D01*
X11053277Y-9570889D02*
X11043753Y-9532793D01*
X11043753Y-9532793D02*
X11043753Y-9485174D01*
X11043753Y-9485174D02*
X11053277Y-9447079D01*
X11053277Y-9447079D02*
X11062801Y-9428031D01*
X11062801Y-9428031D02*
X11072324Y-9418508D01*
X11072324Y-9418508D02*
X11091372Y-9408984D01*
X11243753Y-9589936D02*
X11253277Y-9599460D01*
X11253277Y-9599460D02*
X11243753Y-9608984D01*
X11243753Y-9608984D02*
X11234229Y-9599460D01*
X11234229Y-9599460D02*
X11243753Y-9589936D01*
X11243753Y-9589936D02*
X11243753Y-9608984D01*
X11424705Y-9408984D02*
X11386610Y-9408984D01*
X11386610Y-9408984D02*
X11367562Y-9418508D01*
X11367562Y-9418508D02*
X11358039Y-9428031D01*
X11358039Y-9428031D02*
X11338991Y-9456603D01*
X11338991Y-9456603D02*
X11329467Y-9494698D01*
X11329467Y-9494698D02*
X11329467Y-9570889D01*
X11329467Y-9570889D02*
X11338991Y-9589936D01*
X11338991Y-9589936D02*
X11348515Y-9599460D01*
X11348515Y-9599460D02*
X11367562Y-9608984D01*
X11367562Y-9608984D02*
X11405658Y-9608984D01*
X11405658Y-9608984D02*
X11424705Y-9599460D01*
X11424705Y-9599460D02*
X11434229Y-9589936D01*
X11434229Y-9589936D02*
X11443753Y-9570889D01*
X11443753Y-9570889D02*
X11443753Y-9523270D01*
X11443753Y-9523270D02*
X11434229Y-9504222D01*
X11434229Y-9504222D02*
X11424705Y-9494698D01*
X11424705Y-9494698D02*
X11405658Y-9485174D01*
X11405658Y-9485174D02*
X11367562Y-9485174D01*
X11367562Y-9485174D02*
X11348515Y-9494698D01*
X11348515Y-9494698D02*
X11338991Y-9504222D01*
X11338991Y-9504222D02*
X11329467Y-9523270D01*
X11624705Y-9408984D02*
X11529467Y-9408984D01*
X11529467Y-9408984D02*
X11519943Y-9504222D01*
X11519943Y-9504222D02*
X11529467Y-9494698D01*
X11529467Y-9494698D02*
X11548515Y-9485174D01*
X11548515Y-9485174D02*
X11596134Y-9485174D01*
X11596134Y-9485174D02*
X11615182Y-9494698D01*
X11615182Y-9494698D02*
X11624705Y-9504222D01*
X11624705Y-9504222D02*
X11634229Y-9523270D01*
X11634229Y-9523270D02*
X11634229Y-9570889D01*
X11634229Y-9570889D02*
X11624705Y-9589936D01*
X11624705Y-9589936D02*
X11615182Y-9599460D01*
X11615182Y-9599460D02*
X11596134Y-9608984D01*
X11596134Y-9608984D02*
X11548515Y-9608984D01*
X11548515Y-9608984D02*
X11529467Y-9599460D01*
X11529467Y-9599460D02*
X11519943Y-9589936D01*
X11758039Y-9408984D02*
X11777086Y-9408984D01*
X11777086Y-9408984D02*
X11796134Y-9418508D01*
X11796134Y-9418508D02*
X11805658Y-9428031D01*
X11805658Y-9428031D02*
X11815182Y-9447079D01*
X11815182Y-9447079D02*
X11824705Y-9485174D01*
X11824705Y-9485174D02*
X11824705Y-9532793D01*
X11824705Y-9532793D02*
X11815182Y-9570889D01*
X11815182Y-9570889D02*
X11805658Y-9589936D01*
X11805658Y-9589936D02*
X11796134Y-9599460D01*
X11796134Y-9599460D02*
X11777086Y-9608984D01*
X11777086Y-9608984D02*
X11758039Y-9608984D01*
X11758039Y-9608984D02*
X11738991Y-9599460D01*
X11738991Y-9599460D02*
X11729467Y-9589936D01*
X11729467Y-9589936D02*
X11719943Y-9570889D01*
X11719943Y-9570889D02*
X11710420Y-9532793D01*
X11710420Y-9532793D02*
X11710420Y-9485174D01*
X11710420Y-9485174D02*
X11719943Y-9447079D01*
X11719943Y-9447079D02*
X11729467Y-9428031D01*
X11729467Y-9428031D02*
X11738991Y-9418508D01*
X11738991Y-9418508D02*
X11758039Y-9408984D01*
X11910420Y-9608984D02*
X11910420Y-9475650D01*
X11910420Y-9494698D02*
X11919943Y-9485174D01*
X11919943Y-9485174D02*
X11938991Y-9475650D01*
X11938991Y-9475650D02*
X11967563Y-9475650D01*
X11967563Y-9475650D02*
X11986610Y-9485174D01*
X11986610Y-9485174D02*
X11996134Y-9504222D01*
X11996134Y-9504222D02*
X11996134Y-9608984D01*
X11996134Y-9504222D02*
X12005658Y-9485174D01*
X12005658Y-9485174D02*
X12024705Y-9475650D01*
X12024705Y-9475650D02*
X12053277Y-9475650D01*
X12053277Y-9475650D02*
X12072324Y-9485174D01*
X12072324Y-9485174D02*
X12081848Y-9504222D01*
X12081848Y-9504222D02*
X12081848Y-9608984D01*
X12177086Y-9608984D02*
X12177086Y-9475650D01*
X12177086Y-9494698D02*
X12186610Y-9485174D01*
X12186610Y-9485174D02*
X12205658Y-9475650D01*
X12205658Y-9475650D02*
X12234229Y-9475650D01*
X12234229Y-9475650D02*
X12253277Y-9485174D01*
X12253277Y-9485174D02*
X12262801Y-9504222D01*
X12262801Y-9504222D02*
X12262801Y-9608984D01*
X12262801Y-9504222D02*
X12272324Y-9485174D01*
X12272324Y-9485174D02*
X12291372Y-9475650D01*
X12291372Y-9475650D02*
X12319943Y-9475650D01*
X12319943Y-9475650D02*
X12338991Y-9485174D01*
X12338991Y-9485174D02*
X12348515Y-9504222D01*
X12348515Y-9504222D02*
X12348515Y-9608984D01*
X12738991Y-9399460D02*
X12567563Y-9656603D01*
X12996134Y-9408984D02*
X13015182Y-9408984D01*
X13015182Y-9408984D02*
X13034229Y-9418508D01*
X13034229Y-9418508D02*
X13043753Y-9428031D01*
X13043753Y-9428031D02*
X13053277Y-9447079D01*
X13053277Y-9447079D02*
X13062801Y-9485174D01*
X13062801Y-9485174D02*
X13062801Y-9532793D01*
X13062801Y-9532793D02*
X13053277Y-9570889D01*
X13053277Y-9570889D02*
X13043753Y-9589936D01*
X13043753Y-9589936D02*
X13034229Y-9599460D01*
X13034229Y-9599460D02*
X13015182Y-9608984D01*
X13015182Y-9608984D02*
X12996134Y-9608984D01*
X12996134Y-9608984D02*
X12977086Y-9599460D01*
X12977086Y-9599460D02*
X12967563Y-9589936D01*
X12967563Y-9589936D02*
X12958039Y-9570889D01*
X12958039Y-9570889D02*
X12948515Y-9532793D01*
X12948515Y-9532793D02*
X12948515Y-9485174D01*
X12948515Y-9485174D02*
X12958039Y-9447079D01*
X12958039Y-9447079D02*
X12967563Y-9428031D01*
X12967563Y-9428031D02*
X12977086Y-9418508D01*
X12977086Y-9418508D02*
X12996134Y-9408984D01*
X13148515Y-9589936D02*
X13158039Y-9599460D01*
X13158039Y-9599460D02*
X13148515Y-9608984D01*
X13148515Y-9608984D02*
X13138991Y-9599460D01*
X13138991Y-9599460D02*
X13148515Y-9589936D01*
X13148515Y-9589936D02*
X13148515Y-9608984D01*
X13281848Y-9408984D02*
X13300896Y-9408984D01*
X13300896Y-9408984D02*
X13319944Y-9418508D01*
X13319944Y-9418508D02*
X13329467Y-9428031D01*
X13329467Y-9428031D02*
X13338991Y-9447079D01*
X13338991Y-9447079D02*
X13348515Y-9485174D01*
X13348515Y-9485174D02*
X13348515Y-9532793D01*
X13348515Y-9532793D02*
X13338991Y-9570889D01*
X13338991Y-9570889D02*
X13329467Y-9589936D01*
X13329467Y-9589936D02*
X13319944Y-9599460D01*
X13319944Y-9599460D02*
X13300896Y-9608984D01*
X13300896Y-9608984D02*
X13281848Y-9608984D01*
X13281848Y-9608984D02*
X13262801Y-9599460D01*
X13262801Y-9599460D02*
X13253277Y-9589936D01*
X13253277Y-9589936D02*
X13243753Y-9570889D01*
X13243753Y-9570889D02*
X13234229Y-9532793D01*
X13234229Y-9532793D02*
X13234229Y-9485174D01*
X13234229Y-9485174D02*
X13243753Y-9447079D01*
X13243753Y-9447079D02*
X13253277Y-9428031D01*
X13253277Y-9428031D02*
X13262801Y-9418508D01*
X13262801Y-9418508D02*
X13281848Y-9408984D01*
X13424706Y-9428031D02*
X13434229Y-9418508D01*
X13434229Y-9418508D02*
X13453277Y-9408984D01*
X13453277Y-9408984D02*
X13500896Y-9408984D01*
X13500896Y-9408984D02*
X13519944Y-9418508D01*
X13519944Y-9418508D02*
X13529467Y-9428031D01*
X13529467Y-9428031D02*
X13538991Y-9447079D01*
X13538991Y-9447079D02*
X13538991Y-9466127D01*
X13538991Y-9466127D02*
X13529467Y-9494698D01*
X13529467Y-9494698D02*
X13415182Y-9608984D01*
X13415182Y-9608984D02*
X13538991Y-9608984D01*
X13719944Y-9408984D02*
X13624706Y-9408984D01*
X13624706Y-9408984D02*
X13615182Y-9504222D01*
X13615182Y-9504222D02*
X13624706Y-9494698D01*
X13624706Y-9494698D02*
X13643753Y-9485174D01*
X13643753Y-9485174D02*
X13691372Y-9485174D01*
X13691372Y-9485174D02*
X13710420Y-9494698D01*
X13710420Y-9494698D02*
X13719944Y-9504222D01*
X13719944Y-9504222D02*
X13729467Y-9523270D01*
X13729467Y-9523270D02*
X13729467Y-9570889D01*
X13729467Y-9570889D02*
X13719944Y-9589936D01*
X13719944Y-9589936D02*
X13710420Y-9599460D01*
X13710420Y-9599460D02*
X13691372Y-9608984D01*
X13691372Y-9608984D02*
X13643753Y-9608984D01*
X13643753Y-9608984D02*
X13624706Y-9599460D01*
X13624706Y-9599460D02*
X13615182Y-9589936D01*
X13900896Y-9408984D02*
X13862801Y-9408984D01*
X13862801Y-9408984D02*
X13843753Y-9418508D01*
X13843753Y-9418508D02*
X13834229Y-9428031D01*
X13834229Y-9428031D02*
X13815182Y-9456603D01*
X13815182Y-9456603D02*
X13805658Y-9494698D01*
X13805658Y-9494698D02*
X13805658Y-9570889D01*
X13805658Y-9570889D02*
X13815182Y-9589936D01*
X13815182Y-9589936D02*
X13824706Y-9599460D01*
X13824706Y-9599460D02*
X13843753Y-9608984D01*
X13843753Y-9608984D02*
X13881848Y-9608984D01*
X13881848Y-9608984D02*
X13900896Y-9599460D01*
X13900896Y-9599460D02*
X13910420Y-9589936D01*
X13910420Y-9589936D02*
X13919944Y-9570889D01*
X13919944Y-9570889D02*
X13919944Y-9523270D01*
X13919944Y-9523270D02*
X13910420Y-9504222D01*
X13910420Y-9504222D02*
X13900896Y-9494698D01*
X13900896Y-9494698D02*
X13881848Y-9485174D01*
X13881848Y-9485174D02*
X13843753Y-9485174D01*
X13843753Y-9485174D02*
X13824706Y-9494698D01*
X13824706Y-9494698D02*
X13815182Y-9504222D01*
X13815182Y-9504222D02*
X13805658Y-9523270D01*
X13996134Y-9408984D02*
X13996134Y-9447079D01*
X14072325Y-9408984D02*
X14072325Y-9447079D01*
X14367563Y-9685174D02*
X14358039Y-9675650D01*
X14358039Y-9675650D02*
X14338991Y-9647079D01*
X14338991Y-9647079D02*
X14329468Y-9628031D01*
X14329468Y-9628031D02*
X14319944Y-9599460D01*
X14319944Y-9599460D02*
X14310420Y-9551841D01*
X14310420Y-9551841D02*
X14310420Y-9513746D01*
X14310420Y-9513746D02*
X14319944Y-9466127D01*
X14319944Y-9466127D02*
X14329468Y-9437555D01*
X14329468Y-9437555D02*
X14338991Y-9418508D01*
X14338991Y-9418508D02*
X14358039Y-9389936D01*
X14358039Y-9389936D02*
X14367563Y-9380412D01*
X14434229Y-9428031D02*
X14443753Y-9418508D01*
X14443753Y-9418508D02*
X14462801Y-9408984D01*
X14462801Y-9408984D02*
X14510420Y-9408984D01*
X14510420Y-9408984D02*
X14529468Y-9418508D01*
X14529468Y-9418508D02*
X14538991Y-9428031D01*
X14538991Y-9428031D02*
X14548515Y-9447079D01*
X14548515Y-9447079D02*
X14548515Y-9466127D01*
X14548515Y-9466127D02*
X14538991Y-9494698D01*
X14538991Y-9494698D02*
X14424706Y-9608984D01*
X14424706Y-9608984D02*
X14548515Y-9608984D01*
X14786610Y-9608984D02*
X14786610Y-9408984D01*
X14872325Y-9608984D02*
X14872325Y-9504222D01*
X14872325Y-9504222D02*
X14862801Y-9485174D01*
X14862801Y-9485174D02*
X14843753Y-9475650D01*
X14843753Y-9475650D02*
X14815182Y-9475650D01*
X14815182Y-9475650D02*
X14796134Y-9485174D01*
X14796134Y-9485174D02*
X14786610Y-9494698D01*
X14996134Y-9608984D02*
X14977087Y-9599460D01*
X14977087Y-9599460D02*
X14967563Y-9589936D01*
X14967563Y-9589936D02*
X14958039Y-9570889D01*
X14958039Y-9570889D02*
X14958039Y-9513746D01*
X14958039Y-9513746D02*
X14967563Y-9494698D01*
X14967563Y-9494698D02*
X14977087Y-9485174D01*
X14977087Y-9485174D02*
X14996134Y-9475650D01*
X14996134Y-9475650D02*
X15024706Y-9475650D01*
X15024706Y-9475650D02*
X15043753Y-9485174D01*
X15043753Y-9485174D02*
X15053277Y-9494698D01*
X15053277Y-9494698D02*
X15062801Y-9513746D01*
X15062801Y-9513746D02*
X15062801Y-9570889D01*
X15062801Y-9570889D02*
X15053277Y-9589936D01*
X15053277Y-9589936D02*
X15043753Y-9599460D01*
X15043753Y-9599460D02*
X15024706Y-9608984D01*
X15024706Y-9608984D02*
X14996134Y-9608984D01*
X15177087Y-9608984D02*
X15158039Y-9599460D01*
X15158039Y-9599460D02*
X15148515Y-9580412D01*
X15148515Y-9580412D02*
X15148515Y-9408984D01*
X15329468Y-9599460D02*
X15310420Y-9608984D01*
X15310420Y-9608984D02*
X15272325Y-9608984D01*
X15272325Y-9608984D02*
X15253277Y-9599460D01*
X15253277Y-9599460D02*
X15243753Y-9580412D01*
X15243753Y-9580412D02*
X15243753Y-9504222D01*
X15243753Y-9504222D02*
X15253277Y-9485174D01*
X15253277Y-9485174D02*
X15272325Y-9475650D01*
X15272325Y-9475650D02*
X15310420Y-9475650D01*
X15310420Y-9475650D02*
X15329468Y-9485174D01*
X15329468Y-9485174D02*
X15338991Y-9504222D01*
X15338991Y-9504222D02*
X15338991Y-9523270D01*
X15338991Y-9523270D02*
X15243753Y-9542317D01*
X15415182Y-9599460D02*
X15434230Y-9608984D01*
X15434230Y-9608984D02*
X15472325Y-9608984D01*
X15472325Y-9608984D02*
X15491372Y-9599460D01*
X15491372Y-9599460D02*
X15500896Y-9580412D01*
X15500896Y-9580412D02*
X15500896Y-9570889D01*
X15500896Y-9570889D02*
X15491372Y-9551841D01*
X15491372Y-9551841D02*
X15472325Y-9542317D01*
X15472325Y-9542317D02*
X15443753Y-9542317D01*
X15443753Y-9542317D02*
X15424706Y-9532793D01*
X15424706Y-9532793D02*
X15415182Y-9513746D01*
X15415182Y-9513746D02*
X15415182Y-9504222D01*
X15415182Y-9504222D02*
X15424706Y-9485174D01*
X15424706Y-9485174D02*
X15443753Y-9475650D01*
X15443753Y-9475650D02*
X15472325Y-9475650D01*
X15472325Y-9475650D02*
X15491372Y-9485174D01*
X15567563Y-9685174D02*
X15577087Y-9675650D01*
X15577087Y-9675650D02*
X15596134Y-9647079D01*
X15596134Y-9647079D02*
X15605658Y-9628031D01*
X15605658Y-9628031D02*
X15615182Y-9599460D01*
X15615182Y-9599460D02*
X15624706Y-9551841D01*
X15624706Y-9551841D02*
X15624706Y-9513746D01*
X15624706Y-9513746D02*
X15615182Y-9466127D01*
X15615182Y-9466127D02*
X15605658Y-9437555D01*
X15605658Y-9437555D02*
X15596134Y-9418508D01*
X15596134Y-9418508D02*
X15577087Y-9389936D01*
X15577087Y-9389936D02*
X15567563Y-9380412D01*
X15929468Y-9685174D02*
X15919944Y-9675650D01*
X15919944Y-9675650D02*
X15900896Y-9647079D01*
X15900896Y-9647079D02*
X15891372Y-9628031D01*
X15891372Y-9628031D02*
X15881849Y-9599460D01*
X15881849Y-9599460D02*
X15872325Y-9551841D01*
X15872325Y-9551841D02*
X15872325Y-9513746D01*
X15872325Y-9513746D02*
X15881849Y-9466127D01*
X15881849Y-9466127D02*
X15891372Y-9437555D01*
X15891372Y-9437555D02*
X15900896Y-9418508D01*
X15900896Y-9418508D02*
X15919944Y-9389936D01*
X15919944Y-9389936D02*
X15929468Y-9380412D01*
X16005658Y-9475650D02*
X16005658Y-9608984D01*
X16005658Y-9494698D02*
X16015182Y-9485174D01*
X16015182Y-9485174D02*
X16034230Y-9475650D01*
X16034230Y-9475650D02*
X16062801Y-9475650D01*
X16062801Y-9475650D02*
X16081849Y-9485174D01*
X16081849Y-9485174D02*
X16091372Y-9504222D01*
X16091372Y-9504222D02*
X16091372Y-9608984D01*
X16215182Y-9608984D02*
X16196134Y-9599460D01*
X16196134Y-9599460D02*
X16186611Y-9589936D01*
X16186611Y-9589936D02*
X16177087Y-9570889D01*
X16177087Y-9570889D02*
X16177087Y-9513746D01*
X16177087Y-9513746D02*
X16186611Y-9494698D01*
X16186611Y-9494698D02*
X16196134Y-9485174D01*
X16196134Y-9485174D02*
X16215182Y-9475650D01*
X16215182Y-9475650D02*
X16243753Y-9475650D01*
X16243753Y-9475650D02*
X16262801Y-9485174D01*
X16262801Y-9485174D02*
X16272325Y-9494698D01*
X16272325Y-9494698D02*
X16281849Y-9513746D01*
X16281849Y-9513746D02*
X16281849Y-9570889D01*
X16281849Y-9570889D02*
X16272325Y-9589936D01*
X16272325Y-9589936D02*
X16262801Y-9599460D01*
X16262801Y-9599460D02*
X16243753Y-9608984D01*
X16243753Y-9608984D02*
X16215182Y-9608984D01*
X16338992Y-9475650D02*
X16415182Y-9475650D01*
X16367563Y-9408984D02*
X16367563Y-9580412D01*
X16367563Y-9580412D02*
X16377087Y-9599460D01*
X16377087Y-9599460D02*
X16396134Y-9608984D01*
X16396134Y-9608984D02*
X16415182Y-9608984D01*
X16634230Y-9475650D02*
X16634230Y-9675650D01*
X16634230Y-9485174D02*
X16653277Y-9475650D01*
X16653277Y-9475650D02*
X16691373Y-9475650D01*
X16691373Y-9475650D02*
X16710420Y-9485174D01*
X16710420Y-9485174D02*
X16719944Y-9494698D01*
X16719944Y-9494698D02*
X16729468Y-9513746D01*
X16729468Y-9513746D02*
X16729468Y-9570889D01*
X16729468Y-9570889D02*
X16719944Y-9589936D01*
X16719944Y-9589936D02*
X16710420Y-9599460D01*
X16710420Y-9599460D02*
X16691373Y-9608984D01*
X16691373Y-9608984D02*
X16653277Y-9608984D01*
X16653277Y-9608984D02*
X16634230Y-9599460D01*
X16843754Y-9608984D02*
X16824706Y-9599460D01*
X16824706Y-9599460D02*
X16815182Y-9580412D01*
X16815182Y-9580412D02*
X16815182Y-9408984D01*
X17005658Y-9608984D02*
X17005658Y-9504222D01*
X17005658Y-9504222D02*
X16996135Y-9485174D01*
X16996135Y-9485174D02*
X16977087Y-9475650D01*
X16977087Y-9475650D02*
X16938992Y-9475650D01*
X16938992Y-9475650D02*
X16919944Y-9485174D01*
X17005658Y-9599460D02*
X16986611Y-9608984D01*
X16986611Y-9608984D02*
X16938992Y-9608984D01*
X16938992Y-9608984D02*
X16919944Y-9599460D01*
X16919944Y-9599460D02*
X16910420Y-9580412D01*
X16910420Y-9580412D02*
X16910420Y-9561365D01*
X16910420Y-9561365D02*
X16919944Y-9542317D01*
X16919944Y-9542317D02*
X16938992Y-9532793D01*
X16938992Y-9532793D02*
X16986611Y-9532793D01*
X16986611Y-9532793D02*
X17005658Y-9523270D01*
X17072325Y-9475650D02*
X17148515Y-9475650D01*
X17100896Y-9408984D02*
X17100896Y-9580412D01*
X17100896Y-9580412D02*
X17110420Y-9599460D01*
X17110420Y-9599460D02*
X17129468Y-9608984D01*
X17129468Y-9608984D02*
X17148515Y-9608984D01*
X17291373Y-9599460D02*
X17272325Y-9608984D01*
X17272325Y-9608984D02*
X17234230Y-9608984D01*
X17234230Y-9608984D02*
X17215182Y-9599460D01*
X17215182Y-9599460D02*
X17205658Y-9580412D01*
X17205658Y-9580412D02*
X17205658Y-9504222D01*
X17205658Y-9504222D02*
X17215182Y-9485174D01*
X17215182Y-9485174D02*
X17234230Y-9475650D01*
X17234230Y-9475650D02*
X17272325Y-9475650D01*
X17272325Y-9475650D02*
X17291373Y-9485174D01*
X17291373Y-9485174D02*
X17300896Y-9504222D01*
X17300896Y-9504222D02*
X17300896Y-9523270D01*
X17300896Y-9523270D02*
X17205658Y-9542317D01*
X17472325Y-9608984D02*
X17472325Y-9408984D01*
X17472325Y-9599460D02*
X17453277Y-9608984D01*
X17453277Y-9608984D02*
X17415182Y-9608984D01*
X17415182Y-9608984D02*
X17396135Y-9599460D01*
X17396135Y-9599460D02*
X17386611Y-9589936D01*
X17386611Y-9589936D02*
X17377087Y-9570889D01*
X17377087Y-9570889D02*
X17377087Y-9513746D01*
X17377087Y-9513746D02*
X17386611Y-9494698D01*
X17386611Y-9494698D02*
X17396135Y-9485174D01*
X17396135Y-9485174D02*
X17415182Y-9475650D01*
X17415182Y-9475650D02*
X17453277Y-9475650D01*
X17453277Y-9475650D02*
X17472325Y-9485174D01*
X17548516Y-9685174D02*
X17558039Y-9675650D01*
X17558039Y-9675650D02*
X17577087Y-9647079D01*
X17577087Y-9647079D02*
X17586611Y-9628031D01*
X17586611Y-9628031D02*
X17596135Y-9599460D01*
X17596135Y-9599460D02*
X17605658Y-9551841D01*
X17605658Y-9551841D02*
X17605658Y-9513746D01*
X17605658Y-9513746D02*
X17596135Y-9466127D01*
X17596135Y-9466127D02*
X17586611Y-9437555D01*
X17586611Y-9437555D02*
X17577087Y-9418508D01*
X17577087Y-9418508D02*
X17558039Y-9389936D01*
X17558039Y-9389936D02*
X17548516Y-9380412D01*
X10792500Y-9781500D02*
G75*
G02*
X10592500Y-9781500I-100000J0D01*
G01*
X10592500Y-9781500D02*
G75*
G02*
X10792500Y-9781500I100000J0D01*
G01*
X11034229Y-9672984D02*
X11158039Y-9672984D01*
X11158039Y-9672984D02*
X11091372Y-9749174D01*
X11091372Y-9749174D02*
X11119944Y-9749174D01*
X11119944Y-9749174D02*
X11138991Y-9758698D01*
X11138991Y-9758698D02*
X11148515Y-9768222D01*
X11148515Y-9768222D02*
X11158039Y-9787270D01*
X11158039Y-9787270D02*
X11158039Y-9834889D01*
X11158039Y-9834889D02*
X11148515Y-9853936D01*
X11148515Y-9853936D02*
X11138991Y-9863460D01*
X11138991Y-9863460D02*
X11119944Y-9872984D01*
X11119944Y-9872984D02*
X11062801Y-9872984D01*
X11062801Y-9872984D02*
X11043753Y-9863460D01*
X11043753Y-9863460D02*
X11034229Y-9853936D01*
X11243753Y-9853936D02*
X11253277Y-9863460D01*
X11253277Y-9863460D02*
X11243753Y-9872984D01*
X11243753Y-9872984D02*
X11234229Y-9863460D01*
X11234229Y-9863460D02*
X11243753Y-9853936D01*
X11243753Y-9853936D02*
X11243753Y-9872984D01*
X11329467Y-9692031D02*
X11338991Y-9682508D01*
X11338991Y-9682508D02*
X11358039Y-9672984D01*
X11358039Y-9672984D02*
X11405658Y-9672984D01*
X11405658Y-9672984D02*
X11424705Y-9682508D01*
X11424705Y-9682508D02*
X11434229Y-9692031D01*
X11434229Y-9692031D02*
X11443753Y-9711079D01*
X11443753Y-9711079D02*
X11443753Y-9730127D01*
X11443753Y-9730127D02*
X11434229Y-9758698D01*
X11434229Y-9758698D02*
X11319943Y-9872984D01*
X11319943Y-9872984D02*
X11443753Y-9872984D01*
X11567562Y-9672984D02*
X11586610Y-9672984D01*
X11586610Y-9672984D02*
X11605658Y-9682508D01*
X11605658Y-9682508D02*
X11615182Y-9692031D01*
X11615182Y-9692031D02*
X11624705Y-9711079D01*
X11624705Y-9711079D02*
X11634229Y-9749174D01*
X11634229Y-9749174D02*
X11634229Y-9796793D01*
X11634229Y-9796793D02*
X11624705Y-9834889D01*
X11624705Y-9834889D02*
X11615182Y-9853936D01*
X11615182Y-9853936D02*
X11605658Y-9863460D01*
X11605658Y-9863460D02*
X11586610Y-9872984D01*
X11586610Y-9872984D02*
X11567562Y-9872984D01*
X11567562Y-9872984D02*
X11548515Y-9863460D01*
X11548515Y-9863460D02*
X11538991Y-9853936D01*
X11538991Y-9853936D02*
X11529467Y-9834889D01*
X11529467Y-9834889D02*
X11519943Y-9796793D01*
X11519943Y-9796793D02*
X11519943Y-9749174D01*
X11519943Y-9749174D02*
X11529467Y-9711079D01*
X11529467Y-9711079D02*
X11538991Y-9692031D01*
X11538991Y-9692031D02*
X11548515Y-9682508D01*
X11548515Y-9682508D02*
X11567562Y-9672984D01*
X11758039Y-9672984D02*
X11777086Y-9672984D01*
X11777086Y-9672984D02*
X11796134Y-9682508D01*
X11796134Y-9682508D02*
X11805658Y-9692031D01*
X11805658Y-9692031D02*
X11815182Y-9711079D01*
X11815182Y-9711079D02*
X11824705Y-9749174D01*
X11824705Y-9749174D02*
X11824705Y-9796793D01*
X11824705Y-9796793D02*
X11815182Y-9834889D01*
X11815182Y-9834889D02*
X11805658Y-9853936D01*
X11805658Y-9853936D02*
X11796134Y-9863460D01*
X11796134Y-9863460D02*
X11777086Y-9872984D01*
X11777086Y-9872984D02*
X11758039Y-9872984D01*
X11758039Y-9872984D02*
X11738991Y-9863460D01*
X11738991Y-9863460D02*
X11729467Y-9853936D01*
X11729467Y-9853936D02*
X11719943Y-9834889D01*
X11719943Y-9834889D02*
X11710420Y-9796793D01*
X11710420Y-9796793D02*
X11710420Y-9749174D01*
X11710420Y-9749174D02*
X11719943Y-9711079D01*
X11719943Y-9711079D02*
X11729467Y-9692031D01*
X11729467Y-9692031D02*
X11738991Y-9682508D01*
X11738991Y-9682508D02*
X11758039Y-9672984D01*
X11910420Y-9872984D02*
X11910420Y-9739650D01*
X11910420Y-9758698D02*
X11919943Y-9749174D01*
X11919943Y-9749174D02*
X11938991Y-9739650D01*
X11938991Y-9739650D02*
X11967563Y-9739650D01*
X11967563Y-9739650D02*
X11986610Y-9749174D01*
X11986610Y-9749174D02*
X11996134Y-9768222D01*
X11996134Y-9768222D02*
X11996134Y-9872984D01*
X11996134Y-9768222D02*
X12005658Y-9749174D01*
X12005658Y-9749174D02*
X12024705Y-9739650D01*
X12024705Y-9739650D02*
X12053277Y-9739650D01*
X12053277Y-9739650D02*
X12072324Y-9749174D01*
X12072324Y-9749174D02*
X12081848Y-9768222D01*
X12081848Y-9768222D02*
X12081848Y-9872984D01*
X12177086Y-9872984D02*
X12177086Y-9739650D01*
X12177086Y-9758698D02*
X12186610Y-9749174D01*
X12186610Y-9749174D02*
X12205658Y-9739650D01*
X12205658Y-9739650D02*
X12234229Y-9739650D01*
X12234229Y-9739650D02*
X12253277Y-9749174D01*
X12253277Y-9749174D02*
X12262801Y-9768222D01*
X12262801Y-9768222D02*
X12262801Y-9872984D01*
X12262801Y-9768222D02*
X12272324Y-9749174D01*
X12272324Y-9749174D02*
X12291372Y-9739650D01*
X12291372Y-9739650D02*
X12319943Y-9739650D01*
X12319943Y-9739650D02*
X12338991Y-9749174D01*
X12338991Y-9749174D02*
X12348515Y-9768222D01*
X12348515Y-9768222D02*
X12348515Y-9872984D01*
X12738991Y-9663460D02*
X12567563Y-9920603D01*
X12996134Y-9672984D02*
X13015182Y-9672984D01*
X13015182Y-9672984D02*
X13034229Y-9682508D01*
X13034229Y-9682508D02*
X13043753Y-9692031D01*
X13043753Y-9692031D02*
X13053277Y-9711079D01*
X13053277Y-9711079D02*
X13062801Y-9749174D01*
X13062801Y-9749174D02*
X13062801Y-9796793D01*
X13062801Y-9796793D02*
X13053277Y-9834889D01*
X13053277Y-9834889D02*
X13043753Y-9853936D01*
X13043753Y-9853936D02*
X13034229Y-9863460D01*
X13034229Y-9863460D02*
X13015182Y-9872984D01*
X13015182Y-9872984D02*
X12996134Y-9872984D01*
X12996134Y-9872984D02*
X12977086Y-9863460D01*
X12977086Y-9863460D02*
X12967563Y-9853936D01*
X12967563Y-9853936D02*
X12958039Y-9834889D01*
X12958039Y-9834889D02*
X12948515Y-9796793D01*
X12948515Y-9796793D02*
X12948515Y-9749174D01*
X12948515Y-9749174D02*
X12958039Y-9711079D01*
X12958039Y-9711079D02*
X12967563Y-9692031D01*
X12967563Y-9692031D02*
X12977086Y-9682508D01*
X12977086Y-9682508D02*
X12996134Y-9672984D01*
X13148515Y-9853936D02*
X13158039Y-9863460D01*
X13158039Y-9863460D02*
X13148515Y-9872984D01*
X13148515Y-9872984D02*
X13138991Y-9863460D01*
X13138991Y-9863460D02*
X13148515Y-9853936D01*
X13148515Y-9853936D02*
X13148515Y-9872984D01*
X13348515Y-9872984D02*
X13234229Y-9872984D01*
X13291372Y-9872984D02*
X13291372Y-9672984D01*
X13291372Y-9672984D02*
X13272325Y-9701555D01*
X13272325Y-9701555D02*
X13253277Y-9720603D01*
X13253277Y-9720603D02*
X13234229Y-9730127D01*
X13424706Y-9692031D02*
X13434229Y-9682508D01*
X13434229Y-9682508D02*
X13453277Y-9672984D01*
X13453277Y-9672984D02*
X13500896Y-9672984D01*
X13500896Y-9672984D02*
X13519944Y-9682508D01*
X13519944Y-9682508D02*
X13529467Y-9692031D01*
X13529467Y-9692031D02*
X13538991Y-9711079D01*
X13538991Y-9711079D02*
X13538991Y-9730127D01*
X13538991Y-9730127D02*
X13529467Y-9758698D01*
X13529467Y-9758698D02*
X13415182Y-9872984D01*
X13415182Y-9872984D02*
X13538991Y-9872984D01*
X13710420Y-9672984D02*
X13672325Y-9672984D01*
X13672325Y-9672984D02*
X13653277Y-9682508D01*
X13653277Y-9682508D02*
X13643753Y-9692031D01*
X13643753Y-9692031D02*
X13624706Y-9720603D01*
X13624706Y-9720603D02*
X13615182Y-9758698D01*
X13615182Y-9758698D02*
X13615182Y-9834889D01*
X13615182Y-9834889D02*
X13624706Y-9853936D01*
X13624706Y-9853936D02*
X13634229Y-9863460D01*
X13634229Y-9863460D02*
X13653277Y-9872984D01*
X13653277Y-9872984D02*
X13691372Y-9872984D01*
X13691372Y-9872984D02*
X13710420Y-9863460D01*
X13710420Y-9863460D02*
X13719944Y-9853936D01*
X13719944Y-9853936D02*
X13729467Y-9834889D01*
X13729467Y-9834889D02*
X13729467Y-9787270D01*
X13729467Y-9787270D02*
X13719944Y-9768222D01*
X13719944Y-9768222D02*
X13710420Y-9758698D01*
X13710420Y-9758698D02*
X13691372Y-9749174D01*
X13691372Y-9749174D02*
X13653277Y-9749174D01*
X13653277Y-9749174D02*
X13634229Y-9758698D01*
X13634229Y-9758698D02*
X13624706Y-9768222D01*
X13624706Y-9768222D02*
X13615182Y-9787270D01*
X13853277Y-9672984D02*
X13872325Y-9672984D01*
X13872325Y-9672984D02*
X13891372Y-9682508D01*
X13891372Y-9682508D02*
X13900896Y-9692031D01*
X13900896Y-9692031D02*
X13910420Y-9711079D01*
X13910420Y-9711079D02*
X13919944Y-9749174D01*
X13919944Y-9749174D02*
X13919944Y-9796793D01*
X13919944Y-9796793D02*
X13910420Y-9834889D01*
X13910420Y-9834889D02*
X13900896Y-9853936D01*
X13900896Y-9853936D02*
X13891372Y-9863460D01*
X13891372Y-9863460D02*
X13872325Y-9872984D01*
X13872325Y-9872984D02*
X13853277Y-9872984D01*
X13853277Y-9872984D02*
X13834229Y-9863460D01*
X13834229Y-9863460D02*
X13824706Y-9853936D01*
X13824706Y-9853936D02*
X13815182Y-9834889D01*
X13815182Y-9834889D02*
X13805658Y-9796793D01*
X13805658Y-9796793D02*
X13805658Y-9749174D01*
X13805658Y-9749174D02*
X13815182Y-9711079D01*
X13815182Y-9711079D02*
X13824706Y-9692031D01*
X13824706Y-9692031D02*
X13834229Y-9682508D01*
X13834229Y-9682508D02*
X13853277Y-9672984D01*
X13996134Y-9672984D02*
X13996134Y-9711079D01*
X14072325Y-9672984D02*
X14072325Y-9711079D01*
X14367563Y-9949174D02*
X14358039Y-9939650D01*
X14358039Y-9939650D02*
X14338991Y-9911079D01*
X14338991Y-9911079D02*
X14329468Y-9892031D01*
X14329468Y-9892031D02*
X14319944Y-9863460D01*
X14319944Y-9863460D02*
X14310420Y-9815841D01*
X14310420Y-9815841D02*
X14310420Y-9777746D01*
X14310420Y-9777746D02*
X14319944Y-9730127D01*
X14319944Y-9730127D02*
X14329468Y-9701555D01*
X14329468Y-9701555D02*
X14338991Y-9682508D01*
X14338991Y-9682508D02*
X14358039Y-9653936D01*
X14358039Y-9653936D02*
X14367563Y-9644412D01*
X14424706Y-9672984D02*
X14548515Y-9672984D01*
X14548515Y-9672984D02*
X14481848Y-9749174D01*
X14481848Y-9749174D02*
X14510420Y-9749174D01*
X14510420Y-9749174D02*
X14529468Y-9758698D01*
X14529468Y-9758698D02*
X14538991Y-9768222D01*
X14538991Y-9768222D02*
X14548515Y-9787270D01*
X14548515Y-9787270D02*
X14548515Y-9834889D01*
X14548515Y-9834889D02*
X14538991Y-9853936D01*
X14538991Y-9853936D02*
X14529468Y-9863460D01*
X14529468Y-9863460D02*
X14510420Y-9872984D01*
X14510420Y-9872984D02*
X14453277Y-9872984D01*
X14453277Y-9872984D02*
X14434229Y-9863460D01*
X14434229Y-9863460D02*
X14424706Y-9853936D01*
X14786610Y-9872984D02*
X14786610Y-9672984D01*
X14872325Y-9872984D02*
X14872325Y-9768222D01*
X14872325Y-9768222D02*
X14862801Y-9749174D01*
X14862801Y-9749174D02*
X14843753Y-9739650D01*
X14843753Y-9739650D02*
X14815182Y-9739650D01*
X14815182Y-9739650D02*
X14796134Y-9749174D01*
X14796134Y-9749174D02*
X14786610Y-9758698D01*
X14996134Y-9872984D02*
X14977087Y-9863460D01*
X14977087Y-9863460D02*
X14967563Y-9853936D01*
X14967563Y-9853936D02*
X14958039Y-9834889D01*
X14958039Y-9834889D02*
X14958039Y-9777746D01*
X14958039Y-9777746D02*
X14967563Y-9758698D01*
X14967563Y-9758698D02*
X14977087Y-9749174D01*
X14977087Y-9749174D02*
X14996134Y-9739650D01*
X14996134Y-9739650D02*
X15024706Y-9739650D01*
X15024706Y-9739650D02*
X15043753Y-9749174D01*
X15043753Y-9749174D02*
X15053277Y-9758698D01*
X15053277Y-9758698D02*
X15062801Y-9777746D01*
X15062801Y-9777746D02*
X15062801Y-9834889D01*
X15062801Y-9834889D02*
X15053277Y-9853936D01*
X15053277Y-9853936D02*
X15043753Y-9863460D01*
X15043753Y-9863460D02*
X15024706Y-9872984D01*
X15024706Y-9872984D02*
X14996134Y-9872984D01*
X15177087Y-9872984D02*
X15158039Y-9863460D01*
X15158039Y-9863460D02*
X15148515Y-9844412D01*
X15148515Y-9844412D02*
X15148515Y-9672984D01*
X15329468Y-9863460D02*
X15310420Y-9872984D01*
X15310420Y-9872984D02*
X15272325Y-9872984D01*
X15272325Y-9872984D02*
X15253277Y-9863460D01*
X15253277Y-9863460D02*
X15243753Y-9844412D01*
X15243753Y-9844412D02*
X15243753Y-9768222D01*
X15243753Y-9768222D02*
X15253277Y-9749174D01*
X15253277Y-9749174D02*
X15272325Y-9739650D01*
X15272325Y-9739650D02*
X15310420Y-9739650D01*
X15310420Y-9739650D02*
X15329468Y-9749174D01*
X15329468Y-9749174D02*
X15338991Y-9768222D01*
X15338991Y-9768222D02*
X15338991Y-9787270D01*
X15338991Y-9787270D02*
X15243753Y-9806317D01*
X15415182Y-9863460D02*
X15434230Y-9872984D01*
X15434230Y-9872984D02*
X15472325Y-9872984D01*
X15472325Y-9872984D02*
X15491372Y-9863460D01*
X15491372Y-9863460D02*
X15500896Y-9844412D01*
X15500896Y-9844412D02*
X15500896Y-9834889D01*
X15500896Y-9834889D02*
X15491372Y-9815841D01*
X15491372Y-9815841D02*
X15472325Y-9806317D01*
X15472325Y-9806317D02*
X15443753Y-9806317D01*
X15443753Y-9806317D02*
X15424706Y-9796793D01*
X15424706Y-9796793D02*
X15415182Y-9777746D01*
X15415182Y-9777746D02*
X15415182Y-9768222D01*
X15415182Y-9768222D02*
X15424706Y-9749174D01*
X15424706Y-9749174D02*
X15443753Y-9739650D01*
X15443753Y-9739650D02*
X15472325Y-9739650D01*
X15472325Y-9739650D02*
X15491372Y-9749174D01*
X15567563Y-9949174D02*
X15577087Y-9939650D01*
X15577087Y-9939650D02*
X15596134Y-9911079D01*
X15596134Y-9911079D02*
X15605658Y-9892031D01*
X15605658Y-9892031D02*
X15615182Y-9863460D01*
X15615182Y-9863460D02*
X15624706Y-9815841D01*
X15624706Y-9815841D02*
X15624706Y-9777746D01*
X15624706Y-9777746D02*
X15615182Y-9730127D01*
X15615182Y-9730127D02*
X15605658Y-9701555D01*
X15605658Y-9701555D02*
X15596134Y-9682508D01*
X15596134Y-9682508D02*
X15577087Y-9653936D01*
X15577087Y-9653936D02*
X15567563Y-9644412D01*
X15929468Y-9949174D02*
X15919944Y-9939650D01*
X15919944Y-9939650D02*
X15900896Y-9911079D01*
X15900896Y-9911079D02*
X15891372Y-9892031D01*
X15891372Y-9892031D02*
X15881849Y-9863460D01*
X15881849Y-9863460D02*
X15872325Y-9815841D01*
X15872325Y-9815841D02*
X15872325Y-9777746D01*
X15872325Y-9777746D02*
X15881849Y-9730127D01*
X15881849Y-9730127D02*
X15891372Y-9701555D01*
X15891372Y-9701555D02*
X15900896Y-9682508D01*
X15900896Y-9682508D02*
X15919944Y-9653936D01*
X15919944Y-9653936D02*
X15929468Y-9644412D01*
X16005658Y-9739650D02*
X16005658Y-9872984D01*
X16005658Y-9758698D02*
X16015182Y-9749174D01*
X16015182Y-9749174D02*
X16034230Y-9739650D01*
X16034230Y-9739650D02*
X16062801Y-9739650D01*
X16062801Y-9739650D02*
X16081849Y-9749174D01*
X16081849Y-9749174D02*
X16091372Y-9768222D01*
X16091372Y-9768222D02*
X16091372Y-9872984D01*
X16215182Y-9872984D02*
X16196134Y-9863460D01*
X16196134Y-9863460D02*
X16186611Y-9853936D01*
X16186611Y-9853936D02*
X16177087Y-9834889D01*
X16177087Y-9834889D02*
X16177087Y-9777746D01*
X16177087Y-9777746D02*
X16186611Y-9758698D01*
X16186611Y-9758698D02*
X16196134Y-9749174D01*
X16196134Y-9749174D02*
X16215182Y-9739650D01*
X16215182Y-9739650D02*
X16243753Y-9739650D01*
X16243753Y-9739650D02*
X16262801Y-9749174D01*
X16262801Y-9749174D02*
X16272325Y-9758698D01*
X16272325Y-9758698D02*
X16281849Y-9777746D01*
X16281849Y-9777746D02*
X16281849Y-9834889D01*
X16281849Y-9834889D02*
X16272325Y-9853936D01*
X16272325Y-9853936D02*
X16262801Y-9863460D01*
X16262801Y-9863460D02*
X16243753Y-9872984D01*
X16243753Y-9872984D02*
X16215182Y-9872984D01*
X16338992Y-9739650D02*
X16415182Y-9739650D01*
X16367563Y-9672984D02*
X16367563Y-9844412D01*
X16367563Y-9844412D02*
X16377087Y-9863460D01*
X16377087Y-9863460D02*
X16396134Y-9872984D01*
X16396134Y-9872984D02*
X16415182Y-9872984D01*
X16634230Y-9739650D02*
X16634230Y-9939650D01*
X16634230Y-9749174D02*
X16653277Y-9739650D01*
X16653277Y-9739650D02*
X16691373Y-9739650D01*
X16691373Y-9739650D02*
X16710420Y-9749174D01*
X16710420Y-9749174D02*
X16719944Y-9758698D01*
X16719944Y-9758698D02*
X16729468Y-9777746D01*
X16729468Y-9777746D02*
X16729468Y-9834889D01*
X16729468Y-9834889D02*
X16719944Y-9853936D01*
X16719944Y-9853936D02*
X16710420Y-9863460D01*
X16710420Y-9863460D02*
X16691373Y-9872984D01*
X16691373Y-9872984D02*
X16653277Y-9872984D01*
X16653277Y-9872984D02*
X16634230Y-9863460D01*
X16843754Y-9872984D02*
X16824706Y-9863460D01*
X16824706Y-9863460D02*
X16815182Y-9844412D01*
X16815182Y-9844412D02*
X16815182Y-9672984D01*
X17005658Y-9872984D02*
X17005658Y-9768222D01*
X17005658Y-9768222D02*
X16996135Y-9749174D01*
X16996135Y-9749174D02*
X16977087Y-9739650D01*
X16977087Y-9739650D02*
X16938992Y-9739650D01*
X16938992Y-9739650D02*
X16919944Y-9749174D01*
X17005658Y-9863460D02*
X16986611Y-9872984D01*
X16986611Y-9872984D02*
X16938992Y-9872984D01*
X16938992Y-9872984D02*
X16919944Y-9863460D01*
X16919944Y-9863460D02*
X16910420Y-9844412D01*
X16910420Y-9844412D02*
X16910420Y-9825365D01*
X16910420Y-9825365D02*
X16919944Y-9806317D01*
X16919944Y-9806317D02*
X16938992Y-9796793D01*
X16938992Y-9796793D02*
X16986611Y-9796793D01*
X16986611Y-9796793D02*
X17005658Y-9787270D01*
X17072325Y-9739650D02*
X17148515Y-9739650D01*
X17100896Y-9672984D02*
X17100896Y-9844412D01*
X17100896Y-9844412D02*
X17110420Y-9863460D01*
X17110420Y-9863460D02*
X17129468Y-9872984D01*
X17129468Y-9872984D02*
X17148515Y-9872984D01*
X17291373Y-9863460D02*
X17272325Y-9872984D01*
X17272325Y-9872984D02*
X17234230Y-9872984D01*
X17234230Y-9872984D02*
X17215182Y-9863460D01*
X17215182Y-9863460D02*
X17205658Y-9844412D01*
X17205658Y-9844412D02*
X17205658Y-9768222D01*
X17205658Y-9768222D02*
X17215182Y-9749174D01*
X17215182Y-9749174D02*
X17234230Y-9739650D01*
X17234230Y-9739650D02*
X17272325Y-9739650D01*
X17272325Y-9739650D02*
X17291373Y-9749174D01*
X17291373Y-9749174D02*
X17300896Y-9768222D01*
X17300896Y-9768222D02*
X17300896Y-9787270D01*
X17300896Y-9787270D02*
X17205658Y-9806317D01*
X17472325Y-9872984D02*
X17472325Y-9672984D01*
X17472325Y-9863460D02*
X17453277Y-9872984D01*
X17453277Y-9872984D02*
X17415182Y-9872984D01*
X17415182Y-9872984D02*
X17396135Y-9863460D01*
X17396135Y-9863460D02*
X17386611Y-9853936D01*
X17386611Y-9853936D02*
X17377087Y-9834889D01*
X17377087Y-9834889D02*
X17377087Y-9777746D01*
X17377087Y-9777746D02*
X17386611Y-9758698D01*
X17386611Y-9758698D02*
X17396135Y-9749174D01*
X17396135Y-9749174D02*
X17415182Y-9739650D01*
X17415182Y-9739650D02*
X17453277Y-9739650D01*
X17453277Y-9739650D02*
X17472325Y-9749174D01*
X17548516Y-9949174D02*
X17558039Y-9939650D01*
X17558039Y-9939650D02*
X17577087Y-9911079D01*
X17577087Y-9911079D02*
X17586611Y-9892031D01*
X17586611Y-9892031D02*
X17596135Y-9863460D01*
X17596135Y-9863460D02*
X17605658Y-9815841D01*
X17605658Y-9815841D02*
X17605658Y-9777746D01*
X17605658Y-9777746D02*
X17596135Y-9730127D01*
X17596135Y-9730127D02*
X17586611Y-9701555D01*
X17586611Y-9701555D02*
X17577087Y-9682508D01*
X17577087Y-9682508D02*
X17558039Y-9653936D01*
X17558039Y-9653936D02*
X17548516Y-9644412D01*
M02*
