G04 #@! TF.GenerationSoftware,KiCad,Pcbnew,8.0.8*
G04 #@! TF.CreationDate,2025-07-04T19:36:45+02:00*
G04 #@! TF.ProjectId,LaunchControl,4c61756e-6368-4436-9f6e-74726f6c2e6b,rev?*
G04 #@! TF.SameCoordinates,Original*
G04 #@! TF.FileFunction,Soldermask,Top*
G04 #@! TF.FilePolarity,Negative*
%FSLAX46Y46*%
G04 Gerber Fmt 4.6, Leading zero omitted, Abs format (unit mm)*
G04 Created by KiCad (PCBNEW 8.0.8) date 2025-07-04 19:36:45*
%MOMM*%
%LPD*%
G01*
G04 APERTURE LIST*
G04 Aperture macros list*
%AMRoundRect*
0 Rectangle with rounded corners*
0 $1 Rounding radius*
0 $2 $3 $4 $5 $6 $7 $8 $9 X,Y pos of 4 corners*
0 Add a 4 corners polygon primitive as box body*
4,1,4,$2,$3,$4,$5,$6,$7,$8,$9,$2,$3,0*
0 Add four circle primitives for the rounded corners*
1,1,$1+$1,$2,$3*
1,1,$1+$1,$4,$5*
1,1,$1+$1,$6,$7*
1,1,$1+$1,$8,$9*
0 Add four rect primitives between the rounded corners*
20,1,$1+$1,$2,$3,$4,$5,0*
20,1,$1+$1,$4,$5,$6,$7,0*
20,1,$1+$1,$6,$7,$8,$9,0*
20,1,$1+$1,$8,$9,$2,$3,0*%
G04 Aperture macros list end*
%ADD10RoundRect,0.250000X-0.650000X0.412500X-0.650000X-0.412500X0.650000X-0.412500X0.650000X0.412500X0*%
%ADD11C,3.200000*%
%ADD12C,0.650000*%
%ADD13RoundRect,0.150000X0.425000X-0.150000X0.425000X0.150000X-0.425000X0.150000X-0.425000X-0.150000X0*%
%ADD14RoundRect,0.075000X0.500000X-0.075000X0.500000X0.075000X-0.500000X0.075000X-0.500000X-0.075000X0*%
%ADD15O,2.100000X1.000000*%
%ADD16O,1.800000X1.000000*%
%ADD17RoundRect,0.100500X-0.986500X-0.301500X0.986500X-0.301500X0.986500X0.301500X-0.986500X0.301500X0*%
%ADD18RoundRect,0.102000X-1.206500X-1.651000X1.206500X-1.651000X1.206500X1.651000X-1.206500X1.651000X0*%
%ADD19R,1.350000X1.350000*%
%ADD20O,1.350000X1.350000*%
%ADD21C,1.950000*%
%ADD22RoundRect,0.250001X-0.462499X-0.624999X0.462499X-0.624999X0.462499X0.624999X-0.462499X0.624999X0*%
%ADD23RoundRect,0.250000X-0.412500X-0.650000X0.412500X-0.650000X0.412500X0.650000X-0.412500X0.650000X0*%
%ADD24R,3.200000X3.200000*%
%ADD25O,3.200000X3.200000*%
%ADD26RoundRect,0.150000X-0.587500X-0.150000X0.587500X-0.150000X0.587500X0.150000X-0.587500X0.150000X0*%
%ADD27R,1.000000X0.400000*%
%ADD28RoundRect,0.250000X0.650000X-0.412500X0.650000X0.412500X-0.650000X0.412500X-0.650000X-0.412500X0*%
%ADD29R,1.700000X1.700000*%
%ADD30O,1.700000X1.700000*%
%ADD31R,0.800000X0.400000*%
%ADD32R,0.400000X0.800000*%
%ADD33R,1.450000X1.450000*%
%ADD34R,0.700000X0.700000*%
%ADD35RoundRect,0.250000X0.412500X0.650000X-0.412500X0.650000X-0.412500X-0.650000X0.412500X-0.650000X0*%
%ADD36RoundRect,1.000000X-1.000000X1.000000X-1.000000X-1.000000X1.000000X-1.000000X1.000000X1.000000X0*%
%ADD37RoundRect,0.150000X0.150000X-0.512500X0.150000X0.512500X-0.150000X0.512500X-0.150000X-0.512500X0*%
G04 APERTURE END LIST*
D10*
G04 #@! TO.C,R6*
X149025000Y-67495000D03*
X149025000Y-70620000D03*
G04 #@! TD*
D11*
G04 #@! TO.C,H2*
X164400000Y-83800000D03*
G04 #@! TD*
D12*
G04 #@! TO.C,J6*
X162595000Y-55790000D03*
X162595000Y-50010000D03*
D13*
X161520000Y-56100000D03*
X161520000Y-55300000D03*
D14*
X161520001Y-54150000D03*
X161520000Y-53150000D03*
X161520000Y-52650000D03*
X161520001Y-51650000D03*
D13*
X161520000Y-50500000D03*
X161520000Y-49700000D03*
X161520000Y-49700000D03*
X161520000Y-50500000D03*
D14*
X161520000Y-51150000D03*
X161520000Y-52150000D03*
X161520000Y-53650000D03*
X161520000Y-54650000D03*
D13*
X161520000Y-55300000D03*
X161520000Y-56100000D03*
D15*
X162095000Y-57220000D03*
D16*
X166275000Y-57220000D03*
D15*
X162095000Y-48580000D03*
D16*
X166275000Y-48580000D03*
G04 #@! TD*
D10*
G04 #@! TO.C,R3*
X149025000Y-73195000D03*
X149025000Y-76320000D03*
G04 #@! TD*
D17*
G04 #@! TO.C,U2*
X152525000Y-69395000D03*
X152525000Y-70665000D03*
X152525000Y-71935000D03*
X152525000Y-73205000D03*
X157475000Y-73205000D03*
X157475000Y-71935000D03*
X157475000Y-70665000D03*
X157475000Y-69395000D03*
D18*
X155000000Y-71300000D03*
G04 #@! TD*
D19*
G04 #@! TO.C,J1*
X142500000Y-64200000D03*
D20*
X142500000Y-66200001D03*
X140499999Y-64200000D03*
X140500000Y-66200000D03*
X138500000Y-64200000D03*
X138499999Y-66200000D03*
X136500000Y-64200000D03*
X136500000Y-66200000D03*
X134500000Y-64200000D03*
X134500000Y-66200000D03*
X132500000Y-64200000D03*
X132500000Y-66200000D03*
G04 #@! TD*
D19*
G04 #@! TO.C,SW1*
X118600000Y-42500000D03*
D20*
X116599999Y-42500000D03*
X114600000Y-42500000D03*
G04 #@! TD*
D10*
G04 #@! TO.C,R13*
X153600000Y-53110000D03*
X153600000Y-56235000D03*
G04 #@! TD*
D21*
G04 #@! TO.C,K1*
X135000000Y-71500001D03*
X122800000Y-71500001D03*
X122800000Y-83500001D03*
X135000000Y-83500000D03*
X137000000Y-77500001D03*
G04 #@! TD*
D22*
G04 #@! TO.C,D2*
X153225000Y-62100000D03*
X156200000Y-62100000D03*
G04 #@! TD*
D23*
G04 #@! TO.C,R11*
X142575000Y-60400000D03*
X145700000Y-60400000D03*
G04 #@! TD*
D24*
G04 #@! TO.C,D3*
X143800000Y-85400000D03*
D25*
X143800000Y-70160000D03*
G04 #@! TD*
D23*
G04 #@! TO.C,R12*
X140975000Y-57700000D03*
X144100000Y-57700000D03*
G04 #@! TD*
G04 #@! TO.C,R9*
X131675000Y-54400000D03*
X134800000Y-54400000D03*
G04 #@! TD*
D26*
G04 #@! TO.C,Q1*
X127024999Y-65250000D03*
X127024999Y-67150000D03*
X128900000Y-66200000D03*
G04 #@! TD*
D27*
G04 #@! TO.C,IC2*
X139900000Y-55100000D03*
X139899999Y-54450000D03*
X139900000Y-53800000D03*
X138000000Y-53800000D03*
X138000001Y-54450000D03*
X138000000Y-55100000D03*
G04 #@! TD*
D10*
G04 #@! TO.C,C6*
X157405000Y-54310000D03*
X157405000Y-57435000D03*
G04 #@! TD*
D23*
G04 #@! TO.C,C4*
X117675000Y-51900000D03*
X120800000Y-51900000D03*
G04 #@! TD*
D28*
G04 #@! TO.C,R2*
X160400000Y-69325000D03*
X160400000Y-66200000D03*
G04 #@! TD*
D29*
G04 #@! TO.C,J2*
X149700000Y-54960000D03*
D30*
X149700000Y-57500000D03*
G04 #@! TD*
D31*
G04 #@! TO.C,IC1*
X132350000Y-41950000D03*
X132350000Y-42750000D03*
X132350000Y-43550000D03*
X132350000Y-44350000D03*
X132350000Y-45150000D03*
X132350000Y-45950000D03*
X132350000Y-46750000D03*
X132350000Y-47550000D03*
X132350000Y-48350000D03*
X132350000Y-49150000D03*
X132350000Y-49950000D03*
D32*
X133450000Y-50850000D03*
X134250000Y-50850000D03*
X135050000Y-50850000D03*
X135850000Y-50850000D03*
X136650000Y-50850000D03*
X137450000Y-50850000D03*
X138250000Y-50850000D03*
X139050000Y-50850000D03*
X139850000Y-50850000D03*
X140650000Y-50850000D03*
X141450000Y-50850000D03*
X142250000Y-50850000D03*
X143050000Y-50850000D03*
D31*
X144150000Y-49950000D03*
X144150000Y-49150000D03*
X144150000Y-48350000D03*
X144150000Y-47550000D03*
X144150000Y-46750000D03*
X144150000Y-45950000D03*
X144150000Y-45150000D03*
X144150000Y-44350000D03*
X144150000Y-43550000D03*
X144150000Y-42750000D03*
X144150000Y-41950000D03*
D32*
X143050000Y-41050000D03*
X142250000Y-41050000D03*
X141450000Y-41050000D03*
X140650000Y-41050000D03*
X139850000Y-41050000D03*
X139050000Y-41050000D03*
X138250000Y-41050000D03*
X137450000Y-41050000D03*
X136650000Y-41050000D03*
X135850000Y-41050000D03*
X135050000Y-41050000D03*
X134250000Y-41050000D03*
X133450000Y-41050000D03*
D33*
X138250000Y-45950000D03*
X140225000Y-43975000D03*
X138250000Y-43975000D03*
X136275000Y-43975000D03*
X136275000Y-45950000D03*
X136275000Y-47925000D03*
X138250000Y-47925000D03*
X140225000Y-47925000D03*
X140225000Y-45950000D03*
D34*
X132300000Y-41000000D03*
X132300000Y-50900000D03*
X144200000Y-50900000D03*
X144200000Y-41000000D03*
G04 #@! TD*
D29*
G04 #@! TO.C,J5*
X116200000Y-80000000D03*
D30*
X116200000Y-77460000D03*
X116200000Y-74920001D03*
G04 #@! TD*
D35*
G04 #@! TO.C,R5*
X128500000Y-47800000D03*
X125375000Y-47800000D03*
G04 #@! TD*
D23*
G04 #@! TO.C,R10*
X143275000Y-54900000D03*
X146400000Y-54900000D03*
G04 #@! TD*
D36*
G04 #@! TO.C,J3*
X150400000Y-85200000D03*
G04 #@! TD*
D28*
G04 #@! TO.C,R4*
X165900000Y-71825000D03*
X165900000Y-68700000D03*
G04 #@! TD*
D10*
G04 #@! TO.C,R1*
X113300000Y-45975000D03*
X113300000Y-49100000D03*
G04 #@! TD*
D35*
G04 #@! TO.C,C1*
X157525000Y-75595000D03*
X154400000Y-75595000D03*
G04 #@! TD*
D28*
G04 #@! TO.C,C2*
X125100000Y-44125000D03*
X125100000Y-41000000D03*
G04 #@! TD*
D11*
G04 #@! TO.C,H3*
X112950000Y-63550000D03*
G04 #@! TD*
D36*
G04 #@! TO.C,J4*
X156900000Y-85200000D03*
G04 #@! TD*
D28*
G04 #@! TO.C,R7*
X163100000Y-69325000D03*
X163100000Y-66200000D03*
G04 #@! TD*
G04 #@! TO.C,C3*
X128300000Y-44125000D03*
X128300000Y-41000000D03*
G04 #@! TD*
D10*
G04 #@! TO.C,C5*
X122500000Y-46075000D03*
X122500000Y-49200000D03*
G04 #@! TD*
D37*
G04 #@! TO.C,U1*
X118200002Y-48775000D03*
X119150001Y-48775000D03*
X120100000Y-48775000D03*
X120100000Y-46500000D03*
X118200002Y-46500000D03*
G04 #@! TD*
D28*
G04 #@! TO.C,R14*
X157305000Y-49635000D03*
X157305000Y-46510000D03*
G04 #@! TD*
D22*
G04 #@! TO.C,D1*
X153325000Y-65800000D03*
X156300000Y-65800000D03*
G04 #@! TD*
D11*
G04 #@! TO.C,H1*
X164387951Y-43300000D03*
G04 #@! TD*
M02*
