G04 #@! TF.GenerationSoftware,KiCad,Pcbnew,8.0.8*
G04 #@! TF.CreationDate,2025-07-04T19:36:45+02:00*
G04 #@! TF.ProjectId,LaunchControl,4c61756e-6368-4436-9f6e-74726f6c2e6b,rev?*
G04 #@! TF.SameCoordinates,Original*
G04 #@! TF.FileFunction,Copper,L1,Top*
G04 #@! TF.FilePolarity,Positive*
%FSLAX46Y46*%
G04 Gerber Fmt 4.6, Leading zero omitted, Abs format (unit mm)*
G04 Created by KiCad (PCBNEW 8.0.8) date 2025-07-04 19:36:45*
%MOMM*%
%LPD*%
G01*
G04 APERTURE LIST*
G04 Aperture macros list*
%AMRoundRect*
0 Rectangle with rounded corners*
0 $1 Rounding radius*
0 $2 $3 $4 $5 $6 $7 $8 $9 X,Y pos of 4 corners*
0 Add a 4 corners polygon primitive as box body*
4,1,4,$2,$3,$4,$5,$6,$7,$8,$9,$2,$3,0*
0 Add four circle primitives for the rounded corners*
1,1,$1+$1,$2,$3*
1,1,$1+$1,$4,$5*
1,1,$1+$1,$6,$7*
1,1,$1+$1,$8,$9*
0 Add four rect primitives between the rounded corners*
20,1,$1+$1,$2,$3,$4,$5,0*
20,1,$1+$1,$4,$5,$6,$7,0*
20,1,$1+$1,$6,$7,$8,$9,0*
20,1,$1+$1,$8,$9,$2,$3,0*%
G04 Aperture macros list end*
G04 #@! TA.AperFunction,SMDPad,CuDef*
%ADD10RoundRect,0.250000X-0.650000X0.412500X-0.650000X-0.412500X0.650000X-0.412500X0.650000X0.412500X0*%
G04 #@! TD*
G04 #@! TA.AperFunction,SMDPad,CuDef*
%ADD11RoundRect,0.150000X0.425000X-0.150000X0.425000X0.150000X-0.425000X0.150000X-0.425000X-0.150000X0*%
G04 #@! TD*
G04 #@! TA.AperFunction,SMDPad,CuDef*
%ADD12RoundRect,0.075000X0.500000X-0.075000X0.500000X0.075000X-0.500000X0.075000X-0.500000X-0.075000X0*%
G04 #@! TD*
G04 #@! TA.AperFunction,HeatsinkPad*
%ADD13O,2.100000X1.000000*%
G04 #@! TD*
G04 #@! TA.AperFunction,HeatsinkPad*
%ADD14O,1.800000X1.000000*%
G04 #@! TD*
G04 #@! TA.AperFunction,SMDPad,CuDef*
%ADD15RoundRect,0.075000X-0.910000X-0.225000X0.910000X-0.225000X0.910000X0.225000X-0.910000X0.225000X0*%
G04 #@! TD*
G04 #@! TA.AperFunction,SMDPad,CuDef*
%ADD16R,2.413000X3.302000*%
G04 #@! TD*
G04 #@! TA.AperFunction,ComponentPad*
%ADD17R,1.350000X1.350000*%
G04 #@! TD*
G04 #@! TA.AperFunction,ComponentPad*
%ADD18O,1.350000X1.350000*%
G04 #@! TD*
G04 #@! TA.AperFunction,ComponentPad*
%ADD19C,1.950000*%
G04 #@! TD*
G04 #@! TA.AperFunction,SMDPad,CuDef*
%ADD20RoundRect,0.250001X-0.462499X-0.624999X0.462499X-0.624999X0.462499X0.624999X-0.462499X0.624999X0*%
G04 #@! TD*
G04 #@! TA.AperFunction,SMDPad,CuDef*
%ADD21RoundRect,0.250000X-0.412500X-0.650000X0.412500X-0.650000X0.412500X0.650000X-0.412500X0.650000X0*%
G04 #@! TD*
G04 #@! TA.AperFunction,ComponentPad*
%ADD22R,3.200000X3.200000*%
G04 #@! TD*
G04 #@! TA.AperFunction,ComponentPad*
%ADD23O,3.200000X3.200000*%
G04 #@! TD*
G04 #@! TA.AperFunction,SMDPad,CuDef*
%ADD24RoundRect,0.150000X-0.587500X-0.150000X0.587500X-0.150000X0.587500X0.150000X-0.587500X0.150000X0*%
G04 #@! TD*
G04 #@! TA.AperFunction,SMDPad,CuDef*
%ADD25R,1.000000X0.400000*%
G04 #@! TD*
G04 #@! TA.AperFunction,SMDPad,CuDef*
%ADD26RoundRect,0.250000X0.650000X-0.412500X0.650000X0.412500X-0.650000X0.412500X-0.650000X-0.412500X0*%
G04 #@! TD*
G04 #@! TA.AperFunction,ComponentPad*
%ADD27R,1.700000X1.700000*%
G04 #@! TD*
G04 #@! TA.AperFunction,ComponentPad*
%ADD28O,1.700000X1.700000*%
G04 #@! TD*
G04 #@! TA.AperFunction,SMDPad,CuDef*
%ADD29R,0.800000X0.400000*%
G04 #@! TD*
G04 #@! TA.AperFunction,SMDPad,CuDef*
%ADD30R,0.400000X0.800000*%
G04 #@! TD*
G04 #@! TA.AperFunction,SMDPad,CuDef*
%ADD31R,1.450000X1.450000*%
G04 #@! TD*
G04 #@! TA.AperFunction,SMDPad,CuDef*
%ADD32R,0.700000X0.700000*%
G04 #@! TD*
G04 #@! TA.AperFunction,SMDPad,CuDef*
%ADD33RoundRect,0.250000X0.412500X0.650000X-0.412500X0.650000X-0.412500X-0.650000X0.412500X-0.650000X0*%
G04 #@! TD*
G04 #@! TA.AperFunction,SMDPad,CuDef*
%ADD34RoundRect,1.000000X-1.000000X1.000000X-1.000000X-1.000000X1.000000X-1.000000X1.000000X1.000000X0*%
G04 #@! TD*
G04 #@! TA.AperFunction,SMDPad,CuDef*
%ADD35RoundRect,0.150000X0.150000X-0.512500X0.150000X0.512500X-0.150000X0.512500X-0.150000X-0.512500X0*%
G04 #@! TD*
G04 #@! TA.AperFunction,ViaPad*
%ADD36C,0.762000*%
G04 #@! TD*
G04 #@! TA.AperFunction,Conductor*
%ADD37C,0.500000*%
G04 #@! TD*
G04 #@! TA.AperFunction,Conductor*
%ADD38C,0.800000*%
G04 #@! TD*
G04 #@! TA.AperFunction,Conductor*
%ADD39C,0.300000*%
G04 #@! TD*
G04 #@! TA.AperFunction,Conductor*
%ADD40C,0.203200*%
G04 #@! TD*
G04 APERTURE END LIST*
D10*
G04 #@! TO.P,R6,1*
G04 #@! TO.N,GND*
X149025000Y-67495000D03*
G04 #@! TO.P,R6,2*
G04 #@! TO.N,Net-(U2-PROG)*
X149025000Y-70620000D03*
G04 #@! TD*
D11*
G04 #@! TO.P,J6,A1,GND*
G04 #@! TO.N,GND*
X161520000Y-56100000D03*
G04 #@! TO.P,J6,A4,VBUS*
G04 #@! TO.N,+5V*
X161520000Y-55300000D03*
D12*
G04 #@! TO.P,J6,A5,CC1*
G04 #@! TO.N,Net-(J6-CC1)*
X161520001Y-54150000D03*
G04 #@! TO.P,J6,A6,D+*
G04 #@! TO.N,/USB_DP*
X161520000Y-53150000D03*
G04 #@! TO.P,J6,A7,D-*
G04 #@! TO.N,/USB_DN*
X161520000Y-52650000D03*
G04 #@! TO.P,J6,A8,SBU1*
G04 #@! TO.N,unconnected-(J6-SBU1-PadA8)*
X161520001Y-51650000D03*
D11*
G04 #@! TO.P,J6,A9,VBUS*
G04 #@! TO.N,+5V*
X161520000Y-50500000D03*
G04 #@! TO.P,J6,A12,GND*
G04 #@! TO.N,GND*
X161520000Y-49700000D03*
G04 #@! TO.P,J6,B1,GND*
X161520000Y-49700000D03*
G04 #@! TO.P,J6,B4,VBUS*
G04 #@! TO.N,+5V*
X161520000Y-50500000D03*
D12*
G04 #@! TO.P,J6,B5,CC2*
G04 #@! TO.N,Net-(J6-CC2)*
X161520000Y-51150000D03*
G04 #@! TO.P,J6,B6,D+*
G04 #@! TO.N,/USB_DP*
X161520000Y-52150000D03*
G04 #@! TO.P,J6,B7,D-*
G04 #@! TO.N,/USB_DN*
X161520000Y-53650000D03*
G04 #@! TO.P,J6,B8,SBU2*
G04 #@! TO.N,unconnected-(J6-SBU2-PadB8)*
X161520000Y-54650000D03*
D11*
G04 #@! TO.P,J6,B9,VBUS*
G04 #@! TO.N,+5V*
X161520000Y-55300000D03*
G04 #@! TO.P,J6,B12,GND*
G04 #@! TO.N,GND*
X161520000Y-56100000D03*
D13*
G04 #@! TO.P,J6,S1,SHIELD*
X162095000Y-57220000D03*
D14*
X166275000Y-57220000D03*
D13*
X162095000Y-48580000D03*
D14*
X166275000Y-48580000D03*
G04 #@! TD*
D10*
G04 #@! TO.P,R3,1*
G04 #@! TO.N,Net-(U2-VCC)*
X149025000Y-73195000D03*
G04 #@! TO.P,R3,2*
G04 #@! TO.N,+5V*
X149025000Y-76320000D03*
G04 #@! TD*
D15*
G04 #@! TO.P,U2,1,TEMP*
G04 #@! TO.N,GND*
X152525000Y-69395000D03*
G04 #@! TO.P,U2,2,PROG*
G04 #@! TO.N,Net-(U2-PROG)*
X152525000Y-70665000D03*
G04 #@! TO.P,U2,3,GND*
G04 #@! TO.N,GND*
X152525000Y-71935000D03*
G04 #@! TO.P,U2,4,VCC*
G04 #@! TO.N,Net-(U2-VCC)*
X152525000Y-73205000D03*
G04 #@! TO.P,U2,5,BAT*
G04 #@! TO.N,VBATT+*
X157475000Y-73205000D03*
G04 #@! TO.P,U2,6,~{STDBY}*
G04 #@! TO.N,Net-(U2-~{STDBY})*
X157475000Y-71935000D03*
G04 #@! TO.P,U2,7,~{CHRG}*
G04 #@! TO.N,Net-(U2-~{CHRG})*
X157475000Y-70665000D03*
G04 #@! TO.P,U2,8,CE*
G04 #@! TO.N,Net-(U2-CE)*
X157475000Y-69395000D03*
D16*
G04 #@! TO.P,U2,9,EP*
G04 #@! TO.N,GND*
X155000000Y-71300000D03*
G04 #@! TD*
D17*
G04 #@! TO.P,J1,1,Pin_1*
G04 #@! TO.N,/I2C_SCL*
X142500000Y-64200000D03*
D18*
G04 #@! TO.P,J1,2,Pin_2*
G04 #@! TO.N,+3.3V*
X142500000Y-66200001D03*
G04 #@! TO.P,J1,3,Pin_3*
G04 #@! TO.N,/I2C_SDA*
X140499999Y-64200000D03*
G04 #@! TO.P,J1,4,Pin_4*
G04 #@! TO.N,+3.3V*
X140500000Y-66200000D03*
G04 #@! TO.P,J1,5,Pin_5*
G04 #@! TO.N,/R_BASE*
X138500000Y-64200000D03*
G04 #@! TO.P,J1,6,Pin_6*
G04 #@! TO.N,+3.3V*
X138499999Y-66200000D03*
G04 #@! TO.P,J1,7,Pin_7*
G04 #@! TO.N,/G_BASE*
X136500000Y-64200000D03*
G04 #@! TO.P,J1,8,Pin_8*
G04 #@! TO.N,GND*
X136500000Y-66200000D03*
G04 #@! TO.P,J1,9,Pin_9*
G04 #@! TO.N,/PUSH*
X134500000Y-64200000D03*
G04 #@! TO.P,J1,10,Pin_10*
G04 #@! TO.N,GND*
X134500000Y-66200000D03*
G04 #@! TO.P,J1,11,Pin_11*
G04 #@! TO.N,/iButton*
X132500000Y-64200000D03*
G04 #@! TO.P,J1,12,Pin_12*
G04 #@! TO.N,GND*
X132500000Y-66200000D03*
G04 #@! TD*
D17*
G04 #@! TO.P,SW1,1,A*
G04 #@! TO.N,+3.3V*
X118600000Y-42500000D03*
D18*
G04 #@! TO.P,SW1,2,B*
G04 #@! TO.N,Net-(SW1-B)*
X116599999Y-42500000D03*
G04 #@! TO.P,SW1,3,C*
G04 #@! TO.N,unconnected-(SW1-C-Pad3)*
X114600000Y-42500000D03*
G04 #@! TD*
D10*
G04 #@! TO.P,R13,1*
G04 #@! TO.N,Net-(J6-CC1)*
X153600000Y-53110000D03*
G04 #@! TO.P,R13,2*
G04 #@! TO.N,GND*
X153600000Y-56235000D03*
G04 #@! TD*
D19*
G04 #@! TO.P,K1,1,COIL_1*
G04 #@! TO.N,Net-(D3-A)*
X135000000Y-71500001D03*
G04 #@! TO.P,K1,2,NO*
G04 #@! TO.N,GND*
X122800000Y-71500001D03*
G04 #@! TO.P,K1,3,COM_1*
G04 #@! TO.N,Net-(J5-Pin_1)*
X122800000Y-83500001D03*
G04 #@! TO.P,K1,4,COIL_2*
G04 #@! TO.N,VBATT+*
X135000000Y-83500000D03*
G04 #@! TO.P,K1,5,COM_2*
G04 #@! TO.N,Net-(J5-Pin_2)*
X137000000Y-77500001D03*
G04 #@! TD*
D20*
G04 #@! TO.P,D2,1,K*
G04 #@! TO.N,Net-(D2-K)*
X153225000Y-62100000D03*
G04 #@! TO.P,D2,2,A*
G04 #@! TO.N,+5V*
X156200000Y-62100000D03*
G04 #@! TD*
D21*
G04 #@! TO.P,R11,1*
G04 #@! TO.N,/I2C_SCL*
X142575000Y-60400000D03*
G04 #@! TO.P,R11,2*
G04 #@! TO.N,+3.3V*
X145700000Y-60400000D03*
G04 #@! TD*
D22*
G04 #@! TO.P,D3,1,K*
G04 #@! TO.N,VBATT+*
X143800000Y-85400000D03*
D23*
G04 #@! TO.P,D3,2,A*
G04 #@! TO.N,Net-(D3-A)*
X143800000Y-70160000D03*
G04 #@! TD*
D21*
G04 #@! TO.P,R12,1*
G04 #@! TO.N,/I2C_SDA*
X140975000Y-57700000D03*
G04 #@! TO.P,R12,2*
G04 #@! TO.N,+3.3V*
X144100000Y-57700000D03*
G04 #@! TD*
G04 #@! TO.P,R9,1*
G04 #@! TO.N,/PUSH*
X131675000Y-54400000D03*
G04 #@! TO.P,R9,2*
G04 #@! TO.N,GND*
X134800000Y-54400000D03*
G04 #@! TD*
D24*
G04 #@! TO.P,Q1,1,G*
G04 #@! TO.N,/Relay*
X127024999Y-65250000D03*
G04 #@! TO.P,Q1,2,S*
G04 #@! TO.N,Net-(D3-A)*
X127024999Y-67150000D03*
G04 #@! TO.P,Q1,3,D*
G04 #@! TO.N,GND*
X128900000Y-66200000D03*
G04 #@! TD*
D25*
G04 #@! TO.P,IC2,1,E2*
G04 #@! TO.N,GND*
X139900000Y-55100000D03*
G04 #@! TO.P,IC2,2,B2*
G04 #@! TO.N,/G_BASE*
X139899999Y-54450000D03*
G04 #@! TO.P,IC2,3,C1*
G04 #@! TO.N,/RED_LED*
X139900000Y-53800000D03*
G04 #@! TO.P,IC2,4,E1*
G04 #@! TO.N,GND*
X138000000Y-53800000D03*
G04 #@! TO.P,IC2,5,B1*
G04 #@! TO.N,/R_BASE*
X138000001Y-54450000D03*
G04 #@! TO.P,IC2,6,C2*
G04 #@! TO.N,/GREEN_LED*
X138000000Y-55100000D03*
G04 #@! TD*
D10*
G04 #@! TO.P,C6,1*
G04 #@! TO.N,+5V*
X157405000Y-54310000D03*
G04 #@! TO.P,C6,2*
G04 #@! TO.N,GND*
X157405000Y-57435000D03*
G04 #@! TD*
D21*
G04 #@! TO.P,C4,1*
G04 #@! TO.N,VBATT+*
X117675000Y-51900000D03*
G04 #@! TO.P,C4,2*
G04 #@! TO.N,GND*
X120800000Y-51900000D03*
G04 #@! TD*
D26*
G04 #@! TO.P,R2,1*
G04 #@! TO.N,Net-(U2-CE)*
X160400000Y-69325000D03*
G04 #@! TO.P,R2,2*
G04 #@! TO.N,+5V*
X160400000Y-66200000D03*
G04 #@! TD*
D27*
G04 #@! TO.P,J2,1,Pin_1*
G04 #@! TO.N,Net-(IC1-IO9)*
X149700000Y-54960000D03*
D28*
G04 #@! TO.P,J2,2,Pin_2*
G04 #@! TO.N,GND*
X149700000Y-57500000D03*
G04 #@! TD*
D29*
G04 #@! TO.P,IC1,1,GND_1*
G04 #@! TO.N,GND*
X132350000Y-41950000D03*
G04 #@! TO.P,IC1,2,GND_2*
X132350000Y-42750000D03*
G04 #@! TO.P,IC1,3,3V3*
G04 #@! TO.N,+3.3V*
X132350000Y-43550000D03*
G04 #@! TO.P,IC1,4,NC_1*
G04 #@! TO.N,unconnected-(IC1-NC_1-Pad4)*
X132350000Y-44350000D03*
G04 #@! TO.P,IC1,5,IO2*
G04 #@! TO.N,/Relay*
X132350000Y-45150000D03*
G04 #@! TO.P,IC1,6,IO3*
G04 #@! TO.N,/iButton*
X132350000Y-45950000D03*
G04 #@! TO.P,IC1,7,NC_2*
G04 #@! TO.N,unconnected-(IC1-NC_2-Pad7)*
X132350000Y-46750000D03*
G04 #@! TO.P,IC1,8,EN*
G04 #@! TO.N,Net-(IC1-EN)*
X132350000Y-47550000D03*
G04 #@! TO.P,IC1,9,NC_3*
G04 #@! TO.N,unconnected-(IC1-NC_3-Pad9)*
X132350000Y-48350000D03*
G04 #@! TO.P,IC1,10,NC_4*
G04 #@! TO.N,unconnected-(IC1-NC_4-Pad10)*
X132350000Y-49150000D03*
G04 #@! TO.P,IC1,11,GND_3*
G04 #@! TO.N,GND*
X132350000Y-49950000D03*
D30*
G04 #@! TO.P,IC1,12,IO0*
G04 #@! TO.N,/PUSH*
X133450000Y-50850000D03*
G04 #@! TO.P,IC1,13,IO1*
G04 #@! TO.N,unconnected-(IC1-IO1-Pad13)*
X134250000Y-50850000D03*
G04 #@! TO.P,IC1,14,GND_4*
G04 #@! TO.N,GND*
X135050000Y-50850000D03*
G04 #@! TO.P,IC1,15,NC_5*
G04 #@! TO.N,unconnected-(IC1-NC_5-Pad15)*
X135850000Y-50850000D03*
G04 #@! TO.P,IC1,16,IO10*
G04 #@! TO.N,unconnected-(IC1-IO10-Pad16)*
X136650000Y-50850000D03*
G04 #@! TO.P,IC1,17,NC_6*
G04 #@! TO.N,unconnected-(IC1-NC_6-Pad17)*
X137450000Y-50850000D03*
G04 #@! TO.P,IC1,18,IO4*
G04 #@! TO.N,unconnected-(IC1-IO4-Pad18)*
X138250000Y-50850000D03*
G04 #@! TO.P,IC1,19,IO5*
G04 #@! TO.N,/GREEN_LED*
X139050000Y-50850000D03*
G04 #@! TO.P,IC1,20,IO6*
G04 #@! TO.N,/RED_LED*
X139850000Y-50850000D03*
G04 #@! TO.P,IC1,21,IO7*
G04 #@! TO.N,/I2C_SDA*
X140650000Y-50850000D03*
G04 #@! TO.P,IC1,22,IO8*
G04 #@! TO.N,/I2C_SCL*
X141450000Y-50850000D03*
G04 #@! TO.P,IC1,23,IO9*
G04 #@! TO.N,Net-(IC1-IO9)*
X142250000Y-50850000D03*
G04 #@! TO.P,IC1,24,NC_7*
G04 #@! TO.N,unconnected-(IC1-NC_7-Pad24)*
X143050000Y-50850000D03*
D29*
G04 #@! TO.P,IC1,25,NC_8*
G04 #@! TO.N,unconnected-(IC1-NC_8-Pad25)*
X144150000Y-49950000D03*
G04 #@! TO.P,IC1,26,IO18*
G04 #@! TO.N,/USB_DN*
X144150000Y-49150000D03*
G04 #@! TO.P,IC1,27,IO19*
G04 #@! TO.N,/USB_DP*
X144150000Y-48350000D03*
G04 #@! TO.P,IC1,28,NC_9*
G04 #@! TO.N,unconnected-(IC1-NC_9-Pad28)*
X144150000Y-47550000D03*
G04 #@! TO.P,IC1,29,NC_10*
G04 #@! TO.N,unconnected-(IC1-NC_10-Pad29)*
X144150000Y-46750000D03*
G04 #@! TO.P,IC1,30,RXD0*
G04 #@! TO.N,unconnected-(IC1-RXD0-Pad30)*
X144150000Y-45950000D03*
G04 #@! TO.P,IC1,31,TXD0*
G04 #@! TO.N,unconnected-(IC1-TXD0-Pad31)*
X144150000Y-45150000D03*
G04 #@! TO.P,IC1,32,NC_11*
G04 #@! TO.N,unconnected-(IC1-NC_11-Pad32)*
X144150000Y-44350000D03*
G04 #@! TO.P,IC1,33,NC_12*
G04 #@! TO.N,unconnected-(IC1-NC_12-Pad33)*
X144150000Y-43550000D03*
G04 #@! TO.P,IC1,34,NC_13*
G04 #@! TO.N,unconnected-(IC1-NC_13-Pad34)*
X144150000Y-42750000D03*
G04 #@! TO.P,IC1,35,NC_14*
G04 #@! TO.N,unconnected-(IC1-NC_14-Pad35)*
X144150000Y-41950000D03*
D30*
G04 #@! TO.P,IC1,36,GND_5*
G04 #@! TO.N,GND*
X143050000Y-41050000D03*
G04 #@! TO.P,IC1,37,GND_6*
X142250000Y-41050000D03*
G04 #@! TO.P,IC1,38,GND_7*
X141450000Y-41050000D03*
G04 #@! TO.P,IC1,39,GND_8*
X140650000Y-41050000D03*
G04 #@! TO.P,IC1,40,GND_9*
X139850000Y-41050000D03*
G04 #@! TO.P,IC1,41,GND_10*
X139050000Y-41050000D03*
G04 #@! TO.P,IC1,42,GND_11*
X138250000Y-41050000D03*
G04 #@! TO.P,IC1,43,GND_12*
X137450000Y-41050000D03*
G04 #@! TO.P,IC1,44,GND_13*
X136650000Y-41050000D03*
G04 #@! TO.P,IC1,45,GND_14*
X135850000Y-41050000D03*
G04 #@! TO.P,IC1,46,GND_15*
X135050000Y-41050000D03*
G04 #@! TO.P,IC1,47,GND_16*
X134250000Y-41050000D03*
G04 #@! TO.P,IC1,48,GND_17*
X133450000Y-41050000D03*
D31*
G04 #@! TO.P,IC1,49,GND_18*
X138250000Y-45950000D03*
G04 #@! TO.P,IC1,50,GND_19*
X140225000Y-43975000D03*
G04 #@! TO.P,IC1,51,GND_20*
X138250000Y-43975000D03*
G04 #@! TO.P,IC1,52,GND_21*
X136275000Y-43975000D03*
G04 #@! TO.P,IC1,53,GND_22*
X136275000Y-45950000D03*
G04 #@! TO.P,IC1,54,GND_23*
X136275000Y-47925000D03*
G04 #@! TO.P,IC1,55,GND_24*
X138250000Y-47925000D03*
G04 #@! TO.P,IC1,56,GND_25*
X140225000Y-47925000D03*
G04 #@! TO.P,IC1,57,GND_26*
X140225000Y-45950000D03*
D32*
G04 #@! TO.P,IC1,58,GND_27*
X132300000Y-41000000D03*
G04 #@! TO.P,IC1,59,GND_28*
X132300000Y-50900000D03*
G04 #@! TO.P,IC1,60,GND_29*
X144200000Y-50900000D03*
G04 #@! TO.P,IC1,61,GND_30*
X144200000Y-41000000D03*
G04 #@! TD*
D27*
G04 #@! TO.P,J5,1,Pin_1*
G04 #@! TO.N,Net-(J5-Pin_1)*
X116200000Y-80000000D03*
D28*
G04 #@! TO.P,J5,2,Pin_2*
G04 #@! TO.N,Net-(J5-Pin_2)*
X116200000Y-77460000D03*
G04 #@! TO.P,J5,3,Pin_3*
G04 #@! TO.N,unconnected-(J5-Pin_3-Pad3)*
X116200000Y-74920001D03*
G04 #@! TD*
D33*
G04 #@! TO.P,R5,1*
G04 #@! TO.N,Net-(IC1-EN)*
X128500000Y-47800000D03*
G04 #@! TO.P,R5,2*
G04 #@! TO.N,+3.3V*
X125375000Y-47800000D03*
G04 #@! TD*
D21*
G04 #@! TO.P,R10,1*
G04 #@! TO.N,Net-(IC1-IO9)*
X143275000Y-54900000D03*
G04 #@! TO.P,R10,2*
G04 #@! TO.N,+3.3V*
X146400000Y-54900000D03*
G04 #@! TD*
D34*
G04 #@! TO.P,J3,1,Pin_1*
G04 #@! TO.N,VBATT+*
X150400000Y-85200000D03*
G04 #@! TD*
D26*
G04 #@! TO.P,R4,1*
G04 #@! TO.N,Net-(U2-~{STDBY})*
X165900000Y-71825000D03*
G04 #@! TO.P,R4,2*
G04 #@! TO.N,Net-(D1-K)*
X165900000Y-68700000D03*
G04 #@! TD*
D10*
G04 #@! TO.P,R1,1*
G04 #@! TO.N,Net-(U1-EN)*
X113300000Y-45975000D03*
G04 #@! TO.P,R1,2*
G04 #@! TO.N,VBATT+*
X113300000Y-49100000D03*
G04 #@! TD*
D33*
G04 #@! TO.P,C1,1*
G04 #@! TO.N,VBATT+*
X157525000Y-75595000D03*
G04 #@! TO.P,C1,2*
G04 #@! TO.N,GND*
X154400000Y-75595000D03*
G04 #@! TD*
D26*
G04 #@! TO.P,C2,1*
G04 #@! TO.N,+3.3V*
X125100000Y-44125000D03*
G04 #@! TO.P,C2,2*
G04 #@! TO.N,GND*
X125100000Y-41000000D03*
G04 #@! TD*
D34*
G04 #@! TO.P,J4,1,Pin_1*
G04 #@! TO.N,GND*
X156900000Y-85200000D03*
G04 #@! TD*
D26*
G04 #@! TO.P,R7,1*
G04 #@! TO.N,Net-(U2-~{CHRG})*
X163100000Y-69325000D03*
G04 #@! TO.P,R7,2*
G04 #@! TO.N,Net-(D2-K)*
X163100000Y-66200000D03*
G04 #@! TD*
G04 #@! TO.P,C3,1*
G04 #@! TO.N,+3.3V*
X128300000Y-44125000D03*
G04 #@! TO.P,C3,2*
G04 #@! TO.N,GND*
X128300000Y-41000000D03*
G04 #@! TD*
D10*
G04 #@! TO.P,C5,1*
G04 #@! TO.N,Net-(SW1-B)*
X122500000Y-46075000D03*
G04 #@! TO.P,C5,2*
G04 #@! TO.N,GND*
X122500000Y-49200000D03*
G04 #@! TD*
D35*
G04 #@! TO.P,U1,1,VIN*
G04 #@! TO.N,VBATT+*
X118200002Y-48775000D03*
G04 #@! TO.P,U1,2,GND*
G04 #@! TO.N,GND*
X119150001Y-48775000D03*
G04 #@! TO.P,U1,3,EN*
G04 #@! TO.N,Net-(U1-EN)*
X120100000Y-48775000D03*
G04 #@! TO.P,U1,4,NC*
G04 #@! TO.N,unconnected-(U1-NC-Pad4)*
X120100000Y-46500000D03*
G04 #@! TO.P,U1,5,VOUT*
G04 #@! TO.N,Net-(SW1-B)*
X118200002Y-46500000D03*
G04 #@! TD*
D26*
G04 #@! TO.P,R14,1*
G04 #@! TO.N,Net-(J6-CC2)*
X157305000Y-49635000D03*
G04 #@! TO.P,R14,2*
G04 #@! TO.N,GND*
X157305000Y-46510000D03*
G04 #@! TD*
D20*
G04 #@! TO.P,D1,1,K*
G04 #@! TO.N,Net-(D1-K)*
X153325000Y-65800000D03*
G04 #@! TO.P,D1,2,A*
G04 #@! TO.N,+5V*
X156300000Y-65800000D03*
G04 #@! TD*
D36*
G04 #@! TO.N,GND*
X154000000Y-85400000D03*
X124200000Y-49900000D03*
X138200000Y-49400000D03*
X154000000Y-86900000D03*
X133800000Y-49400000D03*
X139600000Y-49400000D03*
X134700000Y-45900000D03*
X134600000Y-42400000D03*
X134700000Y-47900000D03*
X159800000Y-83800000D03*
X141200000Y-49400000D03*
X138500000Y-42400000D03*
X159400000Y-49200000D03*
X141700000Y-48000000D03*
X123100000Y-41000000D03*
X142600000Y-42400000D03*
X141700000Y-45900000D03*
X122900000Y-52500000D03*
X142600000Y-46900000D03*
X159800000Y-86900000D03*
X136500000Y-42400000D03*
X135300000Y-49400000D03*
X141700000Y-44000000D03*
X160000000Y-57200000D03*
X142600000Y-49400000D03*
X154000000Y-83800000D03*
X146400000Y-50900000D03*
X152600000Y-75500000D03*
X140600000Y-42400000D03*
X159200000Y-56500000D03*
X156900000Y-82300000D03*
X139300000Y-57800000D03*
X155300000Y-82300000D03*
X142600000Y-44900000D03*
X153600000Y-77700000D03*
X136700000Y-49400000D03*
X158500000Y-82300000D03*
X155400000Y-45900000D03*
X134700000Y-43800000D03*
X159800000Y-85500000D03*
X159600000Y-48000000D03*
G04 #@! TO.N,VBATT+*
X127200000Y-71800000D03*
X128100000Y-82200000D03*
G04 #@! TO.N,+3.3V*
X124700000Y-65700000D03*
X140200000Y-68400000D03*
G04 #@! TO.N,+5V*
X155700000Y-54500000D03*
X160100000Y-55100000D03*
X155700000Y-58900000D03*
X160000000Y-50600000D03*
G04 #@! TO.N,Net-(D2-K)*
X158000000Y-63900000D03*
X153400000Y-63800000D03*
G04 #@! TO.N,/iButton*
X133600000Y-46900000D03*
X130000000Y-52200000D03*
G04 #@! TO.N,/Relay*
X131100000Y-46800000D03*
X131000000Y-49000000D03*
G04 #@! TO.N,/GREEN_LED*
X137200000Y-56200000D03*
X136900000Y-53000000D03*
G04 #@! TO.N,/G_BASE*
X136700000Y-62400000D03*
X138300000Y-60200000D03*
G04 #@! TD*
D37*
G04 #@! TO.N,GND*
X156010000Y-46510000D02*
X155400000Y-45900000D01*
X142600000Y-42400000D02*
X143050000Y-41950000D01*
X138250000Y-45950000D02*
X136275000Y-45950000D01*
D38*
X156900000Y-85200000D02*
X154200000Y-85200000D01*
D37*
X161520000Y-49155000D02*
X162095000Y-48580000D01*
X143050000Y-41950000D02*
X143050000Y-41050000D01*
D39*
X135400000Y-53800000D02*
X134800000Y-54400000D01*
D38*
X157600000Y-85200000D02*
X159000000Y-83800000D01*
D37*
X159200000Y-56500000D02*
X159600000Y-56100000D01*
X141700000Y-44000000D02*
X141675000Y-43975000D01*
D38*
X154400000Y-75595000D02*
X152695000Y-75595000D01*
D37*
X133250000Y-49950000D02*
X133800000Y-49400000D01*
X154365000Y-71935000D02*
X155000000Y-71300000D01*
X134850000Y-45950000D02*
X134800000Y-45900000D01*
X128300000Y-41000000D02*
X125100000Y-41000000D01*
X153995000Y-69395000D02*
X155000000Y-70400000D01*
D38*
X158100000Y-85200000D02*
X159800000Y-86900000D01*
X156700000Y-85200000D02*
X154900000Y-87000000D01*
D37*
X153600000Y-56235000D02*
X156205000Y-56235000D01*
D38*
X155500000Y-83800000D02*
X154000000Y-83800000D01*
D37*
X155000000Y-70400000D02*
X155000000Y-71300000D01*
D39*
X135050000Y-50850000D02*
X135050000Y-49650000D01*
D37*
X140600000Y-42400000D02*
X140650000Y-42350000D01*
X161520000Y-56100000D02*
X161520000Y-56645000D01*
D39*
X139900000Y-55100000D02*
X139300000Y-55700000D01*
D38*
X156900000Y-85200000D02*
X155500000Y-83800000D01*
D39*
X138000000Y-53800000D02*
X135400000Y-53800000D01*
D37*
X120800000Y-51100000D02*
X120800000Y-51900000D01*
X156205000Y-56235000D02*
X157405000Y-57435000D01*
D39*
X135050000Y-54150000D02*
X135050000Y-50850000D01*
D38*
X152695000Y-75595000D02*
X152600000Y-75500000D01*
D37*
X161520000Y-56645000D02*
X162095000Y-57220000D01*
X140225000Y-47925000D02*
X140225000Y-45950000D01*
X123200000Y-49900000D02*
X124200000Y-49900000D01*
D38*
X156900000Y-84500000D02*
X158500000Y-82900000D01*
D37*
X132300000Y-50900000D02*
X132300000Y-50000000D01*
X140225000Y-47925000D02*
X136275000Y-47925000D01*
D38*
X156900000Y-85200000D02*
X156700000Y-85200000D01*
D37*
X136500000Y-42400000D02*
X135850000Y-41750000D01*
D38*
X156900000Y-85200000D02*
X157600000Y-85200000D01*
D37*
X160450000Y-48850000D02*
X161300000Y-49700000D01*
D38*
X154400000Y-75595000D02*
X154400000Y-76900000D01*
D37*
X132300000Y-41000000D02*
X133400000Y-41000000D01*
D38*
X154200000Y-85200000D02*
X154000000Y-85400000D01*
D37*
X136275000Y-43975000D02*
X138250000Y-43975000D01*
D39*
X150925000Y-69395000D02*
X152525000Y-69395000D01*
D38*
X154900000Y-87000000D02*
X154800000Y-86900000D01*
D37*
X159600000Y-56100000D02*
X160500000Y-56100000D01*
D39*
X132350000Y-41050000D02*
X132300000Y-41000000D01*
D37*
X138500000Y-42400000D02*
X138250000Y-42150000D01*
X140225000Y-43975000D02*
X140225000Y-45950000D01*
X133400000Y-41000000D02*
X133450000Y-41050000D01*
D39*
X135050000Y-49650000D02*
X135300000Y-49400000D01*
D37*
X133450000Y-41250000D02*
X133450000Y-41050000D01*
X159750000Y-48850000D02*
X159400000Y-49200000D01*
X119150001Y-48775000D02*
X119150001Y-49450001D01*
X132350000Y-49950000D02*
X133250000Y-49950000D01*
X157305000Y-46510000D02*
X156010000Y-46510000D01*
X132300000Y-50000000D02*
X132350000Y-49950000D01*
D38*
X156900000Y-85200000D02*
X156900000Y-84400000D01*
D37*
X140225000Y-45950000D02*
X141650000Y-45950000D01*
X161300000Y-49700000D02*
X161520000Y-49700000D01*
X119150001Y-49450001D02*
X120500000Y-50800000D01*
D39*
X132350000Y-42750000D02*
X132350000Y-41050000D01*
D37*
X134875000Y-43975000D02*
X134800000Y-43900000D01*
X158265000Y-57435000D02*
X157405000Y-57435000D01*
X141650000Y-45950000D02*
X141700000Y-45900000D01*
X138250000Y-42150000D02*
X138250000Y-41050000D01*
X140225000Y-47925000D02*
X141625000Y-47925000D01*
X135850000Y-41750000D02*
X135850000Y-41050000D01*
D38*
X156900000Y-85200000D02*
X159500000Y-85200000D01*
D37*
X122500000Y-49200000D02*
X123200000Y-49900000D01*
X136275000Y-47925000D02*
X134825000Y-47925000D01*
D38*
X156900000Y-84400000D02*
X155300000Y-82800000D01*
X156900000Y-85200000D02*
X156900000Y-84500000D01*
D37*
X144200000Y-50900000D02*
X146400000Y-50900000D01*
X144150000Y-41050000D02*
X144200000Y-41000000D01*
X136275000Y-43975000D02*
X134875000Y-43975000D01*
X161520000Y-49700000D02*
X161520000Y-49155000D01*
X141675000Y-43975000D02*
X140225000Y-43975000D01*
X120800000Y-51900000D02*
X122300000Y-51900000D01*
X120500000Y-50800000D02*
X120800000Y-51100000D01*
D38*
X154800000Y-86900000D02*
X154000000Y-86900000D01*
D37*
X141625000Y-47925000D02*
X141700000Y-48000000D01*
X134825000Y-47925000D02*
X134800000Y-47900000D01*
X125100000Y-41000000D02*
X123100000Y-41000000D01*
X136275000Y-45950000D02*
X134850000Y-45950000D01*
X140225000Y-43975000D02*
X138250000Y-43975000D01*
D38*
X155000000Y-71300000D02*
X154400000Y-71900000D01*
D39*
X139300000Y-55700000D02*
X139300000Y-57800000D01*
D38*
X158500000Y-82900000D02*
X158500000Y-82300000D01*
D37*
X160000000Y-57200000D02*
X160000000Y-56600000D01*
X160500000Y-56100000D02*
X161520000Y-56100000D01*
X122300000Y-51900000D02*
X122900000Y-52500000D01*
D38*
X156900000Y-85200000D02*
X156900000Y-82300000D01*
X159500000Y-85200000D02*
X159800000Y-85500000D01*
X159000000Y-83800000D02*
X159800000Y-83800000D01*
X155300000Y-82800000D02*
X155300000Y-82300000D01*
D37*
X152525000Y-69395000D02*
X153995000Y-69395000D01*
X152525000Y-71935000D02*
X154365000Y-71935000D01*
D38*
X154400000Y-71900000D02*
X154400000Y-75595000D01*
D37*
X160000000Y-56600000D02*
X160500000Y-56100000D01*
X160450000Y-48850000D02*
X159750000Y-48850000D01*
X159200000Y-56500000D02*
X158265000Y-57435000D01*
X134600000Y-42400000D02*
X133450000Y-41250000D01*
D39*
X149025000Y-67495000D02*
X150925000Y-69395000D01*
X134800000Y-54400000D02*
X135050000Y-54150000D01*
D37*
X133450000Y-41050000D02*
X144150000Y-41050000D01*
X140650000Y-42350000D02*
X140650000Y-41050000D01*
X136275000Y-47925000D02*
X136275000Y-43975000D01*
X159600000Y-48000000D02*
X160450000Y-48850000D01*
D38*
X128900000Y-66200000D02*
X132500000Y-66200000D01*
X156900000Y-85200000D02*
X158100000Y-85200000D01*
X154400000Y-76900000D02*
X153600000Y-77700000D01*
D37*
G04 #@! TO.N,VBATT+*
X150400000Y-85200000D02*
X157525000Y-78075000D01*
D38*
X119700000Y-64000000D02*
X127200000Y-71500000D01*
X143800000Y-85400000D02*
X150200000Y-85400000D01*
X119700000Y-60800000D02*
X119700000Y-64000000D01*
X137800000Y-83500000D02*
X139500000Y-85200000D01*
D37*
X157525000Y-78075000D02*
X157525000Y-75595000D01*
D38*
X150200000Y-85400000D02*
X150400000Y-85200000D01*
X139500000Y-85200000D02*
X143600000Y-85200000D01*
X117675000Y-58775000D02*
X119700000Y-60800000D01*
D37*
X157525000Y-75595000D02*
X157525000Y-73255000D01*
X157525000Y-73255000D02*
X157475000Y-73205000D01*
D38*
X135000000Y-83500000D02*
X137800000Y-83500000D01*
X133000000Y-83500000D02*
X135000000Y-83500000D01*
X133000000Y-83500000D02*
X129400000Y-83500000D01*
X118200002Y-48775000D02*
X118200002Y-51374998D01*
X118200002Y-51374998D02*
X117675000Y-51900000D01*
X127200000Y-71500000D02*
X127200000Y-71800000D01*
D39*
X117875002Y-49100000D02*
X118200002Y-48775000D01*
X113300000Y-49100000D02*
X117875002Y-49100000D01*
D38*
X117675000Y-51900000D02*
X117675000Y-58775000D01*
X143600000Y-85200000D02*
X143800000Y-85400000D01*
X129400000Y-83500000D02*
X128100000Y-82200000D01*
D37*
X143600000Y-85600000D02*
X143800000Y-85400000D01*
G04 #@! TO.N,+3.3V*
X125375000Y-48275000D02*
X126900000Y-49800000D01*
X120225000Y-44125000D02*
X125100000Y-44125000D01*
D39*
X144100000Y-58800000D02*
X145700000Y-60400000D01*
X144500000Y-66500000D02*
X142799999Y-66500000D01*
X146400000Y-54900000D02*
X144100000Y-57200000D01*
D37*
X126900000Y-49800000D02*
X126900000Y-51700000D01*
D39*
X144100000Y-57700000D02*
X144100000Y-58800000D01*
D37*
X125100000Y-44125000D02*
X125100000Y-47525000D01*
X140500001Y-66200001D02*
X140500000Y-66200000D01*
D39*
X145700000Y-65300000D02*
X144500000Y-66500000D01*
D37*
X126900000Y-51700000D02*
X125300000Y-53300000D01*
D39*
X142799999Y-66500000D02*
X142500000Y-66200001D01*
D37*
X138499999Y-66699999D02*
X138499999Y-66200000D01*
X128300000Y-44125000D02*
X125100000Y-44125000D01*
X140200000Y-68400000D02*
X138499999Y-66699999D01*
X118600000Y-42500000D02*
X120225000Y-44125000D01*
X140500000Y-66200000D02*
X138499999Y-66200000D01*
X142500000Y-66200001D02*
X140500001Y-66200001D01*
X125300000Y-53300000D02*
X124700000Y-53900000D01*
X125100000Y-47525000D02*
X125375000Y-47800000D01*
X124700000Y-53900000D02*
X124700000Y-65700000D01*
X125375000Y-47800000D02*
X125375000Y-48275000D01*
X128875000Y-43550000D02*
X128300000Y-44125000D01*
D39*
X144100000Y-57200000D02*
X144100000Y-57700000D01*
X145700000Y-60400000D02*
X145700000Y-65300000D01*
D37*
X132350000Y-43550000D02*
X128875000Y-43550000D01*
G04 #@! TO.N,Net-(SW1-B)*
X122500000Y-46075000D02*
X122075000Y-46075000D01*
X118200002Y-45599998D02*
X118200002Y-46500000D01*
X121100000Y-45100000D02*
X118700000Y-45100000D01*
X116599999Y-42500000D02*
X116599999Y-44899997D01*
X118700000Y-45100000D02*
X118200002Y-45599998D01*
X122075000Y-46075000D02*
X121100000Y-45100000D01*
X116599999Y-44899997D02*
X118200002Y-46500000D01*
D38*
G04 #@! TO.N,+5V*
X155700000Y-58900000D02*
X153100000Y-58900000D01*
X156200000Y-62100000D02*
X156200000Y-59800000D01*
X155890000Y-54310000D02*
X157405000Y-54310000D01*
X156300000Y-62200000D02*
X156300000Y-65800000D01*
X156200000Y-62100000D02*
X156300000Y-62200000D01*
D37*
X161520000Y-50500000D02*
X160100000Y-50500000D01*
D39*
X148180000Y-76320000D02*
X149025000Y-76320000D01*
D38*
X156700000Y-66200000D02*
X156300000Y-65800000D01*
X158195000Y-55100000D02*
X157405000Y-54310000D01*
X147100000Y-64900000D02*
X147100000Y-75300000D01*
X148120000Y-76320000D02*
X149025000Y-76320000D01*
X153100000Y-58900000D02*
X147100000Y-64900000D01*
D37*
X161520000Y-55300000D02*
X160300000Y-55300000D01*
D38*
X160400000Y-66200000D02*
X156700000Y-66200000D01*
D37*
X160300000Y-55300000D02*
X160100000Y-55100000D01*
D38*
X160100000Y-55100000D02*
X158195000Y-55100000D01*
D39*
X148150000Y-76350000D02*
X148180000Y-76320000D01*
D38*
X155700000Y-54500000D02*
X155890000Y-54310000D01*
D37*
X160100000Y-50500000D02*
X160000000Y-50600000D01*
D38*
X156200000Y-59800000D02*
X156200000Y-59400000D01*
X156200000Y-59400000D02*
X155700000Y-58900000D01*
X147100000Y-75300000D02*
X148120000Y-76320000D01*
D39*
G04 #@! TO.N,Net-(D1-K)*
X165100000Y-67900000D02*
X154200000Y-67900000D01*
X165900000Y-68700000D02*
X165100000Y-67900000D01*
X153325000Y-67025000D02*
X153325000Y-65800000D01*
X154200000Y-67900000D02*
X153325000Y-67025000D01*
G04 #@! TO.N,Net-(D2-K)*
X160800000Y-63900000D02*
X159500000Y-63900000D01*
X163100000Y-66200000D02*
X160800000Y-63900000D01*
X153400000Y-63800000D02*
X153225000Y-63625000D01*
X159500000Y-63900000D02*
X158000000Y-63900000D01*
X153225000Y-63625000D02*
X153225000Y-62100000D01*
D37*
G04 #@! TO.N,Net-(D3-A)*
X127024999Y-67150000D02*
X131375000Y-71500001D01*
X135000000Y-71500001D02*
X138899999Y-71500001D01*
X131375000Y-71500001D02*
X135000000Y-71500001D01*
X138899999Y-71500001D02*
X140240000Y-70160000D01*
X140240000Y-70160000D02*
X143800000Y-70160000D01*
D39*
G04 #@! TO.N,/PUSH*
X131675000Y-56375000D02*
X131675000Y-54400000D01*
X134500000Y-64200000D02*
X134500000Y-59200000D01*
X134500000Y-59200000D02*
X131675000Y-56375000D01*
X131675000Y-53925000D02*
X133450000Y-52150000D01*
X133450000Y-52150000D02*
X133450000Y-50850000D01*
X131675000Y-54400000D02*
X131675000Y-53925000D01*
D40*
G04 #@! TO.N,/USB_DP*
X161520000Y-52150000D02*
X162350000Y-52150000D01*
X162350000Y-53150000D02*
X161520000Y-53150000D01*
X162600000Y-52786975D02*
X162600000Y-52900000D01*
X162600000Y-52686694D02*
X162600000Y-52786975D01*
X162600000Y-52900000D02*
X162350000Y-53150000D01*
X162600000Y-52400000D02*
X162600000Y-52686694D01*
X144150000Y-48350000D02*
X144750001Y-48350000D01*
X144923401Y-48523400D02*
X153043862Y-48523400D01*
X144750001Y-48350000D02*
X144923401Y-48523400D01*
X161496600Y-52173400D02*
X161520000Y-52150000D01*
X153043862Y-48523400D02*
X156693862Y-52173400D01*
X162350000Y-52150000D02*
X162600000Y-52400000D01*
X156693862Y-52173400D02*
X161496600Y-52173400D01*
D39*
G04 #@! TO.N,/RED_LED*
X139900000Y-50900000D02*
X139850000Y-50850000D01*
X139900000Y-53800000D02*
X139900000Y-50900000D01*
D40*
G04 #@! TO.N,/USB_DN*
X161496600Y-52626600D02*
X161520000Y-52650000D01*
X160323400Y-53650000D02*
X161520000Y-53650000D01*
X160323400Y-53650000D02*
X159300000Y-52626600D01*
X144750001Y-49150000D02*
X144150000Y-49150000D01*
X152856138Y-48976600D02*
X144923401Y-48976600D01*
X159300000Y-52626600D02*
X161496600Y-52626600D01*
X156506138Y-52626600D02*
X152856138Y-48976600D01*
X159300000Y-52626600D02*
X156506138Y-52626600D01*
X144923401Y-48976600D02*
X144750001Y-49150000D01*
D39*
G04 #@! TO.N,Net-(IC1-IO9)*
X149260000Y-54960000D02*
X147300000Y-53000000D01*
X149700000Y-54960000D02*
X149260000Y-54960000D01*
X143275000Y-54900000D02*
X143275000Y-53625000D01*
X143900000Y-53000000D02*
X143000000Y-53000000D01*
X147300000Y-53000000D02*
X143900000Y-53000000D01*
X143000000Y-53000000D02*
X142250000Y-52250000D01*
X143275000Y-53625000D02*
X143900000Y-53000000D01*
X142250000Y-52250000D02*
X142250000Y-50850000D01*
G04 #@! TO.N,/iButton*
X132350000Y-45950000D02*
X132400000Y-45900000D01*
X132500000Y-64200000D02*
X130000000Y-61700000D01*
X132400000Y-45900000D02*
X132900000Y-45900000D01*
X133600000Y-46600000D02*
X133600000Y-46900000D01*
X132900000Y-45900000D02*
X133600000Y-46600000D01*
X130000000Y-61700000D02*
X130000000Y-52200000D01*
G04 #@! TO.N,/Relay*
X131350000Y-45150000D02*
X131200000Y-45300000D01*
X127024999Y-65250000D02*
X127024999Y-53275001D01*
X131000000Y-49300000D02*
X131000000Y-49000000D01*
X132350000Y-45150000D02*
X131350000Y-45150000D01*
X131200000Y-45300000D02*
X131200000Y-46700000D01*
X127024999Y-53275001D02*
X130800000Y-49500000D01*
X131200000Y-46700000D02*
X131100000Y-46800000D01*
X130800000Y-49500000D02*
X131000000Y-49300000D01*
G04 #@! TO.N,/I2C_SCL*
X142500000Y-64200000D02*
X142500000Y-60475000D01*
X141700000Y-56100000D02*
X141700000Y-51700000D01*
X141500000Y-50900000D02*
X141450000Y-50850000D01*
X142500000Y-60475000D02*
X142575000Y-60400000D01*
X141700000Y-51700000D02*
X141500000Y-51500000D01*
X142575000Y-60400000D02*
X142575000Y-56975000D01*
X141500000Y-51500000D02*
X141500000Y-50900000D01*
X142575000Y-56975000D02*
X141700000Y-56100000D01*
G04 #@! TO.N,/GREEN_LED*
X139000000Y-52000000D02*
X137900000Y-52000000D01*
X137200000Y-56200000D02*
X137500000Y-55900000D01*
X139050000Y-50850000D02*
X139000000Y-50900000D01*
X137500000Y-55600000D02*
X138000000Y-55100000D01*
X137500000Y-55900000D02*
X137500000Y-55600000D01*
X139000000Y-50900000D02*
X139000000Y-52000000D01*
X137900000Y-52000000D02*
X136900000Y-53000000D01*
G04 #@! TO.N,/I2C_SDA*
X141100000Y-51800000D02*
X141100000Y-57575000D01*
X141100000Y-57575000D02*
X140975000Y-57700000D01*
X140975000Y-57700000D02*
X140975000Y-59425000D01*
X140500000Y-64199999D02*
X140499999Y-64200000D01*
X140975000Y-59425000D02*
X140500000Y-59900000D01*
X140650000Y-51350000D02*
X141100000Y-51800000D01*
X140500000Y-59900000D02*
X140500000Y-64199999D01*
X140650000Y-50850000D02*
X140650000Y-51350000D01*
G04 #@! TO.N,Net-(IC1-EN)*
X132350000Y-47550000D02*
X132100000Y-47800000D01*
X132100000Y-47800000D02*
X128500000Y-47800000D01*
G04 #@! TO.N,/R_BASE*
X138500000Y-62500000D02*
X138500000Y-64200000D01*
X136400000Y-55100000D02*
X136400000Y-60400000D01*
X136400000Y-60400000D02*
X138500000Y-62500000D01*
X137050000Y-54450000D02*
X136400000Y-55100000D01*
X138000001Y-54450000D02*
X137050000Y-54450000D01*
G04 #@! TO.N,/G_BASE*
X139150000Y-54450000D02*
X139100000Y-54500000D01*
X138300000Y-56000000D02*
X138300000Y-60200000D01*
X136500000Y-62600000D02*
X136700000Y-62400000D01*
X139899999Y-54450000D02*
X139150000Y-54450000D01*
X136500000Y-64200000D02*
X136500000Y-62600000D01*
X138900000Y-55400000D02*
X138300000Y-56000000D01*
X139100000Y-54500000D02*
X138900000Y-54700000D01*
X138900000Y-54700000D02*
X138900000Y-55400000D01*
G04 #@! TO.N,Net-(J6-CC1)*
X161520001Y-54150000D02*
X159750000Y-54150000D01*
X159750000Y-54150000D02*
X158710000Y-53110000D01*
X158710000Y-53110000D02*
X154005000Y-53110000D01*
G04 #@! TO.N,Net-(J6-CC2)*
X158400000Y-51400000D02*
X157305000Y-50305000D01*
X161520000Y-51150000D02*
X160841881Y-51150000D01*
X160591881Y-51400000D02*
X158400000Y-51400000D01*
X157305000Y-50305000D02*
X157305000Y-49635000D01*
X160841881Y-51150000D02*
X160591881Y-51400000D01*
G04 #@! TO.N,Net-(U1-EN)*
X119800000Y-47600000D02*
X120100000Y-47900000D01*
X120100000Y-47900000D02*
X120100000Y-48775000D01*
X113300000Y-45975000D02*
X115675000Y-45975000D01*
X117300000Y-47600000D02*
X119800000Y-47600000D01*
X115675000Y-45975000D02*
X117300000Y-47600000D01*
G04 #@! TO.N,Net-(U2-CE)*
X157475000Y-69395000D02*
X160330000Y-69395000D01*
X160330000Y-69395000D02*
X160400000Y-69325000D01*
D38*
G04 #@! TO.N,Net-(U2-VCC)*
X152515000Y-73195000D02*
X152525000Y-73205000D01*
X149025000Y-73195000D02*
X152515000Y-73195000D01*
D39*
G04 #@! TO.N,Net-(U2-~{STDBY})*
X165100000Y-71825000D02*
X157585000Y-71825000D01*
X157585000Y-71825000D02*
X157475000Y-71935000D01*
G04 #@! TO.N,Net-(U2-PROG)*
X149025000Y-70620000D02*
X152480000Y-70620000D01*
X152480000Y-70620000D02*
X152525000Y-70665000D01*
G04 #@! TO.N,Net-(U2-~{CHRG})*
X157475000Y-70665000D02*
X161760000Y-70665000D01*
X161760000Y-70665000D02*
X163100000Y-69325000D01*
G04 #@! TD*
G04 #@! TA.AperFunction,Conductor*
G04 #@! TO.N,Net-(J5-Pin_2)*
G36*
X138543039Y-74019685D02*
G01*
X138588794Y-74072489D01*
X138600000Y-74124000D01*
X138600000Y-80776000D01*
X138580315Y-80843039D01*
X138527511Y-80888794D01*
X138476000Y-80900000D01*
X128038948Y-80900000D01*
X127971909Y-80880315D01*
X127968046Y-80877729D01*
X124700002Y-78600001D01*
X124700000Y-78600000D01*
X124699999Y-78600000D01*
X114424000Y-78600000D01*
X114356961Y-78580315D01*
X114311206Y-78527511D01*
X114300000Y-78476000D01*
X114300000Y-76424000D01*
X114319685Y-76356961D01*
X114372489Y-76311206D01*
X114424000Y-76300000D01*
X124699999Y-76300000D01*
X124700000Y-76300000D01*
X127968046Y-74022271D01*
X128034300Y-74000087D01*
X128038948Y-74000000D01*
X138476000Y-74000000D01*
X138543039Y-74019685D01*
G37*
G04 #@! TD.AperFunction*
G04 #@! TD*
G04 #@! TA.AperFunction,Conductor*
G04 #@! TO.N,Net-(J5-Pin_1)*
G36*
X124343039Y-79125185D02*
G01*
X124388794Y-79177989D01*
X124400000Y-79229500D01*
X124400000Y-85077221D01*
X124380315Y-85144260D01*
X124327511Y-85190015D01*
X124277228Y-85201215D01*
X114425228Y-85298760D01*
X114357997Y-85279740D01*
X114311721Y-85227392D01*
X114300000Y-85174766D01*
X114300000Y-79229500D01*
X114319685Y-79162461D01*
X114372489Y-79116706D01*
X114424000Y-79105500D01*
X124276000Y-79105500D01*
X124343039Y-79125185D01*
G37*
G04 #@! TD.AperFunction*
G04 #@! TD*
M02*
