G04 #@! TF.GenerationSoftware,KiCad,Pcbnew,8.0.8*
G04 #@! TF.CreationDate,2025-07-04T19:36:45+02:00*
G04 #@! TF.ProjectId,LaunchControl,4c61756e-6368-4436-9f6e-74726f6c2e6b,rev?*
G04 #@! TF.SameCoordinates,Original*
G04 #@! TF.FileFunction,Copper,L2,Bot*
G04 #@! TF.FilePolarity,Positive*
%FSLAX46Y46*%
G04 Gerber Fmt 4.6, Leading zero omitted, Abs format (unit mm)*
G04 Created by KiCad (PCBNEW 8.0.8) date 2025-07-04 19:36:45*
%MOMM*%
%LPD*%
G01*
G04 APERTURE LIST*
G04 #@! TA.AperFunction,HeatsinkPad*
%ADD10O,2.100000X1.000000*%
G04 #@! TD*
G04 #@! TA.AperFunction,HeatsinkPad*
%ADD11O,1.800000X1.000000*%
G04 #@! TD*
G04 #@! TA.AperFunction,ComponentPad*
%ADD12R,1.350000X1.350000*%
G04 #@! TD*
G04 #@! TA.AperFunction,ComponentPad*
%ADD13O,1.350000X1.350000*%
G04 #@! TD*
G04 #@! TA.AperFunction,ComponentPad*
%ADD14C,1.950000*%
G04 #@! TD*
G04 #@! TA.AperFunction,ComponentPad*
%ADD15R,3.200000X3.200000*%
G04 #@! TD*
G04 #@! TA.AperFunction,ComponentPad*
%ADD16O,3.200000X3.200000*%
G04 #@! TD*
G04 #@! TA.AperFunction,ComponentPad*
%ADD17R,1.700000X1.700000*%
G04 #@! TD*
G04 #@! TA.AperFunction,ComponentPad*
%ADD18O,1.700000X1.700000*%
G04 #@! TD*
G04 #@! TA.AperFunction,ViaPad*
%ADD19C,0.762000*%
G04 #@! TD*
G04 #@! TA.AperFunction,Conductor*
%ADD20C,0.800000*%
G04 #@! TD*
G04 #@! TA.AperFunction,Conductor*
%ADD21C,0.300000*%
G04 #@! TD*
G04 #@! TA.AperFunction,Conductor*
%ADD22C,0.500000*%
G04 #@! TD*
G04 APERTURE END LIST*
D10*
G04 #@! TO.P,J6,S1,SHIELD*
G04 #@! TO.N,GND*
X162095000Y-57220000D03*
D11*
X166275000Y-57220000D03*
D10*
X162095000Y-48580000D03*
D11*
X166275000Y-48580000D03*
G04 #@! TD*
D12*
G04 #@! TO.P,J1,1,Pin_1*
G04 #@! TO.N,/I2C_SCL*
X142500000Y-64200000D03*
D13*
G04 #@! TO.P,J1,2,Pin_2*
G04 #@! TO.N,+3.3V*
X142500000Y-66200001D03*
G04 #@! TO.P,J1,3,Pin_3*
G04 #@! TO.N,/I2C_SDA*
X140499999Y-64200000D03*
G04 #@! TO.P,J1,4,Pin_4*
G04 #@! TO.N,+3.3V*
X140500000Y-66200000D03*
G04 #@! TO.P,J1,5,Pin_5*
G04 #@! TO.N,/R_BASE*
X138500000Y-64200000D03*
G04 #@! TO.P,J1,6,Pin_6*
G04 #@! TO.N,+3.3V*
X138499999Y-66200000D03*
G04 #@! TO.P,J1,7,Pin_7*
G04 #@! TO.N,/G_BASE*
X136500000Y-64200000D03*
G04 #@! TO.P,J1,8,Pin_8*
G04 #@! TO.N,GND*
X136500000Y-66200000D03*
G04 #@! TO.P,J1,9,Pin_9*
G04 #@! TO.N,/PUSH*
X134500000Y-64200000D03*
G04 #@! TO.P,J1,10,Pin_10*
G04 #@! TO.N,GND*
X134500000Y-66200000D03*
G04 #@! TO.P,J1,11,Pin_11*
G04 #@! TO.N,/iButton*
X132500000Y-64200000D03*
G04 #@! TO.P,J1,12,Pin_12*
G04 #@! TO.N,GND*
X132500000Y-66200000D03*
G04 #@! TD*
D12*
G04 #@! TO.P,SW1,1,A*
G04 #@! TO.N,+3.3V*
X118600000Y-42500000D03*
D13*
G04 #@! TO.P,SW1,2,B*
G04 #@! TO.N,Net-(SW1-B)*
X116599999Y-42500000D03*
G04 #@! TO.P,SW1,3,C*
G04 #@! TO.N,unconnected-(SW1-C-Pad3)*
X114600000Y-42500000D03*
G04 #@! TD*
D14*
G04 #@! TO.P,K1,1,COIL_1*
G04 #@! TO.N,Net-(D3-A)*
X135000000Y-71500001D03*
G04 #@! TO.P,K1,2,NO*
G04 #@! TO.N,GND*
X122800000Y-71500001D03*
G04 #@! TO.P,K1,3,COM_1*
G04 #@! TO.N,Net-(J5-Pin_1)*
X122800000Y-83500001D03*
G04 #@! TO.P,K1,4,COIL_2*
G04 #@! TO.N,VBATT+*
X135000000Y-83500000D03*
G04 #@! TO.P,K1,5,COM_2*
G04 #@! TO.N,Net-(J5-Pin_2)*
X137000000Y-77500001D03*
G04 #@! TD*
D15*
G04 #@! TO.P,D3,1,K*
G04 #@! TO.N,VBATT+*
X143800000Y-85400000D03*
D16*
G04 #@! TO.P,D3,2,A*
G04 #@! TO.N,Net-(D3-A)*
X143800000Y-70160000D03*
G04 #@! TD*
D17*
G04 #@! TO.P,J2,1,Pin_1*
G04 #@! TO.N,Net-(IC1-IO9)*
X149700000Y-54960000D03*
D18*
G04 #@! TO.P,J2,2,Pin_2*
G04 #@! TO.N,GND*
X149700000Y-57500000D03*
G04 #@! TD*
D17*
G04 #@! TO.P,J5,1,Pin_1*
G04 #@! TO.N,Net-(J5-Pin_1)*
X116200000Y-80000000D03*
D18*
G04 #@! TO.P,J5,2,Pin_2*
G04 #@! TO.N,Net-(J5-Pin_2)*
X116200000Y-77460000D03*
G04 #@! TO.P,J5,3,Pin_3*
G04 #@! TO.N,unconnected-(J5-Pin_3-Pad3)*
X116200000Y-74920001D03*
G04 #@! TD*
D19*
G04 #@! TO.N,GND*
X154000000Y-85400000D03*
X124200000Y-49900000D03*
X138200000Y-49400000D03*
X154000000Y-86900000D03*
X133800000Y-49400000D03*
X139600000Y-49400000D03*
X134700000Y-45900000D03*
X134600000Y-42400000D03*
X134700000Y-47900000D03*
X159800000Y-83800000D03*
X141200000Y-49400000D03*
X138500000Y-42400000D03*
X159400000Y-49200000D03*
X141700000Y-48000000D03*
X123100000Y-41000000D03*
X142600000Y-42400000D03*
X141700000Y-45900000D03*
X122900000Y-52500000D03*
X142600000Y-46900000D03*
X159800000Y-86900000D03*
X136500000Y-42400000D03*
X135300000Y-49400000D03*
X141700000Y-44000000D03*
X160000000Y-57200000D03*
X142600000Y-49400000D03*
X154000000Y-83800000D03*
X146400000Y-50900000D03*
X152600000Y-75500000D03*
X140600000Y-42400000D03*
X159200000Y-56500000D03*
X156900000Y-82300000D03*
X139300000Y-57800000D03*
X155300000Y-82300000D03*
X142600000Y-44900000D03*
X153600000Y-77700000D03*
X136700000Y-49400000D03*
X158500000Y-82300000D03*
X155400000Y-45900000D03*
X134700000Y-43800000D03*
X159800000Y-85500000D03*
X159600000Y-48000000D03*
G04 #@! TO.N,VBATT+*
X127200000Y-71800000D03*
X128100000Y-82200000D03*
G04 #@! TO.N,+3.3V*
X124700000Y-65700000D03*
X140200000Y-68400000D03*
G04 #@! TO.N,+5V*
X155700000Y-54500000D03*
X160100000Y-55100000D03*
X155700000Y-58900000D03*
X160000000Y-50600000D03*
G04 #@! TO.N,Net-(D2-K)*
X158000000Y-63900000D03*
X153400000Y-63800000D03*
G04 #@! TO.N,/iButton*
X133600000Y-46900000D03*
X130000000Y-52200000D03*
G04 #@! TO.N,/Relay*
X131100000Y-46800000D03*
X131000000Y-49000000D03*
G04 #@! TO.N,/GREEN_LED*
X137200000Y-56200000D03*
X136900000Y-53000000D03*
G04 #@! TO.N,/G_BASE*
X136700000Y-62400000D03*
X138300000Y-60200000D03*
G04 #@! TD*
D20*
G04 #@! TO.N,VBATT+*
X127200000Y-71800000D02*
X127200000Y-81300000D01*
X127200000Y-81300000D02*
X128100000Y-82200000D01*
G04 #@! TO.N,+3.3V*
X124700000Y-65700000D02*
X127400000Y-68400000D01*
X127400000Y-68400000D02*
X140200000Y-68400000D01*
G04 #@! TO.N,+5V*
X155700000Y-54500000D02*
X155700000Y-58900000D01*
X160000000Y-55000000D02*
X160100000Y-55100000D01*
X160000000Y-50600000D02*
X160000000Y-55000000D01*
D21*
G04 #@! TO.N,Net-(D2-K)*
X158000000Y-63900000D02*
X153500000Y-63900000D01*
D22*
X158000000Y-63900000D02*
X157900000Y-63800000D01*
D21*
X153500000Y-63900000D02*
X153400000Y-63800000D01*
G04 #@! TO.N,/iButton*
X132500000Y-49700000D02*
X130000000Y-52200000D01*
X132500000Y-48900000D02*
X132500000Y-49700000D01*
X133600000Y-46900000D02*
X133600000Y-47800000D01*
X133600000Y-47800000D02*
X132500000Y-48900000D01*
G04 #@! TO.N,/Relay*
X131100000Y-48900000D02*
X131000000Y-49000000D01*
X131100000Y-46800000D02*
X131100000Y-48900000D01*
G04 #@! TO.N,/GREEN_LED*
X136900000Y-55900000D02*
X136900000Y-53000000D01*
X137200000Y-56200000D02*
X136900000Y-55900000D01*
G04 #@! TO.N,/G_BASE*
X138300000Y-60200000D02*
X136700000Y-61800000D01*
X136700000Y-61800000D02*
X136700000Y-62400000D01*
G04 #@! TD*
G04 #@! TA.AperFunction,Conductor*
G04 #@! TO.N,GND*
G36*
X130393039Y-38624985D02*
G01*
X130438794Y-38677789D01*
X130450000Y-38729300D01*
X130450000Y-40500000D01*
X146050000Y-40500000D01*
X146050000Y-38729300D01*
X146069685Y-38662261D01*
X146122489Y-38616506D01*
X146174000Y-38605300D01*
X168970700Y-38605300D01*
X169037739Y-38624985D01*
X169083494Y-38677789D01*
X169094700Y-38729300D01*
X169094700Y-88320700D01*
X169075015Y-88387739D01*
X169022211Y-88433494D01*
X168970700Y-88444700D01*
X108379300Y-88444700D01*
X108312261Y-88425015D01*
X108266506Y-88372211D01*
X108255300Y-88320700D01*
X108255300Y-83499995D01*
X121319443Y-83499995D01*
X121319443Y-83500006D01*
X121339634Y-83743684D01*
X121339636Y-83743696D01*
X121399663Y-83980735D01*
X121497888Y-84204667D01*
X121631632Y-84409379D01*
X121797241Y-84589277D01*
X121797246Y-84589282D01*
X121990212Y-84739474D01*
X122205267Y-84855856D01*
X122205270Y-84855857D01*
X122436541Y-84935252D01*
X122436543Y-84935252D01*
X122436545Y-84935253D01*
X122677737Y-84975501D01*
X122677738Y-84975501D01*
X122922262Y-84975501D01*
X122922263Y-84975501D01*
X123163455Y-84935253D01*
X123394733Y-84855856D01*
X123609788Y-84739474D01*
X123802754Y-84589282D01*
X123968368Y-84409378D01*
X124102111Y-84204668D01*
X124200336Y-83980737D01*
X124260364Y-83743693D01*
X124264605Y-83692516D01*
X124280557Y-83500006D01*
X124280557Y-83499995D01*
X124280557Y-83499994D01*
X133519443Y-83499994D01*
X133519443Y-83500005D01*
X133539634Y-83743683D01*
X133539636Y-83743695D01*
X133599663Y-83980734D01*
X133697888Y-84204666D01*
X133831632Y-84409378D01*
X133997242Y-84589277D01*
X133997246Y-84589281D01*
X133997249Y-84589283D01*
X133997252Y-84589286D01*
X134190208Y-84739470D01*
X134190212Y-84739473D01*
X134405267Y-84855855D01*
X134405270Y-84855856D01*
X134636541Y-84935251D01*
X134636543Y-84935251D01*
X134636545Y-84935252D01*
X134877737Y-84975500D01*
X134877738Y-84975500D01*
X135122262Y-84975500D01*
X135122263Y-84975500D01*
X135363455Y-84935252D01*
X135594733Y-84855855D01*
X135809788Y-84739473D01*
X136002754Y-84589281D01*
X136168368Y-84409377D01*
X136302111Y-84204667D01*
X136400336Y-83980736D01*
X136458226Y-83752135D01*
X141699500Y-83752135D01*
X141699500Y-87047870D01*
X141699501Y-87047876D01*
X141705908Y-87107483D01*
X141756202Y-87242328D01*
X141756206Y-87242335D01*
X141842452Y-87357544D01*
X141842455Y-87357547D01*
X141957664Y-87443793D01*
X141957671Y-87443797D01*
X142092517Y-87494091D01*
X142092516Y-87494091D01*
X142099444Y-87494835D01*
X142152127Y-87500500D01*
X145447872Y-87500499D01*
X145507483Y-87494091D01*
X145642331Y-87443796D01*
X145757546Y-87357546D01*
X145843796Y-87242331D01*
X145894091Y-87107483D01*
X145900500Y-87047873D01*
X145900499Y-83799998D01*
X162424584Y-83799998D01*
X162424584Y-83800001D01*
X162444691Y-84081136D01*
X162504600Y-84356534D01*
X162603098Y-84620618D01*
X162603100Y-84620622D01*
X162738170Y-84867985D01*
X162738171Y-84867986D01*
X162738174Y-84867991D01*
X162907080Y-85093622D01*
X162907084Y-85093626D01*
X162907089Y-85093632D01*
X163106367Y-85292910D01*
X163106373Y-85292915D01*
X163106378Y-85292920D01*
X163332009Y-85461826D01*
X163332013Y-85461828D01*
X163332014Y-85461829D01*
X163579377Y-85596899D01*
X163579381Y-85596901D01*
X163579383Y-85596902D01*
X163843461Y-85695398D01*
X163843464Y-85695398D01*
X163843465Y-85695399D01*
X164118863Y-85755308D01*
X164118865Y-85755308D01*
X164118869Y-85755309D01*
X164368698Y-85773177D01*
X164399999Y-85775416D01*
X164400000Y-85775416D01*
X164400001Y-85775416D01*
X164428165Y-85773401D01*
X164681131Y-85755309D01*
X164956539Y-85695398D01*
X165220617Y-85596902D01*
X165467991Y-85461826D01*
X165693622Y-85292920D01*
X165892920Y-85093622D01*
X166061826Y-84867991D01*
X166196902Y-84620617D01*
X166295398Y-84356539D01*
X166355309Y-84081131D01*
X166375416Y-83800000D01*
X166355309Y-83518869D01*
X166351205Y-83500005D01*
X166295399Y-83243465D01*
X166229169Y-83065896D01*
X166196902Y-82979383D01*
X166153260Y-82899459D01*
X166061829Y-82732014D01*
X166061828Y-82732013D01*
X166061826Y-82732009D01*
X165892920Y-82506378D01*
X165892915Y-82506373D01*
X165892910Y-82506367D01*
X165693632Y-82307089D01*
X165693626Y-82307084D01*
X165693622Y-82307080D01*
X165467991Y-82138174D01*
X165467986Y-82138171D01*
X165467985Y-82138170D01*
X165220622Y-82003100D01*
X165220618Y-82003098D01*
X164956534Y-81904600D01*
X164681136Y-81844691D01*
X164400001Y-81824584D01*
X164399999Y-81824584D01*
X164118863Y-81844691D01*
X163843465Y-81904600D01*
X163579381Y-82003098D01*
X163579377Y-82003100D01*
X163332014Y-82138170D01*
X163332013Y-82138171D01*
X163106379Y-82307079D01*
X163106367Y-82307089D01*
X162907089Y-82506367D01*
X162907079Y-82506379D01*
X162738171Y-82732013D01*
X162738170Y-82732014D01*
X162603100Y-82979377D01*
X162603098Y-82979381D01*
X162504600Y-83243465D01*
X162444691Y-83518863D01*
X162424584Y-83799998D01*
X145900499Y-83799998D01*
X145900499Y-83752128D01*
X145894091Y-83692517D01*
X145843796Y-83557669D01*
X145843795Y-83557668D01*
X145843793Y-83557664D01*
X145757547Y-83442455D01*
X145757544Y-83442452D01*
X145642335Y-83356206D01*
X145642328Y-83356202D01*
X145507482Y-83305908D01*
X145507483Y-83305908D01*
X145447883Y-83299501D01*
X145447881Y-83299500D01*
X145447873Y-83299500D01*
X145447864Y-83299500D01*
X142152129Y-83299500D01*
X142152123Y-83299501D01*
X142092516Y-83305908D01*
X141957671Y-83356202D01*
X141957664Y-83356206D01*
X141842455Y-83442452D01*
X141842452Y-83442455D01*
X141756206Y-83557664D01*
X141756202Y-83557671D01*
X141705908Y-83692517D01*
X141700406Y-83743696D01*
X141699501Y-83752123D01*
X141699500Y-83752135D01*
X136458226Y-83752135D01*
X136460364Y-83743692D01*
X136464605Y-83692516D01*
X136480557Y-83500005D01*
X136480557Y-83499994D01*
X136460365Y-83256316D01*
X136460363Y-83256304D01*
X136420908Y-83100500D01*
X136400336Y-83019264D01*
X136302111Y-82795333D01*
X136168368Y-82590623D01*
X136168367Y-82590621D01*
X136002757Y-82410722D01*
X136002747Y-82410713D01*
X135809791Y-82260529D01*
X135809787Y-82260526D01*
X135594734Y-82144145D01*
X135594729Y-82144143D01*
X135363458Y-82064748D01*
X135182561Y-82034562D01*
X135122263Y-82024500D01*
X134877737Y-82024500D01*
X134829498Y-82032549D01*
X134636541Y-82064748D01*
X134405270Y-82144143D01*
X134405265Y-82144145D01*
X134190212Y-82260526D01*
X134190208Y-82260529D01*
X133997252Y-82410713D01*
X133997242Y-82410722D01*
X133831632Y-82590621D01*
X133697888Y-82795333D01*
X133599663Y-83019265D01*
X133539636Y-83256304D01*
X133539634Y-83256316D01*
X133519443Y-83499994D01*
X124280557Y-83499994D01*
X124260365Y-83256317D01*
X124260363Y-83256308D01*
X124200336Y-83019265D01*
X124102111Y-82795334D01*
X123968368Y-82590624D01*
X123968367Y-82590622D01*
X123802757Y-82410723D01*
X123802747Y-82410714D01*
X123609791Y-82260530D01*
X123609787Y-82260527D01*
X123394734Y-82144146D01*
X123394729Y-82144144D01*
X123163458Y-82064749D01*
X122982561Y-82034563D01*
X122922263Y-82024501D01*
X122677737Y-82024501D01*
X122629498Y-82032550D01*
X122436541Y-82064749D01*
X122205270Y-82144144D01*
X122205265Y-82144146D01*
X121990212Y-82260527D01*
X121990208Y-82260530D01*
X121797252Y-82410714D01*
X121797242Y-82410723D01*
X121631632Y-82590622D01*
X121497888Y-82795334D01*
X121399663Y-83019266D01*
X121339636Y-83256305D01*
X121339634Y-83256317D01*
X121319443Y-83499995D01*
X108255300Y-83499995D01*
X108255300Y-74920000D01*
X114844341Y-74920000D01*
X114844341Y-74920001D01*
X114864936Y-75155404D01*
X114864938Y-75155414D01*
X114926094Y-75383656D01*
X114926096Y-75383660D01*
X114926097Y-75383664D01*
X115025965Y-75597831D01*
X115025967Y-75597835D01*
X115161501Y-75791396D01*
X115161506Y-75791403D01*
X115328597Y-75958494D01*
X115328603Y-75958499D01*
X115514157Y-76088425D01*
X115557782Y-76143002D01*
X115564976Y-76212500D01*
X115533453Y-76274855D01*
X115514158Y-76291575D01*
X115328594Y-76421508D01*
X115161505Y-76588597D01*
X115025965Y-76782169D01*
X115025964Y-76782171D01*
X114926098Y-76996335D01*
X114926094Y-76996344D01*
X114864938Y-77224586D01*
X114864936Y-77224596D01*
X114844341Y-77459999D01*
X114844341Y-77460000D01*
X114864936Y-77695403D01*
X114864938Y-77695413D01*
X114926094Y-77923655D01*
X114926096Y-77923659D01*
X114926097Y-77923663D01*
X115025965Y-78137830D01*
X115025967Y-78137834D01*
X115134281Y-78292521D01*
X115161501Y-78331396D01*
X115161506Y-78331402D01*
X115283430Y-78453326D01*
X115316915Y-78514649D01*
X115311931Y-78584341D01*
X115270059Y-78640274D01*
X115239083Y-78657189D01*
X115107669Y-78706203D01*
X115107664Y-78706206D01*
X114992455Y-78792452D01*
X114992452Y-78792455D01*
X114906206Y-78907664D01*
X114906202Y-78907671D01*
X114855908Y-79042517D01*
X114849501Y-79102116D01*
X114849501Y-79102123D01*
X114849500Y-79102135D01*
X114849500Y-80897870D01*
X114849501Y-80897876D01*
X114855908Y-80957483D01*
X114906202Y-81092328D01*
X114906206Y-81092335D01*
X114992452Y-81207544D01*
X114992455Y-81207547D01*
X115107664Y-81293793D01*
X115107671Y-81293797D01*
X115242517Y-81344091D01*
X115242516Y-81344091D01*
X115249444Y-81344835D01*
X115302127Y-81350500D01*
X117097872Y-81350499D01*
X117157483Y-81344091D01*
X117292331Y-81293796D01*
X117407546Y-81207546D01*
X117493796Y-81092331D01*
X117544091Y-80957483D01*
X117550500Y-80897873D01*
X117550499Y-79102128D01*
X117544091Y-79042517D01*
X117493796Y-78907669D01*
X117493795Y-78907668D01*
X117493793Y-78907664D01*
X117407547Y-78792455D01*
X117407544Y-78792452D01*
X117292335Y-78706206D01*
X117292328Y-78706202D01*
X117160917Y-78657189D01*
X117104983Y-78615318D01*
X117080566Y-78549853D01*
X117095418Y-78481580D01*
X117116563Y-78453332D01*
X117238495Y-78331401D01*
X117374035Y-78137830D01*
X117473903Y-77923663D01*
X117535063Y-77695408D01*
X117555659Y-77460000D01*
X117535063Y-77224592D01*
X117480047Y-77019266D01*
X117473905Y-76996344D01*
X117473904Y-76996343D01*
X117473903Y-76996337D01*
X117374035Y-76782171D01*
X117238495Y-76588599D01*
X117238494Y-76588597D01*
X117071402Y-76421506D01*
X117071401Y-76421505D01*
X116885842Y-76291575D01*
X116842218Y-76236998D01*
X116835025Y-76167499D01*
X116866547Y-76105145D01*
X116885843Y-76088425D01*
X116977136Y-76024501D01*
X117071401Y-75958496D01*
X117238495Y-75791402D01*
X117374035Y-75597831D01*
X117473903Y-75383664D01*
X117535063Y-75155409D01*
X117555659Y-74920001D01*
X117535063Y-74684593D01*
X117473903Y-74456338D01*
X117374035Y-74242172D01*
X117238495Y-74048600D01*
X117238494Y-74048598D01*
X117071402Y-73881507D01*
X117071395Y-73881502D01*
X116877834Y-73745968D01*
X116877830Y-73745966D01*
X116877828Y-73745965D01*
X116663663Y-73646098D01*
X116663659Y-73646097D01*
X116663655Y-73646095D01*
X116435413Y-73584939D01*
X116435403Y-73584937D01*
X116200001Y-73564342D01*
X116199999Y-73564342D01*
X115964596Y-73584937D01*
X115964586Y-73584939D01*
X115736344Y-73646095D01*
X115736335Y-73646099D01*
X115522171Y-73745965D01*
X115522169Y-73745966D01*
X115328597Y-73881506D01*
X115161505Y-74048598D01*
X115025965Y-74242170D01*
X115025964Y-74242172D01*
X114926098Y-74456336D01*
X114926094Y-74456345D01*
X114864938Y-74684587D01*
X114864936Y-74684597D01*
X114844341Y-74920000D01*
X108255300Y-74920000D01*
X108255300Y-71711304D01*
X126299500Y-71711304D01*
X126299500Y-81388696D01*
X126334103Y-81562658D01*
X126334105Y-81562666D01*
X126365173Y-81637670D01*
X126365173Y-81637671D01*
X126401984Y-81726542D01*
X126401989Y-81726551D01*
X126415583Y-81746895D01*
X126415585Y-81746898D01*
X126415587Y-81746900D01*
X126471964Y-81831276D01*
X126500537Y-81874038D01*
X127525958Y-82899459D01*
X127525965Y-82899465D01*
X127673451Y-82998011D01*
X127673452Y-82998011D01*
X127673453Y-82998012D01*
X127837334Y-83065895D01*
X128011303Y-83100499D01*
X128011307Y-83100500D01*
X128011308Y-83100500D01*
X128188693Y-83100500D01*
X128188694Y-83100499D01*
X128362666Y-83065895D01*
X128526546Y-82998012D01*
X128674036Y-82899464D01*
X128799464Y-82774036D01*
X128898012Y-82626546D01*
X128965895Y-82462666D01*
X129000500Y-82288692D01*
X129000500Y-82111308D01*
X128965895Y-81937334D01*
X128898012Y-81773453D01*
X128880271Y-81746902D01*
X128799465Y-81625965D01*
X128799459Y-81625958D01*
X128136819Y-80963318D01*
X128103334Y-80901995D01*
X128100500Y-80875637D01*
X128100500Y-77499995D01*
X135519443Y-77499995D01*
X135519443Y-77500006D01*
X135539634Y-77743684D01*
X135539636Y-77743696D01*
X135599663Y-77980735D01*
X135697888Y-78204667D01*
X135831632Y-78409379D01*
X135997242Y-78589278D01*
X135997252Y-78589287D01*
X136147467Y-78706204D01*
X136190212Y-78739474D01*
X136405267Y-78855856D01*
X136405270Y-78855857D01*
X136636541Y-78935252D01*
X136636543Y-78935252D01*
X136636545Y-78935253D01*
X136877737Y-78975501D01*
X136877738Y-78975501D01*
X137122262Y-78975501D01*
X137122263Y-78975501D01*
X137363455Y-78935253D01*
X137594733Y-78855856D01*
X137809788Y-78739474D01*
X138002754Y-78589282D01*
X138168368Y-78409378D01*
X138302111Y-78204668D01*
X138400336Y-77980737D01*
X138460364Y-77743693D01*
X138464365Y-77695408D01*
X138480557Y-77500006D01*
X138480557Y-77499995D01*
X138460365Y-77256317D01*
X138460363Y-77256305D01*
X138400336Y-77019266D01*
X138390278Y-76996337D01*
X138302111Y-76795334D01*
X138168368Y-76590624D01*
X138168367Y-76590622D01*
X138002757Y-76410723D01*
X138002747Y-76410714D01*
X137809791Y-76260530D01*
X137809787Y-76260527D01*
X137594734Y-76144146D01*
X137594729Y-76144144D01*
X137363458Y-76064749D01*
X137182561Y-76034563D01*
X137122263Y-76024501D01*
X136877737Y-76024501D01*
X136829498Y-76032550D01*
X136636541Y-76064749D01*
X136405270Y-76144144D01*
X136405265Y-76144146D01*
X136190212Y-76260527D01*
X136190208Y-76260530D01*
X135997252Y-76410714D01*
X135997242Y-76410723D01*
X135831632Y-76590622D01*
X135697888Y-76795334D01*
X135599663Y-77019266D01*
X135539636Y-77256305D01*
X135539634Y-77256317D01*
X135519443Y-77499995D01*
X128100500Y-77499995D01*
X128100500Y-71711306D01*
X128100499Y-71711304D01*
X128065896Y-71537341D01*
X128065893Y-71537332D01*
X128050428Y-71499995D01*
X133519443Y-71499995D01*
X133519443Y-71500006D01*
X133539634Y-71743684D01*
X133539636Y-71743696D01*
X133599663Y-71980735D01*
X133697888Y-72204667D01*
X133831632Y-72409379D01*
X133997242Y-72589278D01*
X133997246Y-72589282D01*
X134190212Y-72739474D01*
X134405267Y-72855856D01*
X134405270Y-72855857D01*
X134636541Y-72935252D01*
X134636543Y-72935252D01*
X134636545Y-72935253D01*
X134877737Y-72975501D01*
X134877738Y-72975501D01*
X135122262Y-72975501D01*
X135122263Y-72975501D01*
X135363455Y-72935253D01*
X135594733Y-72855856D01*
X135809788Y-72739474D01*
X136002754Y-72589282D01*
X136168368Y-72409378D01*
X136302111Y-72204668D01*
X136400336Y-71980737D01*
X136460364Y-71743693D01*
X136460365Y-71743684D01*
X136480557Y-71500006D01*
X136480557Y-71499995D01*
X136460365Y-71256317D01*
X136460363Y-71256305D01*
X136400336Y-71019266D01*
X136392758Y-71001990D01*
X136302111Y-70795334D01*
X136168368Y-70590624D01*
X136168367Y-70590622D01*
X136002757Y-70410723D01*
X136002747Y-70410714D01*
X135809791Y-70260530D01*
X135809787Y-70260527D01*
X135624030Y-70160000D01*
X141694592Y-70160000D01*
X141714201Y-70446680D01*
X141772666Y-70728034D01*
X141772667Y-70728037D01*
X141868894Y-70998793D01*
X141868893Y-70998793D01*
X142001098Y-71253935D01*
X142166812Y-71488700D01*
X142212232Y-71537332D01*
X142362947Y-71698708D01*
X142585853Y-71880055D01*
X142751413Y-71980735D01*
X142831382Y-72029365D01*
X143018237Y-72110526D01*
X143094942Y-72143844D01*
X143371642Y-72221371D01*
X143621920Y-72255771D01*
X143656321Y-72260500D01*
X143656322Y-72260500D01*
X143943679Y-72260500D01*
X143974370Y-72256281D01*
X144228358Y-72221371D01*
X144505058Y-72143844D01*
X144618015Y-72094779D01*
X144768617Y-72029365D01*
X144768620Y-72029363D01*
X144768625Y-72029361D01*
X145014147Y-71880055D01*
X145237053Y-71698708D01*
X145433189Y-71488698D01*
X145598901Y-71253936D01*
X145731104Y-70998797D01*
X145827334Y-70728032D01*
X145885798Y-70446686D01*
X145905408Y-70160000D01*
X145885798Y-69873314D01*
X145827334Y-69591968D01*
X145731105Y-69321206D01*
X145731106Y-69321206D01*
X145598901Y-69066064D01*
X145433187Y-68831299D01*
X145354554Y-68747105D01*
X145237053Y-68621292D01*
X145014147Y-68439945D01*
X145014146Y-68439944D01*
X144768617Y-68290634D01*
X144505063Y-68176158D01*
X144505061Y-68176157D01*
X144505058Y-68176156D01*
X144366492Y-68137332D01*
X144228364Y-68098630D01*
X144228359Y-68098629D01*
X144228358Y-68098629D01*
X144086018Y-68079064D01*
X143943679Y-68059500D01*
X143943678Y-68059500D01*
X143656322Y-68059500D01*
X143656321Y-68059500D01*
X143371642Y-68098629D01*
X143371635Y-68098630D01*
X143163861Y-68156845D01*
X143094942Y-68176156D01*
X143094939Y-68176156D01*
X143094936Y-68176158D01*
X143094935Y-68176158D01*
X142831382Y-68290634D01*
X142585853Y-68439944D01*
X142362950Y-68621289D01*
X142166812Y-68831299D01*
X142001098Y-69066064D01*
X141868894Y-69321206D01*
X141772667Y-69591962D01*
X141772666Y-69591965D01*
X141714201Y-69873319D01*
X141694592Y-70160000D01*
X135624030Y-70160000D01*
X135594734Y-70144146D01*
X135594729Y-70144144D01*
X135363458Y-70064749D01*
X135182561Y-70034563D01*
X135122263Y-70024501D01*
X134877737Y-70024501D01*
X134829498Y-70032550D01*
X134636541Y-70064749D01*
X134405270Y-70144144D01*
X134405265Y-70144146D01*
X134190212Y-70260527D01*
X134190208Y-70260530D01*
X133997252Y-70410714D01*
X133997242Y-70410723D01*
X133831632Y-70590622D01*
X133697888Y-70795334D01*
X133599663Y-71019266D01*
X133539636Y-71256305D01*
X133539634Y-71256317D01*
X133519443Y-71499995D01*
X128050428Y-71499995D01*
X127998016Y-71373459D01*
X127998009Y-71373446D01*
X127899464Y-71225965D01*
X127899461Y-71225961D01*
X127774038Y-71100538D01*
X127774034Y-71100535D01*
X127626553Y-71001990D01*
X127626540Y-71001983D01*
X127462667Y-70934106D01*
X127462658Y-70934103D01*
X127288694Y-70899500D01*
X127288691Y-70899500D01*
X127111309Y-70899500D01*
X127111306Y-70899500D01*
X126937341Y-70934103D01*
X126937332Y-70934106D01*
X126773459Y-71001983D01*
X126773446Y-71001990D01*
X126625965Y-71100535D01*
X126625961Y-71100538D01*
X126500538Y-71225961D01*
X126500535Y-71225965D01*
X126401990Y-71373446D01*
X126401983Y-71373459D01*
X126334106Y-71537332D01*
X126334103Y-71537341D01*
X126299500Y-71711304D01*
X108255300Y-71711304D01*
X108255300Y-65611303D01*
X123799500Y-65611303D01*
X123799500Y-65788696D01*
X123834103Y-65962658D01*
X123834105Y-65962666D01*
X123901988Y-66126548D01*
X124000534Y-66274034D01*
X124000540Y-66274041D01*
X126700536Y-68974035D01*
X126825965Y-69099464D01*
X126973453Y-69198013D01*
X127021452Y-69217895D01*
X127137334Y-69265895D01*
X127311304Y-69300499D01*
X127311308Y-69300500D01*
X127311309Y-69300500D01*
X140288693Y-69300500D01*
X140288694Y-69300499D01*
X140346682Y-69288964D01*
X140462658Y-69265896D01*
X140462661Y-69265894D01*
X140462666Y-69265894D01*
X140626547Y-69198013D01*
X140774035Y-69099464D01*
X140899464Y-68974035D01*
X140998013Y-68826547D01*
X141065894Y-68662666D01*
X141074125Y-68621289D01*
X141100499Y-68488695D01*
X141100500Y-68488693D01*
X141100500Y-68311306D01*
X141100499Y-68311304D01*
X141065896Y-68137341D01*
X141065893Y-68137332D01*
X140998016Y-67973459D01*
X140998009Y-67973446D01*
X140899464Y-67825965D01*
X140899461Y-67825961D01*
X140774038Y-67700538D01*
X140774034Y-67700535D01*
X140626553Y-67601990D01*
X140621177Y-67599117D01*
X140622220Y-67597163D01*
X140575559Y-67559553D01*
X140553501Y-67493257D01*
X140570786Y-67425559D01*
X140621928Y-67377954D01*
X140654631Y-67366956D01*
X140823069Y-67335470D01*
X141026210Y-67256772D01*
X141211432Y-67142088D01*
X141372427Y-66995322D01*
X141401046Y-66957423D01*
X141457151Y-66915789D01*
X141526863Y-66911096D01*
X141588046Y-66944837D01*
X141598952Y-66957423D01*
X141627573Y-66995323D01*
X141788568Y-67142089D01*
X141788575Y-67142093D01*
X141788576Y-67142094D01*
X141973786Y-67256771D01*
X141973792Y-67256774D01*
X141981792Y-67259873D01*
X142176931Y-67335471D01*
X142391074Y-67375501D01*
X142391076Y-67375501D01*
X142608924Y-67375501D01*
X142608926Y-67375501D01*
X142823069Y-67335471D01*
X143026210Y-67256773D01*
X143211432Y-67142089D01*
X143372427Y-66995323D01*
X143503712Y-66821473D01*
X143600817Y-66626460D01*
X143660435Y-66416924D01*
X143680536Y-66200001D01*
X143660435Y-65983078D01*
X143600817Y-65773542D01*
X143503712Y-65578529D01*
X143422250Y-65470655D01*
X143397559Y-65405297D01*
X143412124Y-65336962D01*
X143446891Y-65296667D01*
X143532546Y-65232546D01*
X143618796Y-65117331D01*
X143669091Y-64982483D01*
X143675500Y-64922873D01*
X143675499Y-63800000D01*
X152513644Y-63800000D01*
X152533013Y-63984286D01*
X152533014Y-63984288D01*
X152590274Y-64160514D01*
X152648009Y-64260514D01*
X152682923Y-64320987D01*
X152715385Y-64357040D01*
X152806906Y-64458686D01*
X152806909Y-64458688D01*
X152806912Y-64458691D01*
X152933276Y-64550500D01*
X152956822Y-64567607D01*
X153126095Y-64642973D01*
X153126098Y-64642973D01*
X153126101Y-64642975D01*
X153307351Y-64681500D01*
X153492649Y-64681500D01*
X153673899Y-64642975D01*
X153673902Y-64642973D01*
X153673904Y-64642973D01*
X153710994Y-64626459D01*
X153843178Y-64567607D01*
X153843183Y-64567602D01*
X153844041Y-64567109D01*
X153844682Y-64566937D01*
X153849114Y-64564964D01*
X153849426Y-64565666D01*
X153906034Y-64550500D01*
X157355348Y-64550500D01*
X157422387Y-64570185D01*
X157428233Y-64574182D01*
X157556817Y-64667604D01*
X157556818Y-64667604D01*
X157556822Y-64667607D01*
X157658099Y-64712698D01*
X157726095Y-64742973D01*
X157726098Y-64742973D01*
X157726101Y-64742975D01*
X157907351Y-64781500D01*
X158092649Y-64781500D01*
X158273899Y-64742975D01*
X158273902Y-64742973D01*
X158273904Y-64742973D01*
X158330922Y-64717586D01*
X158443178Y-64667607D01*
X158593088Y-64558691D01*
X158600464Y-64550500D01*
X158619951Y-64528855D01*
X158717077Y-64420987D01*
X158809726Y-64260513D01*
X158866987Y-64084284D01*
X158886356Y-63900000D01*
X158866987Y-63715716D01*
X158809726Y-63539487D01*
X158717077Y-63379013D01*
X158643637Y-63297449D01*
X158593093Y-63241313D01*
X158593090Y-63241311D01*
X158593089Y-63241310D01*
X158593088Y-63241309D01*
X158471566Y-63153018D01*
X158443177Y-63132392D01*
X158273904Y-63057026D01*
X158273896Y-63057024D01*
X158092649Y-63018500D01*
X157907351Y-63018500D01*
X157726104Y-63057024D01*
X157726097Y-63057026D01*
X157641455Y-63094710D01*
X157638476Y-63095990D01*
X157544508Y-63134914D01*
X157495811Y-63167452D01*
X157421584Y-63217048D01*
X157421582Y-63217049D01*
X157421579Y-63217052D01*
X157416869Y-63220917D01*
X157415140Y-63218810D01*
X157364127Y-63246666D01*
X157337769Y-63249500D01*
X154145711Y-63249500D01*
X154078672Y-63229815D01*
X154053566Y-63208477D01*
X153993088Y-63141309D01*
X153879367Y-63058686D01*
X153843177Y-63032392D01*
X153673904Y-62957026D01*
X153673896Y-62957024D01*
X153492649Y-62918500D01*
X153307351Y-62918500D01*
X153126103Y-62957024D01*
X153126095Y-62957026D01*
X152956822Y-63032392D01*
X152806909Y-63141311D01*
X152806906Y-63141313D01*
X152682922Y-63279014D01*
X152590274Y-63439485D01*
X152533014Y-63615711D01*
X152533013Y-63615713D01*
X152513644Y-63800000D01*
X143675499Y-63800000D01*
X143675499Y-63477128D01*
X143669091Y-63417517D01*
X143664302Y-63404678D01*
X143618797Y-63282671D01*
X143618793Y-63282664D01*
X143532547Y-63167455D01*
X143532544Y-63167452D01*
X143417335Y-63081206D01*
X143417328Y-63081202D01*
X143282482Y-63030908D01*
X143282483Y-63030908D01*
X143222883Y-63024501D01*
X143222881Y-63024500D01*
X143222873Y-63024500D01*
X143222864Y-63024500D01*
X141777129Y-63024500D01*
X141777123Y-63024501D01*
X141717516Y-63030908D01*
X141582671Y-63081202D01*
X141582664Y-63081206D01*
X141467455Y-63167452D01*
X141405214Y-63250595D01*
X141349280Y-63292465D01*
X141279588Y-63297449D01*
X141222410Y-63267921D01*
X141211431Y-63257912D01*
X141211428Y-63257910D01*
X141211427Y-63257909D01*
X141026212Y-63143229D01*
X141026206Y-63143226D01*
X140941112Y-63110260D01*
X140823068Y-63064530D01*
X140608925Y-63024500D01*
X140391073Y-63024500D01*
X140176930Y-63064530D01*
X140136505Y-63080191D01*
X139973791Y-63143226D01*
X139973785Y-63143229D01*
X139788575Y-63257906D01*
X139788565Y-63257913D01*
X139627572Y-63404676D01*
X139598952Y-63442576D01*
X139542843Y-63484211D01*
X139473131Y-63488902D01*
X139411949Y-63455159D01*
X139401046Y-63442576D01*
X139372427Y-63404678D01*
X139211432Y-63257912D01*
X139211428Y-63257909D01*
X139211423Y-63257906D01*
X139026213Y-63143229D01*
X139026207Y-63143226D01*
X138941113Y-63110260D01*
X138823069Y-63064530D01*
X138608926Y-63024500D01*
X138391074Y-63024500D01*
X138176931Y-63064530D01*
X138136506Y-63080191D01*
X137973792Y-63143226D01*
X137973786Y-63143229D01*
X137788576Y-63257906D01*
X137788566Y-63257913D01*
X137627573Y-63404676D01*
X137598953Y-63442576D01*
X137542844Y-63484211D01*
X137473132Y-63488902D01*
X137411950Y-63455159D01*
X137401047Y-63442576D01*
X137372426Y-63404676D01*
X137238487Y-63282576D01*
X137202206Y-63222865D01*
X137203966Y-63153018D01*
X137243209Y-63095210D01*
X137249140Y-63090621D01*
X137293088Y-63058691D01*
X137294588Y-63057026D01*
X137343530Y-63002669D01*
X137417077Y-62920987D01*
X137509726Y-62760513D01*
X137566987Y-62584284D01*
X137586356Y-62400000D01*
X137566987Y-62215716D01*
X137509726Y-62039487D01*
X137509725Y-62039485D01*
X137509725Y-62039484D01*
X137507083Y-62033549D01*
X137508303Y-62033005D01*
X137493513Y-61972029D01*
X137516367Y-61906003D01*
X137529685Y-61890259D01*
X138302127Y-61117819D01*
X138363450Y-61084334D01*
X138389808Y-61081500D01*
X138392649Y-61081500D01*
X138573899Y-61042975D01*
X138573902Y-61042973D01*
X138573904Y-61042973D01*
X138630922Y-61017586D01*
X138743178Y-60967607D01*
X138893088Y-60858691D01*
X139017077Y-60720987D01*
X139109726Y-60560513D01*
X139166987Y-60384284D01*
X139186356Y-60200000D01*
X139166987Y-60015716D01*
X139109726Y-59839487D01*
X139017077Y-59679013D01*
X138945451Y-59599464D01*
X138893093Y-59541313D01*
X138893090Y-59541311D01*
X138893089Y-59541310D01*
X138893088Y-59541309D01*
X138743178Y-59432393D01*
X138743177Y-59432392D01*
X138573904Y-59357026D01*
X138573896Y-59357024D01*
X138392649Y-59318500D01*
X138207351Y-59318500D01*
X138026103Y-59357024D01*
X138026095Y-59357026D01*
X137856822Y-59432392D01*
X137706909Y-59541311D01*
X137706906Y-59541313D01*
X137582922Y-59679014D01*
X137490274Y-59839485D01*
X137433014Y-60015711D01*
X137433013Y-60015714D01*
X137422179Y-60118794D01*
X137395594Y-60183409D01*
X137386539Y-60193513D01*
X136194726Y-61385326D01*
X136123534Y-61491874D01*
X136074499Y-61610255D01*
X136074497Y-61610261D01*
X136049500Y-61735928D01*
X136049500Y-61757472D01*
X136029815Y-61824511D01*
X136017651Y-61840443D01*
X135982924Y-61879011D01*
X135982920Y-61879016D01*
X135890274Y-62039485D01*
X135833014Y-62215711D01*
X135833013Y-62215713D01*
X135813644Y-62400000D01*
X135833013Y-62584286D01*
X135833014Y-62584288D01*
X135890274Y-62760514D01*
X135963343Y-62887074D01*
X135982923Y-62920987D01*
X136006452Y-62947119D01*
X136009085Y-62950043D01*
X136039315Y-63013035D01*
X136030689Y-63082370D01*
X135985948Y-63136035D01*
X135977186Y-63141125D01*
X135788576Y-63257906D01*
X135788566Y-63257913D01*
X135627573Y-63404676D01*
X135598953Y-63442576D01*
X135542844Y-63484211D01*
X135473132Y-63488902D01*
X135411950Y-63455159D01*
X135401047Y-63442576D01*
X135372426Y-63404676D01*
X135211433Y-63257913D01*
X135211423Y-63257906D01*
X135026213Y-63143229D01*
X135026207Y-63143226D01*
X134941113Y-63110260D01*
X134823069Y-63064530D01*
X134608926Y-63024500D01*
X134391074Y-63024500D01*
X134176931Y-63064530D01*
X134136506Y-63080191D01*
X133973792Y-63143226D01*
X133973786Y-63143229D01*
X133788576Y-63257906D01*
X133788566Y-63257913D01*
X133627573Y-63404676D01*
X133598953Y-63442576D01*
X133542844Y-63484211D01*
X133473132Y-63488902D01*
X133411950Y-63455159D01*
X133401047Y-63442576D01*
X133372426Y-63404676D01*
X133211433Y-63257913D01*
X133211423Y-63257906D01*
X133026213Y-63143229D01*
X133026207Y-63143226D01*
X132941113Y-63110260D01*
X132823069Y-63064530D01*
X132608926Y-63024500D01*
X132391074Y-63024500D01*
X132176931Y-63064530D01*
X132136506Y-63080191D01*
X131973792Y-63143226D01*
X131973786Y-63143229D01*
X131788576Y-63257906D01*
X131788566Y-63257913D01*
X131627574Y-63404676D01*
X131496288Y-63578527D01*
X131399184Y-63773537D01*
X131339564Y-63983081D01*
X131319464Y-64199999D01*
X131319464Y-64200000D01*
X131339564Y-64416918D01*
X131339564Y-64416920D01*
X131339565Y-64416923D01*
X131391746Y-64600321D01*
X131399184Y-64626462D01*
X131426590Y-64681500D01*
X131496288Y-64821472D01*
X131617877Y-64982483D01*
X131627574Y-64995323D01*
X131654981Y-65020308D01*
X131788568Y-65142088D01*
X131788575Y-65142092D01*
X131788576Y-65142093D01*
X131973786Y-65256770D01*
X131973792Y-65256773D01*
X131996664Y-65265633D01*
X132176931Y-65335470D01*
X132391074Y-65375500D01*
X132391076Y-65375500D01*
X132608924Y-65375500D01*
X132608926Y-65375500D01*
X132823069Y-65335470D01*
X133026210Y-65256772D01*
X133211432Y-65142088D01*
X133372427Y-64995322D01*
X133401047Y-64957422D01*
X133457153Y-64915787D01*
X133526865Y-64911094D01*
X133588048Y-64944836D01*
X133598946Y-64957414D01*
X133627573Y-64995322D01*
X133627576Y-64995325D01*
X133627578Y-64995327D01*
X133654981Y-65020308D01*
X133788568Y-65142088D01*
X133788575Y-65142092D01*
X133788576Y-65142093D01*
X133973786Y-65256770D01*
X133973792Y-65256773D01*
X133996664Y-65265633D01*
X134176931Y-65335470D01*
X134391074Y-65375500D01*
X134391076Y-65375500D01*
X134608924Y-65375500D01*
X134608926Y-65375500D01*
X134823069Y-65335470D01*
X135026210Y-65256772D01*
X135211432Y-65142088D01*
X135372427Y-64995322D01*
X135401047Y-64957422D01*
X135457153Y-64915787D01*
X135526865Y-64911094D01*
X135588048Y-64944836D01*
X135598946Y-64957414D01*
X135627573Y-64995322D01*
X135627576Y-64995325D01*
X135627578Y-64995327D01*
X135654981Y-65020308D01*
X135788568Y-65142088D01*
X135788575Y-65142092D01*
X135788576Y-65142093D01*
X135973786Y-65256770D01*
X135973792Y-65256773D01*
X135996664Y-65265633D01*
X136176931Y-65335470D01*
X136391074Y-65375500D01*
X136391076Y-65375500D01*
X136608924Y-65375500D01*
X136608926Y-65375500D01*
X136823069Y-65335470D01*
X137026210Y-65256772D01*
X137211432Y-65142088D01*
X137372427Y-64995322D01*
X137401047Y-64957422D01*
X137457153Y-64915787D01*
X137526865Y-64911094D01*
X137588048Y-64944836D01*
X137598946Y-64957414D01*
X137627573Y-64995322D01*
X137627576Y-64995325D01*
X137627578Y-64995327D01*
X137751572Y-65108362D01*
X137787854Y-65168073D01*
X137786093Y-65237920D01*
X137751572Y-65291636D01*
X137627573Y-65404675D01*
X137496287Y-65578527D01*
X137399183Y-65773537D01*
X137399183Y-65773538D01*
X137399182Y-65773541D01*
X137345372Y-65962666D01*
X137339563Y-65983081D01*
X137319463Y-66199999D01*
X137319463Y-66200000D01*
X137339563Y-66416918D01*
X137339563Y-66416920D01*
X137339564Y-66416923D01*
X137399182Y-66626459D01*
X137399183Y-66626462D01*
X137496287Y-66821472D01*
X137627572Y-66995322D01*
X137788567Y-67142088D01*
X137788569Y-67142089D01*
X137788575Y-67142093D01*
X137973785Y-67256770D01*
X137973797Y-67256776D01*
X137981792Y-67259873D01*
X138037195Y-67302445D01*
X138060786Y-67368211D01*
X138045076Y-67436292D01*
X137995052Y-67485072D01*
X137937000Y-67499500D01*
X127824361Y-67499500D01*
X127757322Y-67479815D01*
X127736680Y-67463181D01*
X125274041Y-65000540D01*
X125274034Y-65000534D01*
X125126548Y-64901988D01*
X124962666Y-64834105D01*
X124962658Y-64834103D01*
X124788696Y-64799500D01*
X124788692Y-64799500D01*
X124611308Y-64799500D01*
X124611303Y-64799500D01*
X124437341Y-64834103D01*
X124437333Y-64834105D01*
X124273451Y-64901988D01*
X124125965Y-65000534D01*
X124125958Y-65000540D01*
X124000540Y-65125958D01*
X124000534Y-65125965D01*
X123901988Y-65273451D01*
X123834105Y-65437333D01*
X123834103Y-65437341D01*
X123799500Y-65611303D01*
X108255300Y-65611303D01*
X108255300Y-63549998D01*
X111007267Y-63549998D01*
X111007267Y-63550001D01*
X111027041Y-63826485D01*
X111085958Y-64097322D01*
X111085960Y-64097328D01*
X111085961Y-64097331D01*
X111124255Y-64200000D01*
X111182830Y-64357046D01*
X111315665Y-64600315D01*
X111315670Y-64600323D01*
X111481773Y-64822212D01*
X111481789Y-64822230D01*
X111677769Y-65018210D01*
X111677787Y-65018226D01*
X111899676Y-65184329D01*
X111899684Y-65184334D01*
X112142954Y-65317169D01*
X112142953Y-65317169D01*
X112142957Y-65317170D01*
X112142960Y-65317172D01*
X112402669Y-65414039D01*
X112402675Y-65414040D01*
X112402677Y-65414041D01*
X112673514Y-65472958D01*
X112673516Y-65472958D01*
X112673520Y-65472959D01*
X112919216Y-65490531D01*
X112949999Y-65492733D01*
X112950000Y-65492733D01*
X112950001Y-65492733D01*
X112977699Y-65490751D01*
X113226480Y-65472959D01*
X113390214Y-65437341D01*
X113497322Y-65414041D01*
X113497322Y-65414040D01*
X113497331Y-65414039D01*
X113757040Y-65317172D01*
X113757044Y-65317169D01*
X113757046Y-65317169D01*
X113902180Y-65237920D01*
X114000321Y-65184331D01*
X114222220Y-65018220D01*
X114418220Y-64822220D01*
X114584331Y-64600321D01*
X114661669Y-64458686D01*
X114717169Y-64357046D01*
X114717169Y-64357044D01*
X114717172Y-64357040D01*
X114814039Y-64097331D01*
X114872959Y-63826480D01*
X114892733Y-63550000D01*
X114872959Y-63273520D01*
X114869562Y-63257906D01*
X114814041Y-63002677D01*
X114814040Y-63002675D01*
X114814039Y-63002669D01*
X114717172Y-62742960D01*
X114717170Y-62742957D01*
X114717169Y-62742953D01*
X114584334Y-62499684D01*
X114584329Y-62499676D01*
X114418226Y-62277787D01*
X114418210Y-62277769D01*
X114222230Y-62081789D01*
X114222212Y-62081773D01*
X114000323Y-61915670D01*
X114000315Y-61915665D01*
X113757045Y-61782830D01*
X113757046Y-61782830D01*
X113631297Y-61735928D01*
X113497331Y-61685961D01*
X113497328Y-61685960D01*
X113497322Y-61685958D01*
X113226485Y-61627041D01*
X112950001Y-61607267D01*
X112949999Y-61607267D01*
X112673514Y-61627041D01*
X112402677Y-61685958D01*
X112142953Y-61782830D01*
X111899684Y-61915665D01*
X111899676Y-61915670D01*
X111677787Y-62081773D01*
X111677769Y-62081789D01*
X111481789Y-62277769D01*
X111481773Y-62277787D01*
X111315670Y-62499676D01*
X111315665Y-62499684D01*
X111182830Y-62742953D01*
X111085958Y-63002677D01*
X111027041Y-63273514D01*
X111007267Y-63549998D01*
X108255300Y-63549998D01*
X108255300Y-52200000D01*
X129113644Y-52200000D01*
X129133013Y-52384286D01*
X129133014Y-52384288D01*
X129190274Y-52560514D01*
X129235868Y-52639485D01*
X129282923Y-52720987D01*
X129326112Y-52768954D01*
X129406906Y-52858686D01*
X129406909Y-52858688D01*
X129406912Y-52858691D01*
X129556822Y-52967607D01*
X129726095Y-53042973D01*
X129726098Y-53042973D01*
X129726101Y-53042975D01*
X129907351Y-53081500D01*
X130092649Y-53081500D01*
X130273899Y-53042975D01*
X130273902Y-53042973D01*
X130273904Y-53042973D01*
X130370422Y-53000000D01*
X136013644Y-53000000D01*
X136033013Y-53184286D01*
X136033014Y-53184288D01*
X136090274Y-53360514D01*
X136182921Y-53520985D01*
X136217650Y-53559555D01*
X136247880Y-53622546D01*
X136249500Y-53642527D01*
X136249500Y-55964069D01*
X136259773Y-56015713D01*
X136259774Y-56015715D01*
X136259774Y-56015718D01*
X136274496Y-56089736D01*
X136274498Y-56089740D01*
X136274499Y-56089744D01*
X136304545Y-56162282D01*
X136313304Y-56196771D01*
X136333013Y-56384285D01*
X136333014Y-56384288D01*
X136390274Y-56560514D01*
X136463343Y-56687074D01*
X136482923Y-56720987D01*
X136526112Y-56768954D01*
X136606906Y-56858686D01*
X136606909Y-56858688D01*
X136606912Y-56858691D01*
X136756822Y-56967607D01*
X136926095Y-57042973D01*
X136926098Y-57042973D01*
X136926101Y-57042975D01*
X137107351Y-57081500D01*
X137292649Y-57081500D01*
X137473899Y-57042975D01*
X137473902Y-57042973D01*
X137473904Y-57042973D01*
X137530922Y-57017586D01*
X137643178Y-56967607D01*
X137793088Y-56858691D01*
X137917077Y-56720987D01*
X138009726Y-56560513D01*
X138066987Y-56384284D01*
X138086356Y-56200000D01*
X138066987Y-56015716D01*
X138009726Y-55839487D01*
X137917077Y-55679013D01*
X137868514Y-55625078D01*
X137793093Y-55541313D01*
X137793090Y-55541311D01*
X137793089Y-55541310D01*
X137793088Y-55541309D01*
X137643178Y-55432393D01*
X137624061Y-55423881D01*
X137570825Y-55378629D01*
X137550506Y-55311779D01*
X137550500Y-55310603D01*
X137550500Y-54062135D01*
X148349500Y-54062135D01*
X148349500Y-55857870D01*
X148349501Y-55857876D01*
X148355908Y-55917483D01*
X148406202Y-56052328D01*
X148406206Y-56052335D01*
X148492452Y-56167544D01*
X148492455Y-56167547D01*
X148607664Y-56253793D01*
X148607671Y-56253797D01*
X148742517Y-56304091D01*
X148742516Y-56304091D01*
X148749444Y-56304835D01*
X148802127Y-56310500D01*
X150597872Y-56310499D01*
X150657483Y-56304091D01*
X150792331Y-56253796D01*
X150907546Y-56167546D01*
X150993796Y-56052331D01*
X151044091Y-55917483D01*
X151050500Y-55857873D01*
X151050499Y-54411304D01*
X154799500Y-54411304D01*
X154799500Y-58988695D01*
X154834103Y-59162658D01*
X154834106Y-59162667D01*
X154901983Y-59326540D01*
X154901990Y-59326553D01*
X155000535Y-59474034D01*
X155000538Y-59474038D01*
X155125961Y-59599461D01*
X155125965Y-59599464D01*
X155273446Y-59698009D01*
X155273459Y-59698016D01*
X155396363Y-59748923D01*
X155437334Y-59765894D01*
X155437336Y-59765894D01*
X155437341Y-59765896D01*
X155611304Y-59800499D01*
X155611307Y-59800500D01*
X155611309Y-59800500D01*
X155788693Y-59800500D01*
X155788694Y-59800499D01*
X155846682Y-59788964D01*
X155962658Y-59765896D01*
X155962661Y-59765894D01*
X155962666Y-59765894D01*
X156126547Y-59698013D01*
X156274035Y-59599464D01*
X156399464Y-59474035D01*
X156498013Y-59326547D01*
X156565894Y-59162666D01*
X156600500Y-58988691D01*
X156600500Y-54411309D01*
X156600500Y-54411306D01*
X156600499Y-54411304D01*
X156565896Y-54237341D01*
X156565893Y-54237332D01*
X156498016Y-54073459D01*
X156498009Y-54073446D01*
X156399464Y-53925965D01*
X156399461Y-53925961D01*
X156274038Y-53800538D01*
X156274034Y-53800535D01*
X156126553Y-53701990D01*
X156126540Y-53701983D01*
X155962667Y-53634106D01*
X155962658Y-53634103D01*
X155788694Y-53599500D01*
X155788691Y-53599500D01*
X155611309Y-53599500D01*
X155611306Y-53599500D01*
X155437341Y-53634103D01*
X155437332Y-53634106D01*
X155273459Y-53701983D01*
X155273446Y-53701990D01*
X155125965Y-53800535D01*
X155125961Y-53800538D01*
X155000538Y-53925961D01*
X155000535Y-53925965D01*
X154901990Y-54073446D01*
X154901983Y-54073459D01*
X154834106Y-54237332D01*
X154834103Y-54237341D01*
X154799500Y-54411304D01*
X151050499Y-54411304D01*
X151050499Y-54062128D01*
X151044091Y-54002517D01*
X151015537Y-53925961D01*
X150993797Y-53867671D01*
X150993793Y-53867664D01*
X150907547Y-53752455D01*
X150907544Y-53752452D01*
X150792335Y-53666206D01*
X150792328Y-53666202D01*
X150657482Y-53615908D01*
X150657483Y-53615908D01*
X150597883Y-53609501D01*
X150597881Y-53609500D01*
X150597873Y-53609500D01*
X150597864Y-53609500D01*
X148802129Y-53609500D01*
X148802123Y-53609501D01*
X148742516Y-53615908D01*
X148607671Y-53666202D01*
X148607664Y-53666206D01*
X148492455Y-53752452D01*
X148492452Y-53752455D01*
X148406206Y-53867664D01*
X148406202Y-53867671D01*
X148355908Y-54002517D01*
X148349501Y-54062116D01*
X148349501Y-54062123D01*
X148349500Y-54062135D01*
X137550500Y-54062135D01*
X137550500Y-53642527D01*
X137570185Y-53575488D01*
X137582350Y-53559555D01*
X137617077Y-53520987D01*
X137709726Y-53360513D01*
X137766987Y-53184284D01*
X137786356Y-53000000D01*
X137766987Y-52815716D01*
X137709726Y-52639487D01*
X137617077Y-52479013D01*
X137568514Y-52425078D01*
X137493093Y-52341313D01*
X137493090Y-52341311D01*
X137493089Y-52341310D01*
X137493088Y-52341309D01*
X137393148Y-52268698D01*
X137343177Y-52232392D01*
X137173904Y-52157026D01*
X137173896Y-52157024D01*
X136992649Y-52118500D01*
X136807351Y-52118500D01*
X136626103Y-52157024D01*
X136626095Y-52157026D01*
X136456822Y-52232392D01*
X136306909Y-52341311D01*
X136306906Y-52341313D01*
X136182922Y-52479014D01*
X136090274Y-52639485D01*
X136033014Y-52815711D01*
X136033013Y-52815713D01*
X136013644Y-53000000D01*
X130370422Y-53000000D01*
X130443178Y-52967607D01*
X130593088Y-52858691D01*
X130717077Y-52720987D01*
X130809726Y-52560513D01*
X130866987Y-52384284D01*
X130877820Y-52281203D01*
X130904404Y-52216590D01*
X130913451Y-52206493D01*
X132608642Y-50511304D01*
X159099500Y-50511304D01*
X159099500Y-55088696D01*
X159134103Y-55262659D01*
X159134105Y-55262666D01*
X159157233Y-55318500D01*
X159201986Y-55426546D01*
X159201987Y-55426547D01*
X159245348Y-55491441D01*
X159245349Y-55491442D01*
X159300537Y-55574038D01*
X159300538Y-55574039D01*
X159525960Y-55799460D01*
X159525964Y-55799463D01*
X159673446Y-55898008D01*
X159673452Y-55898011D01*
X159673453Y-55898012D01*
X159837334Y-55965894D01*
X159837338Y-55965894D01*
X159837339Y-55965895D01*
X160011305Y-56000500D01*
X160011308Y-56000500D01*
X160188693Y-56000500D01*
X160188694Y-56000499D01*
X160362666Y-55965894D01*
X160526546Y-55898012D01*
X160674035Y-55799463D01*
X160745582Y-55727916D01*
X161964700Y-55727916D01*
X161964700Y-55852083D01*
X161988920Y-55973844D01*
X161988923Y-55973856D01*
X162036431Y-56088552D01*
X162036438Y-56088565D01*
X162105413Y-56191792D01*
X162105416Y-56191796D01*
X162193203Y-56279583D01*
X162193207Y-56279586D01*
X162296434Y-56348561D01*
X162296447Y-56348568D01*
X162382677Y-56384285D01*
X162411148Y-56396078D01*
X162532916Y-56420299D01*
X162532920Y-56420300D01*
X162532921Y-56420300D01*
X162657080Y-56420300D01*
X162657081Y-56420299D01*
X162778852Y-56396078D01*
X162893559Y-56348565D01*
X162996793Y-56279586D01*
X163084586Y-56191793D01*
X163153565Y-56088559D01*
X163201078Y-55973852D01*
X163225300Y-55852079D01*
X163225300Y-55727921D01*
X163201078Y-55606148D01*
X163174221Y-55541309D01*
X163153568Y-55491447D01*
X163153561Y-55491434D01*
X163084586Y-55388207D01*
X163084583Y-55388203D01*
X162996796Y-55300416D01*
X162996792Y-55300413D01*
X162893565Y-55231438D01*
X162893552Y-55231431D01*
X162778856Y-55183923D01*
X162778844Y-55183920D01*
X162657083Y-55159700D01*
X162657079Y-55159700D01*
X162532921Y-55159700D01*
X162532916Y-55159700D01*
X162411155Y-55183920D01*
X162411143Y-55183923D01*
X162296447Y-55231431D01*
X162296434Y-55231438D01*
X162193207Y-55300413D01*
X162193203Y-55300416D01*
X162105416Y-55388203D01*
X162105413Y-55388207D01*
X162036438Y-55491434D01*
X162036431Y-55491447D01*
X161988923Y-55606143D01*
X161988920Y-55606155D01*
X161964700Y-55727916D01*
X160745582Y-55727916D01*
X160799463Y-55674035D01*
X160898012Y-55526546D01*
X160965894Y-55362666D01*
X161000500Y-55188691D01*
X161000500Y-55011308D01*
X161000500Y-55011305D01*
X160965895Y-54837339D01*
X160965894Y-54837338D01*
X160965894Y-54837334D01*
X160965892Y-54837329D01*
X160909939Y-54702245D01*
X160900500Y-54654793D01*
X160900500Y-50511306D01*
X160900499Y-50511304D01*
X160865896Y-50337341D01*
X160865893Y-50337332D01*
X160798016Y-50173459D01*
X160798009Y-50173446D01*
X160699464Y-50025965D01*
X160699461Y-50025961D01*
X160621416Y-49947916D01*
X161964700Y-49947916D01*
X161964700Y-50072083D01*
X161988920Y-50193844D01*
X161988923Y-50193856D01*
X162036431Y-50308552D01*
X162036438Y-50308565D01*
X162105413Y-50411792D01*
X162105416Y-50411796D01*
X162193203Y-50499583D01*
X162193207Y-50499586D01*
X162296434Y-50568561D01*
X162296447Y-50568568D01*
X162411143Y-50616076D01*
X162411148Y-50616078D01*
X162532916Y-50640299D01*
X162532920Y-50640300D01*
X162532921Y-50640300D01*
X162657080Y-50640300D01*
X162657081Y-50640299D01*
X162778852Y-50616078D01*
X162893559Y-50568565D01*
X162996793Y-50499586D01*
X163084586Y-50411793D01*
X163153565Y-50308559D01*
X163201078Y-50193852D01*
X163225300Y-50072079D01*
X163225300Y-49947921D01*
X163201078Y-49826148D01*
X163201076Y-49826143D01*
X163153568Y-49711447D01*
X163153561Y-49711434D01*
X163084586Y-49608207D01*
X163084583Y-49608203D01*
X162996796Y-49520416D01*
X162996792Y-49520413D01*
X162893565Y-49451438D01*
X162893552Y-49451431D01*
X162778856Y-49403923D01*
X162778844Y-49403920D01*
X162657083Y-49379700D01*
X162657079Y-49379700D01*
X162532921Y-49379700D01*
X162532916Y-49379700D01*
X162411155Y-49403920D01*
X162411143Y-49403923D01*
X162296447Y-49451431D01*
X162296434Y-49451438D01*
X162193207Y-49520413D01*
X162193203Y-49520416D01*
X162105416Y-49608203D01*
X162105413Y-49608207D01*
X162036438Y-49711434D01*
X162036431Y-49711447D01*
X161988923Y-49826143D01*
X161988920Y-49826155D01*
X161964700Y-49947916D01*
X160621416Y-49947916D01*
X160574038Y-49900538D01*
X160574034Y-49900535D01*
X160426553Y-49801990D01*
X160426540Y-49801983D01*
X160262667Y-49734106D01*
X160262658Y-49734103D01*
X160088694Y-49699500D01*
X160088691Y-49699500D01*
X159911309Y-49699500D01*
X159911306Y-49699500D01*
X159737341Y-49734103D01*
X159737332Y-49734106D01*
X159573459Y-49801983D01*
X159573446Y-49801990D01*
X159425965Y-49900535D01*
X159425961Y-49900538D01*
X159300538Y-50025961D01*
X159300535Y-50025965D01*
X159201990Y-50173446D01*
X159201983Y-50173459D01*
X159134106Y-50337332D01*
X159134103Y-50337341D01*
X159099500Y-50511304D01*
X132608642Y-50511304D01*
X133005277Y-50114669D01*
X133076465Y-50008127D01*
X133125501Y-49889744D01*
X133138152Y-49826143D01*
X133142957Y-49801989D01*
X133142957Y-49801986D01*
X133150500Y-49764069D01*
X133150500Y-49220808D01*
X133170185Y-49153769D01*
X133186819Y-49133127D01*
X134105273Y-48214673D01*
X134105277Y-48214669D01*
X134176465Y-48108127D01*
X134225501Y-47989744D01*
X134250500Y-47864069D01*
X134250500Y-47542527D01*
X134270185Y-47475488D01*
X134282350Y-47459555D01*
X134312362Y-47426223D01*
X134317077Y-47420987D01*
X134409726Y-47260513D01*
X134466987Y-47084284D01*
X134486356Y-46900000D01*
X134466987Y-46715716D01*
X134409726Y-46539487D01*
X134317077Y-46379013D01*
X134227038Y-46279014D01*
X134193093Y-46241313D01*
X134193090Y-46241311D01*
X134193089Y-46241310D01*
X134193088Y-46241309D01*
X134093148Y-46168698D01*
X134043177Y-46132392D01*
X133873904Y-46057026D01*
X133873896Y-46057024D01*
X133692649Y-46018500D01*
X133507351Y-46018500D01*
X133326103Y-46057024D01*
X133326095Y-46057026D01*
X133156822Y-46132392D01*
X133006909Y-46241311D01*
X133006906Y-46241313D01*
X132882922Y-46379014D01*
X132790274Y-46539485D01*
X132733014Y-46715711D01*
X132733013Y-46715713D01*
X132713644Y-46900000D01*
X132733013Y-47084286D01*
X132733014Y-47084288D01*
X132790274Y-47260514D01*
X132825187Y-47320985D01*
X132882923Y-47420987D01*
X132884327Y-47422546D01*
X132887638Y-47426223D01*
X132917871Y-47489213D01*
X132909249Y-47558548D01*
X132883173Y-47596880D01*
X131994721Y-48485332D01*
X131977603Y-48510953D01*
X131923991Y-48555758D01*
X131854666Y-48564467D01*
X131791638Y-48534312D01*
X131754919Y-48474870D01*
X131750500Y-48442063D01*
X131750500Y-47442527D01*
X131770185Y-47375488D01*
X131782350Y-47359555D01*
X131817077Y-47320987D01*
X131909726Y-47160513D01*
X131966987Y-46984284D01*
X131986356Y-46800000D01*
X131966987Y-46615716D01*
X131909726Y-46439487D01*
X131817077Y-46279013D01*
X131768514Y-46225078D01*
X131693093Y-46141313D01*
X131693090Y-46141311D01*
X131693089Y-46141310D01*
X131693088Y-46141309D01*
X131593148Y-46068698D01*
X131543177Y-46032392D01*
X131373904Y-45957026D01*
X131373896Y-45957024D01*
X131192649Y-45918500D01*
X131007351Y-45918500D01*
X130826103Y-45957024D01*
X130826095Y-45957026D01*
X130656822Y-46032392D01*
X130506909Y-46141311D01*
X130506906Y-46141313D01*
X130382922Y-46279014D01*
X130290274Y-46439485D01*
X130233014Y-46615711D01*
X130233013Y-46615713D01*
X130213644Y-46800000D01*
X130233013Y-46984286D01*
X130233014Y-46984288D01*
X130290274Y-47160514D01*
X130382921Y-47320985D01*
X130417650Y-47359555D01*
X130447880Y-47422546D01*
X130449500Y-47442527D01*
X130449500Y-48247754D01*
X130429815Y-48314793D01*
X130408468Y-48339908D01*
X130406907Y-48341312D01*
X130282922Y-48479014D01*
X130190274Y-48639485D01*
X130133014Y-48815711D01*
X130133013Y-48815713D01*
X130113644Y-49000000D01*
X130133013Y-49184286D01*
X130133014Y-49184288D01*
X130190274Y-49360514D01*
X130230712Y-49430554D01*
X130282923Y-49520987D01*
X130326112Y-49568954D01*
X130406906Y-49658686D01*
X130406909Y-49658688D01*
X130406912Y-49658691D01*
X130510708Y-49734103D01*
X130556822Y-49767607D01*
X130726095Y-49842973D01*
X130726098Y-49842973D01*
X130726101Y-49842975D01*
X130907351Y-49881500D01*
X131099147Y-49881500D01*
X131099147Y-49884846D01*
X131153330Y-49893934D01*
X131205051Y-49940911D01*
X131223163Y-50008392D01*
X131201917Y-50074953D01*
X131186878Y-50093175D01*
X129997873Y-51282181D01*
X129936550Y-51315666D01*
X129910192Y-51318500D01*
X129907351Y-51318500D01*
X129726103Y-51357024D01*
X129726095Y-51357026D01*
X129556822Y-51432392D01*
X129406909Y-51541311D01*
X129406906Y-51541313D01*
X129282922Y-51679014D01*
X129190274Y-51839485D01*
X129133014Y-52015711D01*
X129133013Y-52015713D01*
X129113644Y-52200000D01*
X108255300Y-52200000D01*
X108255300Y-42499999D01*
X113419464Y-42499999D01*
X113419464Y-42500000D01*
X113439564Y-42716918D01*
X113499184Y-42926462D01*
X113499701Y-42927500D01*
X113596288Y-43121472D01*
X113727573Y-43295322D01*
X113888568Y-43442088D01*
X113888575Y-43442092D01*
X113888576Y-43442093D01*
X114073786Y-43556770D01*
X114073792Y-43556773D01*
X114096664Y-43565633D01*
X114276931Y-43635470D01*
X114491074Y-43675500D01*
X114491076Y-43675500D01*
X114708924Y-43675500D01*
X114708926Y-43675500D01*
X114923069Y-43635470D01*
X115126210Y-43556772D01*
X115311432Y-43442088D01*
X115472427Y-43295322D01*
X115501046Y-43257423D01*
X115557151Y-43215789D01*
X115626863Y-43211096D01*
X115688046Y-43244837D01*
X115698951Y-43257421D01*
X115727572Y-43295322D01*
X115888567Y-43442088D01*
X115888574Y-43442092D01*
X115888575Y-43442093D01*
X116073785Y-43556770D01*
X116073791Y-43556773D01*
X116096663Y-43565633D01*
X116276930Y-43635470D01*
X116491073Y-43675500D01*
X116491075Y-43675500D01*
X116708923Y-43675500D01*
X116708925Y-43675500D01*
X116923068Y-43635470D01*
X117126209Y-43556772D01*
X117311431Y-43442088D01*
X117322409Y-43432079D01*
X117385211Y-43401462D01*
X117454598Y-43409658D01*
X117505214Y-43449405D01*
X117567452Y-43532544D01*
X117567455Y-43532547D01*
X117682664Y-43618793D01*
X117682671Y-43618797D01*
X117817517Y-43669091D01*
X117817516Y-43669091D01*
X117824444Y-43669835D01*
X117877127Y-43675500D01*
X119322872Y-43675499D01*
X119382483Y-43669091D01*
X119517331Y-43618796D01*
X119632546Y-43532546D01*
X119718796Y-43417331D01*
X119769091Y-43282483D01*
X119775500Y-43222873D01*
X119775500Y-43175126D01*
X162482651Y-43175126D01*
X162482651Y-43424873D01*
X162482652Y-43424890D01*
X162515250Y-43672499D01*
X162579894Y-43913753D01*
X162675468Y-44144492D01*
X162675476Y-44144508D01*
X162800348Y-44360791D01*
X162800359Y-44360807D01*
X162952395Y-44558945D01*
X162952401Y-44558952D01*
X163128998Y-44735549D01*
X163129004Y-44735554D01*
X163327152Y-44887598D01*
X163327159Y-44887602D01*
X163543442Y-45012474D01*
X163543458Y-45012482D01*
X163667942Y-45064044D01*
X163774198Y-45108057D01*
X164015448Y-45172700D01*
X164263071Y-45205300D01*
X164263078Y-45205300D01*
X164512824Y-45205300D01*
X164512831Y-45205300D01*
X164760454Y-45172700D01*
X165001704Y-45108057D01*
X165183091Y-45032923D01*
X165232443Y-45012482D01*
X165232446Y-45012480D01*
X165232452Y-45012478D01*
X165448750Y-44887598D01*
X165646898Y-44735554D01*
X165823505Y-44558947D01*
X165975549Y-44360799D01*
X166100429Y-44144501D01*
X166196008Y-43913753D01*
X166260651Y-43672503D01*
X166293251Y-43424880D01*
X166293251Y-43175120D01*
X166260651Y-42927497D01*
X166196008Y-42686247D01*
X166118862Y-42499999D01*
X166100433Y-42455507D01*
X166100425Y-42455491D01*
X165975553Y-42239208D01*
X165975549Y-42239201D01*
X165823505Y-42041053D01*
X165823500Y-42041047D01*
X165646903Y-41864450D01*
X165646896Y-41864444D01*
X165448758Y-41712408D01*
X165448756Y-41712406D01*
X165448750Y-41712402D01*
X165448745Y-41712399D01*
X165448742Y-41712397D01*
X165232459Y-41587525D01*
X165232443Y-41587517D01*
X165001704Y-41491943D01*
X164910303Y-41467452D01*
X164760454Y-41427300D01*
X164760453Y-41427299D01*
X164760450Y-41427299D01*
X164512841Y-41394701D01*
X164512836Y-41394700D01*
X164512831Y-41394700D01*
X164263071Y-41394700D01*
X164263065Y-41394700D01*
X164263060Y-41394701D01*
X164015451Y-41427299D01*
X163774197Y-41491943D01*
X163543458Y-41587517D01*
X163543442Y-41587525D01*
X163327159Y-41712397D01*
X163327143Y-41712408D01*
X163129005Y-41864444D01*
X163128998Y-41864450D01*
X162952401Y-42041047D01*
X162952395Y-42041054D01*
X162800359Y-42239192D01*
X162800348Y-42239208D01*
X162675476Y-42455491D01*
X162675468Y-42455507D01*
X162579894Y-42686246D01*
X162515250Y-42927500D01*
X162482652Y-43175109D01*
X162482651Y-43175126D01*
X119775500Y-43175126D01*
X119775499Y-41777128D01*
X119769091Y-41717517D01*
X119767185Y-41712408D01*
X119718797Y-41582671D01*
X119718793Y-41582664D01*
X119632547Y-41467455D01*
X119632544Y-41467452D01*
X119517335Y-41381206D01*
X119517328Y-41381202D01*
X119382482Y-41330908D01*
X119382483Y-41330908D01*
X119322883Y-41324501D01*
X119322881Y-41324500D01*
X119322873Y-41324500D01*
X119322864Y-41324500D01*
X117877129Y-41324500D01*
X117877123Y-41324501D01*
X117817516Y-41330908D01*
X117682671Y-41381202D01*
X117682664Y-41381206D01*
X117567455Y-41467452D01*
X117505214Y-41550595D01*
X117449280Y-41592465D01*
X117379588Y-41597449D01*
X117322410Y-41567921D01*
X117311431Y-41557912D01*
X117311428Y-41557910D01*
X117311427Y-41557909D01*
X117126212Y-41443229D01*
X117126206Y-41443226D01*
X117041112Y-41410260D01*
X116923068Y-41364530D01*
X116708925Y-41324500D01*
X116491073Y-41324500D01*
X116276930Y-41364530D01*
X116233895Y-41381202D01*
X116073791Y-41443226D01*
X116073785Y-41443229D01*
X115888575Y-41557906D01*
X115888565Y-41557913D01*
X115727572Y-41704676D01*
X115698952Y-41742576D01*
X115642843Y-41784211D01*
X115573131Y-41788902D01*
X115511949Y-41755159D01*
X115501046Y-41742576D01*
X115472427Y-41704678D01*
X115311432Y-41557912D01*
X115311428Y-41557909D01*
X115311423Y-41557906D01*
X115126213Y-41443229D01*
X115126207Y-41443226D01*
X115041113Y-41410260D01*
X114923069Y-41364530D01*
X114708926Y-41324500D01*
X114491074Y-41324500D01*
X114276931Y-41364530D01*
X114233896Y-41381202D01*
X114073792Y-41443226D01*
X114073786Y-41443229D01*
X113888576Y-41557906D01*
X113888566Y-41557913D01*
X113727574Y-41704676D01*
X113596288Y-41878527D01*
X113499184Y-42073537D01*
X113439564Y-42283081D01*
X113419464Y-42499999D01*
X108255300Y-42499999D01*
X108255300Y-38729300D01*
X108274985Y-38662261D01*
X108327789Y-38616506D01*
X108379300Y-38605300D01*
X130326000Y-38605300D01*
X130393039Y-38624985D01*
G37*
G04 #@! TD.AperFunction*
G04 #@! TD*
M02*
