G04 #@! TF.GenerationSoftware,KiCad,Pcbnew,8.0.8*
G04 #@! TF.CreationDate,2025-07-04T19:36:45+02:00*
G04 #@! TF.ProjectId,LaunchControl,4c61756e-6368-4436-9f6e-74726f6c2e6b,rev?*
G04 #@! TF.SameCoordinates,Original*
G04 #@! TF.FileFunction,AssemblyDrawing,Top*
%FSLAX46Y46*%
G04 Gerber Fmt 4.6, Leading zero omitted, Abs format (unit mm)*
G04 Created by KiCad (PCBNEW 8.0.8) date 2025-07-04 19:36:45*
%MOMM*%
%LPD*%
G01*
G04 APERTURE LIST*
%ADD10C,0.150000*%
%ADD11C,0.120000*%
%ADD12C,0.050000*%
%ADD13C,0.060000*%
%ADD14C,0.100000*%
%ADD15C,0.127000*%
%ADD16C,0.200000*%
G04 APERTURE END LIST*
D10*
X146629818Y-69700357D02*
X146629818Y-70176547D01*
X146629818Y-70176547D02*
X147106008Y-70224166D01*
X147106008Y-70224166D02*
X147058389Y-70176547D01*
X147058389Y-70176547D02*
X147010770Y-70081309D01*
X147010770Y-70081309D02*
X147010770Y-69843214D01*
X147010770Y-69843214D02*
X147058389Y-69747976D01*
X147058389Y-69747976D02*
X147106008Y-69700357D01*
X147106008Y-69700357D02*
X147201246Y-69652738D01*
X147201246Y-69652738D02*
X147439341Y-69652738D01*
X147439341Y-69652738D02*
X147534579Y-69700357D01*
X147534579Y-69700357D02*
X147582199Y-69747976D01*
X147582199Y-69747976D02*
X147629818Y-69843214D01*
X147629818Y-69843214D02*
X147629818Y-70081309D01*
X147629818Y-70081309D02*
X147582199Y-70176547D01*
X147582199Y-70176547D02*
X147534579Y-70224166D01*
X147629818Y-69224166D02*
X146629818Y-69224166D01*
X147248865Y-69128928D02*
X147629818Y-68843214D01*
X146963151Y-68843214D02*
X147344103Y-69224166D01*
X147629818Y-67890833D02*
X147629818Y-68462261D01*
X147629818Y-68176547D02*
X146629818Y-68176547D01*
X146629818Y-68176547D02*
X146772675Y-68271785D01*
X146772675Y-68271785D02*
X146867913Y-68367023D01*
X146867913Y-68367023D02*
X146915532Y-68462261D01*
D11*
X149388855Y-69190832D02*
X149007902Y-69457499D01*
X149388855Y-69647975D02*
X148588855Y-69647975D01*
X148588855Y-69647975D02*
X148588855Y-69343213D01*
X148588855Y-69343213D02*
X148626950Y-69267023D01*
X148626950Y-69267023D02*
X148665045Y-69228928D01*
X148665045Y-69228928D02*
X148741236Y-69190832D01*
X148741236Y-69190832D02*
X148855521Y-69190832D01*
X148855521Y-69190832D02*
X148931712Y-69228928D01*
X148931712Y-69228928D02*
X148969807Y-69267023D01*
X148969807Y-69267023D02*
X149007902Y-69343213D01*
X149007902Y-69343213D02*
X149007902Y-69647975D01*
X148588855Y-68505118D02*
X148588855Y-68657499D01*
X148588855Y-68657499D02*
X148626950Y-68733690D01*
X148626950Y-68733690D02*
X148665045Y-68771785D01*
X148665045Y-68771785D02*
X148779331Y-68847975D01*
X148779331Y-68847975D02*
X148931712Y-68886071D01*
X148931712Y-68886071D02*
X149236474Y-68886071D01*
X149236474Y-68886071D02*
X149312664Y-68847975D01*
X149312664Y-68847975D02*
X149350760Y-68809880D01*
X149350760Y-68809880D02*
X149388855Y-68733690D01*
X149388855Y-68733690D02*
X149388855Y-68581309D01*
X149388855Y-68581309D02*
X149350760Y-68505118D01*
X149350760Y-68505118D02*
X149312664Y-68467023D01*
X149312664Y-68467023D02*
X149236474Y-68428928D01*
X149236474Y-68428928D02*
X149045998Y-68428928D01*
X149045998Y-68428928D02*
X148969807Y-68467023D01*
X148969807Y-68467023D02*
X148931712Y-68505118D01*
X148931712Y-68505118D02*
X148893617Y-68581309D01*
X148893617Y-68581309D02*
X148893617Y-68733690D01*
X148893617Y-68733690D02*
X148931712Y-68809880D01*
X148931712Y-68809880D02*
X148969807Y-68847975D01*
X148969807Y-68847975D02*
X149045998Y-68886071D01*
D10*
X159614285Y-88454819D02*
X159614285Y-87454819D01*
X159614285Y-87454819D02*
X159947618Y-88169104D01*
X159947618Y-88169104D02*
X160280951Y-87454819D01*
X160280951Y-87454819D02*
X160280951Y-88454819D01*
X160899999Y-88454819D02*
X160804761Y-88407200D01*
X160804761Y-88407200D02*
X160757142Y-88359580D01*
X160757142Y-88359580D02*
X160709523Y-88264342D01*
X160709523Y-88264342D02*
X160709523Y-87978628D01*
X160709523Y-87978628D02*
X160757142Y-87883390D01*
X160757142Y-87883390D02*
X160804761Y-87835771D01*
X160804761Y-87835771D02*
X160899999Y-87788152D01*
X160899999Y-87788152D02*
X161042856Y-87788152D01*
X161042856Y-87788152D02*
X161138094Y-87835771D01*
X161138094Y-87835771D02*
X161185713Y-87883390D01*
X161185713Y-87883390D02*
X161233332Y-87978628D01*
X161233332Y-87978628D02*
X161233332Y-88264342D01*
X161233332Y-88264342D02*
X161185713Y-88359580D01*
X161185713Y-88359580D02*
X161138094Y-88407200D01*
X161138094Y-88407200D02*
X161042856Y-88454819D01*
X161042856Y-88454819D02*
X160899999Y-88454819D01*
X162090475Y-87788152D02*
X162090475Y-88454819D01*
X161661904Y-87788152D02*
X161661904Y-88311961D01*
X161661904Y-88311961D02*
X161709523Y-88407200D01*
X161709523Y-88407200D02*
X161804761Y-88454819D01*
X161804761Y-88454819D02*
X161947618Y-88454819D01*
X161947618Y-88454819D02*
X162042856Y-88407200D01*
X162042856Y-88407200D02*
X162090475Y-88359580D01*
X162566666Y-87788152D02*
X162566666Y-88454819D01*
X162566666Y-87883390D02*
X162614285Y-87835771D01*
X162614285Y-87835771D02*
X162709523Y-87788152D01*
X162709523Y-87788152D02*
X162852380Y-87788152D01*
X162852380Y-87788152D02*
X162947618Y-87835771D01*
X162947618Y-87835771D02*
X162995237Y-87931009D01*
X162995237Y-87931009D02*
X162995237Y-88454819D01*
X163328571Y-87788152D02*
X163709523Y-87788152D01*
X163471428Y-87454819D02*
X163471428Y-88311961D01*
X163471428Y-88311961D02*
X163519047Y-88407200D01*
X163519047Y-88407200D02*
X163614285Y-88454819D01*
X163614285Y-88454819D02*
X163709523Y-88454819D01*
X164042857Y-88454819D02*
X164042857Y-87788152D01*
X164042857Y-87454819D02*
X163995238Y-87502438D01*
X163995238Y-87502438D02*
X164042857Y-87550057D01*
X164042857Y-87550057D02*
X164090476Y-87502438D01*
X164090476Y-87502438D02*
X164042857Y-87454819D01*
X164042857Y-87454819D02*
X164042857Y-87550057D01*
X164519047Y-87788152D02*
X164519047Y-88454819D01*
X164519047Y-87883390D02*
X164566666Y-87835771D01*
X164566666Y-87835771D02*
X164661904Y-87788152D01*
X164661904Y-87788152D02*
X164804761Y-87788152D01*
X164804761Y-87788152D02*
X164899999Y-87835771D01*
X164899999Y-87835771D02*
X164947618Y-87931009D01*
X164947618Y-87931009D02*
X164947618Y-88454819D01*
X165852380Y-87788152D02*
X165852380Y-88597676D01*
X165852380Y-88597676D02*
X165804761Y-88692914D01*
X165804761Y-88692914D02*
X165757142Y-88740533D01*
X165757142Y-88740533D02*
X165661904Y-88788152D01*
X165661904Y-88788152D02*
X165519047Y-88788152D01*
X165519047Y-88788152D02*
X165423809Y-88740533D01*
X165852380Y-88407200D02*
X165757142Y-88454819D01*
X165757142Y-88454819D02*
X165566666Y-88454819D01*
X165566666Y-88454819D02*
X165471428Y-88407200D01*
X165471428Y-88407200D02*
X165423809Y-88359580D01*
X165423809Y-88359580D02*
X165376190Y-88264342D01*
X165376190Y-88264342D02*
X165376190Y-87978628D01*
X165376190Y-87978628D02*
X165423809Y-87883390D01*
X165423809Y-87883390D02*
X165471428Y-87835771D01*
X165471428Y-87835771D02*
X165566666Y-87788152D01*
X165566666Y-87788152D02*
X165757142Y-87788152D01*
X165757142Y-87788152D02*
X165852380Y-87835771D01*
X166328571Y-88454819D02*
X166328571Y-87454819D01*
X166328571Y-87931009D02*
X166899999Y-87931009D01*
X166899999Y-88454819D02*
X166899999Y-87454819D01*
X167519047Y-88454819D02*
X167423809Y-88407200D01*
X167423809Y-88407200D02*
X167376190Y-88359580D01*
X167376190Y-88359580D02*
X167328571Y-88264342D01*
X167328571Y-88264342D02*
X167328571Y-87978628D01*
X167328571Y-87978628D02*
X167376190Y-87883390D01*
X167376190Y-87883390D02*
X167423809Y-87835771D01*
X167423809Y-87835771D02*
X167519047Y-87788152D01*
X167519047Y-87788152D02*
X167661904Y-87788152D01*
X167661904Y-87788152D02*
X167757142Y-87835771D01*
X167757142Y-87835771D02*
X167804761Y-87883390D01*
X167804761Y-87883390D02*
X167852380Y-87978628D01*
X167852380Y-87978628D02*
X167852380Y-88264342D01*
X167852380Y-88264342D02*
X167804761Y-88359580D01*
X167804761Y-88359580D02*
X167757142Y-88407200D01*
X167757142Y-88407200D02*
X167661904Y-88454819D01*
X167661904Y-88454819D02*
X167519047Y-88454819D01*
X168423809Y-88454819D02*
X168328571Y-88407200D01*
X168328571Y-88407200D02*
X168280952Y-88311961D01*
X168280952Y-88311961D02*
X168280952Y-87454819D01*
X169185714Y-88407200D02*
X169090476Y-88454819D01*
X169090476Y-88454819D02*
X168900000Y-88454819D01*
X168900000Y-88454819D02*
X168804762Y-88407200D01*
X168804762Y-88407200D02*
X168757143Y-88311961D01*
X168757143Y-88311961D02*
X168757143Y-87931009D01*
X168757143Y-87931009D02*
X168804762Y-87835771D01*
X168804762Y-87835771D02*
X168900000Y-87788152D01*
X168900000Y-87788152D02*
X169090476Y-87788152D01*
X169090476Y-87788152D02*
X169185714Y-87835771D01*
X169185714Y-87835771D02*
X169233333Y-87931009D01*
X169233333Y-87931009D02*
X169233333Y-88026247D01*
X169233333Y-88026247D02*
X168757143Y-88121485D01*
X163638095Y-84254819D02*
X163638095Y-83254819D01*
X163638095Y-83731009D02*
X164209523Y-83731009D01*
X164209523Y-84254819D02*
X164209523Y-83254819D01*
X164638095Y-83350057D02*
X164685714Y-83302438D01*
X164685714Y-83302438D02*
X164780952Y-83254819D01*
X164780952Y-83254819D02*
X165019047Y-83254819D01*
X165019047Y-83254819D02*
X165114285Y-83302438D01*
X165114285Y-83302438D02*
X165161904Y-83350057D01*
X165161904Y-83350057D02*
X165209523Y-83445295D01*
X165209523Y-83445295D02*
X165209523Y-83540533D01*
X165209523Y-83540533D02*
X165161904Y-83683390D01*
X165161904Y-83683390D02*
X164590476Y-84254819D01*
X164590476Y-84254819D02*
X165209523Y-84254819D01*
X169654819Y-64423810D02*
X170464342Y-64423810D01*
X170464342Y-64423810D02*
X170559580Y-64376191D01*
X170559580Y-64376191D02*
X170607200Y-64328572D01*
X170607200Y-64328572D02*
X170654819Y-64233334D01*
X170654819Y-64233334D02*
X170654819Y-64042858D01*
X170654819Y-64042858D02*
X170607200Y-63947620D01*
X170607200Y-63947620D02*
X170559580Y-63900001D01*
X170559580Y-63900001D02*
X170464342Y-63852382D01*
X170464342Y-63852382D02*
X169654819Y-63852382D01*
X170607200Y-63423810D02*
X170654819Y-63280953D01*
X170654819Y-63280953D02*
X170654819Y-63042858D01*
X170654819Y-63042858D02*
X170607200Y-62947620D01*
X170607200Y-62947620D02*
X170559580Y-62900001D01*
X170559580Y-62900001D02*
X170464342Y-62852382D01*
X170464342Y-62852382D02*
X170369104Y-62852382D01*
X170369104Y-62852382D02*
X170273866Y-62900001D01*
X170273866Y-62900001D02*
X170226247Y-62947620D01*
X170226247Y-62947620D02*
X170178628Y-63042858D01*
X170178628Y-63042858D02*
X170131009Y-63233334D01*
X170131009Y-63233334D02*
X170083390Y-63328572D01*
X170083390Y-63328572D02*
X170035771Y-63376191D01*
X170035771Y-63376191D02*
X169940533Y-63423810D01*
X169940533Y-63423810D02*
X169845295Y-63423810D01*
X169845295Y-63423810D02*
X169750057Y-63376191D01*
X169750057Y-63376191D02*
X169702438Y-63328572D01*
X169702438Y-63328572D02*
X169654819Y-63233334D01*
X169654819Y-63233334D02*
X169654819Y-62995239D01*
X169654819Y-62995239D02*
X169702438Y-62852382D01*
X170131009Y-62090477D02*
X170178628Y-61947620D01*
X170178628Y-61947620D02*
X170226247Y-61900001D01*
X170226247Y-61900001D02*
X170321485Y-61852382D01*
X170321485Y-61852382D02*
X170464342Y-61852382D01*
X170464342Y-61852382D02*
X170559580Y-61900001D01*
X170559580Y-61900001D02*
X170607200Y-61947620D01*
X170607200Y-61947620D02*
X170654819Y-62042858D01*
X170654819Y-62042858D02*
X170654819Y-62423810D01*
X170654819Y-62423810D02*
X169654819Y-62423810D01*
X169654819Y-62423810D02*
X169654819Y-62090477D01*
X169654819Y-62090477D02*
X169702438Y-61995239D01*
X169702438Y-61995239D02*
X169750057Y-61947620D01*
X169750057Y-61947620D02*
X169845295Y-61900001D01*
X169845295Y-61900001D02*
X169940533Y-61900001D01*
X169940533Y-61900001D02*
X170035771Y-61947620D01*
X170035771Y-61947620D02*
X170083390Y-61995239D01*
X170083390Y-61995239D02*
X170131009Y-62090477D01*
X170131009Y-62090477D02*
X170131009Y-62423810D01*
X170750057Y-61661906D02*
X170750057Y-60900001D01*
X170559580Y-60090477D02*
X170607200Y-60138096D01*
X170607200Y-60138096D02*
X170654819Y-60280953D01*
X170654819Y-60280953D02*
X170654819Y-60376191D01*
X170654819Y-60376191D02*
X170607200Y-60519048D01*
X170607200Y-60519048D02*
X170511961Y-60614286D01*
X170511961Y-60614286D02*
X170416723Y-60661905D01*
X170416723Y-60661905D02*
X170226247Y-60709524D01*
X170226247Y-60709524D02*
X170083390Y-60709524D01*
X170083390Y-60709524D02*
X169892914Y-60661905D01*
X169892914Y-60661905D02*
X169797676Y-60614286D01*
X169797676Y-60614286D02*
X169702438Y-60519048D01*
X169702438Y-60519048D02*
X169654819Y-60376191D01*
X169654819Y-60376191D02*
X169654819Y-60280953D01*
X169654819Y-60280953D02*
X169702438Y-60138096D01*
X169702438Y-60138096D02*
X169750057Y-60090477D01*
X170750057Y-59900001D02*
X170750057Y-59138096D01*
X170654819Y-58328572D02*
X170178628Y-58661905D01*
X170654819Y-58900000D02*
X169654819Y-58900000D01*
X169654819Y-58900000D02*
X169654819Y-58519048D01*
X169654819Y-58519048D02*
X169702438Y-58423810D01*
X169702438Y-58423810D02*
X169750057Y-58376191D01*
X169750057Y-58376191D02*
X169845295Y-58328572D01*
X169845295Y-58328572D02*
X169988152Y-58328572D01*
X169988152Y-58328572D02*
X170083390Y-58376191D01*
X170083390Y-58376191D02*
X170131009Y-58423810D01*
X170131009Y-58423810D02*
X170178628Y-58519048D01*
X170178628Y-58519048D02*
X170178628Y-58900000D01*
X170607200Y-57519048D02*
X170654819Y-57614286D01*
X170654819Y-57614286D02*
X170654819Y-57804762D01*
X170654819Y-57804762D02*
X170607200Y-57900000D01*
X170607200Y-57900000D02*
X170511961Y-57947619D01*
X170511961Y-57947619D02*
X170131009Y-57947619D01*
X170131009Y-57947619D02*
X170035771Y-57900000D01*
X170035771Y-57900000D02*
X169988152Y-57804762D01*
X169988152Y-57804762D02*
X169988152Y-57614286D01*
X169988152Y-57614286D02*
X170035771Y-57519048D01*
X170035771Y-57519048D02*
X170131009Y-57471429D01*
X170131009Y-57471429D02*
X170226247Y-57471429D01*
X170226247Y-57471429D02*
X170321485Y-57947619D01*
X170607200Y-56614286D02*
X170654819Y-56709524D01*
X170654819Y-56709524D02*
X170654819Y-56900000D01*
X170654819Y-56900000D02*
X170607200Y-56995238D01*
X170607200Y-56995238D02*
X170559580Y-57042857D01*
X170559580Y-57042857D02*
X170464342Y-57090476D01*
X170464342Y-57090476D02*
X170178628Y-57090476D01*
X170178628Y-57090476D02*
X170083390Y-57042857D01*
X170083390Y-57042857D02*
X170035771Y-56995238D01*
X170035771Y-56995238D02*
X169988152Y-56900000D01*
X169988152Y-56900000D02*
X169988152Y-56709524D01*
X169988152Y-56709524D02*
X170035771Y-56614286D01*
X170607200Y-55804762D02*
X170654819Y-55900000D01*
X170654819Y-55900000D02*
X170654819Y-56090476D01*
X170654819Y-56090476D02*
X170607200Y-56185714D01*
X170607200Y-56185714D02*
X170511961Y-56233333D01*
X170511961Y-56233333D02*
X170131009Y-56233333D01*
X170131009Y-56233333D02*
X170035771Y-56185714D01*
X170035771Y-56185714D02*
X169988152Y-56090476D01*
X169988152Y-56090476D02*
X169988152Y-55900000D01*
X169988152Y-55900000D02*
X170035771Y-55804762D01*
X170035771Y-55804762D02*
X170131009Y-55757143D01*
X170131009Y-55757143D02*
X170226247Y-55757143D01*
X170226247Y-55757143D02*
X170321485Y-56233333D01*
X169988152Y-55328571D02*
X170988152Y-55328571D01*
X170035771Y-55328571D02*
X169988152Y-55233333D01*
X169988152Y-55233333D02*
X169988152Y-55042857D01*
X169988152Y-55042857D02*
X170035771Y-54947619D01*
X170035771Y-54947619D02*
X170083390Y-54900000D01*
X170083390Y-54900000D02*
X170178628Y-54852381D01*
X170178628Y-54852381D02*
X170464342Y-54852381D01*
X170464342Y-54852381D02*
X170559580Y-54900000D01*
X170559580Y-54900000D02*
X170607200Y-54947619D01*
X170607200Y-54947619D02*
X170654819Y-55042857D01*
X170654819Y-55042857D02*
X170654819Y-55233333D01*
X170654819Y-55233333D02*
X170607200Y-55328571D01*
X169988152Y-54566666D02*
X169988152Y-54185714D01*
X169654819Y-54423809D02*
X170511961Y-54423809D01*
X170511961Y-54423809D02*
X170607200Y-54376190D01*
X170607200Y-54376190D02*
X170654819Y-54280952D01*
X170654819Y-54280952D02*
X170654819Y-54185714D01*
X170654819Y-53423809D02*
X170131009Y-53423809D01*
X170131009Y-53423809D02*
X170035771Y-53471428D01*
X170035771Y-53471428D02*
X169988152Y-53566666D01*
X169988152Y-53566666D02*
X169988152Y-53757142D01*
X169988152Y-53757142D02*
X170035771Y-53852380D01*
X170607200Y-53423809D02*
X170654819Y-53519047D01*
X170654819Y-53519047D02*
X170654819Y-53757142D01*
X170654819Y-53757142D02*
X170607200Y-53852380D01*
X170607200Y-53852380D02*
X170511961Y-53899999D01*
X170511961Y-53899999D02*
X170416723Y-53899999D01*
X170416723Y-53899999D02*
X170321485Y-53852380D01*
X170321485Y-53852380D02*
X170273866Y-53757142D01*
X170273866Y-53757142D02*
X170273866Y-53519047D01*
X170273866Y-53519047D02*
X170226247Y-53423809D01*
X170607200Y-52519047D02*
X170654819Y-52614285D01*
X170654819Y-52614285D02*
X170654819Y-52804761D01*
X170654819Y-52804761D02*
X170607200Y-52899999D01*
X170607200Y-52899999D02*
X170559580Y-52947618D01*
X170559580Y-52947618D02*
X170464342Y-52995237D01*
X170464342Y-52995237D02*
X170178628Y-52995237D01*
X170178628Y-52995237D02*
X170083390Y-52947618D01*
X170083390Y-52947618D02*
X170035771Y-52899999D01*
X170035771Y-52899999D02*
X169988152Y-52804761D01*
X169988152Y-52804761D02*
X169988152Y-52614285D01*
X169988152Y-52614285D02*
X170035771Y-52519047D01*
X170654819Y-51947618D02*
X170607200Y-52042856D01*
X170607200Y-52042856D02*
X170511961Y-52090475D01*
X170511961Y-52090475D02*
X169654819Y-52090475D01*
X170607200Y-51185713D02*
X170654819Y-51280951D01*
X170654819Y-51280951D02*
X170654819Y-51471427D01*
X170654819Y-51471427D02*
X170607200Y-51566665D01*
X170607200Y-51566665D02*
X170511961Y-51614284D01*
X170511961Y-51614284D02*
X170131009Y-51614284D01*
X170131009Y-51614284D02*
X170035771Y-51566665D01*
X170035771Y-51566665D02*
X169988152Y-51471427D01*
X169988152Y-51471427D02*
X169988152Y-51280951D01*
X169988152Y-51280951D02*
X170035771Y-51185713D01*
X170035771Y-51185713D02*
X170131009Y-51138094D01*
X170131009Y-51138094D02*
X170226247Y-51138094D01*
X170226247Y-51138094D02*
X170321485Y-51614284D01*
X170750057Y-50947618D02*
X170750057Y-50185713D01*
X169654819Y-49947617D02*
X170464342Y-49947617D01*
X170464342Y-49947617D02*
X170559580Y-49899998D01*
X170559580Y-49899998D02*
X170607200Y-49852379D01*
X170607200Y-49852379D02*
X170654819Y-49757141D01*
X170654819Y-49757141D02*
X170654819Y-49566665D01*
X170654819Y-49566665D02*
X170607200Y-49471427D01*
X170607200Y-49471427D02*
X170559580Y-49423808D01*
X170559580Y-49423808D02*
X170464342Y-49376189D01*
X170464342Y-49376189D02*
X169654819Y-49376189D01*
X170607200Y-48947617D02*
X170654819Y-48804760D01*
X170654819Y-48804760D02*
X170654819Y-48566665D01*
X170654819Y-48566665D02*
X170607200Y-48471427D01*
X170607200Y-48471427D02*
X170559580Y-48423808D01*
X170559580Y-48423808D02*
X170464342Y-48376189D01*
X170464342Y-48376189D02*
X170369104Y-48376189D01*
X170369104Y-48376189D02*
X170273866Y-48423808D01*
X170273866Y-48423808D02*
X170226247Y-48471427D01*
X170226247Y-48471427D02*
X170178628Y-48566665D01*
X170178628Y-48566665D02*
X170131009Y-48757141D01*
X170131009Y-48757141D02*
X170083390Y-48852379D01*
X170083390Y-48852379D02*
X170035771Y-48899998D01*
X170035771Y-48899998D02*
X169940533Y-48947617D01*
X169940533Y-48947617D02*
X169845295Y-48947617D01*
X169845295Y-48947617D02*
X169750057Y-48899998D01*
X169750057Y-48899998D02*
X169702438Y-48852379D01*
X169702438Y-48852379D02*
X169654819Y-48757141D01*
X169654819Y-48757141D02*
X169654819Y-48519046D01*
X169654819Y-48519046D02*
X169702438Y-48376189D01*
X170131009Y-47614284D02*
X170178628Y-47471427D01*
X170178628Y-47471427D02*
X170226247Y-47423808D01*
X170226247Y-47423808D02*
X170321485Y-47376189D01*
X170321485Y-47376189D02*
X170464342Y-47376189D01*
X170464342Y-47376189D02*
X170559580Y-47423808D01*
X170559580Y-47423808D02*
X170607200Y-47471427D01*
X170607200Y-47471427D02*
X170654819Y-47566665D01*
X170654819Y-47566665D02*
X170654819Y-47947617D01*
X170654819Y-47947617D02*
X169654819Y-47947617D01*
X169654819Y-47947617D02*
X169654819Y-47614284D01*
X169654819Y-47614284D02*
X169702438Y-47519046D01*
X169702438Y-47519046D02*
X169750057Y-47471427D01*
X169750057Y-47471427D02*
X169845295Y-47423808D01*
X169845295Y-47423808D02*
X169940533Y-47423808D01*
X169940533Y-47423808D02*
X170035771Y-47471427D01*
X170035771Y-47471427D02*
X170083390Y-47519046D01*
X170083390Y-47519046D02*
X170131009Y-47614284D01*
X170131009Y-47614284D02*
X170131009Y-47947617D01*
X169750057Y-46995236D02*
X169702438Y-46947617D01*
X169702438Y-46947617D02*
X169654819Y-46852379D01*
X169654819Y-46852379D02*
X169654819Y-46614284D01*
X169654819Y-46614284D02*
X169702438Y-46519046D01*
X169702438Y-46519046D02*
X169750057Y-46471427D01*
X169750057Y-46471427D02*
X169845295Y-46423808D01*
X169845295Y-46423808D02*
X169940533Y-46423808D01*
X169940533Y-46423808D02*
X170083390Y-46471427D01*
X170083390Y-46471427D02*
X170654819Y-47042855D01*
X170654819Y-47042855D02*
X170654819Y-46423808D01*
X170559580Y-45995236D02*
X170607200Y-45947617D01*
X170607200Y-45947617D02*
X170654819Y-45995236D01*
X170654819Y-45995236D02*
X170607200Y-46042855D01*
X170607200Y-46042855D02*
X170559580Y-45995236D01*
X170559580Y-45995236D02*
X170654819Y-45995236D01*
X169654819Y-45328570D02*
X169654819Y-45233332D01*
X169654819Y-45233332D02*
X169702438Y-45138094D01*
X169702438Y-45138094D02*
X169750057Y-45090475D01*
X169750057Y-45090475D02*
X169845295Y-45042856D01*
X169845295Y-45042856D02*
X170035771Y-44995237D01*
X170035771Y-44995237D02*
X170273866Y-44995237D01*
X170273866Y-44995237D02*
X170464342Y-45042856D01*
X170464342Y-45042856D02*
X170559580Y-45090475D01*
X170559580Y-45090475D02*
X170607200Y-45138094D01*
X170607200Y-45138094D02*
X170654819Y-45233332D01*
X170654819Y-45233332D02*
X170654819Y-45328570D01*
X170654819Y-45328570D02*
X170607200Y-45423808D01*
X170607200Y-45423808D02*
X170559580Y-45471427D01*
X170559580Y-45471427D02*
X170464342Y-45519046D01*
X170464342Y-45519046D02*
X170273866Y-45566665D01*
X170273866Y-45566665D02*
X170035771Y-45566665D01*
X170035771Y-45566665D02*
X169845295Y-45519046D01*
X169845295Y-45519046D02*
X169750057Y-45471427D01*
X169750057Y-45471427D02*
X169702438Y-45423808D01*
X169702438Y-45423808D02*
X169654819Y-45328570D01*
X170750057Y-44804761D02*
X170750057Y-44042856D01*
X170654819Y-43280951D02*
X170654819Y-43852379D01*
X170654819Y-43566665D02*
X169654819Y-43566665D01*
X169654819Y-43566665D02*
X169797676Y-43661903D01*
X169797676Y-43661903D02*
X169892914Y-43757141D01*
X169892914Y-43757141D02*
X169940533Y-43852379D01*
X169654819Y-42423808D02*
X169654819Y-42614284D01*
X169654819Y-42614284D02*
X169702438Y-42709522D01*
X169702438Y-42709522D02*
X169750057Y-42757141D01*
X169750057Y-42757141D02*
X169892914Y-42852379D01*
X169892914Y-42852379D02*
X170083390Y-42899998D01*
X170083390Y-42899998D02*
X170464342Y-42899998D01*
X170464342Y-42899998D02*
X170559580Y-42852379D01*
X170559580Y-42852379D02*
X170607200Y-42804760D01*
X170607200Y-42804760D02*
X170654819Y-42709522D01*
X170654819Y-42709522D02*
X170654819Y-42519046D01*
X170654819Y-42519046D02*
X170607200Y-42423808D01*
X170607200Y-42423808D02*
X170559580Y-42376189D01*
X170559580Y-42376189D02*
X170464342Y-42328570D01*
X170464342Y-42328570D02*
X170226247Y-42328570D01*
X170226247Y-42328570D02*
X170131009Y-42376189D01*
X170131009Y-42376189D02*
X170083390Y-42423808D01*
X170083390Y-42423808D02*
X170035771Y-42519046D01*
X170035771Y-42519046D02*
X170035771Y-42709522D01*
X170035771Y-42709522D02*
X170083390Y-42804760D01*
X170083390Y-42804760D02*
X170131009Y-42852379D01*
X170131009Y-42852379D02*
X170226247Y-42899998D01*
X170654819Y-41899998D02*
X169654819Y-41899998D01*
X169654819Y-41899998D02*
X169654819Y-41519046D01*
X169654819Y-41519046D02*
X169702438Y-41423808D01*
X169702438Y-41423808D02*
X169750057Y-41376189D01*
X169750057Y-41376189D02*
X169845295Y-41328570D01*
X169845295Y-41328570D02*
X169988152Y-41328570D01*
X169988152Y-41328570D02*
X170083390Y-41376189D01*
X170083390Y-41376189D02*
X170131009Y-41423808D01*
X170131009Y-41423808D02*
X170178628Y-41519046D01*
X170178628Y-41519046D02*
X170178628Y-41899998D01*
X164654819Y-53233333D02*
X165369104Y-53233333D01*
X165369104Y-53233333D02*
X165511961Y-53280952D01*
X165511961Y-53280952D02*
X165607200Y-53376190D01*
X165607200Y-53376190D02*
X165654819Y-53519047D01*
X165654819Y-53519047D02*
X165654819Y-53614285D01*
X164654819Y-52328571D02*
X164654819Y-52519047D01*
X164654819Y-52519047D02*
X164702438Y-52614285D01*
X164702438Y-52614285D02*
X164750057Y-52661904D01*
X164750057Y-52661904D02*
X164892914Y-52757142D01*
X164892914Y-52757142D02*
X165083390Y-52804761D01*
X165083390Y-52804761D02*
X165464342Y-52804761D01*
X165464342Y-52804761D02*
X165559580Y-52757142D01*
X165559580Y-52757142D02*
X165607200Y-52709523D01*
X165607200Y-52709523D02*
X165654819Y-52614285D01*
X165654819Y-52614285D02*
X165654819Y-52423809D01*
X165654819Y-52423809D02*
X165607200Y-52328571D01*
X165607200Y-52328571D02*
X165559580Y-52280952D01*
X165559580Y-52280952D02*
X165464342Y-52233333D01*
X165464342Y-52233333D02*
X165226247Y-52233333D01*
X165226247Y-52233333D02*
X165131009Y-52280952D01*
X165131009Y-52280952D02*
X165083390Y-52328571D01*
X165083390Y-52328571D02*
X165035771Y-52423809D01*
X165035771Y-52423809D02*
X165035771Y-52614285D01*
X165035771Y-52614285D02*
X165083390Y-52709523D01*
X165083390Y-52709523D02*
X165131009Y-52757142D01*
X165131009Y-52757142D02*
X165226247Y-52804761D01*
X146629818Y-76019404D02*
X146629818Y-75924166D01*
X146629818Y-75924166D02*
X146677437Y-75828928D01*
X146677437Y-75828928D02*
X146725056Y-75781309D01*
X146725056Y-75781309D02*
X146820294Y-75733690D01*
X146820294Y-75733690D02*
X147010770Y-75686071D01*
X147010770Y-75686071D02*
X147248865Y-75686071D01*
X147248865Y-75686071D02*
X147439341Y-75733690D01*
X147439341Y-75733690D02*
X147534579Y-75781309D01*
X147534579Y-75781309D02*
X147582199Y-75828928D01*
X147582199Y-75828928D02*
X147629818Y-75924166D01*
X147629818Y-75924166D02*
X147629818Y-76019404D01*
X147629818Y-76019404D02*
X147582199Y-76114642D01*
X147582199Y-76114642D02*
X147534579Y-76162261D01*
X147534579Y-76162261D02*
X147439341Y-76209880D01*
X147439341Y-76209880D02*
X147248865Y-76257499D01*
X147248865Y-76257499D02*
X147010770Y-76257499D01*
X147010770Y-76257499D02*
X146820294Y-76209880D01*
X146820294Y-76209880D02*
X146725056Y-76162261D01*
X146725056Y-76162261D02*
X146677437Y-76114642D01*
X146677437Y-76114642D02*
X146629818Y-76019404D01*
X147534579Y-75257499D02*
X147582199Y-75209880D01*
X147582199Y-75209880D02*
X147629818Y-75257499D01*
X147629818Y-75257499D02*
X147582199Y-75305118D01*
X147582199Y-75305118D02*
X147534579Y-75257499D01*
X147534579Y-75257499D02*
X147629818Y-75257499D01*
X146963151Y-74352738D02*
X147629818Y-74352738D01*
X146582199Y-74590833D02*
X147296484Y-74828928D01*
X147296484Y-74828928D02*
X147296484Y-74209881D01*
X147629818Y-73257500D02*
X147153627Y-73590833D01*
X147629818Y-73828928D02*
X146629818Y-73828928D01*
X146629818Y-73828928D02*
X146629818Y-73447976D01*
X146629818Y-73447976D02*
X146677437Y-73352738D01*
X146677437Y-73352738D02*
X146725056Y-73305119D01*
X146725056Y-73305119D02*
X146820294Y-73257500D01*
X146820294Y-73257500D02*
X146963151Y-73257500D01*
X146963151Y-73257500D02*
X147058389Y-73305119D01*
X147058389Y-73305119D02*
X147106008Y-73352738D01*
X147106008Y-73352738D02*
X147153627Y-73447976D01*
X147153627Y-73447976D02*
X147153627Y-73828928D01*
D11*
X149388855Y-74890832D02*
X149007902Y-75157499D01*
X149388855Y-75347975D02*
X148588855Y-75347975D01*
X148588855Y-75347975D02*
X148588855Y-75043213D01*
X148588855Y-75043213D02*
X148626950Y-74967023D01*
X148626950Y-74967023D02*
X148665045Y-74928928D01*
X148665045Y-74928928D02*
X148741236Y-74890832D01*
X148741236Y-74890832D02*
X148855521Y-74890832D01*
X148855521Y-74890832D02*
X148931712Y-74928928D01*
X148931712Y-74928928D02*
X148969807Y-74967023D01*
X148969807Y-74967023D02*
X149007902Y-75043213D01*
X149007902Y-75043213D02*
X149007902Y-75347975D01*
X148588855Y-74624166D02*
X148588855Y-74128928D01*
X148588855Y-74128928D02*
X148893617Y-74395594D01*
X148893617Y-74395594D02*
X148893617Y-74281309D01*
X148893617Y-74281309D02*
X148931712Y-74205118D01*
X148931712Y-74205118D02*
X148969807Y-74167023D01*
X148969807Y-74167023D02*
X149045998Y-74128928D01*
X149045998Y-74128928D02*
X149236474Y-74128928D01*
X149236474Y-74128928D02*
X149312664Y-74167023D01*
X149312664Y-74167023D02*
X149350760Y-74205118D01*
X149350760Y-74205118D02*
X149388855Y-74281309D01*
X149388855Y-74281309D02*
X149388855Y-74509880D01*
X149388855Y-74509880D02*
X149350760Y-74586071D01*
X149350760Y-74586071D02*
X149312664Y-74624166D01*
D10*
X159134524Y-74116819D02*
X159705952Y-74116819D01*
X159420238Y-75116819D02*
X159420238Y-74116819D01*
X160039286Y-75116819D02*
X160039286Y-74116819D01*
X160039286Y-74116819D02*
X160420238Y-74116819D01*
X160420238Y-74116819D02*
X160515476Y-74164438D01*
X160515476Y-74164438D02*
X160563095Y-74212057D01*
X160563095Y-74212057D02*
X160610714Y-74307295D01*
X160610714Y-74307295D02*
X160610714Y-74450152D01*
X160610714Y-74450152D02*
X160563095Y-74545390D01*
X160563095Y-74545390D02*
X160515476Y-74593009D01*
X160515476Y-74593009D02*
X160420238Y-74640628D01*
X160420238Y-74640628D02*
X160039286Y-74640628D01*
X161467857Y-74450152D02*
X161467857Y-75116819D01*
X161229762Y-74069200D02*
X160991667Y-74783485D01*
X160991667Y-74783485D02*
X161610714Y-74783485D01*
X162182143Y-74116819D02*
X162277381Y-74116819D01*
X162277381Y-74116819D02*
X162372619Y-74164438D01*
X162372619Y-74164438D02*
X162420238Y-74212057D01*
X162420238Y-74212057D02*
X162467857Y-74307295D01*
X162467857Y-74307295D02*
X162515476Y-74497771D01*
X162515476Y-74497771D02*
X162515476Y-74735866D01*
X162515476Y-74735866D02*
X162467857Y-74926342D01*
X162467857Y-74926342D02*
X162420238Y-75021580D01*
X162420238Y-75021580D02*
X162372619Y-75069200D01*
X162372619Y-75069200D02*
X162277381Y-75116819D01*
X162277381Y-75116819D02*
X162182143Y-75116819D01*
X162182143Y-75116819D02*
X162086905Y-75069200D01*
X162086905Y-75069200D02*
X162039286Y-75021580D01*
X162039286Y-75021580D02*
X161991667Y-74926342D01*
X161991667Y-74926342D02*
X161944048Y-74735866D01*
X161944048Y-74735866D02*
X161944048Y-74497771D01*
X161944048Y-74497771D02*
X161991667Y-74307295D01*
X161991667Y-74307295D02*
X162039286Y-74212057D01*
X162039286Y-74212057D02*
X162086905Y-74164438D01*
X162086905Y-74164438D02*
X162182143Y-74116819D01*
X163420238Y-74116819D02*
X162944048Y-74116819D01*
X162944048Y-74116819D02*
X162896429Y-74593009D01*
X162896429Y-74593009D02*
X162944048Y-74545390D01*
X162944048Y-74545390D02*
X163039286Y-74497771D01*
X163039286Y-74497771D02*
X163277381Y-74497771D01*
X163277381Y-74497771D02*
X163372619Y-74545390D01*
X163372619Y-74545390D02*
X163420238Y-74593009D01*
X163420238Y-74593009D02*
X163467857Y-74688247D01*
X163467857Y-74688247D02*
X163467857Y-74926342D01*
X163467857Y-74926342D02*
X163420238Y-75021580D01*
X163420238Y-75021580D02*
X163372619Y-75069200D01*
X163372619Y-75069200D02*
X163277381Y-75116819D01*
X163277381Y-75116819D02*
X163039286Y-75116819D01*
X163039286Y-75116819D02*
X162944048Y-75069200D01*
X162944048Y-75069200D02*
X162896429Y-75021580D01*
X164325000Y-74116819D02*
X164134524Y-74116819D01*
X164134524Y-74116819D02*
X164039286Y-74164438D01*
X164039286Y-74164438D02*
X163991667Y-74212057D01*
X163991667Y-74212057D02*
X163896429Y-74354914D01*
X163896429Y-74354914D02*
X163848810Y-74545390D01*
X163848810Y-74545390D02*
X163848810Y-74926342D01*
X163848810Y-74926342D02*
X163896429Y-75021580D01*
X163896429Y-75021580D02*
X163944048Y-75069200D01*
X163944048Y-75069200D02*
X164039286Y-75116819D01*
X164039286Y-75116819D02*
X164229762Y-75116819D01*
X164229762Y-75116819D02*
X164325000Y-75069200D01*
X164325000Y-75069200D02*
X164372619Y-75021580D01*
X164372619Y-75021580D02*
X164420238Y-74926342D01*
X164420238Y-74926342D02*
X164420238Y-74688247D01*
X164420238Y-74688247D02*
X164372619Y-74593009D01*
X164372619Y-74593009D02*
X164325000Y-74545390D01*
X164325000Y-74545390D02*
X164229762Y-74497771D01*
X164229762Y-74497771D02*
X164039286Y-74497771D01*
X164039286Y-74497771D02*
X163944048Y-74545390D01*
X163944048Y-74545390D02*
X163896429Y-74593009D01*
X163896429Y-74593009D02*
X163848810Y-74688247D01*
X130799580Y-72842858D02*
X130847200Y-72890477D01*
X130847200Y-72890477D02*
X130894819Y-73033334D01*
X130894819Y-73033334D02*
X130894819Y-73128572D01*
X130894819Y-73128572D02*
X130847200Y-73271429D01*
X130847200Y-73271429D02*
X130751961Y-73366667D01*
X130751961Y-73366667D02*
X130656723Y-73414286D01*
X130656723Y-73414286D02*
X130466247Y-73461905D01*
X130466247Y-73461905D02*
X130323390Y-73461905D01*
X130323390Y-73461905D02*
X130132914Y-73414286D01*
X130132914Y-73414286D02*
X130037676Y-73366667D01*
X130037676Y-73366667D02*
X129942438Y-73271429D01*
X129942438Y-73271429D02*
X129894819Y-73128572D01*
X129894819Y-73128572D02*
X129894819Y-73033334D01*
X129894819Y-73033334D02*
X129942438Y-72890477D01*
X129942438Y-72890477D02*
X129990057Y-72842858D01*
X130894819Y-72271429D02*
X130847200Y-72366667D01*
X130847200Y-72366667D02*
X130799580Y-72414286D01*
X130799580Y-72414286D02*
X130704342Y-72461905D01*
X130704342Y-72461905D02*
X130418628Y-72461905D01*
X130418628Y-72461905D02*
X130323390Y-72414286D01*
X130323390Y-72414286D02*
X130275771Y-72366667D01*
X130275771Y-72366667D02*
X130228152Y-72271429D01*
X130228152Y-72271429D02*
X130228152Y-72128572D01*
X130228152Y-72128572D02*
X130275771Y-72033334D01*
X130275771Y-72033334D02*
X130323390Y-71985715D01*
X130323390Y-71985715D02*
X130418628Y-71938096D01*
X130418628Y-71938096D02*
X130704342Y-71938096D01*
X130704342Y-71938096D02*
X130799580Y-71985715D01*
X130799580Y-71985715D02*
X130847200Y-72033334D01*
X130847200Y-72033334D02*
X130894819Y-72128572D01*
X130894819Y-72128572D02*
X130894819Y-72271429D01*
X130228152Y-71509524D02*
X130894819Y-71509524D01*
X130323390Y-71509524D02*
X130275771Y-71461905D01*
X130275771Y-71461905D02*
X130228152Y-71366667D01*
X130228152Y-71366667D02*
X130228152Y-71223810D01*
X130228152Y-71223810D02*
X130275771Y-71128572D01*
X130275771Y-71128572D02*
X130371009Y-71080953D01*
X130371009Y-71080953D02*
X130894819Y-71080953D01*
X130228152Y-70604762D02*
X130894819Y-70604762D01*
X130323390Y-70604762D02*
X130275771Y-70557143D01*
X130275771Y-70557143D02*
X130228152Y-70461905D01*
X130228152Y-70461905D02*
X130228152Y-70319048D01*
X130228152Y-70319048D02*
X130275771Y-70223810D01*
X130275771Y-70223810D02*
X130371009Y-70176191D01*
X130371009Y-70176191D02*
X130894819Y-70176191D01*
X130990057Y-69938096D02*
X130990057Y-69176191D01*
X129894819Y-68747619D02*
X129894819Y-68652381D01*
X129894819Y-68652381D02*
X129942438Y-68557143D01*
X129942438Y-68557143D02*
X129990057Y-68509524D01*
X129990057Y-68509524D02*
X130085295Y-68461905D01*
X130085295Y-68461905D02*
X130275771Y-68414286D01*
X130275771Y-68414286D02*
X130513866Y-68414286D01*
X130513866Y-68414286D02*
X130704342Y-68461905D01*
X130704342Y-68461905D02*
X130799580Y-68509524D01*
X130799580Y-68509524D02*
X130847200Y-68557143D01*
X130847200Y-68557143D02*
X130894819Y-68652381D01*
X130894819Y-68652381D02*
X130894819Y-68747619D01*
X130894819Y-68747619D02*
X130847200Y-68842857D01*
X130847200Y-68842857D02*
X130799580Y-68890476D01*
X130799580Y-68890476D02*
X130704342Y-68938095D01*
X130704342Y-68938095D02*
X130513866Y-68985714D01*
X130513866Y-68985714D02*
X130275771Y-68985714D01*
X130275771Y-68985714D02*
X130085295Y-68938095D01*
X130085295Y-68938095D02*
X129990057Y-68890476D01*
X129990057Y-68890476D02*
X129942438Y-68842857D01*
X129942438Y-68842857D02*
X129894819Y-68747619D01*
X129990057Y-68033333D02*
X129942438Y-67985714D01*
X129942438Y-67985714D02*
X129894819Y-67890476D01*
X129894819Y-67890476D02*
X129894819Y-67652381D01*
X129894819Y-67652381D02*
X129942438Y-67557143D01*
X129942438Y-67557143D02*
X129990057Y-67509524D01*
X129990057Y-67509524D02*
X130085295Y-67461905D01*
X130085295Y-67461905D02*
X130180533Y-67461905D01*
X130180533Y-67461905D02*
X130323390Y-67509524D01*
X130323390Y-67509524D02*
X130894819Y-68080952D01*
X130894819Y-68080952D02*
X130894819Y-67461905D01*
X130894819Y-67128571D02*
X130228152Y-66604762D01*
X130228152Y-67128571D02*
X130894819Y-66604762D01*
X129894819Y-66033333D02*
X129894819Y-65938095D01*
X129894819Y-65938095D02*
X129942438Y-65842857D01*
X129942438Y-65842857D02*
X129990057Y-65795238D01*
X129990057Y-65795238D02*
X130085295Y-65747619D01*
X130085295Y-65747619D02*
X130275771Y-65700000D01*
X130275771Y-65700000D02*
X130513866Y-65700000D01*
X130513866Y-65700000D02*
X130704342Y-65747619D01*
X130704342Y-65747619D02*
X130799580Y-65795238D01*
X130799580Y-65795238D02*
X130847200Y-65842857D01*
X130847200Y-65842857D02*
X130894819Y-65938095D01*
X130894819Y-65938095D02*
X130894819Y-66033333D01*
X130894819Y-66033333D02*
X130847200Y-66128571D01*
X130847200Y-66128571D02*
X130799580Y-66176190D01*
X130799580Y-66176190D02*
X130704342Y-66223809D01*
X130704342Y-66223809D02*
X130513866Y-66271428D01*
X130513866Y-66271428D02*
X130275771Y-66271428D01*
X130275771Y-66271428D02*
X130085295Y-66223809D01*
X130085295Y-66223809D02*
X129990057Y-66176190D01*
X129990057Y-66176190D02*
X129942438Y-66128571D01*
X129942438Y-66128571D02*
X129894819Y-66033333D01*
X129894819Y-64842857D02*
X129894819Y-65033333D01*
X129894819Y-65033333D02*
X129942438Y-65128571D01*
X129942438Y-65128571D02*
X129990057Y-65176190D01*
X129990057Y-65176190D02*
X130132914Y-65271428D01*
X130132914Y-65271428D02*
X130323390Y-65319047D01*
X130323390Y-65319047D02*
X130704342Y-65319047D01*
X130704342Y-65319047D02*
X130799580Y-65271428D01*
X130799580Y-65271428D02*
X130847200Y-65223809D01*
X130847200Y-65223809D02*
X130894819Y-65128571D01*
X130894819Y-65128571D02*
X130894819Y-64938095D01*
X130894819Y-64938095D02*
X130847200Y-64842857D01*
X130847200Y-64842857D02*
X130799580Y-64795238D01*
X130799580Y-64795238D02*
X130704342Y-64747619D01*
X130704342Y-64747619D02*
X130466247Y-64747619D01*
X130466247Y-64747619D02*
X130371009Y-64795238D01*
X130371009Y-64795238D02*
X130323390Y-64842857D01*
X130323390Y-64842857D02*
X130275771Y-64938095D01*
X130275771Y-64938095D02*
X130275771Y-65128571D01*
X130275771Y-65128571D02*
X130323390Y-65223809D01*
X130323390Y-65223809D02*
X130371009Y-65271428D01*
X130371009Y-65271428D02*
X130466247Y-65319047D01*
X130990057Y-64557143D02*
X130990057Y-63795238D01*
X129894819Y-63366666D02*
X129894819Y-63176190D01*
X129894819Y-63176190D02*
X129942438Y-63080952D01*
X129942438Y-63080952D02*
X130037676Y-62985714D01*
X130037676Y-62985714D02*
X130228152Y-62938095D01*
X130228152Y-62938095D02*
X130561485Y-62938095D01*
X130561485Y-62938095D02*
X130751961Y-62985714D01*
X130751961Y-62985714D02*
X130847200Y-63080952D01*
X130847200Y-63080952D02*
X130894819Y-63176190D01*
X130894819Y-63176190D02*
X130894819Y-63366666D01*
X130894819Y-63366666D02*
X130847200Y-63461904D01*
X130847200Y-63461904D02*
X130751961Y-63557142D01*
X130751961Y-63557142D02*
X130561485Y-63604761D01*
X130561485Y-63604761D02*
X130228152Y-63604761D01*
X130228152Y-63604761D02*
X130037676Y-63557142D01*
X130037676Y-63557142D02*
X129942438Y-63461904D01*
X129942438Y-63461904D02*
X129894819Y-63366666D01*
X130894819Y-62080952D02*
X129894819Y-62080952D01*
X130847200Y-62080952D02*
X130894819Y-62176190D01*
X130894819Y-62176190D02*
X130894819Y-62366666D01*
X130894819Y-62366666D02*
X130847200Y-62461904D01*
X130847200Y-62461904D02*
X130799580Y-62509523D01*
X130799580Y-62509523D02*
X130704342Y-62557142D01*
X130704342Y-62557142D02*
X130418628Y-62557142D01*
X130418628Y-62557142D02*
X130323390Y-62509523D01*
X130323390Y-62509523D02*
X130275771Y-62461904D01*
X130275771Y-62461904D02*
X130228152Y-62366666D01*
X130228152Y-62366666D02*
X130228152Y-62176190D01*
X130228152Y-62176190D02*
X130275771Y-62080952D01*
X130894819Y-61176190D02*
X129894819Y-61176190D01*
X130847200Y-61176190D02*
X130894819Y-61271428D01*
X130894819Y-61271428D02*
X130894819Y-61461904D01*
X130894819Y-61461904D02*
X130847200Y-61557142D01*
X130847200Y-61557142D02*
X130799580Y-61604761D01*
X130799580Y-61604761D02*
X130704342Y-61652380D01*
X130704342Y-61652380D02*
X130418628Y-61652380D01*
X130418628Y-61652380D02*
X130323390Y-61604761D01*
X130323390Y-61604761D02*
X130275771Y-61557142D01*
X130275771Y-61557142D02*
X130228152Y-61461904D01*
X130228152Y-61461904D02*
X130228152Y-61271428D01*
X130228152Y-61271428D02*
X130275771Y-61176190D01*
X130990057Y-60938095D02*
X130990057Y-60176190D01*
X130371009Y-59938094D02*
X130371009Y-59604761D01*
X130894819Y-59461904D02*
X130894819Y-59938094D01*
X130894819Y-59938094D02*
X129894819Y-59938094D01*
X129894819Y-59938094D02*
X129894819Y-59461904D01*
X130228152Y-59128570D02*
X130894819Y-58890475D01*
X130894819Y-58890475D02*
X130228152Y-58652380D01*
X130847200Y-57890475D02*
X130894819Y-57985713D01*
X130894819Y-57985713D02*
X130894819Y-58176189D01*
X130894819Y-58176189D02*
X130847200Y-58271427D01*
X130847200Y-58271427D02*
X130751961Y-58319046D01*
X130751961Y-58319046D02*
X130371009Y-58319046D01*
X130371009Y-58319046D02*
X130275771Y-58271427D01*
X130275771Y-58271427D02*
X130228152Y-58176189D01*
X130228152Y-58176189D02*
X130228152Y-57985713D01*
X130228152Y-57985713D02*
X130275771Y-57890475D01*
X130275771Y-57890475D02*
X130371009Y-57842856D01*
X130371009Y-57842856D02*
X130466247Y-57842856D01*
X130466247Y-57842856D02*
X130561485Y-58319046D01*
X130228152Y-57414284D02*
X130894819Y-57414284D01*
X130323390Y-57414284D02*
X130275771Y-57366665D01*
X130275771Y-57366665D02*
X130228152Y-57271427D01*
X130228152Y-57271427D02*
X130228152Y-57128570D01*
X130228152Y-57128570D02*
X130275771Y-57033332D01*
X130275771Y-57033332D02*
X130371009Y-56985713D01*
X130371009Y-56985713D02*
X130894819Y-56985713D01*
X137166666Y-64654819D02*
X137166666Y-65369104D01*
X137166666Y-65369104D02*
X137119047Y-65511961D01*
X137119047Y-65511961D02*
X137023809Y-65607200D01*
X137023809Y-65607200D02*
X136880952Y-65654819D01*
X136880952Y-65654819D02*
X136785714Y-65654819D01*
X138166666Y-65654819D02*
X137595238Y-65654819D01*
X137880952Y-65654819D02*
X137880952Y-64654819D01*
X137880952Y-64654819D02*
X137785714Y-64797676D01*
X137785714Y-64797676D02*
X137690476Y-64892914D01*
X137690476Y-64892914D02*
X137595238Y-64940533D01*
X112947200Y-45595237D02*
X112994819Y-45452380D01*
X112994819Y-45452380D02*
X112994819Y-45214285D01*
X112994819Y-45214285D02*
X112947200Y-45119047D01*
X112947200Y-45119047D02*
X112899580Y-45071428D01*
X112899580Y-45071428D02*
X112804342Y-45023809D01*
X112804342Y-45023809D02*
X112709104Y-45023809D01*
X112709104Y-45023809D02*
X112613866Y-45071428D01*
X112613866Y-45071428D02*
X112566247Y-45119047D01*
X112566247Y-45119047D02*
X112518628Y-45214285D01*
X112518628Y-45214285D02*
X112471009Y-45404761D01*
X112471009Y-45404761D02*
X112423390Y-45499999D01*
X112423390Y-45499999D02*
X112375771Y-45547618D01*
X112375771Y-45547618D02*
X112280533Y-45595237D01*
X112280533Y-45595237D02*
X112185295Y-45595237D01*
X112185295Y-45595237D02*
X112090057Y-45547618D01*
X112090057Y-45547618D02*
X112042438Y-45499999D01*
X112042438Y-45499999D02*
X111994819Y-45404761D01*
X111994819Y-45404761D02*
X111994819Y-45166666D01*
X111994819Y-45166666D02*
X112042438Y-45023809D01*
X111994819Y-44690475D02*
X112994819Y-44452380D01*
X112994819Y-44452380D02*
X112280533Y-44261904D01*
X112280533Y-44261904D02*
X112994819Y-44071428D01*
X112994819Y-44071428D02*
X111994819Y-43833333D01*
X113090057Y-43690476D02*
X113090057Y-42928571D01*
X112947200Y-42738094D02*
X112994819Y-42595237D01*
X112994819Y-42595237D02*
X112994819Y-42357142D01*
X112994819Y-42357142D02*
X112947200Y-42261904D01*
X112947200Y-42261904D02*
X112899580Y-42214285D01*
X112899580Y-42214285D02*
X112804342Y-42166666D01*
X112804342Y-42166666D02*
X112709104Y-42166666D01*
X112709104Y-42166666D02*
X112613866Y-42214285D01*
X112613866Y-42214285D02*
X112566247Y-42261904D01*
X112566247Y-42261904D02*
X112518628Y-42357142D01*
X112518628Y-42357142D02*
X112471009Y-42547618D01*
X112471009Y-42547618D02*
X112423390Y-42642856D01*
X112423390Y-42642856D02*
X112375771Y-42690475D01*
X112375771Y-42690475D02*
X112280533Y-42738094D01*
X112280533Y-42738094D02*
X112185295Y-42738094D01*
X112185295Y-42738094D02*
X112090057Y-42690475D01*
X112090057Y-42690475D02*
X112042438Y-42642856D01*
X112042438Y-42642856D02*
X111994819Y-42547618D01*
X111994819Y-42547618D02*
X111994819Y-42309523D01*
X111994819Y-42309523D02*
X112042438Y-42166666D01*
X112994819Y-41738094D02*
X111994819Y-41738094D01*
X111994819Y-41738094D02*
X111994819Y-41357142D01*
X111994819Y-41357142D02*
X112042438Y-41261904D01*
X112042438Y-41261904D02*
X112090057Y-41214285D01*
X112090057Y-41214285D02*
X112185295Y-41166666D01*
X112185295Y-41166666D02*
X112328152Y-41166666D01*
X112328152Y-41166666D02*
X112423390Y-41214285D01*
X112423390Y-41214285D02*
X112471009Y-41261904D01*
X112471009Y-41261904D02*
X112518628Y-41357142D01*
X112518628Y-41357142D02*
X112518628Y-41738094D01*
X112994819Y-40738094D02*
X111994819Y-40738094D01*
X111994819Y-40738094D02*
X111994819Y-40499999D01*
X111994819Y-40499999D02*
X112042438Y-40357142D01*
X112042438Y-40357142D02*
X112137676Y-40261904D01*
X112137676Y-40261904D02*
X112232914Y-40214285D01*
X112232914Y-40214285D02*
X112423390Y-40166666D01*
X112423390Y-40166666D02*
X112566247Y-40166666D01*
X112566247Y-40166666D02*
X112756723Y-40214285D01*
X112756723Y-40214285D02*
X112851961Y-40261904D01*
X112851961Y-40261904D02*
X112947200Y-40357142D01*
X112947200Y-40357142D02*
X112994819Y-40499999D01*
X112994819Y-40499999D02*
X112994819Y-40738094D01*
X111994819Y-39880951D02*
X111994819Y-39309523D01*
X112994819Y-39595237D02*
X111994819Y-39595237D01*
X115266666Y-42907200D02*
X115409523Y-42954819D01*
X115409523Y-42954819D02*
X115647618Y-42954819D01*
X115647618Y-42954819D02*
X115742856Y-42907200D01*
X115742856Y-42907200D02*
X115790475Y-42859580D01*
X115790475Y-42859580D02*
X115838094Y-42764342D01*
X115838094Y-42764342D02*
X115838094Y-42669104D01*
X115838094Y-42669104D02*
X115790475Y-42573866D01*
X115790475Y-42573866D02*
X115742856Y-42526247D01*
X115742856Y-42526247D02*
X115647618Y-42478628D01*
X115647618Y-42478628D02*
X115457142Y-42431009D01*
X115457142Y-42431009D02*
X115361904Y-42383390D01*
X115361904Y-42383390D02*
X115314285Y-42335771D01*
X115314285Y-42335771D02*
X115266666Y-42240533D01*
X115266666Y-42240533D02*
X115266666Y-42145295D01*
X115266666Y-42145295D02*
X115314285Y-42050057D01*
X115314285Y-42050057D02*
X115361904Y-42002438D01*
X115361904Y-42002438D02*
X115457142Y-41954819D01*
X115457142Y-41954819D02*
X115695237Y-41954819D01*
X115695237Y-41954819D02*
X115838094Y-42002438D01*
X116171428Y-41954819D02*
X116409523Y-42954819D01*
X116409523Y-42954819D02*
X116599999Y-42240533D01*
X116599999Y-42240533D02*
X116790475Y-42954819D01*
X116790475Y-42954819D02*
X117028571Y-41954819D01*
X117933332Y-42954819D02*
X117361904Y-42954819D01*
X117647618Y-42954819D02*
X117647618Y-41954819D01*
X117647618Y-41954819D02*
X117552380Y-42097676D01*
X117552380Y-42097676D02*
X117457142Y-42192914D01*
X117457142Y-42192914D02*
X117361904Y-42240533D01*
X151204818Y-55315357D02*
X151204818Y-55791547D01*
X151204818Y-55791547D02*
X151681008Y-55839166D01*
X151681008Y-55839166D02*
X151633389Y-55791547D01*
X151633389Y-55791547D02*
X151585770Y-55696309D01*
X151585770Y-55696309D02*
X151585770Y-55458214D01*
X151585770Y-55458214D02*
X151633389Y-55362976D01*
X151633389Y-55362976D02*
X151681008Y-55315357D01*
X151681008Y-55315357D02*
X151776246Y-55267738D01*
X151776246Y-55267738D02*
X152014341Y-55267738D01*
X152014341Y-55267738D02*
X152109579Y-55315357D01*
X152109579Y-55315357D02*
X152157199Y-55362976D01*
X152157199Y-55362976D02*
X152204818Y-55458214D01*
X152204818Y-55458214D02*
X152204818Y-55696309D01*
X152204818Y-55696309D02*
X152157199Y-55791547D01*
X152157199Y-55791547D02*
X152109579Y-55839166D01*
X152204818Y-54839166D02*
X151204818Y-54839166D01*
X151823865Y-54743928D02*
X152204818Y-54458214D01*
X151538151Y-54458214D02*
X151919103Y-54839166D01*
X152204818Y-53505833D02*
X152204818Y-54077261D01*
X152204818Y-53791547D02*
X151204818Y-53791547D01*
X151204818Y-53791547D02*
X151347675Y-53886785D01*
X151347675Y-53886785D02*
X151442913Y-53982023D01*
X151442913Y-53982023D02*
X151490532Y-54077261D01*
D11*
X153963855Y-55186785D02*
X153582902Y-55453452D01*
X153963855Y-55643928D02*
X153163855Y-55643928D01*
X153163855Y-55643928D02*
X153163855Y-55339166D01*
X153163855Y-55339166D02*
X153201950Y-55262976D01*
X153201950Y-55262976D02*
X153240045Y-55224881D01*
X153240045Y-55224881D02*
X153316236Y-55186785D01*
X153316236Y-55186785D02*
X153430521Y-55186785D01*
X153430521Y-55186785D02*
X153506712Y-55224881D01*
X153506712Y-55224881D02*
X153544807Y-55262976D01*
X153544807Y-55262976D02*
X153582902Y-55339166D01*
X153582902Y-55339166D02*
X153582902Y-55643928D01*
X153963855Y-54424881D02*
X153963855Y-54882024D01*
X153963855Y-54653452D02*
X153163855Y-54653452D01*
X153163855Y-54653452D02*
X153278140Y-54729643D01*
X153278140Y-54729643D02*
X153354331Y-54805833D01*
X153354331Y-54805833D02*
X153392426Y-54882024D01*
X153163855Y-54158214D02*
X153163855Y-53662976D01*
X153163855Y-53662976D02*
X153468617Y-53929642D01*
X153468617Y-53929642D02*
X153468617Y-53815357D01*
X153468617Y-53815357D02*
X153506712Y-53739166D01*
X153506712Y-53739166D02*
X153544807Y-53701071D01*
X153544807Y-53701071D02*
X153620998Y-53662976D01*
X153620998Y-53662976D02*
X153811474Y-53662976D01*
X153811474Y-53662976D02*
X153887664Y-53701071D01*
X153887664Y-53701071D02*
X153925760Y-53739166D01*
X153925760Y-53739166D02*
X153963855Y-53815357D01*
X153963855Y-53815357D02*
X153963855Y-54043928D01*
X153963855Y-54043928D02*
X153925760Y-54120119D01*
X153925760Y-54120119D02*
X153887664Y-54158214D01*
D10*
X154069642Y-64374819D02*
X153593452Y-64374819D01*
X153593452Y-64374819D02*
X153593452Y-63374819D01*
X154402976Y-63851009D02*
X154736309Y-63851009D01*
X154879166Y-64374819D02*
X154402976Y-64374819D01*
X154402976Y-64374819D02*
X154402976Y-63374819D01*
X154402976Y-63374819D02*
X154879166Y-63374819D01*
X155307738Y-64374819D02*
X155307738Y-63374819D01*
X155307738Y-63374819D02*
X155545833Y-63374819D01*
X155545833Y-63374819D02*
X155688690Y-63422438D01*
X155688690Y-63422438D02*
X155783928Y-63517676D01*
X155783928Y-63517676D02*
X155831547Y-63612914D01*
X155831547Y-63612914D02*
X155879166Y-63803390D01*
X155879166Y-63803390D02*
X155879166Y-63946247D01*
X155879166Y-63946247D02*
X155831547Y-64136723D01*
X155831547Y-64136723D02*
X155783928Y-64231961D01*
X155783928Y-64231961D02*
X155688690Y-64327200D01*
X155688690Y-64327200D02*
X155545833Y-64374819D01*
X155545833Y-64374819D02*
X155307738Y-64374819D01*
D11*
X154122024Y-62463855D02*
X154122024Y-61663855D01*
X154122024Y-61663855D02*
X154312500Y-61663855D01*
X154312500Y-61663855D02*
X154426786Y-61701950D01*
X154426786Y-61701950D02*
X154502976Y-61778140D01*
X154502976Y-61778140D02*
X154541071Y-61854331D01*
X154541071Y-61854331D02*
X154579167Y-62006712D01*
X154579167Y-62006712D02*
X154579167Y-62120998D01*
X154579167Y-62120998D02*
X154541071Y-62273379D01*
X154541071Y-62273379D02*
X154502976Y-62349569D01*
X154502976Y-62349569D02*
X154426786Y-62425760D01*
X154426786Y-62425760D02*
X154312500Y-62463855D01*
X154312500Y-62463855D02*
X154122024Y-62463855D01*
X154883928Y-61740045D02*
X154922024Y-61701950D01*
X154922024Y-61701950D02*
X154998214Y-61663855D01*
X154998214Y-61663855D02*
X155188690Y-61663855D01*
X155188690Y-61663855D02*
X155264881Y-61701950D01*
X155264881Y-61701950D02*
X155302976Y-61740045D01*
X155302976Y-61740045D02*
X155341071Y-61816236D01*
X155341071Y-61816236D02*
X155341071Y-61892426D01*
X155341071Y-61892426D02*
X155302976Y-62006712D01*
X155302976Y-62006712D02*
X154845833Y-62463855D01*
X154845833Y-62463855D02*
X155341071Y-62463855D01*
D10*
X143494642Y-61704819D02*
X143018452Y-61704819D01*
X143018452Y-61704819D02*
X142970833Y-62181009D01*
X142970833Y-62181009D02*
X143018452Y-62133390D01*
X143018452Y-62133390D02*
X143113690Y-62085771D01*
X143113690Y-62085771D02*
X143351785Y-62085771D01*
X143351785Y-62085771D02*
X143447023Y-62133390D01*
X143447023Y-62133390D02*
X143494642Y-62181009D01*
X143494642Y-62181009D02*
X143542261Y-62276247D01*
X143542261Y-62276247D02*
X143542261Y-62514342D01*
X143542261Y-62514342D02*
X143494642Y-62609580D01*
X143494642Y-62609580D02*
X143447023Y-62657200D01*
X143447023Y-62657200D02*
X143351785Y-62704819D01*
X143351785Y-62704819D02*
X143113690Y-62704819D01*
X143113690Y-62704819D02*
X143018452Y-62657200D01*
X143018452Y-62657200D02*
X142970833Y-62609580D01*
X143970833Y-62704819D02*
X143970833Y-61704819D01*
X144066071Y-62323866D02*
X144351785Y-62704819D01*
X144351785Y-62038152D02*
X143970833Y-62419104D01*
X145304166Y-62704819D02*
X144732738Y-62704819D01*
X145018452Y-62704819D02*
X145018452Y-61704819D01*
X145018452Y-61704819D02*
X144923214Y-61847676D01*
X144923214Y-61847676D02*
X144827976Y-61942914D01*
X144827976Y-61942914D02*
X144732738Y-61990533D01*
D11*
X143623214Y-60763855D02*
X143356547Y-60382902D01*
X143166071Y-60763855D02*
X143166071Y-59963855D01*
X143166071Y-59963855D02*
X143470833Y-59963855D01*
X143470833Y-59963855D02*
X143547023Y-60001950D01*
X143547023Y-60001950D02*
X143585118Y-60040045D01*
X143585118Y-60040045D02*
X143623214Y-60116236D01*
X143623214Y-60116236D02*
X143623214Y-60230521D01*
X143623214Y-60230521D02*
X143585118Y-60306712D01*
X143585118Y-60306712D02*
X143547023Y-60344807D01*
X143547023Y-60344807D02*
X143470833Y-60382902D01*
X143470833Y-60382902D02*
X143166071Y-60382902D01*
X144385118Y-60763855D02*
X143927975Y-60763855D01*
X144156547Y-60763855D02*
X144156547Y-59963855D01*
X144156547Y-59963855D02*
X144080356Y-60078140D01*
X144080356Y-60078140D02*
X144004166Y-60154331D01*
X144004166Y-60154331D02*
X143927975Y-60192426D01*
X145147023Y-60763855D02*
X144689880Y-60763855D01*
X144918452Y-60763855D02*
X144918452Y-59963855D01*
X144918452Y-59963855D02*
X144842261Y-60078140D01*
X144842261Y-60078140D02*
X144766071Y-60154331D01*
X144766071Y-60154331D02*
X144689880Y-60192426D01*
D10*
X147593866Y-78041904D02*
X147546247Y-77994285D01*
X147546247Y-77994285D02*
X147498628Y-77899047D01*
X147498628Y-77899047D02*
X147593866Y-77708571D01*
X147593866Y-77708571D02*
X147546247Y-77613333D01*
X147546247Y-77613333D02*
X147498628Y-77565714D01*
X144254819Y-77805594D02*
X143254819Y-77805594D01*
X143254819Y-77805594D02*
X143254819Y-77567499D01*
X143254819Y-77567499D02*
X143302438Y-77424642D01*
X143302438Y-77424642D02*
X143397676Y-77329404D01*
X143397676Y-77329404D02*
X143492914Y-77281785D01*
X143492914Y-77281785D02*
X143683390Y-77234166D01*
X143683390Y-77234166D02*
X143826247Y-77234166D01*
X143826247Y-77234166D02*
X144016723Y-77281785D01*
X144016723Y-77281785D02*
X144111961Y-77329404D01*
X144111961Y-77329404D02*
X144207200Y-77424642D01*
X144207200Y-77424642D02*
X144254819Y-77567499D01*
X144254819Y-77567499D02*
X144254819Y-77805594D01*
X143254819Y-76900832D02*
X143254819Y-76281785D01*
X143254819Y-76281785D02*
X143635771Y-76615118D01*
X143635771Y-76615118D02*
X143635771Y-76472261D01*
X143635771Y-76472261D02*
X143683390Y-76377023D01*
X143683390Y-76377023D02*
X143731009Y-76329404D01*
X143731009Y-76329404D02*
X143826247Y-76281785D01*
X143826247Y-76281785D02*
X144064342Y-76281785D01*
X144064342Y-76281785D02*
X144159580Y-76329404D01*
X144159580Y-76329404D02*
X144207200Y-76377023D01*
X144207200Y-76377023D02*
X144254819Y-76472261D01*
X144254819Y-76472261D02*
X144254819Y-76757975D01*
X144254819Y-76757975D02*
X144207200Y-76853213D01*
X144207200Y-76853213D02*
X144159580Y-76900832D01*
X141654818Y-85661904D02*
X140654818Y-85661904D01*
X141654818Y-85090476D02*
X141083389Y-85519047D01*
X140654818Y-85090476D02*
X141226246Y-85661904D01*
X141894642Y-59004819D02*
X141418452Y-59004819D01*
X141418452Y-59004819D02*
X141370833Y-59481009D01*
X141370833Y-59481009D02*
X141418452Y-59433390D01*
X141418452Y-59433390D02*
X141513690Y-59385771D01*
X141513690Y-59385771D02*
X141751785Y-59385771D01*
X141751785Y-59385771D02*
X141847023Y-59433390D01*
X141847023Y-59433390D02*
X141894642Y-59481009D01*
X141894642Y-59481009D02*
X141942261Y-59576247D01*
X141942261Y-59576247D02*
X141942261Y-59814342D01*
X141942261Y-59814342D02*
X141894642Y-59909580D01*
X141894642Y-59909580D02*
X141847023Y-59957200D01*
X141847023Y-59957200D02*
X141751785Y-60004819D01*
X141751785Y-60004819D02*
X141513690Y-60004819D01*
X141513690Y-60004819D02*
X141418452Y-59957200D01*
X141418452Y-59957200D02*
X141370833Y-59909580D01*
X142370833Y-60004819D02*
X142370833Y-59004819D01*
X142466071Y-59623866D02*
X142751785Y-60004819D01*
X142751785Y-59338152D02*
X142370833Y-59719104D01*
X143704166Y-60004819D02*
X143132738Y-60004819D01*
X143418452Y-60004819D02*
X143418452Y-59004819D01*
X143418452Y-59004819D02*
X143323214Y-59147676D01*
X143323214Y-59147676D02*
X143227976Y-59242914D01*
X143227976Y-59242914D02*
X143132738Y-59290533D01*
D11*
X142023214Y-58063855D02*
X141756547Y-57682902D01*
X141566071Y-58063855D02*
X141566071Y-57263855D01*
X141566071Y-57263855D02*
X141870833Y-57263855D01*
X141870833Y-57263855D02*
X141947023Y-57301950D01*
X141947023Y-57301950D02*
X141985118Y-57340045D01*
X141985118Y-57340045D02*
X142023214Y-57416236D01*
X142023214Y-57416236D02*
X142023214Y-57530521D01*
X142023214Y-57530521D02*
X141985118Y-57606712D01*
X141985118Y-57606712D02*
X141947023Y-57644807D01*
X141947023Y-57644807D02*
X141870833Y-57682902D01*
X141870833Y-57682902D02*
X141566071Y-57682902D01*
X142785118Y-58063855D02*
X142327975Y-58063855D01*
X142556547Y-58063855D02*
X142556547Y-57263855D01*
X142556547Y-57263855D02*
X142480356Y-57378140D01*
X142480356Y-57378140D02*
X142404166Y-57454331D01*
X142404166Y-57454331D02*
X142327975Y-57492426D01*
X143089880Y-57340045D02*
X143127976Y-57301950D01*
X143127976Y-57301950D02*
X143204166Y-57263855D01*
X143204166Y-57263855D02*
X143394642Y-57263855D01*
X143394642Y-57263855D02*
X143470833Y-57301950D01*
X143470833Y-57301950D02*
X143508928Y-57340045D01*
X143508928Y-57340045D02*
X143547023Y-57416236D01*
X143547023Y-57416236D02*
X143547023Y-57492426D01*
X143547023Y-57492426D02*
X143508928Y-57606712D01*
X143508928Y-57606712D02*
X143051785Y-58063855D01*
X143051785Y-58063855D02*
X143547023Y-58063855D01*
D10*
X132642261Y-56704820D02*
X132070833Y-56704820D01*
X132356547Y-56704820D02*
X132356547Y-55704820D01*
X132356547Y-55704820D02*
X132261309Y-55847677D01*
X132261309Y-55847677D02*
X132166071Y-55942915D01*
X132166071Y-55942915D02*
X132070833Y-55990534D01*
X133261309Y-55704820D02*
X133356547Y-55704820D01*
X133356547Y-55704820D02*
X133451785Y-55752439D01*
X133451785Y-55752439D02*
X133499404Y-55800058D01*
X133499404Y-55800058D02*
X133547023Y-55895296D01*
X133547023Y-55895296D02*
X133594642Y-56085772D01*
X133594642Y-56085772D02*
X133594642Y-56323867D01*
X133594642Y-56323867D02*
X133547023Y-56514343D01*
X133547023Y-56514343D02*
X133499404Y-56609581D01*
X133499404Y-56609581D02*
X133451785Y-56657201D01*
X133451785Y-56657201D02*
X133356547Y-56704820D01*
X133356547Y-56704820D02*
X133261309Y-56704820D01*
X133261309Y-56704820D02*
X133166071Y-56657201D01*
X133166071Y-56657201D02*
X133118452Y-56609581D01*
X133118452Y-56609581D02*
X133070833Y-56514343D01*
X133070833Y-56514343D02*
X133023214Y-56323867D01*
X133023214Y-56323867D02*
X133023214Y-56085772D01*
X133023214Y-56085772D02*
X133070833Y-55895296D01*
X133070833Y-55895296D02*
X133118452Y-55800058D01*
X133118452Y-55800058D02*
X133166071Y-55752439D01*
X133166071Y-55752439D02*
X133261309Y-55704820D01*
X134023214Y-56704820D02*
X134023214Y-55704820D01*
X134118452Y-56323867D02*
X134404166Y-56704820D01*
X134404166Y-56038153D02*
X134023214Y-56419105D01*
D11*
X133104167Y-54763855D02*
X132837500Y-54382902D01*
X132647024Y-54763855D02*
X132647024Y-53963855D01*
X132647024Y-53963855D02*
X132951786Y-53963855D01*
X132951786Y-53963855D02*
X133027976Y-54001950D01*
X133027976Y-54001950D02*
X133066071Y-54040045D01*
X133066071Y-54040045D02*
X133104167Y-54116236D01*
X133104167Y-54116236D02*
X133104167Y-54230521D01*
X133104167Y-54230521D02*
X133066071Y-54306712D01*
X133066071Y-54306712D02*
X133027976Y-54344807D01*
X133027976Y-54344807D02*
X132951786Y-54382902D01*
X132951786Y-54382902D02*
X132647024Y-54382902D01*
X133485119Y-54763855D02*
X133637500Y-54763855D01*
X133637500Y-54763855D02*
X133713690Y-54725760D01*
X133713690Y-54725760D02*
X133751786Y-54687664D01*
X133751786Y-54687664D02*
X133827976Y-54573379D01*
X133827976Y-54573379D02*
X133866071Y-54420998D01*
X133866071Y-54420998D02*
X133866071Y-54116236D01*
X133866071Y-54116236D02*
X133827976Y-54040045D01*
X133827976Y-54040045D02*
X133789881Y-54001950D01*
X133789881Y-54001950D02*
X133713690Y-53963855D01*
X133713690Y-53963855D02*
X133561309Y-53963855D01*
X133561309Y-53963855D02*
X133485119Y-54001950D01*
X133485119Y-54001950D02*
X133447024Y-54040045D01*
X133447024Y-54040045D02*
X133408928Y-54116236D01*
X133408928Y-54116236D02*
X133408928Y-54306712D01*
X133408928Y-54306712D02*
X133447024Y-54382902D01*
X133447024Y-54382902D02*
X133485119Y-54420998D01*
X133485119Y-54420998D02*
X133561309Y-54459093D01*
X133561309Y-54459093D02*
X133713690Y-54459093D01*
X133713690Y-54459093D02*
X133789881Y-54420998D01*
X133789881Y-54420998D02*
X133827976Y-54382902D01*
X133827976Y-54382902D02*
X133866071Y-54306712D01*
D10*
X124176785Y-69054819D02*
X124176785Y-68054819D01*
X125224403Y-69054819D02*
X124891070Y-68578628D01*
X124652975Y-69054819D02*
X124652975Y-68054819D01*
X124652975Y-68054819D02*
X125033927Y-68054819D01*
X125033927Y-68054819D02*
X125129165Y-68102438D01*
X125129165Y-68102438D02*
X125176784Y-68150057D01*
X125176784Y-68150057D02*
X125224403Y-68245295D01*
X125224403Y-68245295D02*
X125224403Y-68388152D01*
X125224403Y-68388152D02*
X125176784Y-68483390D01*
X125176784Y-68483390D02*
X125129165Y-68531009D01*
X125129165Y-68531009D02*
X125033927Y-68578628D01*
X125033927Y-68578628D02*
X124652975Y-68578628D01*
X126129165Y-69054819D02*
X125652975Y-69054819D01*
X125652975Y-69054819D02*
X125652975Y-68054819D01*
X126462499Y-69054819D02*
X126462499Y-68054819D01*
X126462499Y-68054819D02*
X126795832Y-68769104D01*
X126795832Y-68769104D02*
X127129165Y-68054819D01*
X127129165Y-68054819D02*
X127129165Y-69054819D01*
X128081546Y-69054819D02*
X127605356Y-69054819D01*
X127605356Y-69054819D02*
X127605356Y-68054819D01*
X128605356Y-68054819D02*
X128700594Y-68054819D01*
X128700594Y-68054819D02*
X128795832Y-68102438D01*
X128795832Y-68102438D02*
X128843451Y-68150057D01*
X128843451Y-68150057D02*
X128891070Y-68245295D01*
X128891070Y-68245295D02*
X128938689Y-68435771D01*
X128938689Y-68435771D02*
X128938689Y-68673866D01*
X128938689Y-68673866D02*
X128891070Y-68864342D01*
X128891070Y-68864342D02*
X128843451Y-68959580D01*
X128843451Y-68959580D02*
X128795832Y-69007200D01*
X128795832Y-69007200D02*
X128700594Y-69054819D01*
X128700594Y-69054819D02*
X128605356Y-69054819D01*
X128605356Y-69054819D02*
X128510118Y-69007200D01*
X128510118Y-69007200D02*
X128462499Y-68959580D01*
X128462499Y-68959580D02*
X128414880Y-68864342D01*
X128414880Y-68864342D02*
X128367261Y-68673866D01*
X128367261Y-68673866D02*
X128367261Y-68435771D01*
X128367261Y-68435771D02*
X128414880Y-68245295D01*
X128414880Y-68245295D02*
X128462499Y-68150057D01*
X128462499Y-68150057D02*
X128510118Y-68102438D01*
X128510118Y-68102438D02*
X128605356Y-68054819D01*
X129557737Y-68054819D02*
X129652975Y-68054819D01*
X129652975Y-68054819D02*
X129748213Y-68102438D01*
X129748213Y-68102438D02*
X129795832Y-68150057D01*
X129795832Y-68150057D02*
X129843451Y-68245295D01*
X129843451Y-68245295D02*
X129891070Y-68435771D01*
X129891070Y-68435771D02*
X129891070Y-68673866D01*
X129891070Y-68673866D02*
X129843451Y-68864342D01*
X129843451Y-68864342D02*
X129795832Y-68959580D01*
X129795832Y-68959580D02*
X129748213Y-69007200D01*
X129748213Y-69007200D02*
X129652975Y-69054819D01*
X129652975Y-69054819D02*
X129557737Y-69054819D01*
X129557737Y-69054819D02*
X129462499Y-69007200D01*
X129462499Y-69007200D02*
X129414880Y-68959580D01*
X129414880Y-68959580D02*
X129367261Y-68864342D01*
X129367261Y-68864342D02*
X129319642Y-68673866D01*
X129319642Y-68673866D02*
X129319642Y-68435771D01*
X129319642Y-68435771D02*
X129367261Y-68245295D01*
X129367261Y-68245295D02*
X129414880Y-68150057D01*
X129414880Y-68150057D02*
X129462499Y-68102438D01*
X129462499Y-68102438D02*
X129557737Y-68054819D01*
X130224404Y-68054819D02*
X130843451Y-68054819D01*
X130843451Y-68054819D02*
X130510118Y-68435771D01*
X130510118Y-68435771D02*
X130652975Y-68435771D01*
X130652975Y-68435771D02*
X130748213Y-68483390D01*
X130748213Y-68483390D02*
X130795832Y-68531009D01*
X130795832Y-68531009D02*
X130843451Y-68626247D01*
X130843451Y-68626247D02*
X130843451Y-68864342D01*
X130843451Y-68864342D02*
X130795832Y-68959580D01*
X130795832Y-68959580D02*
X130748213Y-69007200D01*
X130748213Y-69007200D02*
X130652975Y-69054819D01*
X130652975Y-69054819D02*
X130367261Y-69054819D01*
X130367261Y-69054819D02*
X130272023Y-69007200D01*
X130272023Y-69007200D02*
X130224404Y-68959580D01*
X131462499Y-68054819D02*
X131557737Y-68054819D01*
X131557737Y-68054819D02*
X131652975Y-68102438D01*
X131652975Y-68102438D02*
X131700594Y-68150057D01*
X131700594Y-68150057D02*
X131748213Y-68245295D01*
X131748213Y-68245295D02*
X131795832Y-68435771D01*
X131795832Y-68435771D02*
X131795832Y-68673866D01*
X131795832Y-68673866D02*
X131748213Y-68864342D01*
X131748213Y-68864342D02*
X131700594Y-68959580D01*
X131700594Y-68959580D02*
X131652975Y-69007200D01*
X131652975Y-69007200D02*
X131557737Y-69054819D01*
X131557737Y-69054819D02*
X131462499Y-69054819D01*
X131462499Y-69054819D02*
X131367261Y-69007200D01*
X131367261Y-69007200D02*
X131319642Y-68959580D01*
X131319642Y-68959580D02*
X131272023Y-68864342D01*
X131272023Y-68864342D02*
X131224404Y-68673866D01*
X131224404Y-68673866D02*
X131224404Y-68435771D01*
X131224404Y-68435771D02*
X131272023Y-68245295D01*
X131272023Y-68245295D02*
X131319642Y-68150057D01*
X131319642Y-68150057D02*
X131367261Y-68102438D01*
X131367261Y-68102438D02*
X131462499Y-68054819D01*
D12*
X127932022Y-66375914D02*
X127901546Y-66360676D01*
X127901546Y-66360676D02*
X127871070Y-66330200D01*
X127871070Y-66330200D02*
X127825356Y-66284485D01*
X127825356Y-66284485D02*
X127794879Y-66269247D01*
X127794879Y-66269247D02*
X127764403Y-66269247D01*
X127779641Y-66345438D02*
X127749165Y-66330200D01*
X127749165Y-66330200D02*
X127718689Y-66299723D01*
X127718689Y-66299723D02*
X127703451Y-66238771D01*
X127703451Y-66238771D02*
X127703451Y-66132104D01*
X127703451Y-66132104D02*
X127718689Y-66071152D01*
X127718689Y-66071152D02*
X127749165Y-66040676D01*
X127749165Y-66040676D02*
X127779641Y-66025438D01*
X127779641Y-66025438D02*
X127840594Y-66025438D01*
X127840594Y-66025438D02*
X127871070Y-66040676D01*
X127871070Y-66040676D02*
X127901546Y-66071152D01*
X127901546Y-66071152D02*
X127916784Y-66132104D01*
X127916784Y-66132104D02*
X127916784Y-66238771D01*
X127916784Y-66238771D02*
X127901546Y-66299723D01*
X127901546Y-66299723D02*
X127871070Y-66330200D01*
X127871070Y-66330200D02*
X127840594Y-66345438D01*
X127840594Y-66345438D02*
X127779641Y-66345438D01*
X128221546Y-66345438D02*
X128038689Y-66345438D01*
X128130117Y-66345438D02*
X128130117Y-66025438D01*
X128130117Y-66025438D02*
X128099641Y-66071152D01*
X128099641Y-66071152D02*
X128069165Y-66101628D01*
X128069165Y-66101628D02*
X128038689Y-66116866D01*
D10*
X156009818Y-56515357D02*
X156009818Y-57086785D01*
X156009818Y-56801071D02*
X155009818Y-56801071D01*
X155009818Y-56801071D02*
X155152675Y-56896309D01*
X155152675Y-56896309D02*
X155247913Y-56991547D01*
X155247913Y-56991547D02*
X155295532Y-57086785D01*
X155009818Y-55896309D02*
X155009818Y-55801071D01*
X155009818Y-55801071D02*
X155057437Y-55705833D01*
X155057437Y-55705833D02*
X155105056Y-55658214D01*
X155105056Y-55658214D02*
X155200294Y-55610595D01*
X155200294Y-55610595D02*
X155390770Y-55562976D01*
X155390770Y-55562976D02*
X155628865Y-55562976D01*
X155628865Y-55562976D02*
X155819341Y-55610595D01*
X155819341Y-55610595D02*
X155914579Y-55658214D01*
X155914579Y-55658214D02*
X155962199Y-55705833D01*
X155962199Y-55705833D02*
X156009818Y-55801071D01*
X156009818Y-55801071D02*
X156009818Y-55896309D01*
X156009818Y-55896309D02*
X155962199Y-55991547D01*
X155962199Y-55991547D02*
X155914579Y-56039166D01*
X155914579Y-56039166D02*
X155819341Y-56086785D01*
X155819341Y-56086785D02*
X155628865Y-56134404D01*
X155628865Y-56134404D02*
X155390770Y-56134404D01*
X155390770Y-56134404D02*
X155200294Y-56086785D01*
X155200294Y-56086785D02*
X155105056Y-56039166D01*
X155105056Y-56039166D02*
X155057437Y-55991547D01*
X155057437Y-55991547D02*
X155009818Y-55896309D01*
X155343151Y-54705833D02*
X156009818Y-54705833D01*
X155343151Y-55134404D02*
X155866960Y-55134404D01*
X155866960Y-55134404D02*
X155962199Y-55086785D01*
X155962199Y-55086785D02*
X156009818Y-54991547D01*
X156009818Y-54991547D02*
X156009818Y-54848690D01*
X156009818Y-54848690D02*
X155962199Y-54753452D01*
X155962199Y-54753452D02*
X155914579Y-54705833D01*
D11*
X157692664Y-56005832D02*
X157730760Y-56043928D01*
X157730760Y-56043928D02*
X157768855Y-56158213D01*
X157768855Y-56158213D02*
X157768855Y-56234404D01*
X157768855Y-56234404D02*
X157730760Y-56348690D01*
X157730760Y-56348690D02*
X157654569Y-56424880D01*
X157654569Y-56424880D02*
X157578379Y-56462975D01*
X157578379Y-56462975D02*
X157425998Y-56501071D01*
X157425998Y-56501071D02*
X157311712Y-56501071D01*
X157311712Y-56501071D02*
X157159331Y-56462975D01*
X157159331Y-56462975D02*
X157083140Y-56424880D01*
X157083140Y-56424880D02*
X157006950Y-56348690D01*
X157006950Y-56348690D02*
X156968855Y-56234404D01*
X156968855Y-56234404D02*
X156968855Y-56158213D01*
X156968855Y-56158213D02*
X157006950Y-56043928D01*
X157006950Y-56043928D02*
X157045045Y-56005832D01*
X156968855Y-55320118D02*
X156968855Y-55472499D01*
X156968855Y-55472499D02*
X157006950Y-55548690D01*
X157006950Y-55548690D02*
X157045045Y-55586785D01*
X157045045Y-55586785D02*
X157159331Y-55662975D01*
X157159331Y-55662975D02*
X157311712Y-55701071D01*
X157311712Y-55701071D02*
X157616474Y-55701071D01*
X157616474Y-55701071D02*
X157692664Y-55662975D01*
X157692664Y-55662975D02*
X157730760Y-55624880D01*
X157730760Y-55624880D02*
X157768855Y-55548690D01*
X157768855Y-55548690D02*
X157768855Y-55396309D01*
X157768855Y-55396309D02*
X157730760Y-55320118D01*
X157730760Y-55320118D02*
X157692664Y-55282023D01*
X157692664Y-55282023D02*
X157616474Y-55243928D01*
X157616474Y-55243928D02*
X157425998Y-55243928D01*
X157425998Y-55243928D02*
X157349807Y-55282023D01*
X157349807Y-55282023D02*
X157311712Y-55320118D01*
X157311712Y-55320118D02*
X157273617Y-55396309D01*
X157273617Y-55396309D02*
X157273617Y-55548690D01*
X157273617Y-55548690D02*
X157311712Y-55624880D01*
X157311712Y-55624880D02*
X157349807Y-55662975D01*
X157349807Y-55662975D02*
X157425998Y-55701071D01*
D10*
X118594642Y-54204819D02*
X118023214Y-54204819D01*
X118308928Y-54204819D02*
X118308928Y-53204819D01*
X118308928Y-53204819D02*
X118213690Y-53347676D01*
X118213690Y-53347676D02*
X118118452Y-53442914D01*
X118118452Y-53442914D02*
X118023214Y-53490533D01*
X119213690Y-53204819D02*
X119308928Y-53204819D01*
X119308928Y-53204819D02*
X119404166Y-53252438D01*
X119404166Y-53252438D02*
X119451785Y-53300057D01*
X119451785Y-53300057D02*
X119499404Y-53395295D01*
X119499404Y-53395295D02*
X119547023Y-53585771D01*
X119547023Y-53585771D02*
X119547023Y-53823866D01*
X119547023Y-53823866D02*
X119499404Y-54014342D01*
X119499404Y-54014342D02*
X119451785Y-54109580D01*
X119451785Y-54109580D02*
X119404166Y-54157200D01*
X119404166Y-54157200D02*
X119308928Y-54204819D01*
X119308928Y-54204819D02*
X119213690Y-54204819D01*
X119213690Y-54204819D02*
X119118452Y-54157200D01*
X119118452Y-54157200D02*
X119070833Y-54109580D01*
X119070833Y-54109580D02*
X119023214Y-54014342D01*
X119023214Y-54014342D02*
X118975595Y-53823866D01*
X118975595Y-53823866D02*
X118975595Y-53585771D01*
X118975595Y-53585771D02*
X119023214Y-53395295D01*
X119023214Y-53395295D02*
X119070833Y-53300057D01*
X119070833Y-53300057D02*
X119118452Y-53252438D01*
X119118452Y-53252438D02*
X119213690Y-53204819D01*
X120404166Y-53538152D02*
X120404166Y-54204819D01*
X119975595Y-53538152D02*
X119975595Y-54061961D01*
X119975595Y-54061961D02*
X120023214Y-54157200D01*
X120023214Y-54157200D02*
X120118452Y-54204819D01*
X120118452Y-54204819D02*
X120261309Y-54204819D01*
X120261309Y-54204819D02*
X120356547Y-54157200D01*
X120356547Y-54157200D02*
X120404166Y-54109580D01*
D11*
X119104167Y-52187664D02*
X119066071Y-52225760D01*
X119066071Y-52225760D02*
X118951786Y-52263855D01*
X118951786Y-52263855D02*
X118875595Y-52263855D01*
X118875595Y-52263855D02*
X118761309Y-52225760D01*
X118761309Y-52225760D02*
X118685119Y-52149569D01*
X118685119Y-52149569D02*
X118647024Y-52073379D01*
X118647024Y-52073379D02*
X118608928Y-51920998D01*
X118608928Y-51920998D02*
X118608928Y-51806712D01*
X118608928Y-51806712D02*
X118647024Y-51654331D01*
X118647024Y-51654331D02*
X118685119Y-51578140D01*
X118685119Y-51578140D02*
X118761309Y-51501950D01*
X118761309Y-51501950D02*
X118875595Y-51463855D01*
X118875595Y-51463855D02*
X118951786Y-51463855D01*
X118951786Y-51463855D02*
X119066071Y-51501950D01*
X119066071Y-51501950D02*
X119104167Y-51540045D01*
X119789881Y-51730521D02*
X119789881Y-52263855D01*
X119599405Y-51425760D02*
X119408928Y-51997188D01*
X119408928Y-51997188D02*
X119904167Y-51997188D01*
D10*
X161704820Y-68405357D02*
X161704820Y-68881547D01*
X161704820Y-68881547D02*
X162181010Y-68929166D01*
X162181010Y-68929166D02*
X162133391Y-68881547D01*
X162133391Y-68881547D02*
X162085772Y-68786309D01*
X162085772Y-68786309D02*
X162085772Y-68548214D01*
X162085772Y-68548214D02*
X162133391Y-68452976D01*
X162133391Y-68452976D02*
X162181010Y-68405357D01*
X162181010Y-68405357D02*
X162276248Y-68357738D01*
X162276248Y-68357738D02*
X162514343Y-68357738D01*
X162514343Y-68357738D02*
X162609581Y-68405357D01*
X162609581Y-68405357D02*
X162657201Y-68452976D01*
X162657201Y-68452976D02*
X162704820Y-68548214D01*
X162704820Y-68548214D02*
X162704820Y-68786309D01*
X162704820Y-68786309D02*
X162657201Y-68881547D01*
X162657201Y-68881547D02*
X162609581Y-68929166D01*
X162704820Y-67929166D02*
X161704820Y-67929166D01*
X162323867Y-67833928D02*
X162704820Y-67548214D01*
X162038153Y-67548214D02*
X162419105Y-67929166D01*
X162704820Y-66595833D02*
X162704820Y-67167261D01*
X162704820Y-66881547D02*
X161704820Y-66881547D01*
X161704820Y-66881547D02*
X161847677Y-66976785D01*
X161847677Y-66976785D02*
X161942915Y-67072023D01*
X161942915Y-67072023D02*
X161990534Y-67167261D01*
D11*
X160763855Y-67895832D02*
X160382902Y-68162499D01*
X160763855Y-68352975D02*
X159963855Y-68352975D01*
X159963855Y-68352975D02*
X159963855Y-68048213D01*
X159963855Y-68048213D02*
X160001950Y-67972023D01*
X160001950Y-67972023D02*
X160040045Y-67933928D01*
X160040045Y-67933928D02*
X160116236Y-67895832D01*
X160116236Y-67895832D02*
X160230521Y-67895832D01*
X160230521Y-67895832D02*
X160306712Y-67933928D01*
X160306712Y-67933928D02*
X160344807Y-67972023D01*
X160344807Y-67972023D02*
X160382902Y-68048213D01*
X160382902Y-68048213D02*
X160382902Y-68352975D01*
X160040045Y-67591071D02*
X160001950Y-67552975D01*
X160001950Y-67552975D02*
X159963855Y-67476785D01*
X159963855Y-67476785D02*
X159963855Y-67286309D01*
X159963855Y-67286309D02*
X160001950Y-67210118D01*
X160001950Y-67210118D02*
X160040045Y-67172023D01*
X160040045Y-67172023D02*
X160116236Y-67133928D01*
X160116236Y-67133928D02*
X160192426Y-67133928D01*
X160192426Y-67133928D02*
X160306712Y-67172023D01*
X160306712Y-67172023D02*
X160763855Y-67629166D01*
X160763855Y-67629166D02*
X160763855Y-67133928D01*
D10*
X145961904Y-60189580D02*
X145914285Y-60237200D01*
X145914285Y-60237200D02*
X145771428Y-60284819D01*
X145771428Y-60284819D02*
X145676190Y-60284819D01*
X145676190Y-60284819D02*
X145533333Y-60237200D01*
X145533333Y-60237200D02*
X145438095Y-60141961D01*
X145438095Y-60141961D02*
X145390476Y-60046723D01*
X145390476Y-60046723D02*
X145342857Y-59856247D01*
X145342857Y-59856247D02*
X145342857Y-59713390D01*
X145342857Y-59713390D02*
X145390476Y-59522914D01*
X145390476Y-59522914D02*
X145438095Y-59427676D01*
X145438095Y-59427676D02*
X145533333Y-59332438D01*
X145533333Y-59332438D02*
X145676190Y-59284819D01*
X145676190Y-59284819D02*
X145771428Y-59284819D01*
X145771428Y-59284819D02*
X145914285Y-59332438D01*
X145914285Y-59332438D02*
X145961904Y-59380057D01*
X146533333Y-60284819D02*
X146438095Y-60237200D01*
X146438095Y-60237200D02*
X146390476Y-60189580D01*
X146390476Y-60189580D02*
X146342857Y-60094342D01*
X146342857Y-60094342D02*
X146342857Y-59808628D01*
X146342857Y-59808628D02*
X146390476Y-59713390D01*
X146390476Y-59713390D02*
X146438095Y-59665771D01*
X146438095Y-59665771D02*
X146533333Y-59618152D01*
X146533333Y-59618152D02*
X146676190Y-59618152D01*
X146676190Y-59618152D02*
X146771428Y-59665771D01*
X146771428Y-59665771D02*
X146819047Y-59713390D01*
X146819047Y-59713390D02*
X146866666Y-59808628D01*
X146866666Y-59808628D02*
X146866666Y-60094342D01*
X146866666Y-60094342D02*
X146819047Y-60189580D01*
X146819047Y-60189580D02*
X146771428Y-60237200D01*
X146771428Y-60237200D02*
X146676190Y-60284819D01*
X146676190Y-60284819D02*
X146533333Y-60284819D01*
X147295238Y-59618152D02*
X147295238Y-60284819D01*
X147295238Y-59713390D02*
X147342857Y-59665771D01*
X147342857Y-59665771D02*
X147438095Y-59618152D01*
X147438095Y-59618152D02*
X147580952Y-59618152D01*
X147580952Y-59618152D02*
X147676190Y-59665771D01*
X147676190Y-59665771D02*
X147723809Y-59761009D01*
X147723809Y-59761009D02*
X147723809Y-60284819D01*
X148200000Y-59618152D02*
X148200000Y-60284819D01*
X148200000Y-59713390D02*
X148247619Y-59665771D01*
X148247619Y-59665771D02*
X148342857Y-59618152D01*
X148342857Y-59618152D02*
X148485714Y-59618152D01*
X148485714Y-59618152D02*
X148580952Y-59665771D01*
X148580952Y-59665771D02*
X148628571Y-59761009D01*
X148628571Y-59761009D02*
X148628571Y-60284819D01*
X148866667Y-60380057D02*
X149628571Y-60380057D01*
X150057143Y-59284819D02*
X150152381Y-59284819D01*
X150152381Y-59284819D02*
X150247619Y-59332438D01*
X150247619Y-59332438D02*
X150295238Y-59380057D01*
X150295238Y-59380057D02*
X150342857Y-59475295D01*
X150342857Y-59475295D02*
X150390476Y-59665771D01*
X150390476Y-59665771D02*
X150390476Y-59903866D01*
X150390476Y-59903866D02*
X150342857Y-60094342D01*
X150342857Y-60094342D02*
X150295238Y-60189580D01*
X150295238Y-60189580D02*
X150247619Y-60237200D01*
X150247619Y-60237200D02*
X150152381Y-60284819D01*
X150152381Y-60284819D02*
X150057143Y-60284819D01*
X150057143Y-60284819D02*
X149961905Y-60237200D01*
X149961905Y-60237200D02*
X149914286Y-60189580D01*
X149914286Y-60189580D02*
X149866667Y-60094342D01*
X149866667Y-60094342D02*
X149819048Y-59903866D01*
X149819048Y-59903866D02*
X149819048Y-59665771D01*
X149819048Y-59665771D02*
X149866667Y-59475295D01*
X149866667Y-59475295D02*
X149914286Y-59380057D01*
X149914286Y-59380057D02*
X149961905Y-59332438D01*
X149961905Y-59332438D02*
X150057143Y-59284819D01*
X151342857Y-60284819D02*
X150771429Y-60284819D01*
X151057143Y-60284819D02*
X151057143Y-59284819D01*
X151057143Y-59284819D02*
X150961905Y-59427676D01*
X150961905Y-59427676D02*
X150866667Y-59522914D01*
X150866667Y-59522914D02*
X150771429Y-59570533D01*
X151676191Y-60284819D02*
X152200000Y-59618152D01*
X151676191Y-59618152D02*
X152200000Y-60284819D01*
X152771429Y-59284819D02*
X152866667Y-59284819D01*
X152866667Y-59284819D02*
X152961905Y-59332438D01*
X152961905Y-59332438D02*
X153009524Y-59380057D01*
X153009524Y-59380057D02*
X153057143Y-59475295D01*
X153057143Y-59475295D02*
X153104762Y-59665771D01*
X153104762Y-59665771D02*
X153104762Y-59903866D01*
X153104762Y-59903866D02*
X153057143Y-60094342D01*
X153057143Y-60094342D02*
X153009524Y-60189580D01*
X153009524Y-60189580D02*
X152961905Y-60237200D01*
X152961905Y-60237200D02*
X152866667Y-60284819D01*
X152866667Y-60284819D02*
X152771429Y-60284819D01*
X152771429Y-60284819D02*
X152676191Y-60237200D01*
X152676191Y-60237200D02*
X152628572Y-60189580D01*
X152628572Y-60189580D02*
X152580953Y-60094342D01*
X152580953Y-60094342D02*
X152533334Y-59903866D01*
X152533334Y-59903866D02*
X152533334Y-59665771D01*
X152533334Y-59665771D02*
X152580953Y-59475295D01*
X152580953Y-59475295D02*
X152628572Y-59380057D01*
X152628572Y-59380057D02*
X152676191Y-59332438D01*
X152676191Y-59332438D02*
X152771429Y-59284819D01*
X153485715Y-59380057D02*
X153533334Y-59332438D01*
X153533334Y-59332438D02*
X153628572Y-59284819D01*
X153628572Y-59284819D02*
X153866667Y-59284819D01*
X153866667Y-59284819D02*
X153961905Y-59332438D01*
X153961905Y-59332438D02*
X154009524Y-59380057D01*
X154009524Y-59380057D02*
X154057143Y-59475295D01*
X154057143Y-59475295D02*
X154057143Y-59570533D01*
X154057143Y-59570533D02*
X154009524Y-59713390D01*
X154009524Y-59713390D02*
X153438096Y-60284819D01*
X153438096Y-60284819D02*
X154057143Y-60284819D01*
X149154819Y-56563333D02*
X149869104Y-56563333D01*
X149869104Y-56563333D02*
X150011961Y-56610952D01*
X150011961Y-56610952D02*
X150107200Y-56706190D01*
X150107200Y-56706190D02*
X150154819Y-56849047D01*
X150154819Y-56849047D02*
X150154819Y-56944285D01*
X149250057Y-56134761D02*
X149202438Y-56087142D01*
X149202438Y-56087142D02*
X149154819Y-55991904D01*
X149154819Y-55991904D02*
X149154819Y-55753809D01*
X149154819Y-55753809D02*
X149202438Y-55658571D01*
X149202438Y-55658571D02*
X149250057Y-55610952D01*
X149250057Y-55610952D02*
X149345295Y-55563333D01*
X149345295Y-55563333D02*
X149440533Y-55563333D01*
X149440533Y-55563333D02*
X149583390Y-55610952D01*
X149583390Y-55610952D02*
X150154819Y-56182380D01*
X150154819Y-56182380D02*
X150154819Y-55563333D01*
X107961904Y-72557200D02*
X108104761Y-72604819D01*
X108104761Y-72604819D02*
X108342856Y-72604819D01*
X108342856Y-72604819D02*
X108438094Y-72557200D01*
X108438094Y-72557200D02*
X108485713Y-72509580D01*
X108485713Y-72509580D02*
X108533332Y-72414342D01*
X108533332Y-72414342D02*
X108533332Y-72319104D01*
X108533332Y-72319104D02*
X108485713Y-72223866D01*
X108485713Y-72223866D02*
X108438094Y-72176247D01*
X108438094Y-72176247D02*
X108342856Y-72128628D01*
X108342856Y-72128628D02*
X108152380Y-72081009D01*
X108152380Y-72081009D02*
X108057142Y-72033390D01*
X108057142Y-72033390D02*
X108009523Y-71985771D01*
X108009523Y-71985771D02*
X107961904Y-71890533D01*
X107961904Y-71890533D02*
X107961904Y-71795295D01*
X107961904Y-71795295D02*
X108009523Y-71700057D01*
X108009523Y-71700057D02*
X108057142Y-71652438D01*
X108057142Y-71652438D02*
X108152380Y-71604819D01*
X108152380Y-71604819D02*
X108390475Y-71604819D01*
X108390475Y-71604819D02*
X108533332Y-71652438D01*
X109390475Y-72557200D02*
X109295237Y-72604819D01*
X109295237Y-72604819D02*
X109104761Y-72604819D01*
X109104761Y-72604819D02*
X109009523Y-72557200D01*
X109009523Y-72557200D02*
X108961904Y-72509580D01*
X108961904Y-72509580D02*
X108914285Y-72414342D01*
X108914285Y-72414342D02*
X108914285Y-72128628D01*
X108914285Y-72128628D02*
X108961904Y-72033390D01*
X108961904Y-72033390D02*
X109009523Y-71985771D01*
X109009523Y-71985771D02*
X109104761Y-71938152D01*
X109104761Y-71938152D02*
X109295237Y-71938152D01*
X109295237Y-71938152D02*
X109390475Y-71985771D01*
X109819047Y-72604819D02*
X109819047Y-71938152D01*
X109819047Y-72128628D02*
X109866666Y-72033390D01*
X109866666Y-72033390D02*
X109914285Y-71985771D01*
X109914285Y-71985771D02*
X110009523Y-71938152D01*
X110009523Y-71938152D02*
X110104761Y-71938152D01*
X110819047Y-72557200D02*
X110723809Y-72604819D01*
X110723809Y-72604819D02*
X110533333Y-72604819D01*
X110533333Y-72604819D02*
X110438095Y-72557200D01*
X110438095Y-72557200D02*
X110390476Y-72461961D01*
X110390476Y-72461961D02*
X110390476Y-72081009D01*
X110390476Y-72081009D02*
X110438095Y-71985771D01*
X110438095Y-71985771D02*
X110533333Y-71938152D01*
X110533333Y-71938152D02*
X110723809Y-71938152D01*
X110723809Y-71938152D02*
X110819047Y-71985771D01*
X110819047Y-71985771D02*
X110866666Y-72081009D01*
X110866666Y-72081009D02*
X110866666Y-72176247D01*
X110866666Y-72176247D02*
X110390476Y-72271485D01*
X111200000Y-71938152D02*
X111390476Y-72604819D01*
X111390476Y-72604819D02*
X111580952Y-72128628D01*
X111580952Y-72128628D02*
X111771428Y-72604819D01*
X111771428Y-72604819D02*
X111961904Y-71938152D01*
X112104762Y-72700057D02*
X112866666Y-72700057D01*
X112961905Y-71604819D02*
X113533333Y-71604819D01*
X113247619Y-72604819D02*
X113247619Y-71604819D01*
X114247619Y-72557200D02*
X114152381Y-72604819D01*
X114152381Y-72604819D02*
X113961905Y-72604819D01*
X113961905Y-72604819D02*
X113866667Y-72557200D01*
X113866667Y-72557200D02*
X113819048Y-72461961D01*
X113819048Y-72461961D02*
X113819048Y-72081009D01*
X113819048Y-72081009D02*
X113866667Y-71985771D01*
X113866667Y-71985771D02*
X113961905Y-71938152D01*
X113961905Y-71938152D02*
X114152381Y-71938152D01*
X114152381Y-71938152D02*
X114247619Y-71985771D01*
X114247619Y-71985771D02*
X114295238Y-72081009D01*
X114295238Y-72081009D02*
X114295238Y-72176247D01*
X114295238Y-72176247D02*
X113819048Y-72271485D01*
X114723810Y-72604819D02*
X114723810Y-71938152D01*
X114723810Y-72128628D02*
X114771429Y-72033390D01*
X114771429Y-72033390D02*
X114819048Y-71985771D01*
X114819048Y-71985771D02*
X114914286Y-71938152D01*
X114914286Y-71938152D02*
X115009524Y-71938152D01*
X115342858Y-72604819D02*
X115342858Y-71938152D01*
X115342858Y-72033390D02*
X115390477Y-71985771D01*
X115390477Y-71985771D02*
X115485715Y-71938152D01*
X115485715Y-71938152D02*
X115628572Y-71938152D01*
X115628572Y-71938152D02*
X115723810Y-71985771D01*
X115723810Y-71985771D02*
X115771429Y-72081009D01*
X115771429Y-72081009D02*
X115771429Y-72604819D01*
X115771429Y-72081009D02*
X115819048Y-71985771D01*
X115819048Y-71985771D02*
X115914286Y-71938152D01*
X115914286Y-71938152D02*
X116057143Y-71938152D01*
X116057143Y-71938152D02*
X116152382Y-71985771D01*
X116152382Y-71985771D02*
X116200001Y-72081009D01*
X116200001Y-72081009D02*
X116200001Y-72604819D01*
X116676191Y-72604819D02*
X116676191Y-71938152D01*
X116676191Y-71604819D02*
X116628572Y-71652438D01*
X116628572Y-71652438D02*
X116676191Y-71700057D01*
X116676191Y-71700057D02*
X116723810Y-71652438D01*
X116723810Y-71652438D02*
X116676191Y-71604819D01*
X116676191Y-71604819D02*
X116676191Y-71700057D01*
X117152381Y-71938152D02*
X117152381Y-72604819D01*
X117152381Y-72033390D02*
X117200000Y-71985771D01*
X117200000Y-71985771D02*
X117295238Y-71938152D01*
X117295238Y-71938152D02*
X117438095Y-71938152D01*
X117438095Y-71938152D02*
X117533333Y-71985771D01*
X117533333Y-71985771D02*
X117580952Y-72081009D01*
X117580952Y-72081009D02*
X117580952Y-72604819D01*
X118485714Y-72604819D02*
X118485714Y-72081009D01*
X118485714Y-72081009D02*
X118438095Y-71985771D01*
X118438095Y-71985771D02*
X118342857Y-71938152D01*
X118342857Y-71938152D02*
X118152381Y-71938152D01*
X118152381Y-71938152D02*
X118057143Y-71985771D01*
X118485714Y-72557200D02*
X118390476Y-72604819D01*
X118390476Y-72604819D02*
X118152381Y-72604819D01*
X118152381Y-72604819D02*
X118057143Y-72557200D01*
X118057143Y-72557200D02*
X118009524Y-72461961D01*
X118009524Y-72461961D02*
X118009524Y-72366723D01*
X118009524Y-72366723D02*
X118057143Y-72271485D01*
X118057143Y-72271485D02*
X118152381Y-72223866D01*
X118152381Y-72223866D02*
X118390476Y-72223866D01*
X118390476Y-72223866D02*
X118485714Y-72176247D01*
X119104762Y-72604819D02*
X119009524Y-72557200D01*
X119009524Y-72557200D02*
X118961905Y-72461961D01*
X118961905Y-72461961D02*
X118961905Y-71604819D01*
X119247620Y-72700057D02*
X120009524Y-72700057D01*
X120438096Y-71604819D02*
X120533334Y-71604819D01*
X120533334Y-71604819D02*
X120628572Y-71652438D01*
X120628572Y-71652438D02*
X120676191Y-71700057D01*
X120676191Y-71700057D02*
X120723810Y-71795295D01*
X120723810Y-71795295D02*
X120771429Y-71985771D01*
X120771429Y-71985771D02*
X120771429Y-72223866D01*
X120771429Y-72223866D02*
X120723810Y-72414342D01*
X120723810Y-72414342D02*
X120676191Y-72509580D01*
X120676191Y-72509580D02*
X120628572Y-72557200D01*
X120628572Y-72557200D02*
X120533334Y-72604819D01*
X120533334Y-72604819D02*
X120438096Y-72604819D01*
X120438096Y-72604819D02*
X120342858Y-72557200D01*
X120342858Y-72557200D02*
X120295239Y-72509580D01*
X120295239Y-72509580D02*
X120247620Y-72414342D01*
X120247620Y-72414342D02*
X120200001Y-72223866D01*
X120200001Y-72223866D02*
X120200001Y-71985771D01*
X120200001Y-71985771D02*
X120247620Y-71795295D01*
X120247620Y-71795295D02*
X120295239Y-71700057D01*
X120295239Y-71700057D02*
X120342858Y-71652438D01*
X120342858Y-71652438D02*
X120438096Y-71604819D01*
X121723810Y-72604819D02*
X121152382Y-72604819D01*
X121438096Y-72604819D02*
X121438096Y-71604819D01*
X121438096Y-71604819D02*
X121342858Y-71747676D01*
X121342858Y-71747676D02*
X121247620Y-71842914D01*
X121247620Y-71842914D02*
X121152382Y-71890533D01*
X122057144Y-72604819D02*
X122580953Y-71938152D01*
X122057144Y-71938152D02*
X122580953Y-72604819D01*
X123152382Y-71604819D02*
X123247620Y-71604819D01*
X123247620Y-71604819D02*
X123342858Y-71652438D01*
X123342858Y-71652438D02*
X123390477Y-71700057D01*
X123390477Y-71700057D02*
X123438096Y-71795295D01*
X123438096Y-71795295D02*
X123485715Y-71985771D01*
X123485715Y-71985771D02*
X123485715Y-72223866D01*
X123485715Y-72223866D02*
X123438096Y-72414342D01*
X123438096Y-72414342D02*
X123390477Y-72509580D01*
X123390477Y-72509580D02*
X123342858Y-72557200D01*
X123342858Y-72557200D02*
X123247620Y-72604819D01*
X123247620Y-72604819D02*
X123152382Y-72604819D01*
X123152382Y-72604819D02*
X123057144Y-72557200D01*
X123057144Y-72557200D02*
X123009525Y-72509580D01*
X123009525Y-72509580D02*
X122961906Y-72414342D01*
X122961906Y-72414342D02*
X122914287Y-72223866D01*
X122914287Y-72223866D02*
X122914287Y-71985771D01*
X122914287Y-71985771D02*
X122961906Y-71795295D01*
X122961906Y-71795295D02*
X123009525Y-71700057D01*
X123009525Y-71700057D02*
X123057144Y-71652438D01*
X123057144Y-71652438D02*
X123152382Y-71604819D01*
X123819049Y-71604819D02*
X124438096Y-71604819D01*
X124438096Y-71604819D02*
X124104763Y-71985771D01*
X124104763Y-71985771D02*
X124247620Y-71985771D01*
X124247620Y-71985771D02*
X124342858Y-72033390D01*
X124342858Y-72033390D02*
X124390477Y-72081009D01*
X124390477Y-72081009D02*
X124438096Y-72176247D01*
X124438096Y-72176247D02*
X124438096Y-72414342D01*
X124438096Y-72414342D02*
X124390477Y-72509580D01*
X124390477Y-72509580D02*
X124342858Y-72557200D01*
X124342858Y-72557200D02*
X124247620Y-72604819D01*
X124247620Y-72604819D02*
X123961906Y-72604819D01*
X123961906Y-72604819D02*
X123866668Y-72557200D01*
X123866668Y-72557200D02*
X123819049Y-72509580D01*
X115654819Y-77793333D02*
X116369104Y-77793333D01*
X116369104Y-77793333D02*
X116511961Y-77840952D01*
X116511961Y-77840952D02*
X116607200Y-77936190D01*
X116607200Y-77936190D02*
X116654819Y-78079047D01*
X116654819Y-78079047D02*
X116654819Y-78174285D01*
X115654819Y-76840952D02*
X115654819Y-77317142D01*
X115654819Y-77317142D02*
X116131009Y-77364761D01*
X116131009Y-77364761D02*
X116083390Y-77317142D01*
X116083390Y-77317142D02*
X116035771Y-77221904D01*
X116035771Y-77221904D02*
X116035771Y-76983809D01*
X116035771Y-76983809D02*
X116083390Y-76888571D01*
X116083390Y-76888571D02*
X116131009Y-76840952D01*
X116131009Y-76840952D02*
X116226247Y-76793333D01*
X116226247Y-76793333D02*
X116464342Y-76793333D01*
X116464342Y-76793333D02*
X116559580Y-76840952D01*
X116559580Y-76840952D02*
X116607200Y-76888571D01*
X116607200Y-76888571D02*
X116654819Y-76983809D01*
X116654819Y-76983809D02*
X116654819Y-77221904D01*
X116654819Y-77221904D02*
X116607200Y-77317142D01*
X116607200Y-77317142D02*
X116559580Y-77364761D01*
X126342261Y-46404818D02*
X125770833Y-46404818D01*
X126056547Y-46404818D02*
X126056547Y-45404818D01*
X126056547Y-45404818D02*
X125961309Y-45547675D01*
X125961309Y-45547675D02*
X125866071Y-45642913D01*
X125866071Y-45642913D02*
X125770833Y-45690532D01*
X126961309Y-45404818D02*
X127056547Y-45404818D01*
X127056547Y-45404818D02*
X127151785Y-45452437D01*
X127151785Y-45452437D02*
X127199404Y-45500056D01*
X127199404Y-45500056D02*
X127247023Y-45595294D01*
X127247023Y-45595294D02*
X127294642Y-45785770D01*
X127294642Y-45785770D02*
X127294642Y-46023865D01*
X127294642Y-46023865D02*
X127247023Y-46214341D01*
X127247023Y-46214341D02*
X127199404Y-46309579D01*
X127199404Y-46309579D02*
X127151785Y-46357199D01*
X127151785Y-46357199D02*
X127056547Y-46404818D01*
X127056547Y-46404818D02*
X126961309Y-46404818D01*
X126961309Y-46404818D02*
X126866071Y-46357199D01*
X126866071Y-46357199D02*
X126818452Y-46309579D01*
X126818452Y-46309579D02*
X126770833Y-46214341D01*
X126770833Y-46214341D02*
X126723214Y-46023865D01*
X126723214Y-46023865D02*
X126723214Y-45785770D01*
X126723214Y-45785770D02*
X126770833Y-45595294D01*
X126770833Y-45595294D02*
X126818452Y-45500056D01*
X126818452Y-45500056D02*
X126866071Y-45452437D01*
X126866071Y-45452437D02*
X126961309Y-45404818D01*
X127723214Y-46404818D02*
X127723214Y-45404818D01*
X127818452Y-46023865D02*
X128104166Y-46404818D01*
X128104166Y-45738151D02*
X127723214Y-46119103D01*
D11*
X126804167Y-48163855D02*
X126537500Y-47782902D01*
X126347024Y-48163855D02*
X126347024Y-47363855D01*
X126347024Y-47363855D02*
X126651786Y-47363855D01*
X126651786Y-47363855D02*
X126727976Y-47401950D01*
X126727976Y-47401950D02*
X126766071Y-47440045D01*
X126766071Y-47440045D02*
X126804167Y-47516236D01*
X126804167Y-47516236D02*
X126804167Y-47630521D01*
X126804167Y-47630521D02*
X126766071Y-47706712D01*
X126766071Y-47706712D02*
X126727976Y-47744807D01*
X126727976Y-47744807D02*
X126651786Y-47782902D01*
X126651786Y-47782902D02*
X126347024Y-47782902D01*
X127527976Y-47363855D02*
X127147024Y-47363855D01*
X127147024Y-47363855D02*
X127108928Y-47744807D01*
X127108928Y-47744807D02*
X127147024Y-47706712D01*
X127147024Y-47706712D02*
X127223214Y-47668617D01*
X127223214Y-47668617D02*
X127413690Y-47668617D01*
X127413690Y-47668617D02*
X127489881Y-47706712D01*
X127489881Y-47706712D02*
X127527976Y-47744807D01*
X127527976Y-47744807D02*
X127566071Y-47820998D01*
X127566071Y-47820998D02*
X127566071Y-48011474D01*
X127566071Y-48011474D02*
X127527976Y-48087664D01*
X127527976Y-48087664D02*
X127489881Y-48125760D01*
X127489881Y-48125760D02*
X127413690Y-48163855D01*
X127413690Y-48163855D02*
X127223214Y-48163855D01*
X127223214Y-48163855D02*
X127147024Y-48125760D01*
X127147024Y-48125760D02*
X127108928Y-48087664D01*
D10*
X144242261Y-57204820D02*
X143670833Y-57204820D01*
X143956547Y-57204820D02*
X143956547Y-56204820D01*
X143956547Y-56204820D02*
X143861309Y-56347677D01*
X143861309Y-56347677D02*
X143766071Y-56442915D01*
X143766071Y-56442915D02*
X143670833Y-56490534D01*
X144861309Y-56204820D02*
X144956547Y-56204820D01*
X144956547Y-56204820D02*
X145051785Y-56252439D01*
X145051785Y-56252439D02*
X145099404Y-56300058D01*
X145099404Y-56300058D02*
X145147023Y-56395296D01*
X145147023Y-56395296D02*
X145194642Y-56585772D01*
X145194642Y-56585772D02*
X145194642Y-56823867D01*
X145194642Y-56823867D02*
X145147023Y-57014343D01*
X145147023Y-57014343D02*
X145099404Y-57109581D01*
X145099404Y-57109581D02*
X145051785Y-57157201D01*
X145051785Y-57157201D02*
X144956547Y-57204820D01*
X144956547Y-57204820D02*
X144861309Y-57204820D01*
X144861309Y-57204820D02*
X144766071Y-57157201D01*
X144766071Y-57157201D02*
X144718452Y-57109581D01*
X144718452Y-57109581D02*
X144670833Y-57014343D01*
X144670833Y-57014343D02*
X144623214Y-56823867D01*
X144623214Y-56823867D02*
X144623214Y-56585772D01*
X144623214Y-56585772D02*
X144670833Y-56395296D01*
X144670833Y-56395296D02*
X144718452Y-56300058D01*
X144718452Y-56300058D02*
X144766071Y-56252439D01*
X144766071Y-56252439D02*
X144861309Y-56204820D01*
X145623214Y-57204820D02*
X145623214Y-56204820D01*
X145718452Y-56823867D02*
X146004166Y-57204820D01*
X146004166Y-56538153D02*
X145623214Y-56919105D01*
D11*
X144323214Y-55263855D02*
X144056547Y-54882902D01*
X143866071Y-55263855D02*
X143866071Y-54463855D01*
X143866071Y-54463855D02*
X144170833Y-54463855D01*
X144170833Y-54463855D02*
X144247023Y-54501950D01*
X144247023Y-54501950D02*
X144285118Y-54540045D01*
X144285118Y-54540045D02*
X144323214Y-54616236D01*
X144323214Y-54616236D02*
X144323214Y-54730521D01*
X144323214Y-54730521D02*
X144285118Y-54806712D01*
X144285118Y-54806712D02*
X144247023Y-54844807D01*
X144247023Y-54844807D02*
X144170833Y-54882902D01*
X144170833Y-54882902D02*
X143866071Y-54882902D01*
X145085118Y-55263855D02*
X144627975Y-55263855D01*
X144856547Y-55263855D02*
X144856547Y-54463855D01*
X144856547Y-54463855D02*
X144780356Y-54578140D01*
X144780356Y-54578140D02*
X144704166Y-54654331D01*
X144704166Y-54654331D02*
X144627975Y-54692426D01*
X145580357Y-54463855D02*
X145656547Y-54463855D01*
X145656547Y-54463855D02*
X145732738Y-54501950D01*
X145732738Y-54501950D02*
X145770833Y-54540045D01*
X145770833Y-54540045D02*
X145808928Y-54616236D01*
X145808928Y-54616236D02*
X145847023Y-54768617D01*
X145847023Y-54768617D02*
X145847023Y-54959093D01*
X145847023Y-54959093D02*
X145808928Y-55111474D01*
X145808928Y-55111474D02*
X145770833Y-55187664D01*
X145770833Y-55187664D02*
X145732738Y-55225760D01*
X145732738Y-55225760D02*
X145656547Y-55263855D01*
X145656547Y-55263855D02*
X145580357Y-55263855D01*
X145580357Y-55263855D02*
X145504166Y-55225760D01*
X145504166Y-55225760D02*
X145466071Y-55187664D01*
X145466071Y-55187664D02*
X145427976Y-55111474D01*
X145427976Y-55111474D02*
X145389880Y-54959093D01*
X145389880Y-54959093D02*
X145389880Y-54768617D01*
X145389880Y-54768617D02*
X145427976Y-54616236D01*
X145427976Y-54616236D02*
X145466071Y-54540045D01*
X145466071Y-54540045D02*
X145504166Y-54501950D01*
X145504166Y-54501950D02*
X145580357Y-54463855D01*
D10*
X149854819Y-85533333D02*
X150569104Y-85533333D01*
X150569104Y-85533333D02*
X150711961Y-85580952D01*
X150711961Y-85580952D02*
X150807200Y-85676190D01*
X150807200Y-85676190D02*
X150854819Y-85819047D01*
X150854819Y-85819047D02*
X150854819Y-85914285D01*
X149854819Y-85152380D02*
X149854819Y-84533333D01*
X149854819Y-84533333D02*
X150235771Y-84866666D01*
X150235771Y-84866666D02*
X150235771Y-84723809D01*
X150235771Y-84723809D02*
X150283390Y-84628571D01*
X150283390Y-84628571D02*
X150331009Y-84580952D01*
X150331009Y-84580952D02*
X150426247Y-84533333D01*
X150426247Y-84533333D02*
X150664342Y-84533333D01*
X150664342Y-84533333D02*
X150759580Y-84580952D01*
X150759580Y-84580952D02*
X150807200Y-84628571D01*
X150807200Y-84628571D02*
X150854819Y-84723809D01*
X150854819Y-84723809D02*
X150854819Y-85009523D01*
X150854819Y-85009523D02*
X150807200Y-85104761D01*
X150807200Y-85104761D02*
X150759580Y-85152380D01*
X168204820Y-70381547D02*
X168204820Y-70952975D01*
X168204820Y-70667261D02*
X167204820Y-70667261D01*
X167204820Y-70667261D02*
X167347677Y-70762499D01*
X167347677Y-70762499D02*
X167442915Y-70857737D01*
X167442915Y-70857737D02*
X167490534Y-70952975D01*
X168204820Y-69952975D02*
X167204820Y-69952975D01*
X167823867Y-69857737D02*
X168204820Y-69572023D01*
X167538153Y-69572023D02*
X167919105Y-69952975D01*
D11*
X166263855Y-70395832D02*
X165882902Y-70662499D01*
X166263855Y-70852975D02*
X165463855Y-70852975D01*
X165463855Y-70852975D02*
X165463855Y-70548213D01*
X165463855Y-70548213D02*
X165501950Y-70472023D01*
X165501950Y-70472023D02*
X165540045Y-70433928D01*
X165540045Y-70433928D02*
X165616236Y-70395832D01*
X165616236Y-70395832D02*
X165730521Y-70395832D01*
X165730521Y-70395832D02*
X165806712Y-70433928D01*
X165806712Y-70433928D02*
X165844807Y-70472023D01*
X165844807Y-70472023D02*
X165882902Y-70548213D01*
X165882902Y-70548213D02*
X165882902Y-70852975D01*
X165730521Y-69710118D02*
X166263855Y-69710118D01*
X165425760Y-69900594D02*
X165997188Y-70091071D01*
X165997188Y-70091071D02*
X165997188Y-69595832D01*
D10*
X111904818Y-48132738D02*
X111904818Y-48704166D01*
X111904818Y-48418452D02*
X110904818Y-48418452D01*
X110904818Y-48418452D02*
X111047675Y-48513690D01*
X111047675Y-48513690D02*
X111142913Y-48608928D01*
X111142913Y-48608928D02*
X111190532Y-48704166D01*
X110904818Y-47513690D02*
X110904818Y-47418452D01*
X110904818Y-47418452D02*
X110952437Y-47323214D01*
X110952437Y-47323214D02*
X111000056Y-47275595D01*
X111000056Y-47275595D02*
X111095294Y-47227976D01*
X111095294Y-47227976D02*
X111285770Y-47180357D01*
X111285770Y-47180357D02*
X111523865Y-47180357D01*
X111523865Y-47180357D02*
X111714341Y-47227976D01*
X111714341Y-47227976D02*
X111809579Y-47275595D01*
X111809579Y-47275595D02*
X111857199Y-47323214D01*
X111857199Y-47323214D02*
X111904818Y-47418452D01*
X111904818Y-47418452D02*
X111904818Y-47513690D01*
X111904818Y-47513690D02*
X111857199Y-47608928D01*
X111857199Y-47608928D02*
X111809579Y-47656547D01*
X111809579Y-47656547D02*
X111714341Y-47704166D01*
X111714341Y-47704166D02*
X111523865Y-47751785D01*
X111523865Y-47751785D02*
X111285770Y-47751785D01*
X111285770Y-47751785D02*
X111095294Y-47704166D01*
X111095294Y-47704166D02*
X111000056Y-47656547D01*
X111000056Y-47656547D02*
X110952437Y-47608928D01*
X110952437Y-47608928D02*
X110904818Y-47513690D01*
X111904818Y-46751785D02*
X110904818Y-46751785D01*
X111523865Y-46656547D02*
X111904818Y-46370833D01*
X111238151Y-46370833D02*
X111619103Y-46751785D01*
D11*
X113663855Y-47670832D02*
X113282902Y-47937499D01*
X113663855Y-48127975D02*
X112863855Y-48127975D01*
X112863855Y-48127975D02*
X112863855Y-47823213D01*
X112863855Y-47823213D02*
X112901950Y-47747023D01*
X112901950Y-47747023D02*
X112940045Y-47708928D01*
X112940045Y-47708928D02*
X113016236Y-47670832D01*
X113016236Y-47670832D02*
X113130521Y-47670832D01*
X113130521Y-47670832D02*
X113206712Y-47708928D01*
X113206712Y-47708928D02*
X113244807Y-47747023D01*
X113244807Y-47747023D02*
X113282902Y-47823213D01*
X113282902Y-47823213D02*
X113282902Y-48127975D01*
X113663855Y-46908928D02*
X113663855Y-47366071D01*
X113663855Y-47137499D02*
X112863855Y-47137499D01*
X112863855Y-47137499D02*
X112978140Y-47213690D01*
X112978140Y-47213690D02*
X113054331Y-47289880D01*
X113054331Y-47289880D02*
X113092426Y-47366071D01*
D10*
X155319642Y-74199818D02*
X154748214Y-74199818D01*
X155033928Y-74199818D02*
X155033928Y-73199818D01*
X155033928Y-73199818D02*
X154938690Y-73342675D01*
X154938690Y-73342675D02*
X154843452Y-73437913D01*
X154843452Y-73437913D02*
X154748214Y-73485532D01*
X155938690Y-73199818D02*
X156033928Y-73199818D01*
X156033928Y-73199818D02*
X156129166Y-73247437D01*
X156129166Y-73247437D02*
X156176785Y-73295056D01*
X156176785Y-73295056D02*
X156224404Y-73390294D01*
X156224404Y-73390294D02*
X156272023Y-73580770D01*
X156272023Y-73580770D02*
X156272023Y-73818865D01*
X156272023Y-73818865D02*
X156224404Y-74009341D01*
X156224404Y-74009341D02*
X156176785Y-74104579D01*
X156176785Y-74104579D02*
X156129166Y-74152199D01*
X156129166Y-74152199D02*
X156033928Y-74199818D01*
X156033928Y-74199818D02*
X155938690Y-74199818D01*
X155938690Y-74199818D02*
X155843452Y-74152199D01*
X155843452Y-74152199D02*
X155795833Y-74104579D01*
X155795833Y-74104579D02*
X155748214Y-74009341D01*
X155748214Y-74009341D02*
X155700595Y-73818865D01*
X155700595Y-73818865D02*
X155700595Y-73580770D01*
X155700595Y-73580770D02*
X155748214Y-73390294D01*
X155748214Y-73390294D02*
X155795833Y-73295056D01*
X155795833Y-73295056D02*
X155843452Y-73247437D01*
X155843452Y-73247437D02*
X155938690Y-73199818D01*
X157129166Y-73533151D02*
X157129166Y-74199818D01*
X156700595Y-73533151D02*
X156700595Y-74056960D01*
X156700595Y-74056960D02*
X156748214Y-74152199D01*
X156748214Y-74152199D02*
X156843452Y-74199818D01*
X156843452Y-74199818D02*
X156986309Y-74199818D01*
X156986309Y-74199818D02*
X157081547Y-74152199D01*
X157081547Y-74152199D02*
X157129166Y-74104579D01*
D11*
X155829167Y-75882664D02*
X155791071Y-75920760D01*
X155791071Y-75920760D02*
X155676786Y-75958855D01*
X155676786Y-75958855D02*
X155600595Y-75958855D01*
X155600595Y-75958855D02*
X155486309Y-75920760D01*
X155486309Y-75920760D02*
X155410119Y-75844569D01*
X155410119Y-75844569D02*
X155372024Y-75768379D01*
X155372024Y-75768379D02*
X155333928Y-75615998D01*
X155333928Y-75615998D02*
X155333928Y-75501712D01*
X155333928Y-75501712D02*
X155372024Y-75349331D01*
X155372024Y-75349331D02*
X155410119Y-75273140D01*
X155410119Y-75273140D02*
X155486309Y-75196950D01*
X155486309Y-75196950D02*
X155600595Y-75158855D01*
X155600595Y-75158855D02*
X155676786Y-75158855D01*
X155676786Y-75158855D02*
X155791071Y-75196950D01*
X155791071Y-75196950D02*
X155829167Y-75235045D01*
X156591071Y-75958855D02*
X156133928Y-75958855D01*
X156362500Y-75958855D02*
X156362500Y-75158855D01*
X156362500Y-75158855D02*
X156286309Y-75273140D01*
X156286309Y-75273140D02*
X156210119Y-75349331D01*
X156210119Y-75349331D02*
X156133928Y-75387426D01*
D10*
X127404820Y-43205357D02*
X127404820Y-43776785D01*
X127404820Y-43491071D02*
X126404820Y-43491071D01*
X126404820Y-43491071D02*
X126547677Y-43586309D01*
X126547677Y-43586309D02*
X126642915Y-43681547D01*
X126642915Y-43681547D02*
X126690534Y-43776785D01*
X126404820Y-42586309D02*
X126404820Y-42491071D01*
X126404820Y-42491071D02*
X126452439Y-42395833D01*
X126452439Y-42395833D02*
X126500058Y-42348214D01*
X126500058Y-42348214D02*
X126595296Y-42300595D01*
X126595296Y-42300595D02*
X126785772Y-42252976D01*
X126785772Y-42252976D02*
X127023867Y-42252976D01*
X127023867Y-42252976D02*
X127214343Y-42300595D01*
X127214343Y-42300595D02*
X127309581Y-42348214D01*
X127309581Y-42348214D02*
X127357201Y-42395833D01*
X127357201Y-42395833D02*
X127404820Y-42491071D01*
X127404820Y-42491071D02*
X127404820Y-42586309D01*
X127404820Y-42586309D02*
X127357201Y-42681547D01*
X127357201Y-42681547D02*
X127309581Y-42729166D01*
X127309581Y-42729166D02*
X127214343Y-42776785D01*
X127214343Y-42776785D02*
X127023867Y-42824404D01*
X127023867Y-42824404D02*
X126785772Y-42824404D01*
X126785772Y-42824404D02*
X126595296Y-42776785D01*
X126595296Y-42776785D02*
X126500058Y-42729166D01*
X126500058Y-42729166D02*
X126452439Y-42681547D01*
X126452439Y-42681547D02*
X126404820Y-42586309D01*
X126738153Y-41395833D02*
X127404820Y-41395833D01*
X126738153Y-41824404D02*
X127261962Y-41824404D01*
X127261962Y-41824404D02*
X127357201Y-41776785D01*
X127357201Y-41776785D02*
X127404820Y-41681547D01*
X127404820Y-41681547D02*
X127404820Y-41538690D01*
X127404820Y-41538690D02*
X127357201Y-41443452D01*
X127357201Y-41443452D02*
X127309581Y-41395833D01*
D11*
X125387664Y-42695832D02*
X125425760Y-42733928D01*
X125425760Y-42733928D02*
X125463855Y-42848213D01*
X125463855Y-42848213D02*
X125463855Y-42924404D01*
X125463855Y-42924404D02*
X125425760Y-43038690D01*
X125425760Y-43038690D02*
X125349569Y-43114880D01*
X125349569Y-43114880D02*
X125273379Y-43152975D01*
X125273379Y-43152975D02*
X125120998Y-43191071D01*
X125120998Y-43191071D02*
X125006712Y-43191071D01*
X125006712Y-43191071D02*
X124854331Y-43152975D01*
X124854331Y-43152975D02*
X124778140Y-43114880D01*
X124778140Y-43114880D02*
X124701950Y-43038690D01*
X124701950Y-43038690D02*
X124663855Y-42924404D01*
X124663855Y-42924404D02*
X124663855Y-42848213D01*
X124663855Y-42848213D02*
X124701950Y-42733928D01*
X124701950Y-42733928D02*
X124740045Y-42695832D01*
X124740045Y-42391071D02*
X124701950Y-42352975D01*
X124701950Y-42352975D02*
X124663855Y-42276785D01*
X124663855Y-42276785D02*
X124663855Y-42086309D01*
X124663855Y-42086309D02*
X124701950Y-42010118D01*
X124701950Y-42010118D02*
X124740045Y-41972023D01*
X124740045Y-41972023D02*
X124816236Y-41933928D01*
X124816236Y-41933928D02*
X124892426Y-41933928D01*
X124892426Y-41933928D02*
X125006712Y-41972023D01*
X125006712Y-41972023D02*
X125463855Y-42429166D01*
X125463855Y-42429166D02*
X125463855Y-41933928D01*
D10*
X108164285Y-68204819D02*
X108164285Y-67204819D01*
X108164285Y-67204819D02*
X108497618Y-67919104D01*
X108497618Y-67919104D02*
X108830951Y-67204819D01*
X108830951Y-67204819D02*
X108830951Y-68204819D01*
X109449999Y-68204819D02*
X109354761Y-68157200D01*
X109354761Y-68157200D02*
X109307142Y-68109580D01*
X109307142Y-68109580D02*
X109259523Y-68014342D01*
X109259523Y-68014342D02*
X109259523Y-67728628D01*
X109259523Y-67728628D02*
X109307142Y-67633390D01*
X109307142Y-67633390D02*
X109354761Y-67585771D01*
X109354761Y-67585771D02*
X109449999Y-67538152D01*
X109449999Y-67538152D02*
X109592856Y-67538152D01*
X109592856Y-67538152D02*
X109688094Y-67585771D01*
X109688094Y-67585771D02*
X109735713Y-67633390D01*
X109735713Y-67633390D02*
X109783332Y-67728628D01*
X109783332Y-67728628D02*
X109783332Y-68014342D01*
X109783332Y-68014342D02*
X109735713Y-68109580D01*
X109735713Y-68109580D02*
X109688094Y-68157200D01*
X109688094Y-68157200D02*
X109592856Y-68204819D01*
X109592856Y-68204819D02*
X109449999Y-68204819D01*
X110640475Y-67538152D02*
X110640475Y-68204819D01*
X110211904Y-67538152D02*
X110211904Y-68061961D01*
X110211904Y-68061961D02*
X110259523Y-68157200D01*
X110259523Y-68157200D02*
X110354761Y-68204819D01*
X110354761Y-68204819D02*
X110497618Y-68204819D01*
X110497618Y-68204819D02*
X110592856Y-68157200D01*
X110592856Y-68157200D02*
X110640475Y-68109580D01*
X111116666Y-67538152D02*
X111116666Y-68204819D01*
X111116666Y-67633390D02*
X111164285Y-67585771D01*
X111164285Y-67585771D02*
X111259523Y-67538152D01*
X111259523Y-67538152D02*
X111402380Y-67538152D01*
X111402380Y-67538152D02*
X111497618Y-67585771D01*
X111497618Y-67585771D02*
X111545237Y-67681009D01*
X111545237Y-67681009D02*
X111545237Y-68204819D01*
X111878571Y-67538152D02*
X112259523Y-67538152D01*
X112021428Y-67204819D02*
X112021428Y-68061961D01*
X112021428Y-68061961D02*
X112069047Y-68157200D01*
X112069047Y-68157200D02*
X112164285Y-68204819D01*
X112164285Y-68204819D02*
X112259523Y-68204819D01*
X112592857Y-68204819D02*
X112592857Y-67538152D01*
X112592857Y-67204819D02*
X112545238Y-67252438D01*
X112545238Y-67252438D02*
X112592857Y-67300057D01*
X112592857Y-67300057D02*
X112640476Y-67252438D01*
X112640476Y-67252438D02*
X112592857Y-67204819D01*
X112592857Y-67204819D02*
X112592857Y-67300057D01*
X113069047Y-67538152D02*
X113069047Y-68204819D01*
X113069047Y-67633390D02*
X113116666Y-67585771D01*
X113116666Y-67585771D02*
X113211904Y-67538152D01*
X113211904Y-67538152D02*
X113354761Y-67538152D01*
X113354761Y-67538152D02*
X113449999Y-67585771D01*
X113449999Y-67585771D02*
X113497618Y-67681009D01*
X113497618Y-67681009D02*
X113497618Y-68204819D01*
X114402380Y-67538152D02*
X114402380Y-68347676D01*
X114402380Y-68347676D02*
X114354761Y-68442914D01*
X114354761Y-68442914D02*
X114307142Y-68490533D01*
X114307142Y-68490533D02*
X114211904Y-68538152D01*
X114211904Y-68538152D02*
X114069047Y-68538152D01*
X114069047Y-68538152D02*
X113973809Y-68490533D01*
X114402380Y-68157200D02*
X114307142Y-68204819D01*
X114307142Y-68204819D02*
X114116666Y-68204819D01*
X114116666Y-68204819D02*
X114021428Y-68157200D01*
X114021428Y-68157200D02*
X113973809Y-68109580D01*
X113973809Y-68109580D02*
X113926190Y-68014342D01*
X113926190Y-68014342D02*
X113926190Y-67728628D01*
X113926190Y-67728628D02*
X113973809Y-67633390D01*
X113973809Y-67633390D02*
X114021428Y-67585771D01*
X114021428Y-67585771D02*
X114116666Y-67538152D01*
X114116666Y-67538152D02*
X114307142Y-67538152D01*
X114307142Y-67538152D02*
X114402380Y-67585771D01*
X114878571Y-68204819D02*
X114878571Y-67204819D01*
X114878571Y-67681009D02*
X115449999Y-67681009D01*
X115449999Y-68204819D02*
X115449999Y-67204819D01*
X116069047Y-68204819D02*
X115973809Y-68157200D01*
X115973809Y-68157200D02*
X115926190Y-68109580D01*
X115926190Y-68109580D02*
X115878571Y-68014342D01*
X115878571Y-68014342D02*
X115878571Y-67728628D01*
X115878571Y-67728628D02*
X115926190Y-67633390D01*
X115926190Y-67633390D02*
X115973809Y-67585771D01*
X115973809Y-67585771D02*
X116069047Y-67538152D01*
X116069047Y-67538152D02*
X116211904Y-67538152D01*
X116211904Y-67538152D02*
X116307142Y-67585771D01*
X116307142Y-67585771D02*
X116354761Y-67633390D01*
X116354761Y-67633390D02*
X116402380Y-67728628D01*
X116402380Y-67728628D02*
X116402380Y-68014342D01*
X116402380Y-68014342D02*
X116354761Y-68109580D01*
X116354761Y-68109580D02*
X116307142Y-68157200D01*
X116307142Y-68157200D02*
X116211904Y-68204819D01*
X116211904Y-68204819D02*
X116069047Y-68204819D01*
X116973809Y-68204819D02*
X116878571Y-68157200D01*
X116878571Y-68157200D02*
X116830952Y-68061961D01*
X116830952Y-68061961D02*
X116830952Y-67204819D01*
X117735714Y-68157200D02*
X117640476Y-68204819D01*
X117640476Y-68204819D02*
X117450000Y-68204819D01*
X117450000Y-68204819D02*
X117354762Y-68157200D01*
X117354762Y-68157200D02*
X117307143Y-68061961D01*
X117307143Y-68061961D02*
X117307143Y-67681009D01*
X117307143Y-67681009D02*
X117354762Y-67585771D01*
X117354762Y-67585771D02*
X117450000Y-67538152D01*
X117450000Y-67538152D02*
X117640476Y-67538152D01*
X117640476Y-67538152D02*
X117735714Y-67585771D01*
X117735714Y-67585771D02*
X117783333Y-67681009D01*
X117783333Y-67681009D02*
X117783333Y-67776247D01*
X117783333Y-67776247D02*
X117307143Y-67871485D01*
X112188095Y-64004819D02*
X112188095Y-63004819D01*
X112188095Y-63481009D02*
X112759523Y-63481009D01*
X112759523Y-64004819D02*
X112759523Y-63004819D01*
X113140476Y-63004819D02*
X113759523Y-63004819D01*
X113759523Y-63004819D02*
X113426190Y-63385771D01*
X113426190Y-63385771D02*
X113569047Y-63385771D01*
X113569047Y-63385771D02*
X113664285Y-63433390D01*
X113664285Y-63433390D02*
X113711904Y-63481009D01*
X113711904Y-63481009D02*
X113759523Y-63576247D01*
X113759523Y-63576247D02*
X113759523Y-63814342D01*
X113759523Y-63814342D02*
X113711904Y-63909580D01*
X113711904Y-63909580D02*
X113664285Y-63957200D01*
X113664285Y-63957200D02*
X113569047Y-64004819D01*
X113569047Y-64004819D02*
X113283333Y-64004819D01*
X113283333Y-64004819D02*
X113188095Y-63957200D01*
X113188095Y-63957200D02*
X113140476Y-63909580D01*
X156354819Y-85533333D02*
X157069104Y-85533333D01*
X157069104Y-85533333D02*
X157211961Y-85580952D01*
X157211961Y-85580952D02*
X157307200Y-85676190D01*
X157307200Y-85676190D02*
X157354819Y-85819047D01*
X157354819Y-85819047D02*
X157354819Y-85914285D01*
X156688152Y-84628571D02*
X157354819Y-84628571D01*
X156307200Y-84866666D02*
X157021485Y-85104761D01*
X157021485Y-85104761D02*
X157021485Y-84485714D01*
X165404820Y-67881547D02*
X165404820Y-68452975D01*
X165404820Y-68167261D02*
X164404820Y-68167261D01*
X164404820Y-68167261D02*
X164547677Y-68262499D01*
X164547677Y-68262499D02*
X164642915Y-68357737D01*
X164642915Y-68357737D02*
X164690534Y-68452975D01*
X165404820Y-67452975D02*
X164404820Y-67452975D01*
X165023867Y-67357737D02*
X165404820Y-67072023D01*
X164738153Y-67072023D02*
X165119105Y-67452975D01*
D11*
X163463855Y-67895832D02*
X163082902Y-68162499D01*
X163463855Y-68352975D02*
X162663855Y-68352975D01*
X162663855Y-68352975D02*
X162663855Y-68048213D01*
X162663855Y-68048213D02*
X162701950Y-67972023D01*
X162701950Y-67972023D02*
X162740045Y-67933928D01*
X162740045Y-67933928D02*
X162816236Y-67895832D01*
X162816236Y-67895832D02*
X162930521Y-67895832D01*
X162930521Y-67895832D02*
X163006712Y-67933928D01*
X163006712Y-67933928D02*
X163044807Y-67972023D01*
X163044807Y-67972023D02*
X163082902Y-68048213D01*
X163082902Y-68048213D02*
X163082902Y-68352975D01*
X162663855Y-67629166D02*
X162663855Y-67095832D01*
X162663855Y-67095832D02*
X163463855Y-67438690D01*
D10*
X130604820Y-43681547D02*
X130604820Y-44252975D01*
X130604820Y-43967261D02*
X129604820Y-43967261D01*
X129604820Y-43967261D02*
X129747677Y-44062499D01*
X129747677Y-44062499D02*
X129842915Y-44157737D01*
X129842915Y-44157737D02*
X129890534Y-44252975D01*
X129604820Y-43062499D02*
X129604820Y-42967261D01*
X129604820Y-42967261D02*
X129652439Y-42872023D01*
X129652439Y-42872023D02*
X129700058Y-42824404D01*
X129700058Y-42824404D02*
X129795296Y-42776785D01*
X129795296Y-42776785D02*
X129985772Y-42729166D01*
X129985772Y-42729166D02*
X130223867Y-42729166D01*
X130223867Y-42729166D02*
X130414343Y-42776785D01*
X130414343Y-42776785D02*
X130509581Y-42824404D01*
X130509581Y-42824404D02*
X130557201Y-42872023D01*
X130557201Y-42872023D02*
X130604820Y-42967261D01*
X130604820Y-42967261D02*
X130604820Y-43062499D01*
X130604820Y-43062499D02*
X130557201Y-43157737D01*
X130557201Y-43157737D02*
X130509581Y-43205356D01*
X130509581Y-43205356D02*
X130414343Y-43252975D01*
X130414343Y-43252975D02*
X130223867Y-43300594D01*
X130223867Y-43300594D02*
X129985772Y-43300594D01*
X129985772Y-43300594D02*
X129795296Y-43252975D01*
X129795296Y-43252975D02*
X129700058Y-43205356D01*
X129700058Y-43205356D02*
X129652439Y-43157737D01*
X129652439Y-43157737D02*
X129604820Y-43062499D01*
X129604820Y-42110118D02*
X129604820Y-42014880D01*
X129604820Y-42014880D02*
X129652439Y-41919642D01*
X129652439Y-41919642D02*
X129700058Y-41872023D01*
X129700058Y-41872023D02*
X129795296Y-41824404D01*
X129795296Y-41824404D02*
X129985772Y-41776785D01*
X129985772Y-41776785D02*
X130223867Y-41776785D01*
X130223867Y-41776785D02*
X130414343Y-41824404D01*
X130414343Y-41824404D02*
X130509581Y-41872023D01*
X130509581Y-41872023D02*
X130557201Y-41919642D01*
X130557201Y-41919642D02*
X130604820Y-42014880D01*
X130604820Y-42014880D02*
X130604820Y-42110118D01*
X130604820Y-42110118D02*
X130557201Y-42205356D01*
X130557201Y-42205356D02*
X130509581Y-42252975D01*
X130509581Y-42252975D02*
X130414343Y-42300594D01*
X130414343Y-42300594D02*
X130223867Y-42348213D01*
X130223867Y-42348213D02*
X129985772Y-42348213D01*
X129985772Y-42348213D02*
X129795296Y-42300594D01*
X129795296Y-42300594D02*
X129700058Y-42252975D01*
X129700058Y-42252975D02*
X129652439Y-42205356D01*
X129652439Y-42205356D02*
X129604820Y-42110118D01*
X129938153Y-41348213D02*
X130604820Y-41348213D01*
X130033391Y-41348213D02*
X129985772Y-41300594D01*
X129985772Y-41300594D02*
X129938153Y-41205356D01*
X129938153Y-41205356D02*
X129938153Y-41062499D01*
X129938153Y-41062499D02*
X129985772Y-40967261D01*
X129985772Y-40967261D02*
X130081010Y-40919642D01*
X130081010Y-40919642D02*
X130604820Y-40919642D01*
D11*
X128587664Y-42695832D02*
X128625760Y-42733928D01*
X128625760Y-42733928D02*
X128663855Y-42848213D01*
X128663855Y-42848213D02*
X128663855Y-42924404D01*
X128663855Y-42924404D02*
X128625760Y-43038690D01*
X128625760Y-43038690D02*
X128549569Y-43114880D01*
X128549569Y-43114880D02*
X128473379Y-43152975D01*
X128473379Y-43152975D02*
X128320998Y-43191071D01*
X128320998Y-43191071D02*
X128206712Y-43191071D01*
X128206712Y-43191071D02*
X128054331Y-43152975D01*
X128054331Y-43152975D02*
X127978140Y-43114880D01*
X127978140Y-43114880D02*
X127901950Y-43038690D01*
X127901950Y-43038690D02*
X127863855Y-42924404D01*
X127863855Y-42924404D02*
X127863855Y-42848213D01*
X127863855Y-42848213D02*
X127901950Y-42733928D01*
X127901950Y-42733928D02*
X127940045Y-42695832D01*
X127863855Y-42429166D02*
X127863855Y-41933928D01*
X127863855Y-41933928D02*
X128168617Y-42200594D01*
X128168617Y-42200594D02*
X128168617Y-42086309D01*
X128168617Y-42086309D02*
X128206712Y-42010118D01*
X128206712Y-42010118D02*
X128244807Y-41972023D01*
X128244807Y-41972023D02*
X128320998Y-41933928D01*
X128320998Y-41933928D02*
X128511474Y-41933928D01*
X128511474Y-41933928D02*
X128587664Y-41972023D01*
X128587664Y-41972023D02*
X128625760Y-42010118D01*
X128625760Y-42010118D02*
X128663855Y-42086309D01*
X128663855Y-42086309D02*
X128663855Y-42314880D01*
X128663855Y-42314880D02*
X128625760Y-42391071D01*
X128625760Y-42391071D02*
X128587664Y-42429166D01*
D10*
X121104818Y-48280357D02*
X121104818Y-48851785D01*
X121104818Y-48566071D02*
X120104818Y-48566071D01*
X120104818Y-48566071D02*
X120247675Y-48661309D01*
X120247675Y-48661309D02*
X120342913Y-48756547D01*
X120342913Y-48756547D02*
X120390532Y-48851785D01*
X120104818Y-47661309D02*
X120104818Y-47566071D01*
X120104818Y-47566071D02*
X120152437Y-47470833D01*
X120152437Y-47470833D02*
X120200056Y-47423214D01*
X120200056Y-47423214D02*
X120295294Y-47375595D01*
X120295294Y-47375595D02*
X120485770Y-47327976D01*
X120485770Y-47327976D02*
X120723865Y-47327976D01*
X120723865Y-47327976D02*
X120914341Y-47375595D01*
X120914341Y-47375595D02*
X121009579Y-47423214D01*
X121009579Y-47423214D02*
X121057199Y-47470833D01*
X121057199Y-47470833D02*
X121104818Y-47566071D01*
X121104818Y-47566071D02*
X121104818Y-47661309D01*
X121104818Y-47661309D02*
X121057199Y-47756547D01*
X121057199Y-47756547D02*
X121009579Y-47804166D01*
X121009579Y-47804166D02*
X120914341Y-47851785D01*
X120914341Y-47851785D02*
X120723865Y-47899404D01*
X120723865Y-47899404D02*
X120485770Y-47899404D01*
X120485770Y-47899404D02*
X120295294Y-47851785D01*
X120295294Y-47851785D02*
X120200056Y-47804166D01*
X120200056Y-47804166D02*
X120152437Y-47756547D01*
X120152437Y-47756547D02*
X120104818Y-47661309D01*
X120438151Y-46470833D02*
X121104818Y-46470833D01*
X120438151Y-46899404D02*
X120961960Y-46899404D01*
X120961960Y-46899404D02*
X121057199Y-46851785D01*
X121057199Y-46851785D02*
X121104818Y-46756547D01*
X121104818Y-46756547D02*
X121104818Y-46613690D01*
X121104818Y-46613690D02*
X121057199Y-46518452D01*
X121057199Y-46518452D02*
X121009579Y-46470833D01*
D11*
X122787664Y-47770832D02*
X122825760Y-47808928D01*
X122825760Y-47808928D02*
X122863855Y-47923213D01*
X122863855Y-47923213D02*
X122863855Y-47999404D01*
X122863855Y-47999404D02*
X122825760Y-48113690D01*
X122825760Y-48113690D02*
X122749569Y-48189880D01*
X122749569Y-48189880D02*
X122673379Y-48227975D01*
X122673379Y-48227975D02*
X122520998Y-48266071D01*
X122520998Y-48266071D02*
X122406712Y-48266071D01*
X122406712Y-48266071D02*
X122254331Y-48227975D01*
X122254331Y-48227975D02*
X122178140Y-48189880D01*
X122178140Y-48189880D02*
X122101950Y-48113690D01*
X122101950Y-48113690D02*
X122063855Y-47999404D01*
X122063855Y-47999404D02*
X122063855Y-47923213D01*
X122063855Y-47923213D02*
X122101950Y-47808928D01*
X122101950Y-47808928D02*
X122140045Y-47770832D01*
X122063855Y-47047023D02*
X122063855Y-47427975D01*
X122063855Y-47427975D02*
X122444807Y-47466071D01*
X122444807Y-47466071D02*
X122406712Y-47427975D01*
X122406712Y-47427975D02*
X122368617Y-47351785D01*
X122368617Y-47351785D02*
X122368617Y-47161309D01*
X122368617Y-47161309D02*
X122406712Y-47085118D01*
X122406712Y-47085118D02*
X122444807Y-47047023D01*
X122444807Y-47047023D02*
X122520998Y-47008928D01*
X122520998Y-47008928D02*
X122711474Y-47008928D01*
X122711474Y-47008928D02*
X122787664Y-47047023D01*
X122787664Y-47047023D02*
X122825760Y-47085118D01*
X122825760Y-47085118D02*
X122863855Y-47161309D01*
X122863855Y-47161309D02*
X122863855Y-47351785D01*
X122863855Y-47351785D02*
X122825760Y-47427975D01*
X122825760Y-47427975D02*
X122787664Y-47466071D01*
D10*
X121719105Y-52589880D02*
X121719105Y-52113690D01*
X122004820Y-52685118D02*
X121004820Y-52351785D01*
X121004820Y-52351785D02*
X122004820Y-52018452D01*
X122004820Y-51685118D02*
X121004820Y-51685118D01*
X121004820Y-51685118D02*
X121004820Y-51304166D01*
X121004820Y-51304166D02*
X121052439Y-51208928D01*
X121052439Y-51208928D02*
X121100058Y-51161309D01*
X121100058Y-51161309D02*
X121195296Y-51113690D01*
X121195296Y-51113690D02*
X121338153Y-51113690D01*
X121338153Y-51113690D02*
X121433391Y-51161309D01*
X121433391Y-51161309D02*
X121481010Y-51208928D01*
X121481010Y-51208928D02*
X121528629Y-51304166D01*
X121528629Y-51304166D02*
X121528629Y-51685118D01*
X121100058Y-50732737D02*
X121052439Y-50685118D01*
X121052439Y-50685118D02*
X121004820Y-50589880D01*
X121004820Y-50589880D02*
X121004820Y-50351785D01*
X121004820Y-50351785D02*
X121052439Y-50256547D01*
X121052439Y-50256547D02*
X121100058Y-50208928D01*
X121100058Y-50208928D02*
X121195296Y-50161309D01*
X121195296Y-50161309D02*
X121290534Y-50161309D01*
X121290534Y-50161309D02*
X121433391Y-50208928D01*
X121433391Y-50208928D02*
X122004820Y-50780356D01*
X122004820Y-50780356D02*
X122004820Y-50161309D01*
X122004820Y-49208928D02*
X122004820Y-49780356D01*
X122004820Y-49494642D02*
X121004820Y-49494642D01*
X121004820Y-49494642D02*
X121147677Y-49589880D01*
X121147677Y-49589880D02*
X121242915Y-49685118D01*
X121242915Y-49685118D02*
X121290534Y-49780356D01*
X122004820Y-48256547D02*
X122004820Y-48827975D01*
X122004820Y-48542261D02*
X121004820Y-48542261D01*
X121004820Y-48542261D02*
X121147677Y-48637499D01*
X121147677Y-48637499D02*
X121242915Y-48732737D01*
X121242915Y-48732737D02*
X121290534Y-48827975D01*
X121100058Y-47875594D02*
X121052439Y-47827975D01*
X121052439Y-47827975D02*
X121004820Y-47732737D01*
X121004820Y-47732737D02*
X121004820Y-47494642D01*
X121004820Y-47494642D02*
X121052439Y-47399404D01*
X121052439Y-47399404D02*
X121100058Y-47351785D01*
X121100058Y-47351785D02*
X121195296Y-47304166D01*
X121195296Y-47304166D02*
X121290534Y-47304166D01*
X121290534Y-47304166D02*
X121433391Y-47351785D01*
X121433391Y-47351785D02*
X122004820Y-47923213D01*
X122004820Y-47923213D02*
X122004820Y-47304166D01*
X122004820Y-46875594D02*
X121004820Y-46875594D01*
X122004820Y-46304166D02*
X121433391Y-46732737D01*
X121004820Y-46304166D02*
X121576248Y-46875594D01*
X121623867Y-45875594D02*
X121623867Y-45113690D01*
X121004820Y-44732737D02*
X121004820Y-44113690D01*
X121004820Y-44113690D02*
X121385772Y-44447023D01*
X121385772Y-44447023D02*
X121385772Y-44304166D01*
X121385772Y-44304166D02*
X121433391Y-44208928D01*
X121433391Y-44208928D02*
X121481010Y-44161309D01*
X121481010Y-44161309D02*
X121576248Y-44113690D01*
X121576248Y-44113690D02*
X121814343Y-44113690D01*
X121814343Y-44113690D02*
X121909581Y-44161309D01*
X121909581Y-44161309D02*
X121957201Y-44208928D01*
X121957201Y-44208928D02*
X122004820Y-44304166D01*
X122004820Y-44304166D02*
X122004820Y-44589880D01*
X122004820Y-44589880D02*
X121957201Y-44685118D01*
X121957201Y-44685118D02*
X121909581Y-44732737D01*
X121909581Y-43685118D02*
X121957201Y-43637499D01*
X121957201Y-43637499D02*
X122004820Y-43685118D01*
X122004820Y-43685118D02*
X121957201Y-43732737D01*
X121957201Y-43732737D02*
X121909581Y-43685118D01*
X121909581Y-43685118D02*
X122004820Y-43685118D01*
X121004820Y-43304166D02*
X121004820Y-42685119D01*
X121004820Y-42685119D02*
X121385772Y-43018452D01*
X121385772Y-43018452D02*
X121385772Y-42875595D01*
X121385772Y-42875595D02*
X121433391Y-42780357D01*
X121433391Y-42780357D02*
X121481010Y-42732738D01*
X121481010Y-42732738D02*
X121576248Y-42685119D01*
X121576248Y-42685119D02*
X121814343Y-42685119D01*
X121814343Y-42685119D02*
X121909581Y-42732738D01*
X121909581Y-42732738D02*
X121957201Y-42780357D01*
X121957201Y-42780357D02*
X122004820Y-42875595D01*
X122004820Y-42875595D02*
X122004820Y-43161309D01*
X122004820Y-43161309D02*
X121957201Y-43256547D01*
X121957201Y-43256547D02*
X121909581Y-43304166D01*
D13*
X118931928Y-47942261D02*
X119255738Y-47942261D01*
X119255738Y-47942261D02*
X119293833Y-47923214D01*
X119293833Y-47923214D02*
X119312881Y-47904166D01*
X119312881Y-47904166D02*
X119331928Y-47866071D01*
X119331928Y-47866071D02*
X119331928Y-47789880D01*
X119331928Y-47789880D02*
X119312881Y-47751785D01*
X119312881Y-47751785D02*
X119293833Y-47732738D01*
X119293833Y-47732738D02*
X119255738Y-47713690D01*
X119255738Y-47713690D02*
X118931928Y-47713690D01*
X119331928Y-47313690D02*
X119331928Y-47542261D01*
X119331928Y-47427975D02*
X118931928Y-47427975D01*
X118931928Y-47427975D02*
X118989071Y-47466071D01*
X118989071Y-47466071D02*
X119027166Y-47504166D01*
X119027166Y-47504166D02*
X119046214Y-47542261D01*
D10*
X158609820Y-48715357D02*
X158609820Y-49191547D01*
X158609820Y-49191547D02*
X159086010Y-49239166D01*
X159086010Y-49239166D02*
X159038391Y-49191547D01*
X159038391Y-49191547D02*
X158990772Y-49096309D01*
X158990772Y-49096309D02*
X158990772Y-48858214D01*
X158990772Y-48858214D02*
X159038391Y-48762976D01*
X159038391Y-48762976D02*
X159086010Y-48715357D01*
X159086010Y-48715357D02*
X159181248Y-48667738D01*
X159181248Y-48667738D02*
X159419343Y-48667738D01*
X159419343Y-48667738D02*
X159514581Y-48715357D01*
X159514581Y-48715357D02*
X159562201Y-48762976D01*
X159562201Y-48762976D02*
X159609820Y-48858214D01*
X159609820Y-48858214D02*
X159609820Y-49096309D01*
X159609820Y-49096309D02*
X159562201Y-49191547D01*
X159562201Y-49191547D02*
X159514581Y-49239166D01*
X159609820Y-48239166D02*
X158609820Y-48239166D01*
X159228867Y-48143928D02*
X159609820Y-47858214D01*
X158943153Y-47858214D02*
X159324105Y-48239166D01*
X159609820Y-46905833D02*
X159609820Y-47477261D01*
X159609820Y-47191547D02*
X158609820Y-47191547D01*
X158609820Y-47191547D02*
X158752677Y-47286785D01*
X158752677Y-47286785D02*
X158847915Y-47382023D01*
X158847915Y-47382023D02*
X158895534Y-47477261D01*
D11*
X157668855Y-48586785D02*
X157287902Y-48853452D01*
X157668855Y-49043928D02*
X156868855Y-49043928D01*
X156868855Y-49043928D02*
X156868855Y-48739166D01*
X156868855Y-48739166D02*
X156906950Y-48662976D01*
X156906950Y-48662976D02*
X156945045Y-48624881D01*
X156945045Y-48624881D02*
X157021236Y-48586785D01*
X157021236Y-48586785D02*
X157135521Y-48586785D01*
X157135521Y-48586785D02*
X157211712Y-48624881D01*
X157211712Y-48624881D02*
X157249807Y-48662976D01*
X157249807Y-48662976D02*
X157287902Y-48739166D01*
X157287902Y-48739166D02*
X157287902Y-49043928D01*
X157668855Y-47824881D02*
X157668855Y-48282024D01*
X157668855Y-48053452D02*
X156868855Y-48053452D01*
X156868855Y-48053452D02*
X156983140Y-48129643D01*
X156983140Y-48129643D02*
X157059331Y-48205833D01*
X157059331Y-48205833D02*
X157097426Y-48282024D01*
X157135521Y-47139166D02*
X157668855Y-47139166D01*
X156830760Y-47329642D02*
X157402188Y-47520119D01*
X157402188Y-47520119D02*
X157402188Y-47024880D01*
D10*
X154169642Y-68074819D02*
X153693452Y-68074819D01*
X153693452Y-68074819D02*
X153693452Y-67074819D01*
X154502976Y-67551009D02*
X154836309Y-67551009D01*
X154979166Y-68074819D02*
X154502976Y-68074819D01*
X154502976Y-68074819D02*
X154502976Y-67074819D01*
X154502976Y-67074819D02*
X154979166Y-67074819D01*
X155407738Y-68074819D02*
X155407738Y-67074819D01*
X155407738Y-67074819D02*
X155645833Y-67074819D01*
X155645833Y-67074819D02*
X155788690Y-67122438D01*
X155788690Y-67122438D02*
X155883928Y-67217676D01*
X155883928Y-67217676D02*
X155931547Y-67312914D01*
X155931547Y-67312914D02*
X155979166Y-67503390D01*
X155979166Y-67503390D02*
X155979166Y-67646247D01*
X155979166Y-67646247D02*
X155931547Y-67836723D01*
X155931547Y-67836723D02*
X155883928Y-67931961D01*
X155883928Y-67931961D02*
X155788690Y-68027200D01*
X155788690Y-68027200D02*
X155645833Y-68074819D01*
X155645833Y-68074819D02*
X155407738Y-68074819D01*
D11*
X154222024Y-66163855D02*
X154222024Y-65363855D01*
X154222024Y-65363855D02*
X154412500Y-65363855D01*
X154412500Y-65363855D02*
X154526786Y-65401950D01*
X154526786Y-65401950D02*
X154602976Y-65478140D01*
X154602976Y-65478140D02*
X154641071Y-65554331D01*
X154641071Y-65554331D02*
X154679167Y-65706712D01*
X154679167Y-65706712D02*
X154679167Y-65820998D01*
X154679167Y-65820998D02*
X154641071Y-65973379D01*
X154641071Y-65973379D02*
X154602976Y-66049569D01*
X154602976Y-66049569D02*
X154526786Y-66125760D01*
X154526786Y-66125760D02*
X154412500Y-66163855D01*
X154412500Y-66163855D02*
X154222024Y-66163855D01*
X155441071Y-66163855D02*
X154983928Y-66163855D01*
X155212500Y-66163855D02*
X155212500Y-65363855D01*
X155212500Y-65363855D02*
X155136309Y-65478140D01*
X155136309Y-65478140D02*
X155060119Y-65554331D01*
X155060119Y-65554331D02*
X154983928Y-65592426D01*
D10*
X159602236Y-47954819D02*
X159602236Y-46954819D01*
X159602236Y-46954819D02*
X159935569Y-47669104D01*
X159935569Y-47669104D02*
X160268902Y-46954819D01*
X160268902Y-46954819D02*
X160268902Y-47954819D01*
X160887950Y-47954819D02*
X160792712Y-47907200D01*
X160792712Y-47907200D02*
X160745093Y-47859580D01*
X160745093Y-47859580D02*
X160697474Y-47764342D01*
X160697474Y-47764342D02*
X160697474Y-47478628D01*
X160697474Y-47478628D02*
X160745093Y-47383390D01*
X160745093Y-47383390D02*
X160792712Y-47335771D01*
X160792712Y-47335771D02*
X160887950Y-47288152D01*
X160887950Y-47288152D02*
X161030807Y-47288152D01*
X161030807Y-47288152D02*
X161126045Y-47335771D01*
X161126045Y-47335771D02*
X161173664Y-47383390D01*
X161173664Y-47383390D02*
X161221283Y-47478628D01*
X161221283Y-47478628D02*
X161221283Y-47764342D01*
X161221283Y-47764342D02*
X161173664Y-47859580D01*
X161173664Y-47859580D02*
X161126045Y-47907200D01*
X161126045Y-47907200D02*
X161030807Y-47954819D01*
X161030807Y-47954819D02*
X160887950Y-47954819D01*
X162078426Y-47288152D02*
X162078426Y-47954819D01*
X161649855Y-47288152D02*
X161649855Y-47811961D01*
X161649855Y-47811961D02*
X161697474Y-47907200D01*
X161697474Y-47907200D02*
X161792712Y-47954819D01*
X161792712Y-47954819D02*
X161935569Y-47954819D01*
X161935569Y-47954819D02*
X162030807Y-47907200D01*
X162030807Y-47907200D02*
X162078426Y-47859580D01*
X162554617Y-47288152D02*
X162554617Y-47954819D01*
X162554617Y-47383390D02*
X162602236Y-47335771D01*
X162602236Y-47335771D02*
X162697474Y-47288152D01*
X162697474Y-47288152D02*
X162840331Y-47288152D01*
X162840331Y-47288152D02*
X162935569Y-47335771D01*
X162935569Y-47335771D02*
X162983188Y-47431009D01*
X162983188Y-47431009D02*
X162983188Y-47954819D01*
X163316522Y-47288152D02*
X163697474Y-47288152D01*
X163459379Y-46954819D02*
X163459379Y-47811961D01*
X163459379Y-47811961D02*
X163506998Y-47907200D01*
X163506998Y-47907200D02*
X163602236Y-47954819D01*
X163602236Y-47954819D02*
X163697474Y-47954819D01*
X164030808Y-47954819D02*
X164030808Y-47288152D01*
X164030808Y-46954819D02*
X163983189Y-47002438D01*
X163983189Y-47002438D02*
X164030808Y-47050057D01*
X164030808Y-47050057D02*
X164078427Y-47002438D01*
X164078427Y-47002438D02*
X164030808Y-46954819D01*
X164030808Y-46954819D02*
X164030808Y-47050057D01*
X164506998Y-47288152D02*
X164506998Y-47954819D01*
X164506998Y-47383390D02*
X164554617Y-47335771D01*
X164554617Y-47335771D02*
X164649855Y-47288152D01*
X164649855Y-47288152D02*
X164792712Y-47288152D01*
X164792712Y-47288152D02*
X164887950Y-47335771D01*
X164887950Y-47335771D02*
X164935569Y-47431009D01*
X164935569Y-47431009D02*
X164935569Y-47954819D01*
X165840331Y-47288152D02*
X165840331Y-48097676D01*
X165840331Y-48097676D02*
X165792712Y-48192914D01*
X165792712Y-48192914D02*
X165745093Y-48240533D01*
X165745093Y-48240533D02*
X165649855Y-48288152D01*
X165649855Y-48288152D02*
X165506998Y-48288152D01*
X165506998Y-48288152D02*
X165411760Y-48240533D01*
X165840331Y-47907200D02*
X165745093Y-47954819D01*
X165745093Y-47954819D02*
X165554617Y-47954819D01*
X165554617Y-47954819D02*
X165459379Y-47907200D01*
X165459379Y-47907200D02*
X165411760Y-47859580D01*
X165411760Y-47859580D02*
X165364141Y-47764342D01*
X165364141Y-47764342D02*
X165364141Y-47478628D01*
X165364141Y-47478628D02*
X165411760Y-47383390D01*
X165411760Y-47383390D02*
X165459379Y-47335771D01*
X165459379Y-47335771D02*
X165554617Y-47288152D01*
X165554617Y-47288152D02*
X165745093Y-47288152D01*
X165745093Y-47288152D02*
X165840331Y-47335771D01*
X166316522Y-47954819D02*
X166316522Y-46954819D01*
X166316522Y-47431009D02*
X166887950Y-47431009D01*
X166887950Y-47954819D02*
X166887950Y-46954819D01*
X167506998Y-47954819D02*
X167411760Y-47907200D01*
X167411760Y-47907200D02*
X167364141Y-47859580D01*
X167364141Y-47859580D02*
X167316522Y-47764342D01*
X167316522Y-47764342D02*
X167316522Y-47478628D01*
X167316522Y-47478628D02*
X167364141Y-47383390D01*
X167364141Y-47383390D02*
X167411760Y-47335771D01*
X167411760Y-47335771D02*
X167506998Y-47288152D01*
X167506998Y-47288152D02*
X167649855Y-47288152D01*
X167649855Y-47288152D02*
X167745093Y-47335771D01*
X167745093Y-47335771D02*
X167792712Y-47383390D01*
X167792712Y-47383390D02*
X167840331Y-47478628D01*
X167840331Y-47478628D02*
X167840331Y-47764342D01*
X167840331Y-47764342D02*
X167792712Y-47859580D01*
X167792712Y-47859580D02*
X167745093Y-47907200D01*
X167745093Y-47907200D02*
X167649855Y-47954819D01*
X167649855Y-47954819D02*
X167506998Y-47954819D01*
X168411760Y-47954819D02*
X168316522Y-47907200D01*
X168316522Y-47907200D02*
X168268903Y-47811961D01*
X168268903Y-47811961D02*
X168268903Y-46954819D01*
X169173665Y-47907200D02*
X169078427Y-47954819D01*
X169078427Y-47954819D02*
X168887951Y-47954819D01*
X168887951Y-47954819D02*
X168792713Y-47907200D01*
X168792713Y-47907200D02*
X168745094Y-47811961D01*
X168745094Y-47811961D02*
X168745094Y-47431009D01*
X168745094Y-47431009D02*
X168792713Y-47335771D01*
X168792713Y-47335771D02*
X168887951Y-47288152D01*
X168887951Y-47288152D02*
X169078427Y-47288152D01*
X169078427Y-47288152D02*
X169173665Y-47335771D01*
X169173665Y-47335771D02*
X169221284Y-47431009D01*
X169221284Y-47431009D02*
X169221284Y-47526247D01*
X169221284Y-47526247D02*
X168745094Y-47621485D01*
X163626046Y-43754819D02*
X163626046Y-42754819D01*
X163626046Y-43231009D02*
X164197474Y-43231009D01*
X164197474Y-43754819D02*
X164197474Y-42754819D01*
X165197474Y-43754819D02*
X164626046Y-43754819D01*
X164911760Y-43754819D02*
X164911760Y-42754819D01*
X164911760Y-42754819D02*
X164816522Y-42897676D01*
X164816522Y-42897676D02*
X164721284Y-42992914D01*
X164721284Y-42992914D02*
X164626046Y-43040533D01*
D14*
G04 #@! TO.C,R6*
X148225000Y-67457500D02*
X149825000Y-67457500D01*
X148225000Y-70657500D02*
X148225000Y-67457500D01*
X149825000Y-67457500D02*
X149825000Y-70657500D01*
X149825000Y-70657500D02*
X148225000Y-70657500D01*
G04 #@! TO.C,J6*
X168875000Y-57370000D02*
X161525000Y-57370000D01*
X161525000Y-48430000D01*
X168875000Y-48430000D01*
X168875000Y-57370000D01*
G04 #@! TO.C,R3*
X148225000Y-73157500D02*
X149825000Y-73157500D01*
X148225000Y-76357500D02*
X148225000Y-73157500D01*
X149825000Y-73157500D02*
X149825000Y-76357500D01*
X149825000Y-76357500D02*
X148225000Y-76357500D01*
D15*
G04 #@! TO.C,U2*
X153000000Y-68750000D02*
X153000000Y-73850000D01*
X153000000Y-68750000D02*
X157000000Y-68750000D01*
X153000000Y-73850000D02*
X157000000Y-73850000D01*
X157000000Y-68750000D02*
X157000000Y-73850000D01*
D16*
X150655000Y-68795000D02*
G75*
G02*
X150455000Y-68795000I-100000J0D01*
G01*
X150455000Y-68795000D02*
G75*
G02*
X150655000Y-68795000I100000J0D01*
G01*
D14*
G04 #@! TO.C,J1*
X131500000Y-63200000D02*
X142500000Y-63200000D01*
X131500000Y-67200000D02*
X131500000Y-63200000D01*
X142500000Y-63200000D02*
X143500000Y-64200000D01*
X143500000Y-64200000D02*
X143500000Y-67200000D01*
X143500000Y-67200000D02*
X131500000Y-67200000D01*
G04 #@! TO.C,SW1*
X113600000Y-41500000D02*
X119100000Y-41500000D01*
X113600000Y-43500000D02*
X113600000Y-41500000D01*
X119100000Y-41500000D02*
X119600000Y-42000000D01*
X119600000Y-42000000D02*
X119600000Y-43500000D01*
X119600000Y-43500000D02*
X113600000Y-43500000D01*
G04 #@! TO.C,R13*
X152800000Y-53072500D02*
X154400000Y-53072500D01*
X152800000Y-56272500D02*
X152800000Y-53072500D01*
X154400000Y-53072500D02*
X154400000Y-56272500D01*
X154400000Y-56272500D02*
X152800000Y-56272500D01*
G04 #@! TO.C,D2*
X153112500Y-61700000D02*
X153112500Y-62900000D01*
X153112500Y-62900000D02*
X156312500Y-62900000D01*
X153512499Y-61300000D02*
X153112500Y-61700000D01*
X156312500Y-61300000D02*
X153512499Y-61300000D01*
X156312500Y-62900000D02*
X156312500Y-61300000D01*
G04 #@! TO.C,R11*
X142537500Y-59600000D02*
X145737500Y-59600000D01*
X142537500Y-61200000D02*
X142537500Y-59600000D01*
X145737500Y-59600000D02*
X145737500Y-61200000D01*
X145737500Y-61200000D02*
X142537500Y-61200000D01*
G04 #@! TO.C,D3*
X141199999Y-73030000D02*
X141200000Y-82530000D01*
X141199999Y-81205000D02*
X146400001Y-81205000D01*
X141200000Y-81005000D02*
X146400000Y-81005000D01*
X141200000Y-81105000D02*
X146400000Y-81105000D01*
X141200000Y-82530000D02*
X146400000Y-82530000D01*
X143800000Y-70160000D02*
X143800000Y-73030000D01*
X143800000Y-85400000D02*
X143800000Y-82530001D01*
X146400000Y-82530000D02*
X146400001Y-73030000D01*
X146400001Y-73030000D02*
X141199999Y-73030000D01*
G04 #@! TO.C,R12*
X140937500Y-56900000D02*
X144137500Y-56900000D01*
X140937500Y-58500000D02*
X140937500Y-56900000D01*
X144137500Y-56900000D02*
X144137500Y-58500000D01*
X144137500Y-58500000D02*
X140937500Y-58500000D01*
G04 #@! TO.C,R9*
X131637500Y-53600000D02*
X134837500Y-53600000D01*
X131637500Y-55200000D02*
X131637500Y-53600000D01*
X134837500Y-53600000D02*
X134837500Y-55200000D01*
X134837500Y-55200000D02*
X131637500Y-55200000D01*
G04 #@! TO.C,Q1*
X127312499Y-65074999D02*
X127637499Y-64750000D01*
X127312499Y-67650000D02*
X127312499Y-65074999D01*
X127637499Y-64750000D02*
X128612499Y-64750000D01*
X128612499Y-64750000D02*
X128612499Y-67650000D01*
X128612499Y-67650000D02*
X127312499Y-67650000D01*
G04 #@! TO.C,C6*
X156605000Y-54272500D02*
X158205000Y-54272500D01*
X156605000Y-57472500D02*
X156605000Y-54272500D01*
X158205000Y-54272500D02*
X158205000Y-57472500D01*
X158205000Y-57472500D02*
X156605000Y-57472500D01*
G04 #@! TO.C,C4*
X117637500Y-51100000D02*
X120837500Y-51100000D01*
X117637500Y-52700000D02*
X117637500Y-51100000D01*
X120837500Y-51100000D02*
X120837500Y-52700000D01*
X120837500Y-52700000D02*
X117637500Y-52700000D01*
G04 #@! TO.C,R2*
X159600000Y-66162500D02*
X161200000Y-66162500D01*
X159600000Y-69362500D02*
X159600000Y-66162500D01*
X161200000Y-66162500D02*
X161200000Y-69362500D01*
X161200000Y-69362500D02*
X159600000Y-69362500D01*
G04 #@! TO.C,J2*
X148430000Y-54325000D02*
X149065000Y-53690000D01*
X148430000Y-58770000D02*
X148430000Y-54325000D01*
X149065000Y-53690000D02*
X150970000Y-53690000D01*
X150970000Y-53690000D02*
X150970000Y-58770000D01*
X150970000Y-58770000D02*
X148430000Y-58770000D01*
G04 #@! TO.C,J5*
X114929999Y-73650000D02*
X117470001Y-73650000D01*
X114930000Y-80635000D02*
X114929999Y-73650000D01*
X115565000Y-81270000D02*
X114930000Y-80635000D01*
X117470000Y-81270000D02*
X115565000Y-81270000D01*
X117470001Y-73650000D02*
X117470000Y-81270000D01*
G04 #@! TO.C,R5*
X125337500Y-47000000D02*
X128537500Y-47000000D01*
X125337500Y-48600000D02*
X125337500Y-47000000D01*
X128537500Y-47000000D02*
X128537500Y-48600000D01*
X128537500Y-48600000D02*
X125337500Y-48600000D01*
G04 #@! TO.C,R10*
X143237500Y-54100000D02*
X146437500Y-54100000D01*
X143237500Y-55700000D02*
X143237500Y-54100000D01*
X146437500Y-54100000D02*
X146437500Y-55700000D01*
X146437500Y-55700000D02*
X143237500Y-55700000D01*
G04 #@! TO.C,J3*
X149130000Y-84570000D02*
X151670000Y-84570000D01*
X149130000Y-85830000D02*
X149130000Y-84570000D01*
X151670000Y-84570000D02*
X151670000Y-85830000D01*
X151670000Y-85830000D02*
X149130000Y-85830000D01*
G04 #@! TO.C,R4*
X165100000Y-68662500D02*
X166700000Y-68662500D01*
X165100000Y-71862500D02*
X165100000Y-68662500D01*
X166700000Y-68662500D02*
X166700000Y-71862500D01*
X166700000Y-71862500D02*
X165100000Y-71862500D01*
G04 #@! TO.C,R1*
X112500000Y-45937500D02*
X114100000Y-45937500D01*
X112500000Y-49137500D02*
X112500000Y-45937500D01*
X114100000Y-45937500D02*
X114100000Y-49137500D01*
X114100000Y-49137500D02*
X112500000Y-49137500D01*
G04 #@! TO.C,C1*
X154362500Y-74795000D02*
X157562500Y-74795000D01*
X154362500Y-76395000D02*
X154362500Y-74795000D01*
X157562500Y-74795000D02*
X157562500Y-76395000D01*
X157562500Y-76395000D02*
X154362500Y-76395000D01*
G04 #@! TO.C,C2*
X124300000Y-40962500D02*
X125900000Y-40962500D01*
X124300000Y-44162500D02*
X124300000Y-40962500D01*
X125900000Y-40962500D02*
X125900000Y-44162500D01*
X125900000Y-44162500D02*
X124300000Y-44162500D01*
G04 #@! TO.C,J4*
X155630000Y-84570000D02*
X158170000Y-84570000D01*
X155630000Y-85830000D02*
X155630000Y-84570000D01*
X158170000Y-84570000D02*
X158170000Y-85830000D01*
X158170000Y-85830000D02*
X155630000Y-85830000D01*
G04 #@! TO.C,R7*
X162300000Y-66162500D02*
X163900000Y-66162500D01*
X162300000Y-69362500D02*
X162300000Y-66162500D01*
X163900000Y-66162500D02*
X163900000Y-69362500D01*
X163900000Y-69362500D02*
X162300000Y-69362500D01*
G04 #@! TO.C,C3*
X127500000Y-40962500D02*
X129100000Y-40962500D01*
X127500000Y-44162500D02*
X127500000Y-40962500D01*
X129100000Y-40962500D02*
X129100000Y-44162500D01*
X129100000Y-44162500D02*
X127500000Y-44162500D01*
G04 #@! TO.C,C5*
X121700000Y-46037500D02*
X123300000Y-46037500D01*
X121700000Y-49237500D02*
X121700000Y-46037500D01*
X123300000Y-46037500D02*
X123300000Y-49237500D01*
X123300000Y-49237500D02*
X121700000Y-49237500D01*
G04 #@! TO.C,U1*
X117700001Y-46837500D02*
X120600001Y-46837500D01*
X117700001Y-48037500D02*
X117700001Y-46837500D01*
X118100000Y-48437500D02*
X117700001Y-48037500D01*
X120600001Y-46837500D02*
X120600001Y-48437500D01*
X120600001Y-48437500D02*
X118100000Y-48437500D01*
G04 #@! TO.C,R14*
X156505000Y-46472500D02*
X158105000Y-46472500D01*
X156505000Y-49672500D02*
X156505000Y-46472500D01*
X158105000Y-46472500D02*
X158105000Y-49672500D01*
X158105000Y-49672500D02*
X156505000Y-49672500D01*
G04 #@! TO.C,D1*
X153212500Y-65400000D02*
X153212500Y-66600000D01*
X153212500Y-66600000D02*
X156412500Y-66600000D01*
X153612499Y-65000000D02*
X153212500Y-65400000D01*
X156412500Y-65000000D02*
X153612499Y-65000000D01*
X156412500Y-66600000D02*
X156412500Y-65000000D01*
G04 #@! TD*
M02*
