G04 #@! TF.GenerationSoftware,KiCad,Pcbnew,8.0.8*
G04 #@! TF.CreationDate,2025-07-04T19:36:45+02:00*
G04 #@! TF.ProjectId,LaunchControl,4c61756e-6368-4436-9f6e-74726f6c2e6b,rev?*
G04 #@! TF.SameCoordinates,Original*
G04 #@! TF.FileFunction,OtherDrawing,Comment*
%FSLAX46Y46*%
G04 Gerber Fmt 4.6, Leading zero omitted, Abs format (unit mm)*
G04 Created by KiCad (PCBNEW 8.0.8) date 2025-07-04 19:36:45*
%MOMM*%
%LPD*%
G01*
G04 APERTURE LIST*
%ADD10C,0.100000*%
%ADD11C,0.050000*%
G04 APERTURE END LIST*
D10*
X168526109Y-54614285D02*
X168026109Y-54614285D01*
X168026109Y-54614285D02*
X168026109Y-54423809D01*
X168026109Y-54423809D02*
X168049919Y-54376190D01*
X168049919Y-54376190D02*
X168073728Y-54352380D01*
X168073728Y-54352380D02*
X168121347Y-54328571D01*
X168121347Y-54328571D02*
X168192776Y-54328571D01*
X168192776Y-54328571D02*
X168240395Y-54352380D01*
X168240395Y-54352380D02*
X168264204Y-54376190D01*
X168264204Y-54376190D02*
X168288014Y-54423809D01*
X168288014Y-54423809D02*
X168288014Y-54614285D01*
X168478490Y-53828571D02*
X168502300Y-53852380D01*
X168502300Y-53852380D02*
X168526109Y-53923809D01*
X168526109Y-53923809D02*
X168526109Y-53971428D01*
X168526109Y-53971428D02*
X168502300Y-54042856D01*
X168502300Y-54042856D02*
X168454680Y-54090475D01*
X168454680Y-54090475D02*
X168407061Y-54114285D01*
X168407061Y-54114285D02*
X168311823Y-54138094D01*
X168311823Y-54138094D02*
X168240395Y-54138094D01*
X168240395Y-54138094D02*
X168145157Y-54114285D01*
X168145157Y-54114285D02*
X168097538Y-54090475D01*
X168097538Y-54090475D02*
X168049919Y-54042856D01*
X168049919Y-54042856D02*
X168026109Y-53971428D01*
X168026109Y-53971428D02*
X168026109Y-53923809D01*
X168026109Y-53923809D02*
X168049919Y-53852380D01*
X168049919Y-53852380D02*
X168073728Y-53828571D01*
X168264204Y-53447618D02*
X168288014Y-53376190D01*
X168288014Y-53376190D02*
X168311823Y-53352380D01*
X168311823Y-53352380D02*
X168359442Y-53328571D01*
X168359442Y-53328571D02*
X168430871Y-53328571D01*
X168430871Y-53328571D02*
X168478490Y-53352380D01*
X168478490Y-53352380D02*
X168502300Y-53376190D01*
X168502300Y-53376190D02*
X168526109Y-53423809D01*
X168526109Y-53423809D02*
X168526109Y-53614285D01*
X168526109Y-53614285D02*
X168026109Y-53614285D01*
X168026109Y-53614285D02*
X168026109Y-53447618D01*
X168026109Y-53447618D02*
X168049919Y-53399999D01*
X168049919Y-53399999D02*
X168073728Y-53376190D01*
X168073728Y-53376190D02*
X168121347Y-53352380D01*
X168121347Y-53352380D02*
X168168966Y-53352380D01*
X168168966Y-53352380D02*
X168216585Y-53376190D01*
X168216585Y-53376190D02*
X168240395Y-53399999D01*
X168240395Y-53399999D02*
X168264204Y-53447618D01*
X168264204Y-53447618D02*
X168264204Y-53614285D01*
X168264204Y-52733333D02*
X168264204Y-52566666D01*
X168526109Y-52495238D02*
X168526109Y-52733333D01*
X168526109Y-52733333D02*
X168026109Y-52733333D01*
X168026109Y-52733333D02*
X168026109Y-52495238D01*
X168526109Y-52066666D02*
X168026109Y-52066666D01*
X168502300Y-52066666D02*
X168526109Y-52114285D01*
X168526109Y-52114285D02*
X168526109Y-52209523D01*
X168526109Y-52209523D02*
X168502300Y-52257142D01*
X168502300Y-52257142D02*
X168478490Y-52280952D01*
X168478490Y-52280952D02*
X168430871Y-52304761D01*
X168430871Y-52304761D02*
X168288014Y-52304761D01*
X168288014Y-52304761D02*
X168240395Y-52280952D01*
X168240395Y-52280952D02*
X168216585Y-52257142D01*
X168216585Y-52257142D02*
X168192776Y-52209523D01*
X168192776Y-52209523D02*
X168192776Y-52114285D01*
X168192776Y-52114285D02*
X168216585Y-52066666D01*
X168192776Y-51614285D02*
X168597538Y-51614285D01*
X168597538Y-51614285D02*
X168645157Y-51638095D01*
X168645157Y-51638095D02*
X168668966Y-51661904D01*
X168668966Y-51661904D02*
X168692776Y-51709523D01*
X168692776Y-51709523D02*
X168692776Y-51780952D01*
X168692776Y-51780952D02*
X168668966Y-51828571D01*
X168502300Y-51614285D02*
X168526109Y-51661904D01*
X168526109Y-51661904D02*
X168526109Y-51757142D01*
X168526109Y-51757142D02*
X168502300Y-51804761D01*
X168502300Y-51804761D02*
X168478490Y-51828571D01*
X168478490Y-51828571D02*
X168430871Y-51852380D01*
X168430871Y-51852380D02*
X168288014Y-51852380D01*
X168288014Y-51852380D02*
X168240395Y-51828571D01*
X168240395Y-51828571D02*
X168216585Y-51804761D01*
X168216585Y-51804761D02*
X168192776Y-51757142D01*
X168192776Y-51757142D02*
X168192776Y-51661904D01*
X168192776Y-51661904D02*
X168216585Y-51614285D01*
X168502300Y-51185714D02*
X168526109Y-51233333D01*
X168526109Y-51233333D02*
X168526109Y-51328571D01*
X168526109Y-51328571D02*
X168502300Y-51376190D01*
X168502300Y-51376190D02*
X168454680Y-51399999D01*
X168454680Y-51399999D02*
X168264204Y-51399999D01*
X168264204Y-51399999D02*
X168216585Y-51376190D01*
X168216585Y-51376190D02*
X168192776Y-51328571D01*
X168192776Y-51328571D02*
X168192776Y-51233333D01*
X168192776Y-51233333D02*
X168216585Y-51185714D01*
X168216585Y-51185714D02*
X168264204Y-51161904D01*
X168264204Y-51161904D02*
X168311823Y-51161904D01*
X168311823Y-51161904D02*
X168359442Y-51399999D01*
G04 #@! TO.C,J6*
X168875000Y-47900001D02*
X168875000Y-57899999D01*
G04 #@! TO.C,K1*
X118300000Y-68700001D02*
X118300000Y-86300001D01*
X118300000Y-86300001D02*
X139500000Y-86300001D01*
X119300000Y-69700001D02*
X138500000Y-69700001D01*
X119300000Y-85300001D02*
X119300000Y-69700001D01*
X138500000Y-69700001D02*
X138500000Y-85300001D01*
X138500000Y-85300001D02*
X119300000Y-85300001D01*
X139500000Y-86300001D02*
X139500001Y-68700001D01*
X139500001Y-68700001D02*
X118300000Y-68700001D01*
D11*
G04 #@! TO.C,IC2*
X137250000Y-53200000D02*
X140650000Y-53200000D01*
X137250000Y-55700000D02*
X137250000Y-53200000D01*
D10*
X138325000Y-53450000D02*
X139575000Y-53450000D01*
X138325000Y-55450000D02*
X138325000Y-53450000D01*
X139575000Y-53450000D02*
X139575000Y-55450000D01*
X139575000Y-54800000D02*
X138925000Y-55450000D01*
X139575000Y-55450000D02*
X138325000Y-55450000D01*
D11*
X140650000Y-53200000D02*
X140650000Y-55700000D01*
X140650000Y-55700000D02*
X137250000Y-55700000D01*
D10*
G04 #@! TO.C,IC1*
X130650000Y-33950000D02*
X145850000Y-33950000D01*
X130650000Y-52550000D02*
X130650000Y-33950000D01*
X131650000Y-34950000D02*
X144850000Y-34950000D01*
X131650000Y-51550000D02*
X131650000Y-34950000D01*
X144850000Y-34950000D02*
X144850000Y-51550000D01*
X144850000Y-51550000D02*
X131650000Y-51550000D01*
X145850000Y-33950000D02*
X145850000Y-52550000D01*
X145850000Y-52550000D02*
X130650000Y-52550000D01*
G04 #@! TD*
M02*
