M48
; DRILL file {KiCad 8.0.8} date 2025-07-04T19:36:45+0200
; FORMAT={-:-/ absolute / metric / decimal}
; #@! TF.CreationDate,2025-07-04T19:36:45+02:00
; #@! TF.GenerationSoftware,Kicad,Pcbnew,8.0.8
; #@! TF.FileFunction,Plated,1,2,PTH
FMAT,2
METRIC
; #@! TA.AperFunction,Plated,PTH,ViaDrill
T1C0.356
; #@! TA.AperFunction,Plated,PTH,ComponentDrill
T2C0.600
; #@! TA.AperFunction,Plated,PTH,ComponentDrill
T3C0.800
; #@! TA.AperFunction,Plated,PTH,ComponentDrill
T4C1.000
; #@! TA.AperFunction,Plated,PTH,ComponentDrill
T5C1.300
; #@! TA.AperFunction,Plated,PTH,ComponentDrill
T6C1.600
%
G90
G05
T1
X122.9Y-52.5
X123.1Y-41.0
X124.2Y-49.9
X124.7Y-65.7
X127.2Y-71.8
X128.1Y-82.2
X130.0Y-52.2
X131.0Y-49.0
X131.1Y-46.8
X133.6Y-46.9
X133.8Y-49.4
X134.6Y-42.4
X134.7Y-43.8
X134.7Y-45.9
X134.7Y-47.9
X135.3Y-49.4
X136.5Y-42.4
X136.7Y-49.4
X136.7Y-62.4
X136.9Y-53.0
X137.2Y-56.2
X138.2Y-49.4
X138.3Y-60.2
X138.5Y-42.4
X139.3Y-57.8
X139.6Y-49.4
X140.2Y-68.4
X140.6Y-42.4
X141.2Y-49.4
X141.7Y-44.0
X141.7Y-45.9
X141.7Y-48.0
X142.6Y-42.4
X142.6Y-44.9
X142.6Y-46.9
X142.6Y-49.4
X146.4Y-50.9
X152.6Y-75.5
X153.4Y-63.8
X153.6Y-77.7
X154.0Y-83.8
X154.0Y-85.4
X154.0Y-86.9
X155.3Y-82.3
X155.4Y-45.9
X155.7Y-54.5
X155.7Y-58.9
X156.9Y-82.3
X158.0Y-63.9
X158.5Y-82.3
X159.2Y-56.5
X159.4Y-49.2
X159.6Y-48.0
X159.8Y-83.8
X159.8Y-85.5
X159.8Y-86.9
X160.0Y-50.6
X160.0Y-57.2
X160.1Y-55.1
T3
X114.6Y-42.5
X116.6Y-42.5
X118.6Y-42.5
X132.5Y-64.2
X132.5Y-66.2
X134.5Y-64.2
X134.5Y-66.2
X136.5Y-64.2
X136.5Y-66.2
X138.5Y-66.2
X138.5Y-64.2
X140.5Y-64.2
X140.5Y-66.2
X142.5Y-64.2
X142.5Y-66.2
T4
X116.2Y-74.92
X116.2Y-77.46
X116.2Y-80.0
X149.7Y-54.96
X149.7Y-57.5
T5
X122.8Y-71.5
X122.8Y-83.5
X135.0Y-71.5
X135.0Y-83.5
X137.0Y-77.5
T6
X143.8Y-70.16
X143.8Y-85.4
T2
G00X161.545Y-48.58
M15
G01X162.645Y-48.58
M16
G05
G00X161.545Y-57.22
M15
G01X162.645Y-57.22
M16
G05
G00X165.875Y-48.58
M15
G01X166.675Y-48.58
M16
G05
G00X165.875Y-57.22
M15
G01X166.675Y-57.22
M16
G05
M30
